<?xml version="1.0" encoding="utf-8"?>
<!-- Generator: Adobe Illustrator 24.1.0, SVG Export Plug-In . SVG Version: 6.00 Build 0)  -->
<svg version="1.1" id="Layer_1" xmlns="http://www.w3.org/2000/svg" xmlns:xlink="http://www.w3.org/1999/xlink" x="0px" y="0px"
	 viewBox="0 0 512 512" style="enable-background:new 0 0 512 512;" xml:space="preserve">
<style type="text/css">
	.st0{fill:#F7F7F7;}
	.st1{fill:#76923B;}
	.st2{fill:#D2332B;}
</style>
<circle class="st0" cx="256" cy="256" r="256"/>
<g>
	<path class="st1" d="M435.1,73.1C389,27.9,325.7,0,256,0c-22.3,0-87.4,27.9-133.6,73.1H435.1z"/>
	<path class="st1" d="M256,219.4h253.4c-3.7-25.8-11.2-50.4-22-73.1H244.9L256,219.4z"/>
	<path class="st1" d="M24.7,365.7h462.7c10.8-22.7,18.3-47.3,22-73.1H2.6C6.3,318.4,13.8,343,24.7,365.7z"/>
	<path class="st1" d="M76.9,438.9C123,484.1,186.3,512,256,512s133-27.9,179.1-73.1L76.9,438.9L76.9,438.9z"/>
</g>
<path class="st2" d="M256,0C127,0,20.4,95.4,2.6,219.4H256V0z"/>
<g>
	<polygon class="st0" points="128,196.3 116.9,174 116.9,129.5 144.7,107.2 172.5,129.5 172.5,162.9 183.7,151.7 183.7,174 
		161.4,196.3 	"/>
	<polygon class="st0" points="68.1,128 71.1,137.1 80.6,137.1 72.9,142.7 75.9,151.7 68.1,146.1 60.4,151.7 63.4,142.7 55.7,137.1 
		65.2,137.1 	"/>
	<polygon class="st0" points="90.4,105.7 93.3,114.8 102.9,114.8 95.2,120.4 98.1,129.5 90.4,123.9 82.7,129.5 85.6,120.4 
		77.9,114.8 87.4,114.8 	"/>
	<polygon class="st0" points="112.7,83.5 115.6,92.5 125.1,92.5 117.4,98.2 120.4,107.2 112.7,101.6 104.9,107.2 107.9,98.2 
		100.2,92.5 109.7,92.5 	"/>
	<polygon class="st0" points="221.3,128 218.3,137.1 208.8,137.1 216.5,142.7 213.5,151.7 221.3,146.1 229,151.7 226,142.7 
		233.7,137.1 224.2,137.1 	"/>
	<polygon class="st0" points="199,105.7 196,114.8 186.5,114.8 194.2,120.4 191.3,129.5 199,123.9 206.7,129.5 203.8,120.4 
		211.5,114.8 201.9,114.8 	"/>
	<polygon class="st0" points="176.7,83.5 173.8,92.5 164.3,92.5 172,98.2 169,107.2 176.7,101.6 184.4,107.2 181.5,98.2 189.2,92.5 
		179.7,92.5 	"/>
	<polygon class="st0" points="144.7,72.3 141.7,81.4 132.2,81.4 139.9,87 137,96.1 144.7,90.5 152.4,96.1 149.5,87 157.2,81.4 
		147.6,81.4 	"/>
</g>
</svg>
