<?xml version="1.0" encoding="utf-8"?>
<!-- Generator: Adobe Illustrator 24.1.0, SVG Export Plug-In . SVG Version: 6.00 Build 0)  -->
<svg version="1.1" id="Layer_1" xmlns="http://www.w3.org/2000/svg" xmlns:xlink="http://www.w3.org/1999/xlink" x="0px" y="0px"
	 viewBox="0 0 512 512" style="enable-background:new 0 0 512 512;" xml:space="preserve">
<style type="text/css">
	.st0{fill:#D2332B;}
	.st1{fill:#1E2834;}
	.st2{fill:#76923B;}
	.st3{fill:#FECF0A;}
</style>
<path class="st0" d="M367.3,25.4C333.6,9.1,295.9,0,256,0s-77.6,9.1-111.3,25.4L122.4,256l22.3,230.6C178.4,502.9,216.1,512,256,512
	s77.6-9.1,111.3-25.4L389.6,256L367.3,25.4z"/>
<path class="st1" d="M144.7,25.4C59.1,66.8,0,154.5,0,256s59.1,189.2,144.7,230.6V25.4z"/>
<path class="st2" d="M367.3,25.4v461.2C452.9,445.2,512,357.5,512,256S452.9,66.8,367.3,25.4z"/>
<g>
	<path class="st3" d="M256,167c-49.2,0-89,39.9-89,89s39.9,89,89,89s89-39.9,89-89S305.2,167,256,167z M256,311.7
		c-30.7,0-55.7-24.9-55.7-55.7s24.9-55.7,55.7-55.7s55.7,24.9,55.7,55.7S286.7,311.7,256,311.7z"/>
	<path class="st3" d="M256,222.6c-12.3,0-22.3,10-22.3,22.3v33.4h44.5v-33.4C278.3,232.6,268.3,222.6,256,222.6z"/>
</g>
</svg>
