<?xml version="1.0" encoding="utf-8"?>
<!-- Generator: Adobe Illustrator 24.1.0, SVG Export Plug-In . SVG Version: 6.00 Build 0)  -->
<svg version="1.1" id="Layer_1" xmlns="http://www.w3.org/2000/svg" xmlns:xlink="http://www.w3.org/1999/xlink" x="0px" y="0px"
	 viewBox="0 0 512 512" style="enable-background:new 0 0 512 512;" xml:space="preserve">
<style type="text/css">
	.st0{fill:#D2332B;}
	.st1{fill:#1E2834;}
</style>
<circle class="st0" cx="256" cy="256" r="256"/>
<path class="st1" d="M400.7,190H308c5.7-6,9.2-14.1,9.2-23.1c0-18.4-15-33.4-33.4-33.4c-11.6,0-21.8,5.9-27.8,14.9
	c-6-9-16.2-14.9-27.8-14.9c-18.4,0-33.4,14.9-33.4,33.4c0,8.9,3.5,17.1,9.2,23.1h-92.7c0,24.6,21.4,44.5,46,44.5h-1.5
	c0,24.6,19.9,44.5,44.5,44.5c0,8,2.1,15.4,5.8,21.9l-36.9,36.9l28.3,28.3l40.2-40.2c1.6,0.6,3.2,1,4.9,1.4l-24.3,54.8L256,423
	l37.7-40.8l-24.3-54.8c1.7-0.3,3.3-0.8,4.9-1.4l40.2,40.2l28.3-28.3l-36.9-36.9c3.7-6.5,5.8-13.9,5.8-21.9
	c24.6,0,44.5-19.9,44.5-44.5h-1.5C379.3,234.5,400.7,214.6,400.7,190z"/>
</svg>
