<?xml version="1.0" encoding="utf-8"?>
<!-- Generator: Adobe Illustrator 24.1.0, SVG Export Plug-In . SVG Version: 6.00 Build 0)  -->
<svg version="1.1" id="Layer_1" xmlns="http://www.w3.org/2000/svg" xmlns:xlink="http://www.w3.org/1999/xlink" x="0px" y="0px"
	 viewBox="0 0 512 512" style="enable-background:new 0 0 512 512;" xml:space="preserve">
<style type="text/css">
	.st0{fill:#F7F7F7;}
	.st1{fill:#76923B;}
	.st2{fill:#D2332B;}
</style>
<path class="st0" d="M256,0c141.4,0,256,114.6,256,256S397.4,512,256,512c0-11.1-33.4-256-33.4-256L256,0z"/>
<path class="st1" d="M256,512C114.6,512,0,397.4,0,256S114.6,0,256,0"/>
<g>
	<polygon class="st2" points="311,206.9 290,235.8 256,224.8 277,253.7 256,282.7 290,271.6 311.1,300.5 311,264.8 345,253.7 
		311,242.7 	"/>
	<path class="st2" d="M277.2,328.3c-40,0-72.3-32.4-72.3-72.3s32.4-72.3,72.3-72.3c12.5,0,24.2,3.1,34.4,8.7
		c-16.1-15.7-38-25.4-62.2-25.4c-49.2,0-89,39.9-89,89s39.9,89,89,89c24.2,0,46.2-9.7,62.2-25.4
		C301.4,325.2,289.7,328.3,277.2,328.3z"/>
</g>
</svg>
