<?xml version="1.0" encoding="utf-8"?>
<!-- Generator: Adobe Illustrator 24.1.0, SVG Export Plug-In . SVG Version: 6.00 Build 0)  -->
<svg version="1.1" id="Layer_1" xmlns="http://www.w3.org/2000/svg" xmlns:xlink="http://www.w3.org/1999/xlink" x="0px" y="0px"
	 viewBox="0 0 512 512" style="enable-background:new 0 0 512 512;" xml:space="preserve">
<style type="text/css">
	.st0{fill:#FECF0A;}
	.st1{fill:#D2332B;}
	.st2{fill:#006289;}
	.st3{fill:#F89341;}
</style>
<path class="st0" d="M144.7,486.6C178.4,502.9,216.1,512,256,512s77.6-9.1,111.3-25.4L389.6,256L367.3,25.4C333.6,9.1,295.9,0,256,0
	s-77.6,9.1-111.3,25.4L122.4,256L144.7,486.6z"/>
<path class="st1" d="M367.3,486.6C452.9,445.2,512,357.5,512,256S452.9,66.8,367.3,25.4V486.6z"/>
<path class="st2" d="M144.7,486.6V25.4C59.1,66.8,0,154.5,0,256S59.1,445.2,144.7,486.6z"/>
<g>
	<path class="st1" d="M256,345c0-40.9,0-89,0-89h66.8v33.4c0,5.8-11.1,27.1-38.6,44.5C273.8,340.5,263,342.7,256,345z"/>
	<rect x="189.2" y="189.2" class="st1" width="66.8" height="66.8"/>
</g>
<path class="st3" d="M289.4,167c0-12.3-10-22.3-22.3-22.3c-4.1,0-7.9,1.1-11.1,3c-3.3-1.9-7.1-3-11.1-3c-12.3,0-22.3,10-22.3,22.3
	H167v111.3c0,41.4,32.9,65.4,58.7,77.8c-1.9,3.3-3.1,7.1-3.1,11.2c0,12.3,10,22.3,22.3,22.3c4.1,0,7.9-1.1,11.1-3
	c3.3,1.9,7.1,3,11.1,3c12.3,0,22.3-10,22.3-22.3c0-4.1-1.1-7.9-3.1-11.2c25.8-12.4,58.7-36.4,58.7-77.8V167H289.4z M311.7,278.3
	c0,5.8,0,23.5-27.5,40.9c-10.4,6.6-21.2,10.9-28.2,13.3c-7-2.4-17.8-6.7-28.2-13.3c-27.5-17.5-27.5-35.1-27.5-40.9v-77.9h111.3
	V278.3z"/>
</svg>
