<?xml version="1.0" encoding="utf-8"?>
<!-- Generator: Adobe Illustrator 24.1.0, SVG Export Plug-In . SVG Version: 6.00 Build 0)  -->
<svg version="1.1" id="Layer_1" xmlns="http://www.w3.org/2000/svg" xmlns:xlink="http://www.w3.org/1999/xlink" x="0px" y="0px"
	 viewBox="0 0 512 512" style="enable-background:new 0 0 512 512;" xml:space="preserve">
<style type="text/css">
	.st0{fill:#D2332B;}
	.st1{fill:#1E2834;}
	.st2{fill:#FECF0A;}
</style>
<path class="st0" d="M0,256C0,114.6,114.6,0,256,0s256,114.6,256,256c-11.1,0-256,33.4-256,33.4L0,256z"/>
<path class="st1" d="M512,256c0,141.4-114.6,256-256,256S0,397.4,0,256"/>
<g>
	<polygon class="st2" points="220.9,203.6 242.6,219.4 234.3,244.9 256,229.1 277.7,244.8 269.4,219.3 291.1,203.6 264.3,203.6 
		256,178.1 247.7,203.6 	"/>
	<path class="st2" d="M320,145.1c-20.2-11.6-42.2-17.1-64-17.1v33.4c16.1,0,32.4,4,47.3,12.6c45.2,26.1,60.7,84.1,34.6,129.2
		c-26.1,45.2-84.1,60.7-129.2,34.6c-13.2-7.6-23.8-17.9-31.6-29.8l-27.9,18.4c10.6,16.1,25,30.1,42.8,40.3
		c61.1,35.3,139.6,14.3,174.9-46.9C402.1,258.9,381.1,180.4,320,145.1z"/>
	<path class="st2" d="M182.2,233.7c-8.9,16.2-2.9,36.5,13.3,45.3l108.4,59.3c-7.4,13.5-3.5,29.9,10,37.3l29.3,16
		c13.5,7.4,30.4,2.4,37.8-11.1l16-29.3L182.2,233.7z"/>
</g>
</svg>
