<?xml version="1.0" encoding="utf-8"?>
<!-- Generator: Adobe Illustrator 24.1.0, SVG Export Plug-In . SVG Version: 6.00 Build 0)  -->
<svg version="1.1" id="Layer_1" xmlns="http://www.w3.org/2000/svg" xmlns:xlink="http://www.w3.org/1999/xlink" x="0px" y="0px"
	 viewBox="0 0 512 512" style="enable-background:new 0 0 512 512;" xml:space="preserve">
<style type="text/css">
	.st0{fill:#006289;}
	.st1{fill:#F7F7F7;}
	.st2{fill:#D2332B;}
	.st3{fill:#496E2D;}
	.st4{fill:#F89341;}
	.st5{fill:#12B2D9;}
</style>
<path class="st0" d="M512,256c0,141.4-114.6,256-256,256S0,397.4,0,256C0,256.1,256,0,256,0C397.4,0,512,114.6,512,256z"/>
<g>
	<path class="st1" d="M256,0C256,0,256,0,256,0L256,0L256,0z"/>
	<path class="st1" d="M255.3,256h0.7c0-0.2,0-0.5,0-0.7C255.8,255.5,255.5,255.8,255.3,256z"/>
	<path class="st1" d="M256,133.6c0-45,0-74.6,0-133.6h0C114.6,0,0,114.6,0,256h133.6v-75.2l75.2,75.2h46.5c0.2-0.2,0.5-0.5,0.7-0.7
		c0-17.2,0-32.6,0-46.5l-75.2-75.2H256z"/>
</g>
<g>
	<path class="st2" d="M129.5,33.4c-40,22.8-73.3,56.1-96.1,96.1V256h66.8V100.2v0H256c0-21.1,0-41.1,0-66.8
		C256,33.4,129.5,33.4,129.5,33.4z"/>
	<path class="st2" d="M256,224.5l-91-91h-31.5v0L256,256h0C256,256,256,234.3,256,224.5z"/>
</g>
<g>
	<path class="st3" d="M445.2,256L445.2,256L445.2,256z"/>
	<path class="st3" d="M289.4,256L289.4,256L289.4,256z"/>
</g>
<path class="st1" d="M432.9,293.5c7.4-10.1,12.3-22.5,12.3-37.5V144.7c-9.3,7-20.9,11.1-33.4,11.1c-18.2,0-34.4-8.7-44.5-22.3
	c-10.2,13.5-26.3,22.3-44.5,22.3c-12.5,0-24.1-4.1-33.4-11.1V256c0,15,4.9,27.3,12.3,37.5H432.9z"/>
<g>
	<path class="st4" d="M409.8,235.4c3.5-8.6,6.3-21.3,6.3-27.6c0-10.1-13.2-18.3-13.2-18.3s-13.2,8.2-13.2,18.3
		c0,6.3,2.8,18.9,6.3,27.6l-7.6,17.2c4.5,1.8,9.4,2.8,14.5,2.8s10-1,14.5-2.8L409.8,235.4z"/>
	<path class="st4" d="M358.3,179.8c-9.3,1.3-21.6,5.2-27,8.3c-8.8,5.1-9.3,20.6-9.3,20.6s13.7,7.3,22.4,2.3
		c5.4-3.1,15-11.8,20.7-19.2l18.7-2c-0.7-4.8-2.2-9.5-4.8-14c-2.6-4.4-5.9-8.2-9.7-11.1L358.3,179.8z"/>
	<path class="st4" d="M335.9,252.1c5.7,7.4,15.3,16.1,20.7,19.2c8.8,5.1,22.4-2.3,22.4-2.3s-0.5-15.5-9.3-20.6
		c-5.4-3.1-17.8-7.1-27-8.3l-11.1-15.2c-3.8,3-7.1,6.7-9.7,11.1c-2.6,4.4-4.1,9.2-4.8,14L335.9,252.1z"/>
</g>
<path class="st5" d="M298.9,289.4c20.8,33.4,68.4,44.5,68.4,44.5s47.6-11.2,68.4-44.5H298.9z"/>
</svg>
