<?xml version="1.0" encoding="utf-8"?>
<!-- Generator: Adobe Illustrator 24.1.0, SVG Export Plug-In . SVG Version: 6.00 Build 0)  -->
<svg version="1.1" id="Layer_1" xmlns="http://www.w3.org/2000/svg" xmlns:xlink="http://www.w3.org/1999/xlink" x="0px" y="0px"
	 viewBox="0 0 512 512" style="enable-background:new 0 0 512 512;" xml:space="preserve">
<style type="text/css">
	.st0{fill:#F7F7F7;}
	.st1{fill:#0C8DB0;}
	.st2{fill:#FECF0A;}
</style>
<circle class="st0" cx="256" cy="256" r="256"/>
<g>
	<path class="st1" d="M256,0C154.5,0,66.8,59.1,25.4,144.7h461.2C445.2,59.1,357.5,0,256,0z"/>
	<path class="st1" d="M256,512c101.5,0,189.2-59.1,230.6-144.7H25.4C66.8,452.9,154.5,512,256,512z"/>
</g>
<polygon class="st2" points="332.5,256 301.2,270.7 317.9,301 283.9,294.5 279.6,328.8 256,303.6 232.4,328.8 228.1,294.5 
	194.1,301 210.7,270.7 179.5,256 210.8,241.3 194.1,211 228.1,217.5 232.4,183.2 256,208.4 279.6,183.2 283.9,217.5 317.9,211 
	301.3,241.3 "/>
</svg>
