<?xml version="1.0" encoding="utf-8"?>
<!-- Generator: Adobe Illustrator 24.1.0, SVG Export Plug-In . SVG Version: 6.00 Build 0)  -->
<svg version="1.1" id="Layer_1" xmlns="http://www.w3.org/2000/svg" xmlns:xlink="http://www.w3.org/1999/xlink" x="0px" y="0px"
	 viewBox="0 0 512 512" style="enable-background:new 0 0 512 512;" xml:space="preserve">
<style type="text/css">
	.st0{fill:#FECF0A;}
	.st1{fill:#0C8DB0;}
	.st2{fill:#F7F7F7;}
	.st3{fill:#D2332B;}
</style>
<circle class="st0" cx="256" cy="256" r="256"/>
<g>
	<path class="st1" d="M256,512c77.6,0,147.1-34.5,194.1-89H61.9C108.9,477.5,178.4,512,256,512z"/>
	<path class="st1" d="M512,256C512,114.6,397.4,0,256,0S0,114.6,0,256c0,23.1,3.1,45.5,8.8,66.8h494.4
		C508.9,301.5,512,279.1,512,256z"/>
	<path class="st1" d="M20.3,356.2c4.9,11.6,10.7,22.7,17.2,33.4h436.9c6.5-10.6,12.3-21.8,17.2-33.4H20.3z"/>
</g>
<polygon class="st2" points="117.3,161.5 67.3,139.4 117.3,117.3 139.4,67.3 161.5,117.3 211.5,139.4 161.5,161.5 139.4,211.5 "/>
<polygon class="st3" points="139.4,94.9 153,125.8 183.9,139.4 153,153 139.4,183.9 125.8,153 94.9,139.4 125.8,125.8 "/>
</svg>
