<?xml version="1.0" encoding="utf-8"?>
<!-- Generator: Adobe Illustrator 24.1.0, SVG Export Plug-In . SVG Version: 6.00 Build 0)  -->
<svg version="1.1" id="Layer_1" xmlns="http://www.w3.org/2000/svg" xmlns:xlink="http://www.w3.org/1999/xlink" x="0px" y="0px"
	 viewBox="0 0 512 512" style="enable-background:new 0 0 512 512;" xml:space="preserve">
<style type="text/css">
	.st0{fill:#006289;}
	.st1{fill:#F7F7F7;}
	.st2{fill:#D2332B;}
</style>
<path class="st0" d="M512,256c0,141.4-114.6,256-256,256S0,397.4,0,256C0,256.1,256,0,256,0C397.4,0,512,114.6,512,256z"/>
<g>
	<path class="st1" d="M256,0C256,0,256,0,256,0L256,0L256,0z"/>
	<path class="st1" d="M255.3,256h0.7c0-0.2,0-0.5,0-0.7C255.8,255.5,255.5,255.8,255.3,256z"/>
	<path class="st1" d="M256,133.6c0-45,0-74.6,0-133.6h0C114.6,0,0,114.6,0,256h133.6v-75.2l75.2,75.2h46.5c0.2-0.2,0.5-0.5,0.7-0.7
		c0-17.2,0-32.6,0-46.5l-75.2-75.2L256,133.6L256,133.6z"/>
</g>
<g>
	<path class="st2" d="M129.5,33.4c-40,22.8-73.3,56.1-96.1,96.1V256h66.8V100.2v0H256c0-21.1,0-41.1,0-66.8
		C256,33.4,129.5,33.4,129.5,33.4z"/>
	<path class="st2" d="M256,224.5l-91-91h-31.5c0,0,0,0,0,0L256,256h0C256,256,256,234.3,256,224.5z"/>
</g>
<g>
	<polygon class="st1" points="154.4,300.5 168.4,329.9 200.2,322.6 186,351.9 211.5,372.1 179.7,379.3 179.8,411.8 154.4,391.5 
		129,411.8 129.1,379.3 97.3,372.1 122.8,351.9 108.6,322.6 140.3,329.9 	"/>
	<polygon class="st1" points="383.3,356.2 390.3,370.9 406.2,367.2 399.1,381.8 411.8,392 395.9,395.5 396,411.8 383.3,401.6 
		370.6,411.8 370.6,395.5 354.7,392 367.5,381.8 360.4,367.2 376.3,370.9 	"/>
	<polygon class="st1" points="317.9,200.3 325,215 340.8,211.4 333.7,226 346.5,236.1 330.6,239.7 330.6,256 317.9,245.8 305.2,256 
		305.3,239.7 289.4,236.1 302.1,226 295,211.4 310.9,215 	"/>
	<polygon class="st1" points="383.3,111.3 390.3,126 406.2,122.3 399.1,137 411.8,147.1 395.9,150.7 396,167 383.3,156.8 370.6,167 
		370.6,150.7 354.7,147.1 367.5,137 360.4,122.3 376.3,126 	"/>
	<polygon class="st1" points="440.4,178.1 447.4,192.8 463.3,189.1 456.2,203.8 468.9,213.9 453,217.5 453.1,233.7 440.4,223.6 
		427.7,233.7 427.7,217.5 411.8,213.9 424.6,203.8 417.5,189.1 433.3,192.8 	"/>
	<polygon class="st1" points="399.5,256 405.1,273 423,273 408.5,283.5 414,300.5 399.5,290 385.1,300.5 390.6,283.5 376.1,273 
		394,273 	"/>
</g>
</svg>
