<?xml version="1.0" encoding="utf-8"?>
<!-- Generator: Adobe Illustrator 24.1.0, SVG Export Plug-In . SVG Version: 6.00 Build 0)  -->
<svg version="1.1" id="Layer_1" xmlns="http://www.w3.org/2000/svg" xmlns:xlink="http://www.w3.org/1999/xlink" x="0px" y="0px"
	 viewBox="0 0 512 512" style="enable-background:new 0 0 512 512;" xml:space="preserve">
<style type="text/css">
	.st0{fill:#F7F7F7;}
	.st1{fill:#D80027;}
	.st2{fill:#006289;}
	.st3{fill:#D2332B;}
	.st4{fill:#FFDA44;}
</style>
<circle class="st0" cx="256" cy="256" r="256"/>
<path class="st1" d="M0,256c0,97,54,181.5,133.6,224.9V31.1C54,74.5,0,159,0,256z"/>
<path class="st2" d="M0,256c0,118.3,80.2,217.8,189.2,247.2V8.8C80.2,38.2,0,137.7,0,256z"/>
<path class="st3" d="M91.8,89v41.7c0,20.7,16.8,37.6,37.6,37.6s37.6-16.8,37.6-37.6V89H91.8z"/>
<path class="st0" d="M129.4,146.1c-8.4,0-15.3-6.9-15.3-15.3v-19.5h30.6v19.5C144.7,139.2,137.8,146.1,129.4,146.1z"/>
<g>
	<path class="st4" d="M278.3,267.1h-66.8c0-12.3-10-22.3-22.3-22.3s-22.3,10-22.3,22.3h-66.8c0,12.3,10.7,22.3,23,22.3h-0.7
		c0,12.3,10,22.3,22.3,22.3c0,12.3,10,22.3,22.3,22.3h44.5c12.3,0,22.3-10,22.3-22.3c12.3,0,22.3-10,22.3-22.3h-0.7
		C267.6,289.4,278.3,279.4,278.3,267.1z"/>
	<polygon class="st4" points="287.4,231.5 281.6,240.9 288.7,249.3 278,246.6 272.1,256 271.3,245 260.6,242.3 270.9,238.2 
		270.1,227.2 277.2,235.6 	"/>
	<polygon class="st4" points="253.3,202.9 251,213.7 260.6,219.2 249.6,220.4 247.3,231.1 242.8,221.1 231.8,222.2 240,214.8 
		235.6,204.8 245.1,210.3 	"/>
	<polygon class="st4" points="211.5,187.7 213,198.6 223.9,200.5 214,205.3 215.5,216.3 207.8,208.3 197.9,213.2 203.1,203.4 
		195.4,195.5 206.3,197.4 	"/>
	<polygon class="st4" points="167,187.7 172.1,197.4 183,195.5 175.3,203.4 180.5,213.2 170.6,208.3 162.9,216.3 164.5,205.3 
		154.6,200.5 165.4,198.6 	"/>
	<polygon class="st4" points="125.1,202.9 133.3,210.3 142.9,204.8 138.4,214.8 146.6,222.2 135.6,221.1 131.1,231.1 128.8,220.4 
		117.9,219.2 127.4,213.7 	"/>
	<polygon class="st4" points="91,231.5 101.3,235.6 108.3,227.2 107.6,238.2 117.8,242.3 107.1,245 106.3,256 100.5,246.6 
		89.8,249.3 96.9,240.9 	"/>
</g>
</svg>
