<?xml version="1.0" encoding="utf-8"?>
<!-- Generator: Adobe Illustrator 24.1.0, SVG Export Plug-In . SVG Version: 6.00 Build 0)  -->
<svg version="1.1" id="Layer_1" xmlns="http://www.w3.org/2000/svg" xmlns:xlink="http://www.w3.org/1999/xlink" x="0px" y="0px"
	 viewBox="0 0 512 512" style="enable-background:new 0 0 512 512;" xml:space="preserve">
<style type="text/css">
	.st0{fill:#FECF0A;}
	.st1{fill:#D2332B;}
	.st2{fill:#4A1F63;}
	.st3{fill:#F7F7F7;}
</style>
<path class="st0" d="M256,0c141.4,0,256,114.6,256,256S397.4,512,256,512S0,397.4,0,256"/>
<g>
	<path class="st1" d="M250.4,113.8h218.4c-14.4-21.5-31.9-40.7-52-56.9H250.4V113.8z"/>
	<path class="st1" d="M250.4,227.6h260c-2.2-19.7-6.6-38.8-13-56.9h-247V227.6z"/>
	<path class="st1" d="M14.6,341.3h482.8c6.4-18.1,10.8-37.2,13-56.9H1.6C3.8,304.2,8.2,323.2,14.6,341.3z"/>
	<path class="st1" d="M95.1,455.1h321.8c20-16.2,37.6-35.4,52-56.9H43.1C57.5,419.7,75.1,438.9,95.1,455.1z"/>
</g>
<path class="st2" d="M256,0C114.6,0,0,114.6,0,256c58.4,0,114.6,0,256,0L256,0z"/>
<polygon class="st3" points="211.5,133.6 211.5,155.8 200.3,155.8 200.3,133.6 178.1,133.6 178.1,155.8 167,155.8 167,111.3 
	122.4,111.3 122.4,155.8 111.3,155.8 111.3,133.6 89,133.6 89,155.8 77.9,155.8 77.9,133.6 55.7,133.6 55.7,200.3 233.7,200.3 
	233.7,133.6 "/>
</svg>
