<?xml version="1.0" encoding="utf-8"?>
<!-- Generator: Adobe Illustrator 24.1.0, SVG Export Plug-In . SVG Version: 6.00 Build 0)  -->
<svg version="1.1" id="Layer_1" xmlns="http://www.w3.org/2000/svg" xmlns:xlink="http://www.w3.org/1999/xlink" x="0px" y="0px"
	 viewBox="0 0 512 512" style="enable-background:new 0 0 512 512;" xml:space="preserve">
<style type="text/css">
	.st0{fill:#FECF0A;}
	.st1{fill:#006289;}
	.st2{fill:#1E2834;}
</style>
<path class="st0" d="M367.3,25.4C333.6,9.1,295.9,0,256,0s-77.6,9.1-111.3,25.4L122.4,256l22.3,230.6C178.4,502.9,216.1,512,256,512
	s77.6-9.1,111.3-25.4L389.6,256L367.3,25.4z"/>
<g>
	<path class="st1" d="M144.7,25.4C59.1,66.8,0,154.5,0,256s59.1,189.2,144.7,230.6V25.4z"/>
	<path class="st1" d="M367.3,25.4v461.2C452.9,445.2,512,357.5,512,256S452.9,66.8,367.3,25.4z"/>
</g>
<path class="st2" d="M333.9,155.8l14.9,7.5L333.9,155.8l-14.9-7.5c-0.9,1.8-20.4,41.5-23.6,102.1h-22.7v-94.6L256,133.6l-16.7,22.3
	v94.6h-22.7c-3.2-60.6-22.7-100.3-23.6-102.1l-29.9,14.9c0.2,0.4,20.5,41.7,20.5,103.8v16.7h55.7v94.6h33.4v-94.6h55.7v-16.7
	c0-32.1,5.6-58.6,10.2-75.2c5.1-18.1,10.2-28.6,10.3-28.7L333.9,155.8z"/>
</svg>
