<?xml version="1.0" encoding="utf-8"?>
<!-- Generator: Adobe Illustrator 24.1.0, SVG Export Plug-In . SVG Version: 6.00 Build 0)  -->
<svg version="1.1" id="Layer_1" xmlns="http://www.w3.org/2000/svg" xmlns:xlink="http://www.w3.org/1999/xlink" x="0px" y="0px"
	 viewBox="0 0 512 512" style="enable-background:new 0 0 512 512;" xml:space="preserve">
<style type="text/css">
	.st0{fill:#F0F0F0;}
	.st1{fill:#D2332B;}
	.st2{fill:#76923B;}
	.st3{fill:#F7F7F7;}
</style>
<circle class="st0" cx="256" cy="256" r="256"/>
<g>
	<path class="st1" d="M2.2,289.4c6,45.7,24,87.6,50.8,122.5l136.3-122.5H2.2z"/>
	<path class="st1" d="M222.6,509.8v-187L100.1,459.1C135,485.9,176.9,503.9,222.6,509.8z"/>
	<path class="st1" d="M222.6,2.2c-45.7,6-87.6,24-122.5,50.8l122.5,136.3V2.2z"/>
	<path class="st1" d="M2.2,222.6h187L52.9,100.1C26.1,135,8.1,176.9,2.2,222.6z"/>
	<path class="st1" d="M289.4,2.2v187.1L411.9,52.9C377,26.1,335.1,8.1,289.4,2.2z"/>
	<path class="st1" d="M509.8,222.6c-6-45.7-24-87.6-50.8-122.5L322.8,222.6H509.8z"/>
	<path class="st1" d="M322.8,289.4l136.3,122.5c26.8-34.8,44.8-76.8,50.8-122.5H322.8z"/>
	<path class="st1" d="M289.4,509.8c45.7-6,87.6-24,122.5-50.8L289.4,322.8V509.8z"/>
</g>
<path class="st2" d="M459.1,411.9L303.2,256l0,0l155.9-155.9C452.4,91.4,445,83,437,75c-8-8-16.4-15.4-25.1-22.1L256,208.8h0
	L100.1,52.9C91.4,59.6,83,67,75,75c-8,8-15.4,16.4-22.1,25.1L208.8,256l0,0L52.9,411.9C59.6,420.6,67,429,75,437
	c8,8,16.4,15.4,25.1,22.1L256,303.2l0,0l155.9,155.9c8.7-6.7,17.1-14.1,25.1-22.1C445,429,452.4,420.6,459.1,411.9z"/>
<path class="st3" d="M289.4,509.8V289.4v0h220.4c1.4-10.9,2.2-22.1,2.2-33.4c0-11.3-0.7-22.5-2.2-33.4H289.4l0,0V2.2
	C278.5,0.7,267.3,0,256,0c-11.3,0-22.5,0.7-33.4,2.2l0,220.4v0H2.2C0.7,233.5,0,244.7,0,256c0,11.3,0.7,22.5,2.2,33.4h220.4l0,0
	l0,220.4c10.9,1.4,22.1,2.2,33.4,2.2S278.5,511.3,289.4,509.8z"/>
</svg>
