<?xml version="1.0" encoding="utf-8"?>
<!-- Generator: Adobe Illustrator 24.1.0, SVG Export Plug-In . SVG Version: 6.00 Build 0)  -->
<svg version="1.1" id="Layer_1" xmlns="http://www.w3.org/2000/svg" xmlns:xlink="http://www.w3.org/1999/xlink" x="0px" y="0px"
	 viewBox="0 0 512 512" style="enable-background:new 0 0 512 512;" xml:space="preserve">
<style type="text/css">
	.st0{fill:#FCFCFC;}
	.st1{fill:#D2332B;}
	.st2{fill:#76923B;}
</style>
<circle class="st0" cx="256" cy="256" r="256"/>
<g>
	<polygon class="st1" points="105.7,237.4 77.9,187 105.7,137.3 133.6,187 	"/>
	<polygon class="st1" points="50.1,237.4 22.3,187 50.1,137.3 77.9,187 	"/>
	<polygon class="st1" points="105.7,374.7 77.9,324.2 105.7,274.6 133.6,324.2 	"/>
	<polygon class="st1" points="50.1,374.7 22.3,324.2 50.1,274.6 77.9,324.2 	"/>
	<path class="st1" d="M133.6,49.7l-7.9-14.1C111.6,44,98.3,53.7,86.1,64.5l19.6,35.6L133.6,49.7z"/>
	<path class="st1" d="M105.7,411.8l-19.9,35.5c12.2,10.9,25.4,20.6,39.6,29l8.1-14.7L105.7,411.8z"/>
</g>
<path class="st2" d="M155.8,322.8v168.9C186.6,504.7,220.4,512,256,512c110.1,0,203.9-69.5,240.1-167L155.8,322.8z"/>
<path class="st1" d="M496.1,345c10.3-27.7,15.9-57.7,15.9-89C512,114.6,397.4,0,256,0c-35.5,0-69.4,7.3-100.2,20.3V345L496.1,345
	L496.1,345z"/>
</svg>
