<?xml version="1.0" encoding="utf-8"?>
<!-- Generator: Adobe Illustrator 24.1.0, SVG Export Plug-In . SVG Version: 6.00 Build 0)  -->
<svg version="1.1" id="Layer_1" xmlns="http://www.w3.org/2000/svg" xmlns:xlink="http://www.w3.org/1999/xlink" x="0px" y="0px"
	 viewBox="0 0 512 512" style="enable-background:new 0 0 512 512;" xml:space="preserve">
<style type="text/css">
	.st0{fill:#FECF0A;}
	.st1{fill:#D2332B;}
	.st2{fill:#1E2834;}
</style>
<path class="st0" d="M345,15.9C317.3,5.6,287.3,0,256,0s-61.3,5.6-89,15.9L144.7,256L167,496.1c27.7,10.3,57.7,15.9,89,15.9
	s61.3-5.6,89-15.9L367.3,256L345,15.9z"/>
<path class="st1" d="M512,256c0-110.1-69.5-203.9-167-240.1v480.2C442.5,459.9,512,366.1,512,256z"/>
<path class="st2" d="M0,256c0,110.1,69.5,203.9,167,240.1V15.9C69.5,52.1,0,145.9,0,256z"/>
</svg>
