<?xml version="1.0" encoding="utf-8"?>
<!-- Generator: Adobe Illustrator 24.1.0, SVG Export Plug-In . SVG Version: 6.00 Build 0)  -->
<svg version="1.1" id="Layer_1" xmlns="http://www.w3.org/2000/svg" xmlns:xlink="http://www.w3.org/1999/xlink" x="0px" y="0px"
	 viewBox="0 0 512 512" style="enable-background:new 0 0 512 512;" xml:space="preserve">
<style type="text/css">
	.st0{fill:#006289;}
	.st1{fill:#AC2D2A;}
	.st2{fill:#F7F7F7;}
	.st3{fill:#76923B;}
	.st4{fill:#FECF0A;}
</style>
<path class="st0" d="M512,256c0-87.9-44.3-165.4-111.7-211.5L256,33.4L111.7,44.5C44.3,90.6,0,168.1,0,256
	c0,87.9,44.3,165.4,111.7,211.5L256,478.6l144.3-11.1C467.7,421.4,512,343.9,512,256z"/>
<g>
	<path class="st1" d="M400.3,44.5C359.2,16.4,309.5,0,256,0c-53.5,0-103.2,16.4-144.3,44.5H400.3z"/>
	<path class="st1" d="M111.7,467.5C152.8,495.6,202.5,512,256,512c53.5,0,103.2-16.4,144.3-44.5H111.7z"/>
</g>
<circle class="st2" cx="256" cy="256" r="122.4"/>
<circle class="st3" cx="256" cy="256" r="100.2"/>
<circle class="st2" cx="256" cy="256" r="66.8"/>
<polygon class="st0" points="256,239.3 219.8,256 219.8,283.8 256,306.1 292.2,283.8 292.2,256 "/>
<rect x="219.8" y="222.6" class="st4" width="72.3" height="33.4"/>
</svg>
