<?xml version="1.0" encoding="utf-8"?>
<!-- Generator: Adobe Illustrator 24.1.0, SVG Export Plug-In . SVG Version: 6.00 Build 0)  -->
<svg version="1.1" id="Layer_1" xmlns="http://www.w3.org/2000/svg" xmlns:xlink="http://www.w3.org/1999/xlink" x="0px" y="0px"
	 viewBox="0 0 512 512" style="enable-background:new 0 0 512 512;" xml:space="preserve">
<style type="text/css">
	.st0{fill:#D2332B;}
	.st1{fill:#006289;}
	.st2{fill:#F7F7F7;}
	.st3{fill:#76923B;}
	.st4{fill:#AC2D2A;}
	.st5{fill:#0C8DB0;}
</style>
<path class="st0" d="M512,256c0,141.4-114.6,256-256,256S0,397.4,0,256C0,256.1,256,0,256,0C397.4,0,512,114.6,512,256z"/>
<g>
	<polygon class="st1" points="256,122.4 256,208.8 167,122.4 	"/>
	<polygon class="st1" points="133.6,256 208.8,256 133.6,155.8 122.4,233.7 	"/>
</g>
<g>
	<path class="st2" d="M256,0C256,0,256,0,256,0L256,0L256,0z"/>
	<path class="st2" d="M255.3,256h0.7c0-0.2,0-0.5,0-0.7C255.8,255.5,255.5,255.8,255.3,256z"/>
	<path class="st2" d="M256,133.6c0-45,0-74.6,0-133.6h0C114.6,0,0,114.6,0,256h133.6v-75.2l75.2,75.2h46.5c0.2-0.2,0.5-0.5,0.7-0.7
		c0-17.2,0-32.6,0-46.5l-75.2-75.2H256z"/>
</g>
<g>
	<path class="st0" d="M129.5,33.4c-40,22.8-73.3,56.1-96.1,96.1v137.6h66.8v-167v0h167c0-21.1,0-41.1,0-66.8
		C267.1,33.4,129.5,33.4,129.5,33.4z"/>
	<path class="st0" d="M266.2,234.7L165,133.6h-31.5v0l132.6,132.6h0C266.2,266.2,266.2,244.5,266.2,234.7z"/>
</g>
<path class="st2" d="M289.4,133.6V256c0,59.6,155.8,59.6,155.8,0V133.6H289.4z"/>
<path class="st3" d="M289.4,256L289.4,256c0,59.6,77.9,77.9,77.9,77.9s77.9-18.3,77.9-77.9v0H289.4z"/>
<polygon class="st4" points="367.3,207 331.1,222.6 331.1,256 367.3,278.3 403.5,256 403.5,222.6 "/>
<rect x="331.1" y="189.2" class="st5" width="72.3" height="33.4"/>
</svg>
