<?xml version="1.0" encoding="utf-8"?>
<!-- Generator: Adobe Illustrator 24.1.0, SVG Export Plug-In . SVG Version: 6.00 Build 0)  -->
<svg version="1.1" id="Layer_1" xmlns="http://www.w3.org/2000/svg" xmlns:xlink="http://www.w3.org/1999/xlink" x="0px" y="0px"
	 viewBox="0 0 512 512" style="enable-background:new 0 0 512 512;" xml:space="preserve">
<style type="text/css">
	.st0{fill:#FECF0A;}
	.st1{fill:#D2332B;}
	.st2{fill:#F58220;}
	.st3{fill:#FFECD0;}
</style>
<path class="st0" d="M437,437C337,537,175,537,75,437C-25,337-25,175,75,75c0,0,230.1-68,330,32S437.1,437,437,437z"/>
<path class="st1" d="M437,437C537,337,537,175,437,75S175-25,75,75L437,437z"/>
<path class="st2" d="M322.9,322.9c-10.5,4.1-22.7,3.7-33.3-2.3c-18.7-10.5-25.4-34.3-14.9-53l-3.2-1.8c32.1-7.7,55.8-36.8,55.4-71.2
	c-0.3-21.4-9.8-40.5-24.7-53.5l-23.4,23.9c8.8,7,14.6,17.8,14.7,30c0.3,21.5-17,39.2-38.5,39.4l0,3.7
	c-22.7-23.9-59.8-29.9-89.3-12.4c-18.4,10.9-30.1,28.7-34,48.2l32.4,8.3c1.7-11.2,8.2-21.5,18.6-27.7c18.5-11,42.4-4.9,53.4,13.6
	l3.1-1.9c-9.3,31.6,4,66.7,34,83.6c18.6,10.5,39.9,11.7,58.7,5.4L322.9,322.9z M255.3,256.7L255.3,256.7L255.3,256.7L255.3,256.7z"
	/>
<path class="st3" d="M350.8,173.4L332.7,238l-54.3-10l-34.9-72L149,189.4l-7.4-21l-24.7-3l18.6,52.4l65-16.6l18.5,52L174,319.5
	l76.2,65l-14.4,16.9l9.7,22.9l36.1-42.3l-46.9-48l35.8-42l79.9,5.8l18.2-98.5l21.9,4l15-19.9L350.8,173.4z M256,257.7L256,257.7
	L256,257.7L256,257.7z"/>
</svg>
