<?xml version="1.0" encoding="utf-8"?>
<!-- Generator: Adobe Illustrator 24.1.0, SVG Export Plug-In . SVG Version: 6.00 Build 0)  -->
<svg version="1.1" id="Layer_1" xmlns="http://www.w3.org/2000/svg" xmlns:xlink="http://www.w3.org/1999/xlink" x="0px" y="0px"
	 viewBox="0 0 512 512" style="enable-background:new 0 0 512 512;" xml:space="preserve">
<style type="text/css">
	.st0{fill:#FECF0A;}
	.st1{fill:#F89341;}
	.st2{fill:#F0F0F0;}
</style>
<path class="st0" d="M75,437C-25,337-25,175,75,75S337-25,437,75c0,0,68,230.1-32,330C305,505,75.1,437.1,75,437z"/>
<path class="st1" d="M75,437c100,100,262.1,100,362,0S537,175,437,75L75,437z"/>
<path class="st2" d="M400.8,144.7v-44.5h-85.3l-6.5,6.5c-23.2,23.2-19.3,50.2-16.4,70c2.6,18.3,3,25.3-3.9,32.2
	c-6.8,6.8-13.8,6.5-32.2,3.9c-19.8-2.8-46.8-6.7-70,16.4c-23.2,23.2-19.3,50.2-16.4,70c2.6,18.3,3,25.3-3.9,32.2
	c-6.8,6.8-13.8,6.5-32.2,3.9c-7.1-1-14.5-2.1-22.4-2.2l-0.5,44.5c4.9,0.1,10.6,0.9,16.5,1.7c7.1,1,15.1,2.2,23.5,2.2
	c8.7,0,17.9-1.2,27-5.2v35.6H245v-33.4h-33.4v-22.3h22.3v-33.4h-17.8c0.8-10.8-0.6-21.1-1.9-30c-2.6-18.3-3-25.3,3.9-32.1
	c6.8-6.8,13.8-6.5,32.2-3.9c14.4,2.1,32.7,4.7,50.5-3v35.6h66.8V256H334v-22.3h22.3v-33.4h-17.8c0.8-10.8-0.6-21.1-1.9-30
	c-1.8-12.8-2.6-20.1-0.5-25.6L400.8,144.7L400.8,144.7z"/>
</svg>
