<?xml version="1.0" encoding="utf-8"?>
<!-- Generator: Adobe Illustrator 24.1.0, SVG Export Plug-In . SVG Version: 6.00 Build 0)  -->
<svg version="1.1" id="Layer_1" xmlns="http://www.w3.org/2000/svg" xmlns:xlink="http://www.w3.org/1999/xlink" x="0px" y="0px"
	 viewBox="0 0 512 512" style="enable-background:new 0 0 512 512;" xml:space="preserve">
<style type="text/css">
	.st0{fill:#F7F7F7;}
	.st1{fill:#FECF0A;}
	.st2{fill:#006289;}
	.st3{fill:#1E2834;}
	.st4{fill:#D2332B;}
</style>
<circle class="st0" cx="256" cy="256" r="256"/>
<path class="st1" d="M75,75C20.1,129.8-4.6,203.4,0.7,275.2L275.2,0.7C203.4-4.6,129.8,20.1,75,75z"/>
<path class="st2" d="M91.4,452.1C192,536.7,342.4,531.7,437,437s99.7-245,15.1-345.6L91.4,452.1z"/>
<path class="st3" d="M255.1,245.7l22.1-11.9l-22.1-11.9c-5.2-33.5-31.6-59.9-65.1-65.1l-12-22.1l-11.9,22.1
	c-33.5,5.1-59.9,31.6-65.1,65.1l-22.1,12l22.1,11.9c5.2,33.5,31.6,59.9,65.1,65.1l12,22.1l11.9-22.1
	C223.5,305.6,249.9,279.1,255.1,245.7z M178.1,278.3c-24.6,0-44.5-19.9-44.5-44.5s19.9-44.5,44.5-44.5s44.5,19.9,44.5,44.5
	S202.7,278.3,178.1,278.3z"/>
<polygon class="st4" points="178.1,200.3 187.7,217 207,217 197.4,233.7 207,250.4 187.7,250.4 178.1,267.1 168.4,250.4 
	149.2,250.4 158.8,233.7 149.2,217 168.4,217 "/>
</svg>
