<?xml version="1.0" encoding="utf-8"?>
<!-- Generator: Adobe Illustrator 24.1.0, SVG Export Plug-In . SVG Version: 6.00 Build 0)  -->
<svg version="1.1" id="Layer_1" xmlns="http://www.w3.org/2000/svg" xmlns:xlink="http://www.w3.org/1999/xlink" x="0px" y="0px"
	 viewBox="0 0 512 512" style="enable-background:new 0 0 512 512;" xml:space="preserve">
<style type="text/css">
	.st0{fill:#F7F7F7;}
	.st1{fill:#FECF0A;}
	.st2{fill:#006289;}
</style>
<circle class="st0" cx="256" cy="256" r="256"/>
<path class="st1" d="M256,0C165.2,0,85.5,47.2,40,118.5l347.2,357.4C461.9,431.1,512,349.4,512,256C512,114.6,397.4,0,256,0z"/>
<g>
	<path class="st2" d="M512,256c0-66.4-25.3-126.9-66.8-172.4v344.9C486.7,382.9,512,322.4,512,256z"/>
	<path class="st2" d="M319.8,481.9l26.8,0l8.3-25.5l8.3,25.5l13.5,0c8.2-4.4,16.2-9.3,23.9-14.5L44.7,111.5
		c-5.9,8.6-11.2,17.5-16,26.8l3.2,9.7l26.8,0L37,163.7l8.3,25.5l-21.7-15.7l-12.9,9.4C3.7,206,0,230.6,0,256
		c0,141.4,114.6,256,256,256c29.9,0,58.6-5.1,85.2-14.6L319.8,481.9z M57.1,244.9l8.3-25.5l-21.7-15.8l26.8,0l8.3-25.5l8.3,25.5
		l26.8,0l-21.7,15.8l8.3,25.5l-21.7-15.7L57.1,244.9z M112.3,300.5l8.3-25.5l-21.7-15.8l26.8,0l8.3-25.5l8.3,25.5l26.8,0L147.4,275
		l8.3,25.5L134,284.7L112.3,300.5z M167.5,356.2l8.3-25.5l-21.7-15.8l26.8,0l8.3-25.5l8.3,25.5l26.8,0l-21.7,15.8l8.3,25.5
		l-21.7-15.8L167.5,356.2z M244.5,396.1l-21.7,15.8l8.3-25.5l-21.7-15.8l26.8,0l8.3-25.5l8.3,25.5l26.8,0l-21.7,15.8l8.3,25.5
		L244.5,396.1z M278,467.5l8.3-25.5l-21.7-15.8l26.8,0l8.3-25.5l8.3,25.5l26.8,0L313.1,442l8.3,25.5l-21.7-15.8L278,467.5z"/>
</g>
</svg>
