<?xml version="1.0" encoding="utf-8"?>
<!-- Generator: Adobe Illustrator 24.1.0, SVG Export Plug-In . SVG Version: 6.00 Build 0)  -->
<svg version="1.1" id="Layer_1" xmlns="http://www.w3.org/2000/svg" xmlns:xlink="http://www.w3.org/1999/xlink" x="0px" y="0px"
	 viewBox="0 0 512 512" style="enable-background:new 0 0 512 512;" xml:space="preserve">
<style type="text/css">
	.st0{fill:#F7F7F7;}
	.st1{fill:#1E2834;}
	.st2{fill:#12B2D9;}
</style>
<path class="st0" d="M12.1,178.1C4.2,202.7,0,228.8,0,256c0,27.2,4.2,53.3,12.1,77.9L256,345l243.9-11.1
	c7.8-24.6,12.1-50.7,12.1-77.9c0-27.2-4.2-53.3-12.1-77.9L256,167L12.1,178.1z"/>
<path class="st1" d="M512,256c0-15.2-1.3-30.1-3.9-44.5H3.9C1.3,225.9,0,240.8,0,256s1.3,30.1,3.9,44.5h504.3
	C510.7,286.1,512,271.2,512,256z"/>
<g>
	<path class="st2" d="M256,512c114.2,0,210.9-74.8,243.9-178.1H12.1C45.1,437.2,141.8,512,256,512z"/>
	<path class="st2" d="M256,0C141.8,0,45.1,74.8,12.1,178.1l487.8,0C466.9,74.8,370.2,0,256,0z"/>
</g>
</svg>
