<?xml version="1.0" encoding="utf-8"?>
<!-- Generator: Adobe Illustrator 24.1.0, SVG Export Plug-In . SVG Version: 6.00 Build 0)  -->
<svg version="1.1" id="Layer_1" xmlns="http://www.w3.org/2000/svg" xmlns:xlink="http://www.w3.org/1999/xlink" x="0px" y="0px"
	 viewBox="0 0 512 512" style="enable-background:new 0 0 512 512;" xml:space="preserve">
<style type="text/css">
	.st0{fill:#76923B;}
	.st1{fill:#FECF0A;}
	.st2{fill:#F7F7F7;}
	.st3{fill:#006289;}
</style>
<circle class="st0" cx="256" cy="256" r="256"/>
<polygon class="st1" points="256,100.2 467.5,256 256,411.8 44.5,256 "/>
<circle class="st2" cx="256" cy="256" r="89"/>
<g>
	<path class="st3" d="M211.5,250.4c-15.5,0-30.4,2.4-44.5,6.7c0.6,48.6,40.2,87.9,89,87.9c30.2,0,56.8-15,72.9-38
		C301.4,272.6,259,250.4,211.5,250.4z"/>
	<path class="st3" d="M343.4,273.1c1.1-5.5,1.7-11.2,1.7-17.1c0-49.2-39.9-89-89-89c-36.7,0-68.2,22.2-81.8,53.9
		c12.1-2.5,24.5-3.8,37.3-3.8C263.2,217,310,238.5,343.4,273.1z"/>
</g>
</svg>
