<?xml version="1.0" encoding="utf-8"?>
<!-- Generator: Adobe Illustrator 24.1.0, SVG Export Plug-In . SVG Version: 6.00 Build 0)  -->
<svg version="1.1" id="Layer_1" xmlns="http://www.w3.org/2000/svg" xmlns:xlink="http://www.w3.org/1999/xlink" x="0px" y="0px"
	 viewBox="0 0 512 512" style="enable-background:new 0 0 512 512;" xml:space="preserve">
<style type="text/css">
	.st0{fill:#F7F7F7;}
	.st1{fill:#006289;}
	.st2{fill:#F0F0F0;}
	.st3{fill:#496E2D;}
	.st4{fill:#D2332B;}
	.st5{fill:#76923B;}
	.st6{fill:#AC2D2A;}
	.st7{fill:#FECF0A;}
</style>
<circle class="st0" cx="256" cy="256" r="256"/>
<g>
	<path class="st1" d="M469.3,286.6c-21.3,0-21.3-19.5-42.7-19.5c-21.3,0-21.3,19.5-42.7,19.5s-21.3-19.5-42.7-19.5
		c-21.3,0-21.3,19.5-42.7,19.5s-21.3-19.5-42.7-19.5c-21.3,0-21.3,19.5-42.7,19.5c-21.3,0-21.3-19.5-42.7-19.5
		c-21.3,0-21.3,19.5-42.7,19.5s-21.3-19.5-42.7-19.5c-21.3,0-21.3,19.5-42.7,19.5c-21.2,0-21.3-19.3-42.3-19.5
		c0.6,11.7,2,23.2,4.1,34.4c17,2.5,18.5,19.2,38.2,19.2c21.3,0,21.3-19.5,42.7-19.5c21.3,0,21.3,19.5,42.7,19.5s21.3-19.5,42.7-19.5
		c21.3,0,21.3,19.5,42.7,19.5c21.3,0,21.3-19.5,42.7-19.5c21.3,0,21.3,19.5,42.7,19.5s21.3-19.5,42.7-19.5
		c21.3,0,21.3,19.5,42.7,19.5c21.3,0,21.3-19.5,42.7-19.5c21.3,0,21.3,19.5,42.7,19.5c19.7,0,21.2-16.7,38.2-19.2
		c2.1-11.2,3.5-22.7,4.1-34.4C490.7,267.3,490.5,286.6,469.3,286.6z"/>
	<path class="st1" d="M426.7,333.9c-21.3,0-21.3,19.5-42.7,19.5s-21.3-19.5-42.7-19.5c-21.3,0-21.3,19.5-42.7,19.5
		c-21.3,0-21.3-19.5-42.7-19.5c-21.3,0-21.3,19.5-42.7,19.5c-21.3,0-21.3-19.5-42.7-19.5c-21.3,0-21.3,19.5-42.7,19.5
		s-21.3-19.5-42.7-19.5c-21.3,0-21.3,19.5-42.7,19.5c-15.7,0-19.9-10.6-29.5-16.1c5.8,17.4,13.5,34,22.7,49.5c2,0.5,4.2,0.8,6.8,0.8
		C64,387.6,64,368,85.3,368c21.3,0,21.3,19.5,42.7,19.5s21.3-19.5,42.7-19.5c21.3,0,21.3,19.5,42.7,19.5c21.3,0,21.3-19.5,42.7-19.5
		c21.3,0,21.3,19.5,42.7,19.5S320,368,341.3,368c21.3,0,21.3,19.5,42.7,19.5s21.3-19.5,42.7-19.5c21.3,0,21.3,19.5,42.7,19.5
		c2.5,0,4.8-0.3,6.8-0.8c9.2-15.5,16.9-32.1,22.7-49.5c-9.6,5.6-13.8,16.1-29.5,16.1C448,353.4,448,333.9,426.7,333.9z"/>
	<path class="st1" d="M506,200.9c-15.6,3.2-17.6,18.9-36.7,18.9c-21.3,0-21.3-19.5-42.7-19.5c-21.3,0-21.3,19.5-42.7,19.5
		s-21.3-19.5-42.7-19.5c-21.3,0-21.3,19.5-42.7,19.5s-21.3-19.5-42.7-19.5c-11.5,0-16.8,5.7-22.6,10.9v34.1
		c5.8-5.2,11.1-10.9,22.6-10.9c21.3,0,21.3,19.5,42.7,19.5s21.3-19.5,42.7-19.5c21.3,0,21.3,19.5,42.7,19.5s21.3-19.5,42.7-19.5
		c21.3,0,21.3,19.5,42.7,19.5c19.7,0,21.2-16.7,38.2-19.2c1.1,0,2.3,0,3.6,0C510.2,223.3,508.5,212,506,200.9z"/>
	<path class="st1" d="M487.3,146.3c-4.4,3.7-9.5,6.8-18,6.8c-21.3,0-21.3-19.5-42.7-19.5c-21.3,0-21.3,19.5-42.7,19.5
		s-21.3-19.5-42.7-19.5c-21.3,0-21.3,19.5-42.7,19.5s-21.3-19.5-42.7-19.5c-11.5,0-16.8,5.7-22.6,10.9v34.1
		c5.8-5.2,11.1-10.9,22.6-10.9c21.3,0,21.3,19.5,42.7,19.5c21.3,0,21.3-19.5,42.7-19.5s21.3,19.5,42.7,19.5s21.3-19.5,42.7-19.5
		c21.3,0,21.3,19.5,42.7,19.5c15.1,0,19.5-9.8,28.4-15.5C494.7,163,491.3,154.5,487.3,146.3z"/>
	<path class="st1" d="M428.5,66.8c-0.6,0-1.2-0.1-1.8-0.1c-21.3,0-21.3,19.5-42.7,19.5c-21.3,0-21.3-19.5-42.7-19.5
		c-21.3,0-21.3,19.5-42.7,19.5S277.3,66.8,256,66.8c-11.5,0-16.8,5.7-22.6,10.9v34.1c5.8-5.2,11.1-10.9,22.6-10.9
		c21.3,0,21.3,19.5,42.7,19.5s21.3-19.5,42.7-19.5c21.3,0,21.3,19.5,42.7,19.5s21.3-19.5,42.7-19.5c21.3,0,21.3,19.5,42.7,19.5
		c1.3,0,2.5-0.1,3.7-0.2C460.6,100.4,445.6,82.5,428.5,66.8z"/>
	<polygon class="st1" points="256,0 256,0 256,0 	"/>
	<path class="st1" d="M321.4,8.5c-5.9,5.3-11.1,11.1-22.8,11.1C277.3,19.5,277.3,0,256,0h0c-11,0-16.4,5.2-21.9,10.3v34.1
		c5.5-5,10.9-10.3,21.9-10.3c21.3,0,21.3,19.5,42.7,19.5c21.3,0,21.3-19.5,42.7-19.5s21.3,19.5,42.7,19.5c9,0,14.1-3.4,18.7-7.4
		C378.4,29.2,351,16.2,321.4,8.5z"/>
	<path class="st1" d="M298.7,487c-21.3,0-21.3-19.5-42.7-19.5c-21.3,0-21.3,19.5-42.7,19.5c-21.3,0-21.3-19.5-42.7-19.5
		c-16.3,0-20.2,11.4-30.7,16.8c28.9,14.7,61,24.1,94.9,26.9c5.2-4.8,10.6-9.5,21.1-9.5c10.5,0,15.8,4.7,21.1,9.5
		c33.9-2.8,66-12.1,94.9-26.9c-10.5-5.4-14.3-16.8-30.7-16.8C320,467.5,320,487,298.7,487z"/>
	<path class="st1" d="M384,420.2c-21.3,0-21.3-19.5-42.7-19.5c-21.3,0-21.3,19.5-42.7,19.5c-21.3,0-21.3-19.5-42.7-19.5
		c-21.3,0-21.3,19.5-42.7,19.5c-21.3,0-21.3-19.5-42.7-19.5c-21.3,0-21.3,19.5-42.7,19.5s-21.3-19.5-42.7-19.5
		c-15.3,0-19.6,10.1-28.8,15.8c5.7,7.1,11.8,13.9,18.3,20.4c2.9-1.2,6.3-2,10.5-2c21.3,0,21.3,19.5,42.7,19.5s21.3-19.5,42.7-19.5
		c21.3,0,21.3,19.5,42.7,19.5c21.3,0,21.3-19.5,42.7-19.5c21.3,0,21.3,19.5,42.7,19.5s21.3-19.5,42.7-19.5s21.3,19.5,42.7,19.5
		s21.3-19.5,42.7-19.5c4.2,0,7.6,0.8,10.5,2c6.5-6.5,12.5-13.3,18.3-20.4c-9.1-5.7-13.5-15.8-28.8-15.8
		C405.3,400.7,405.3,420.2,384,420.2z"/>
</g>
<g>
	<path class="st2" d="M256,0C256,0,256,0,256,0L256,0L256,0z"/>
	<path class="st2" d="M255.3,256h0.7c0-0.2,0-0.5,0-0.7C255.8,255.5,255.5,255.8,255.3,256z"/>
</g>
<polygon class="st3" points="289.4,256 289.4,256 289.4,256 "/>
<g>
	<polygon class="st1" points="256,133.6 256,208.8 167,122.4 	"/>
	<polygon class="st1" points="133.6,256 208.8,256 133.6,155.8 122.4,233.7 	"/>
</g>
<path class="st2" d="M256,133.6c0-45,0-74.6,0-133.6h0C114.6,0,0,114.6,0,256h133.6v-75.2l75.2,75.2h46.5c0.2-0.2,0.5-0.5,0.7-0.7
	c0-17.2,0-32.6,0-46.5l-75.2-75.2H256z"/>
<g>
	<path class="st4" d="M129.5,33.4c-40,22.8-73.3,56.1-96.1,96.1V256h66.8V100.2v0H256c0-21.1,0-41.1,0-66.8
		C256,33.4,129.5,33.4,129.5,33.4z"/>
	<path class="st4" d="M256,224.5l-91-91h-31.5v0L256,256h0C256,256,256,234.3,256,224.5z"/>
</g>
<polygon class="st5" points="333.9,133.6 434.1,133.6 384,183.7 "/>
<g>
	<rect x="372.9" y="172.5" class="st6" width="22.3" height="61.2"/>
	<rect x="372.9" y="333.9" class="st6" width="22.3" height="61.2"/>
</g>
<path class="st7" d="M450.8,300.5c0-18.4-15-33.4-33.4-33.4c-8.6,0-16.4,3.2-22.3,8.5V256h11.1v-22.3h-11.1v-11.1h-22.3v11.1h-11.1
	V256h11.1v19.6c-5.9-5.3-13.7-8.5-22.3-8.5c-18.4,0-33.4,15-33.4,33.4c0,9.9,4.3,18.8,11.1,24.9V345h111.3v-19.6
	C446.5,319.3,450.8,310.4,450.8,300.5z"/>
<path class="st4" d="M417.4,289.4c-3.5,0-6,1.5-7.4,2.8l-14.8,13.3h-22.3L358,292.2c-1.4-1.3-3.9-2.8-7.4-2.8
	c-6.1,0-11.1,5-11.1,11.1c0,4.3,2.3,7.1,3.7,8.3l7.4,6.6v7.3h66.8v-7.3l7.4-6.6c1.4-1.2,3.7-4,3.7-8.3
	C428.5,294.4,423.5,289.4,417.4,289.4z"/>
</svg>
