<?xml version="1.0" encoding="utf-8"?>
<!-- Generator: Adobe Illustrator 24.1.0, SVG Export Plug-In . SVG Version: 6.00 Build 0)  -->
<svg version="1.1" id="Layer_1" xmlns="http://www.w3.org/2000/svg" xmlns:xlink="http://www.w3.org/1999/xlink" x="0px" y="0px"
	 viewBox="0 0 512 512" style="enable-background:new 0 0 512 512;" xml:space="preserve">
<style type="text/css">
	.st0{fill:#F7F7F7;}
	.st1{fill:#006289;}
	.st2{fill:#D80027;}
	.st3{fill:#D2332B;}
	.st4{fill:#FECF0A;}
</style>
<path class="st0" d="M0,256C0,114.6,114.6,0,256,0s256,114.6,256,256H0z"/>
<g>
	<polygon class="st1" points="189.2,242 175.2,256 189.2,256 	"/>
	<polygon class="st1" points="322.8,242 322.8,256 336.8,256 	"/>
	<path class="st1" d="M7.4,194.8C2.6,214.4,0,234.9,0,256h80.8l61.2-61.2H7.4z"/>
	<path class="st1" d="M370,194.8l61.2,61.2H512c0-21.1-2.6-41.6-7.4-61.2H370z"/>
</g>
<g>
	<polygon class="st2" points="354.3,194.8 322.8,194.8 322.8,194.8 384,256 415.5,256 	"/>
	<polygon class="st2" points="189.2,226.3 189.2,194.8 189.2,194.8 128,256 159.5,256 	"/>
</g>
<g>
	<path class="st1" d="M119.9,39.1c-10.6,6.6-20.6,14-30,22.1H142L119.9,39.1z"/>
	<path class="st1" d="M422.1,61.2c-9.4-8.1-19.5-15.4-30-22.1L370,61.2H422.1z"/>
</g>
<g>
	<path class="st3" d="M289.4,161.4h204.5c-9.7-24.3-23-46.8-39.2-66.8H289.4h0V2.2C278.5,0.7,267.3,0,256,0
		c-11.3,0-22.5,0.7-33.4,2.2v92.4v0H57.3c-16.3,20-29.6,42.5-39.2,66.8h204.5h0V256h66.8V161.4L289.4,161.4z"/>
	<path class="st3" d="M189.2,61.2L189.2,61.2l-38.6-38.6c-7.1,3.2-14.1,6.8-20.9,10.6l28,28C157.7,61.2,189.2,61.2,189.2,61.2z"/>
	<path class="st3" d="M322.8,61.2L322.8,61.2l38.6-38.6c-7.3-3.3-14.9-6.3-22.6-8.9l-16,16L322.8,61.2L322.8,61.2z"/>
</g>
<path class="st0" d="M512,256c0,141.4-114.6,256-256,256S0,397.4,0,256C11.1,256,512,256,512,256z"/>
<g>
	<path class="st1" d="M469.3,288.6c-21.3,0-21.3-19.5-42.7-19.5c-21.3,0-21.3,19.5-42.7,19.5s-21.3-19.5-42.7-19.5
		c-21.3,0-21.3,19.5-42.7,19.5s-21.3-19.5-42.7-19.5c-21.3,0-21.3,19.5-42.7,19.5c-21.3,0-21.3-19.5-42.7-19.5
		c-21.3,0-21.3,19.5-42.7,19.5s-21.3-19.5-42.7-19.5c-21.3,0-21.3,19.5-42.7,19.5c-21.2,0-21.3-19.3-42.3-19.5
		c0.6,11.7,2,23.2,4.1,34.4c17,2.5,18.5,19.2,38.2,19.2c21.3,0,21.3-19.5,42.7-19.5c21.3,0,21.3,19.5,42.7,19.5s21.3-19.5,42.7-19.5
		c21.3,0,21.3,19.5,42.7,19.5c21.3,0,21.3-19.5,42.7-19.5c21.3,0,21.3,19.5,42.7,19.5s21.3-19.5,42.7-19.5
		c21.3,0,21.3,19.5,42.7,19.5s21.3-19.5,42.7-19.5c21.3,0,21.3,19.5,42.7,19.5c19.7,0,21.2-16.7,38.2-19.2
		c2.1-11.2,3.5-22.7,4.1-34.4C490.7,269.4,490.5,288.6,469.3,288.6z"/>
	<path class="st1" d="M426.7,335.9c-21.3,0-21.3,19.5-42.7,19.5s-21.3-19.5-42.7-19.5c-21.3,0-21.3,19.5-42.7,19.5
		c-21.3,0-21.3-19.5-42.7-19.5c-21.3,0-21.3,19.5-42.7,19.5c-21.3,0-21.3-19.5-42.7-19.5c-21.3,0-21.3,19.5-42.7,19.5
		s-21.3-19.5-42.7-19.5c-21.3,0-21.3,19.5-42.7,19.5c-15.2,0-19.6-10-28.6-15.6c6,17.4,13.8,33.9,23.2,49.3c1.6,0.3,3.4,0.5,5.4,0.5
		c21.3,0,21.3-19.5,42.7-19.5c21.3,0,21.3,19.5,42.7,19.5s21.3-19.5,42.7-19.5c21.3,0,21.3,19.5,42.7,19.5
		c21.3,0,21.3-19.5,42.7-19.5c21.3,0,21.3,19.5,42.7,19.5c21.3,0,21.3-19.5,42.7-19.5c21.3,0,21.3,19.5,42.7,19.5
		s21.3-19.5,42.7-19.5c21.3,0,21.3,19.5,42.7,19.5c2,0,3.8-0.2,5.4-0.5c9.4-15.4,17.2-31.9,23.2-49.3c-9,5.7-13.4,15.6-28.6,15.6
		C448,355.4,448,335.9,426.7,335.9z"/>
</g>
<g>
	<path class="st0" d="M511.9,248c0,0.7,0,1.4,0.1,2.1C511.9,249.4,511.9,248.7,511.9,248z"/>
	<path class="st0" d="M0.1,250.1c0-0.7,0-1.4,0.1-2.1C0.1,248.7,0.1,249.4,0.1,250.1z"/>
	<path class="st0" d="M0,256c0-2,0-3.9,0.1-5.9C0,252.1,0,254,0,256z"/>
	<path class="st0" d="M0,256c0,4.7,0.1,9.3,0.4,13.9c20.9,0.2,21.1,19.5,42.3,19.5c21.3,0,21.3-19.5,42.7-19.5
		c21.3,0,21.3,19.5,42.7,19.5s21.3-19.5,42.7-19.5c21.3,0,21.3,19.5,42.7,19.5c21.3,0,21.3-19.5,42.7-19.5
		c21.3,0,21.3,19.5,42.7,19.5c21.3,0,21.3-19.5,42.7-19.5c21.3,0,21.3,19.5,42.7,19.5s21.3-19.5,42.7-19.5
		c21.3,0,21.3,19.5,42.7,19.5c21.2,0,21.3-19.3,42.3-19.5c0.2-4.6,0.4-9.2,0.4-13.9H0z"/>
	<path class="st0" d="M511.9,250.1c0,2,0.1,3.9,0.1,5.9C512,254,512,252.1,511.9,250.1z"/>
</g>
<path class="st1" d="M426.7,402.7c-21.3,0-21.3,19.5-42.7,19.5s-21.3-19.5-42.7-19.5c-21.3,0-21.3,19.5-42.7,19.5
	c-21.3,0-21.3-19.5-42.7-19.5c-21.3,0-21.3,19.5-42.7,19.5c-21.3,0-21.3-19.5-42.7-19.5c-21.3,0-21.3,19.5-42.7,19.5
	s-21.3-19.5-42.7-19.5c-14.7,0-19.3,9.3-27.7,15.1c22.4,27.4,50.4,50.1,82.2,66.4l116.2-5.9l116.2,5.9
	c31.8-16.2,59.8-38.9,82.2-66.4C446,412,441.4,402.7,426.7,402.7z"/>
<path class="st4" d="M398,408.8l-77.9,14.9l-9.9-78.7L256,402.9L201.8,345l-9.9,78.7L114,408.8l38.2,69.5l-12.5,5.9
	C174.6,501.9,214.1,512,256,512s81.4-10.1,116.3-27.9l-12.5-5.9L398,408.8z"/>
</svg>
