<?xml version="1.0" encoding="utf-8"?>
<!-- Generator: Adobe Illustrator 24.1.0, SVG Export Plug-In . SVG Version: 6.00 Build 0)  -->
<svg version="1.1" id="Layer_1" xmlns="http://www.w3.org/2000/svg" xmlns:xlink="http://www.w3.org/1999/xlink" x="0px" y="0px"
	 viewBox="0 0 512 512" style="enable-background:new 0 0 512 512;" xml:space="preserve">
<style type="text/css">
	.st0{fill:#F7F7F7;}
	.st1{fill:#1E2834;}
	.st2{fill:#FECF0A;}
	.st3{fill:#D2332B;}
</style>
<circle class="st0" cx="256" cy="256" r="256"/>
<path class="st1" d="M34.3,128c-11.6,20-20.1,40.9-25.8,62.2l428.1,247.1c15.6-15.6,29.5-33.4,41-53.4L34.3,128z"/>
<g>
	<path class="st2" d="M384,34.3C281.6-24.8,155.3-5.1,75.4,74.6l428.1,247.1C532.5,212.7,486.4,93.5,384,34.3z"/>
	<path class="st2" d="M128,477.7c102.4,59.1,228.7,39.4,308.6-40.3L8.6,190.2C-20.5,299.3,25.6,418.5,128,477.7z"/>
</g>
<g>
	<path class="st3" d="M328.3,228.2c0,39.9-32.4,72.3-72.3,72.3s-72.3-32.4-72.3-72.3c0-12.5,3.1-24.2,8.7-34.4
		c-15.7,16.1-25.4,38-25.4,62.2c0,49.2,39.9,89,89,89s89-39.9,89-89c0-24.2-9.7-46.2-25.4-62.2C325.2,204,328.3,215.7,328.3,228.2z"
		/>
	<rect x="239.3" y="144.7" class="st3" width="33.4" height="166.9"/>
	<path class="st3" d="M311.6,178.1H200.4c0,7.7,6.7,13.9,14.4,13.9h-0.5c0,7.7,6.2,13.9,13.9,13.9c0,7.7,6.2,13.9,13.9,13.9h27.8
		c7.7,0,13.9-6.2,13.9-13.9c7.7,0,13.9-6.2,13.9-13.9h-0.5C304.9,192,311.6,185.8,311.6,178.1z"/>
	<rect x="178.1" y="322.8" class="st3" width="155.8" height="33.4"/>
	<rect x="289.4" y="333.9" class="st3" width="66.8" height="33.4"/>
	<rect x="155.8" y="333.9" class="st3" width="66.8" height="33.4"/>
</g>
</svg>
