<?xml version="1.0" encoding="utf-8"?>
<!-- Generator: Adobe Illustrator 24.1.0, SVG Export Plug-In . SVG Version: 6.00 Build 0)  -->
<svg version="1.1" id="Layer_1" xmlns="http://www.w3.org/2000/svg" xmlns:xlink="http://www.w3.org/1999/xlink" x="0px" y="0px"
	 viewBox="0 0 512 512" style="enable-background:new 0 0 512 512;" xml:space="preserve">
<style type="text/css">
	.st0{fill:#76923B;}
	.st1{fill:#D2332B;}
	.st2{fill:#F7F7F7;}
</style>
<path class="st0" d="M512,256c0-31.3-5.6-61.3-15.9-89L256,155.8L15.9,167C5.6,194.7,0,224.7,0,256s5.6,61.3,15.9,89L256,356.2
	L496.1,345C506.4,317.3,512,287.3,512,256z"/>
<path class="st1" d="M256,512c110.1,0,203.9-69.5,240.1-167H15.9C52.1,442.5,145.9,512,256,512z"/>
<path class="st2" d="M15.9,167h480.2C459.9,69.5,366.1,0,256,0S52.1,69.5,15.9,167z"/>
</svg>
