<?xml version="1.0" encoding="utf-8"?>
<!-- Generator: Adobe Illustrator 24.1.0, SVG Export Plug-In . SVG Version: 6.00 Build 0)  -->
<svg version="1.1" id="Layer_1" xmlns="http://www.w3.org/2000/svg" xmlns:xlink="http://www.w3.org/1999/xlink" x="0px" y="0px"
	 viewBox="0 0 512 512" style="enable-background:new 0 0 512 512;" xml:space="preserve">
<style type="text/css">
	.st0{fill:#F7F7F7;}
	.st1{fill:#D2332B;}
	.st2{fill:#76923B;}
	.st3{fill:#F0F0F0;}
</style>
<circle class="st0" cx="256" cy="256" r="256"/>
<g>
	<path class="st1" d="M411.9,52.9c-91.7-70.5-220.1-70.5-311.8,0L256,208.8L411.9,52.9z"/>
	<path class="st1" d="M256,303.2L100.1,459.1c91.7,70.5,220.1,70.5,311.8,0L256,303.2L256,303.2z"/>
</g>
<g>
	<path class="st2" d="M208.8,256L52.9,100.1c-70.5,91.7-70.5,220.1,0,311.8L208.8,256L208.8,256z"/>
	<path class="st2" d="M303.2,256l155.9,155.9c70.5-91.7,70.5-220.1,0-311.8L303.2,256L303.2,256z"/>
</g>
<circle class="st3" cx="256" cy="256" r="111.3"/>
<g>
	<polygon class="st1" points="256,178.1 265.6,194.8 284.9,194.8 275.3,211.5 284.9,228.2 265.6,228.2 256,244.9 246.4,228.2 
		227.1,228.2 236.7,211.5 227.1,194.8 246.4,194.8 	"/>
	<polygon class="st1" points="207,256 216.6,272.7 235.9,272.7 226.3,289.4 235.9,306.1 216.6,306.1 207,322.8 197.4,306.1 
		178.1,306.1 187.7,289.4 178.1,272.7 197.4,272.7 	"/>
	<polygon class="st1" points="305,256 314.6,272.7 333.9,272.7 324.3,289.4 333.9,306.1 314.6,306.1 305,322.8 295.4,306.1 
		276.1,306.1 285.7,289.4 276.1,272.7 295.4,272.7 	"/>
</g>
</svg>
