<?xml version="1.0" encoding="utf-8"?>
<!-- Generator: Adobe Illustrator 24.1.0, SVG Export Plug-In . SVG Version: 6.00 Build 0)  -->
<svg version="1.1" id="Layer_1" xmlns="http://www.w3.org/2000/svg" xmlns:xlink="http://www.w3.org/1999/xlink" x="0px" y="0px"
	 viewBox="0 0 512 512" style="enable-background:new 0 0 512 512;" xml:space="preserve">
<style type="text/css">
	.st0{fill:#D2332B;}
	.st1{fill:#006289;}
	.st2{fill:#F7F7F7;}
</style>
<path class="st0" d="M0,256c0,44.4,11.3,86.1,31.1,122.4L256,400.7l224.9-22.3C500.7,342.1,512,300.4,512,256s-11.3-86.1-31.1-122.4
	L256,111.3L31.1,133.6C11.3,169.9,0,211.6,0,256z"/>
<g>
	<path class="st1" d="M31.1,133.6h449.7C437.5,54,353,0,256,0S74.5,54,31.1,133.6z"/>
	<path class="st1" d="M256,512c97,0,181.5-54,224.9-133.6H31.1C74.5,458,159,512,256,512z"/>
</g>
<polygon class="st2" points="345,306.1 345,272.7 322.8,272.7 322.8,228.2 300.5,205.9 278.3,228.2 278.3,183.7 256,161.4 
	233.7,183.7 233.7,228.2 211.5,205.9 189.2,228.2 189.2,272.7 167,272.7 167,306.1 144.7,306.1 144.7,339.5 367.3,339.5 
	367.3,306.1 "/>
</svg>
