<?xml version="1.0" encoding="utf-8"?>
<!-- Generator: Adobe Illustrator 24.1.0, SVG Export Plug-In . SVG Version: 6.00 Build 0)  -->
<svg version="1.1" id="Layer_1" xmlns="http://www.w3.org/2000/svg" xmlns:xlink="http://www.w3.org/1999/xlink" x="0px" y="0px"
	 viewBox="0 0 512 512" style="enable-background:new 0 0 512 512;" xml:space="preserve">
<style type="text/css">
	.st0{fill:#F7F7F7;}
	.st1{fill:#D2332B;}
</style>
<circle class="st0" cx="256" cy="256" r="256"/>
<g>
	<path class="st1" d="M512,256c0-101.5-59.1-189.2-144.7-230.6v461.2C452.9,445.2,512,357.5,512,256z"/>
	<path class="st1" d="M0,256c0,101.5,59.1,189.2,144.7,230.6V25.4C59.1,66.8,0,154.5,0,256z"/>
	<polygon class="st1" points="300.5,289.4 345,267.1 322.8,256 322.8,233.7 278.3,256 300.5,211.5 278.3,211.5 256,178.1 
		233.7,211.5 211.5,211.5 233.7,256 189.2,233.7 189.2,256 167,267.1 211.5,289.4 200.3,311.7 244.9,311.7 244.9,345 267.1,345 
		267.1,311.7 311.7,311.7 	"/>
</g>
</svg>
