<?xml version="1.0" encoding="utf-8"?>
<!-- Generator: Adobe Illustrator 24.1.0, SVG Export Plug-In . SVG Version: 6.00 Build 0)  -->
<svg version="1.1" id="Layer_1" xmlns="http://www.w3.org/2000/svg" xmlns:xlink="http://www.w3.org/1999/xlink" x="0px" y="0px"
	 viewBox="0 0 512 512" style="enable-background:new 0 0 512 512;" xml:space="preserve">
<style type="text/css">
	.st0{fill:#F7F7F7;}
	.st1{fill:#006289;}
	.st2{fill:#D2332B;}
	.st3{fill:#FECF0A;}
</style>
<circle class="st0" cx="256" cy="256" r="256"/>
<g>
	<path class="st1" d="M256,512c77.6,0,147.1-34.5,194.1-89H61.9C108.9,477.5,178.4,512,256,512z"/>
	<path class="st1" d="M512,256C512,114.6,397.4,0,256,0S0,114.6,0,256c0,23.1,3.1,45.5,8.8,66.8h494.4
		C508.9,301.5,512,279.1,512,256z"/>
</g>
<path class="st2" d="M20.3,356.2c4.9,11.6,10.7,22.7,17.2,33.4h436.9c6.5-10.6,12.3-21.8,17.2-33.4H20.3z"/>
<g>
	<polygon class="st3" points="183,272.7 187.1,285.5 200.5,285.5 189.7,293.3 193.8,306.1 183,298.2 172.1,306.1 176.3,293.3 
		165.4,285.5 178.8,285.5 	"/>
	<polygon class="st3" points="183,439.7 187.1,452.4 200.5,452.4 189.7,460.3 193.8,473 183,465.2 172.1,473 176.3,460.3 
		165.4,452.4 178.8,452.4 	"/>
	<polygon class="st3" points="105.3,383.2 109.4,395.9 122.8,395.9 112,403.8 116.1,416.6 105.3,408.7 94.4,416.6 98.6,403.8 
		87.7,395.9 101.1,395.9 	"/>
	<polygon class="st3" points="135,289.4 139.1,302.1 152.5,302.1 141.7,310 145.8,322.8 135,314.9 124.1,322.8 128.3,310 
		117.4,302.1 130.8,302.1 	"/>
	<polygon class="st3" points="87.7,341.9 101.1,341.9 105.3,329.2 109.4,341.9 122.8,341.9 112,349.8 116.1,362.6 105.3,354.7 
		94.4,362.5 98.6,349.8 	"/>
	<polygon class="st3" points="124.1,453.9 128.3,441.2 117.4,433.3 130.8,433.3 135,420.5 139.1,433.3 152.5,433.3 141.7,441.2 
		145.8,453.9 135,446 	"/>
	<polygon class="st3" points="260.7,383.2 256.5,395.9 243.1,395.9 254,403.8 249.8,416.6 260.7,408.7 271.5,416.6 267.4,403.8 
		278.2,395.9 264.8,395.9 	"/>
	<polygon class="st3" points="231,289.4 226.8,302.1 213.4,302.1 224.3,310 220.1,322.8 231,314.9 241.8,322.8 237.7,310 
		248.5,302.1 235.1,302.1 	"/>
	<polygon class="st3" points="278.2,341.9 264.8,341.9 260.7,329.2 256.5,341.9 243.1,341.9 254,349.8 249.8,362.6 260.7,354.7 
		271.5,362.5 267.4,349.8 	"/>
	<polygon class="st3" points="241.8,453.9 237.7,441.2 248.5,433.3 235.1,433.3 231,420.5 226.8,433.3 213.4,433.3 224.3,441.2 
		220.1,453.9 231,446 	"/>
</g>
</svg>
