<svg width="28" height="28" viewBox="0 0 28 28" fill="none" xmlns="http://www.w3.org/2000/svg">
<path d="M26.6 7.46667H0.466667C0.186667 7.46667 0 7.28 0 7C0 6.72 0.186667 6.53333 0.466667 6.53333H26.6C26.88 6.53333 27.0667 6.72 27.0667 7C27.0667 7.28 26.88 7.46667 26.6 7.46667Z" fill="#191B1D"/>
<path d="M23.8 13.0667H23.7067C23.4267 12.9733 23.3334 12.7867 23.3334 12.5067L24.7334 6.90667C24.8267 6.62667 25.0134 6.53333 25.2934 6.53333C25.5734 6.62667 25.6667 6.81333 25.6667 7.09333L24.2667 12.6933C24.1734 12.88 23.9867 13.0667 23.8 13.0667Z" fill="#191B1D"/>
<path d="M12.6 20.5333H7C5.6 20.5333 4.48 19.88 4.2 18.76L0.933336 7.09333C0.840003 6.90667 1.02667 6.62667 1.30667 6.53333C1.49334 6.44 1.77334 6.62667 1.86667 6.90667L5.13334 18.5733C5.41334 19.5067 6.44 19.6 7 19.6H12.6C12.88 19.6 13.0667 19.7867 13.0667 20.0667C13.0667 20.3467 12.88 20.5333 12.6 20.5333Z" fill="#191B1D"/>
<path d="M7.93333 7.46667C7.84 7.46667 7.74667 7.46667 7.65333 7.37333C7.46667 7.18667 7.37333 6.90667 7.56 6.72L12.2267 0.186667C12.4133 6.36093e-07 12.6933 -0.0933327 12.88 0.093334C13.0667 0.280001 13.16 0.560001 12.9733 0.746667L8.30667 7.28C8.21333 7.37333 8.12 7.46667 7.93333 7.46667Z" fill="#191B1D"/>
<path d="M19.1333 7.46667C18.9467 7.46667 18.8533 7.37333 18.76 7.28L14.0933 0.746667C13.9067 0.560001 14 0.280001 14.1867 0.093334C14.3733 -0.0933327 14.6533 6.36093e-07 14.84 0.186667L19.5067 6.72C19.6933 6.90667 19.6 7.18667 19.4133 7.37333C19.32 7.46667 19.2267 7.46667 19.1333 7.46667Z" fill="#191B1D"/>
<path d="M21 28C17.1733 28 14 24.8267 14 21C14 17.1733 17.1733 14 21 14C24.8267 14 28 17.1733 28 21C28 24.8267 24.8267 28 21 28ZM21 14.9333C17.64 14.9333 14.9333 17.64 14.9333 21C14.9333 24.36 17.64 27.0667 21 27.0667C24.36 27.0667 27.0667 24.36 27.0667 21C27.0667 17.64 24.36 14.9333 21 14.9333Z" fill="#191B1D"/>
</svg>
