<?xml version="1.0" encoding="utf-8"?>
<!-- Generator: Adobe Illustrator 24.1.0, SVG Export Plug-In . SVG Version: 6.00 Build 0)  -->
<svg version="1.1" id="Layer_1" xmlns="http://www.w3.org/2000/svg" xmlns:xlink="http://www.w3.org/1999/xlink" x="0px" y="0px"
	 viewBox="0 0 512 512" style="enable-background:new 0 0 512 512;" xml:space="preserve">
<style type="text/css">
	.st0{fill:#006289;}
	.st1{fill:#F7F7F7;}
	.st2{fill:#76923B;}
	.st3{fill:#D2332B;}
	.st4{fill:#496E2D;}
	.st5{fill:#FECF0A;}
	.st6{fill:#0C8DB0;}
	.st7{fill:#F3F3F3;}
</style>
<path class="st0" d="M512,256c0,141.4-114.6,256-256,256S0,397.4,0,256C0,256.1,256,0,256,0C397.4,0,512,114.6,512,256z"/>
<g>
	<path class="st1" d="M256,0C256,0,256,0,256,0L256,0L256,0z"/>
	<path class="st1" d="M255.3,256h0.7c0-0.2,0-0.5,0-0.7C255.8,255.5,255.5,255.8,255.3,256z"/>
	<path class="st1" d="M256,133.6c0-45,0-74.6,0-133.6h0C114.6,0,0,114.6,0,256h133.6v-75.2l75.2,75.2h46.5c0.2-0.2,0.5-0.5,0.7-0.7
		c0-17.2,0-32.6,0-46.5l-75.2-75.2H256z"/>
</g>
<circle class="st2" cx="367.3" cy="144.7" r="44.5"/>
<g>
	<path class="st3" d="M129.5,33.4c-40,22.8-73.3,56.1-96.1,96.1V256h66.8V100.2v0H256c0-21.1,0-41.1,0-66.8
		C256,33.4,129.5,33.4,129.5,33.4z"/>
	<path class="st3" d="M256,224.5l-91-91h-31.5v0L256,256h0C256,256,256,234.3,256,224.5z"/>
	<rect x="289.4" y="133.6" class="st3" width="155.8" height="66.8"/>
</g>
<g>
	<path class="st4" d="M445.2,256L445.2,256L445.2,256z"/>
	<polygon class="st4" points="289.4,256 289.4,256 289.4,256 	"/>
</g>
<path class="st5" d="M289.4,300.5V345h23.4c14,13.8,33.3,22.3,54.5,22.3s40.4-8.5,54.5-22.3h1.2h22.3v-44.5H289.4z"/>
<path class="st6" d="M289.4,189.2V256c0,59.6,77.9,77.9,77.9,77.9s77.9-18.3,77.9-77.9v-66.8L289.4,189.2L289.4,189.2z"/>
<g>
	<path class="st7" d="M367.3,224.9c-19.5,0-19.5,17.8-39,17.8c-19.5,0-19.5-17.8-39-17.8v31.2c19.5,0,19.5,17.8,39,17.8
		s19.5-17.8,39-17.8c19.5,0,19.5,17.8,39,17.8s19.5-17.8,39-17.8v-31.2c-19.5,0-19.5,17.8-39,17.8
		C386.8,242.7,386.8,224.9,367.3,224.9z"/>
	<path class="st7" d="M367.3,162.5c-19.5,0-19.5,17.8-39,17.8c-19.5,0-19.5-17.8-39-17.8v31.2c19.5,0,19.5,17.8,39,17.8
		s19.5-17.8,39-17.8c19.5,0,19.5,17.8,39,17.8s19.5-17.8,39-17.8v-31.2c-19.5,0-19.5,17.8-39,17.8S386.8,162.5,367.3,162.5z"/>
</g>
</svg>
