<?xml version="1.0" encoding="utf-8"?>
<!-- Generator: Adobe Illustrator 24.1.0, SVG Export Plug-In . SVG Version: 6.00 Build 0)  -->
<svg version="1.1" id="Layer_1" xmlns="http://www.w3.org/2000/svg" xmlns:xlink="http://www.w3.org/1999/xlink" x="0px" y="0px"
	 viewBox="0 0 512 512" style="enable-background:new 0 0 512 512;" xml:space="preserve">
<style type="text/css">
	.st0{fill:#F7F7F7;}
	.st1{fill:#006289;}
	.st2{fill:#76923B;}
	.st3{fill:#FECF0A;}
	.st4{fill:#D2332B;}
	.st5{fill:#FFDA44;}
</style>
<circle class="st0" cx="256" cy="256" r="256"/>
<g>
	<path class="st1" d="M480.9,133.6c-33.1-60.6-90-106.4-158.1-124.8l-11.1,124.8H480.9z"/>
	<path class="st1" d="M31.1,133.6h169.2L189.2,8.8C121.1,27.2,64.2,72.9,31.1,133.6z"/>
</g>
<g>
	<path class="st2" d="M311.7,256v122.4h169.2C500.7,342.1,512,300.4,512,256H311.7z"/>
	<path class="st2" d="M200.3,256H0c0,44.4,11.3,86.1,31.1,122.4h169.2L200.3,256L200.3,256z"/>
</g>
<g>
	<path class="st3" d="M31.1,378.4c33.1,60.6,90,106.4,158.1,124.8l11.1-109.1L31.1,378.4z"/>
	<path class="st3" d="M322.8,503.2c68.1-18.4,125-64.1,158.1-124.8l-169.2,15.6L322.8,503.2z"/>
	<polygon class="st3" points="311.7,394.1 480.9,378.4 311.7,378.4 	"/>
	<polygon class="st3" points="200.3,378.4 31.1,378.4 200.3,394.1 	"/>
</g>
<path class="st4" d="M256,0c-23.1,0-45.5,3.1-66.8,8.8v494.4c21.3,5.7,43.7,8.8,66.8,8.8s45.5-3.1,66.8-8.8V8.8
	C301.5,3.1,279.1,0,256,0z"/>
<polygon class="st5" points="137.7,55.7 144.6,76.9 167,76.9 148.9,90 155.8,111.3 137.7,98.2 119.6,111.3 126.5,90 108.4,76.9 
	130.8,76.9 "/>
</svg>
