<?xml version="1.0" encoding="utf-8"?>
<!-- Generator: Adobe Illustrator 24.1.0, SVG Export Plug-In . SVG Version: 6.00 Build 0)  -->
<svg version="1.1" id="Layer_1" xmlns="http://www.w3.org/2000/svg" xmlns:xlink="http://www.w3.org/1999/xlink" x="0px" y="0px"
	 viewBox="0 0 512 512" style="enable-background:new 0 0 512 512;" xml:space="preserve">
<style type="text/css">
	.st0{fill:#F7F7F7;}
	.st1{fill:#263544;}
	.st2{fill:#FECF0A;}
	.st3{fill:#D2332B;}
	.st4{fill:#006289;}
</style>
<circle class="st0" cx="256" cy="256" r="256"/>
<path class="st1" d="M256,0C185.3,0,121.3,28.7,75,75l181,181V0z"/>
<path class="st1" d="M0,256c0,70.7,28.7,134.7,75,181l181-181H0z"/>
<path class="st1" d="M256,512c70.7,0,134.7-28.7,181-75L256,256V512z"/>
<path class="st1" d="M512,256c0-70.7-28.7-134.7-75-181L256,256H512z"/>
<polygon class="st2" points="167,178.1 256,189.2 345,178.1 345,124.7 309.4,142.5 256,89 202.6,142.5 167,124.7 "/>
<path class="st3" d="M256,389.6c-49.1,0-89-39.9-89-89v-89l33.4-33.4h111.3l33.4,33.4v89C345,349.6,305.1,389.6,256,389.6z"/>
<path class="st0" d="M256,356.2c-30.7,0-55.7-25-55.7-55.7v-89h111.3v89C311.7,331.2,286.7,356.2,256,356.2z"/>
<g>
	<rect x="167" y="178.1" class="st2" width="33.4" height="33.4"/>
	<rect x="311.7" y="178.1" class="st2" width="33.4" height="33.4"/>
	<rect x="311.7" y="250.4" class="st2" width="33.4" height="33.4"/>
	<rect x="167" y="250.4" class="st2" width="33.4" height="33.4"/>
	<path class="st2" d="M256,356.2c-5.8,0-11.4-0.9-16.7-2.6V388c5.4,1,11,1.6,16.7,1.6c5.7,0,11.3-0.6,16.7-1.6v-34.4
		C267.4,355.3,261.8,356.2,256,356.2z"/>
	<path class="st2" d="M201.1,309.6l-26.6,26.6c4.6,10.5,11.2,20,19.3,27.9l23.6-23.6C208.9,332.4,203.1,321.6,201.1,309.6z"/>
	<path class="st2" d="M337.6,336.2l-26.6-26.6c-2,12.1-7.8,22.8-16.3,31l23.6,23.6C326.3,356.2,332.9,346.7,337.6,336.2z"/>
</g>
<g>
	<path class="st4" d="M244.9,230v18.6c0,6.1,5,11.1,11.1,11.1s11.1-5,11.1-11.1V230L244.9,230L244.9,230z"/>
	<path class="st4" d="M244.9,304.2v18.5c0,6.1,5,11.1,11.1,11.1s11.1-5,11.1-11.1v-18.5H244.9L244.9,304.2z"/>
	<path class="st4" d="M278.3,267.1v18.6c0,6.1,5,11.1,11.1,11.1s11.1-5,11.1-11.1v-18.6H278.3z"/>
	<path class="st4" d="M244.9,267.1v18.6c0,6.1,5,11.1,11.1,11.1s11.1-5,11.1-11.1v-18.6H244.9z"/>
	<path class="st4" d="M211.5,267.1v18.6c0,6.1,5,11.1,11.1,11.1s11.1-5,11.1-11.1v-18.6H211.5z"/>
</g>
</svg>
