<?xml version="1.0" encoding="utf-8"?>
<!-- Generator: Adobe Illustrator 24.1.0, SVG Export Plug-In . SVG Version: 6.00 Build 0)  -->
<svg version="1.1" id="Layer_1" xmlns="http://www.w3.org/2000/svg" xmlns:xlink="http://www.w3.org/1999/xlink" x="0px" y="0px"
	 viewBox="0 0 512 512" style="enable-background:new 0 0 512 512;" xml:space="preserve">
<style type="text/css">
	.st0{fill:#006289;}
	.st1{fill:#76923B;}
	.st2{fill:#FECF0A;}
	.st3{fill:#F7F7F7;}
</style>
<path class="st0" d="M437,437C337,537,175,537,75,437S-25,175,75,75c7.9,7.9,204.6,157.4,204.6,157.4L437,437z"/>
<path class="st1" d="M75,75C175-25,337-25,437,75s100,262.1,0,362"/>
<circle class="st2" cx="256" cy="256" r="66.8"/>
<g>
	<polygon class="st3" points="95.3,367.3 102.3,382 118.2,378.3 111.1,393 123.9,403.1 108,406.7 108,423 95.3,412.8 82.6,423 
		82.7,406.7 66.8,403.1 79.5,393 72.4,378.3 88.3,382 	"/>
	<polygon class="st3" points="49.4,244.9 56.4,259.6 72.3,255.9 65.2,270.5 77.9,280.7 62,284.2 62.1,300.5 49.4,290.3 36.7,300.5 
		36.7,284.2 20.8,280.7 33.6,270.5 26.5,255.9 42.3,259.6 	"/>
	<polygon class="st3" points="95.3,144.7 102.3,159.4 118.2,155.7 111.1,170.4 123.9,180.5 108,184.1 108,200.3 95.3,190.2 
		82.6,200.3 82.7,184.1 66.8,180.5 79.5,170.4 72.4,155.7 88.3,159.4 	"/>
	<polygon class="st3" points="152.4,222.6 159.4,237.3 175.3,233.6 168.2,248.3 180.9,258.4 165.1,262 165.1,278.3 152.4,268.1 
		139.7,278.3 139.8,262 123.9,258.4 136.6,248.3 129.5,233.6 145.4,237.3 	"/>
	<polygon class="st3" points="111.6,289.4 117.1,306.4 135,306.4 120.5,316.9 126.1,333.9 111.6,323.4 97.1,333.9 102.7,316.9 
		88.2,306.4 106.1,306.4 	"/>
</g>
<path class="st1" d="M256,300.5h22.3c0,0,9.6-17.1,0-33.4l22.3-22.3l-11.1-22.3h-11.1c0,0-5.6,16.7-27.8,16.7s-27.8-16.7-27.8-16.7
	h-11.1l11.1,22.3l-11.1,22.3l11.1,11.1c0,0,11.1-22.3,33.4-11.1C256,267.1,265.5,281,256,300.5z"/>
<path class="st2" d="M422.2,140.2c0.5-2.7,0.8-5.6,0.8-8.4c0-19.8-12.9-36.6-30.8-42.4c5.5,11.1,8.5,23.6,8.5,36.8
	c0,4.5-0.4,8.8-1,13.1c-2.7-4.3-6.1-8.3-10.4-11.7c-15.9-12.7-37.6-13-53.7-2.3c12.4,2.7,24.4,8.2,35,16.7
	c8.3,6.6,15,15.5,20.2,24.2l-68,21.3c66.8,11.1,122.4-33.4,122.4-33.4C439.1,141.7,429.5,139.6,422.2,140.2z"/>
</svg>
