<?xml version="1.0" encoding="utf-8"?>
<!-- Generator: Adobe Illustrator 24.1.0, SVG Export Plug-In . SVG Version: 6.00 Build 0)  -->
<svg version="1.1" id="Layer_1" xmlns="http://www.w3.org/2000/svg" xmlns:xlink="http://www.w3.org/1999/xlink" x="0px" y="0px"
	 viewBox="0 0 512 512" style="enable-background:new 0 0 512 512;" xml:space="preserve">
<style type="text/css">
	.st0{fill:#76923B;}
	.st1{fill:#FECF0A;}
	.st2{fill:#AC2D2A;}
</style>
<circle class="st0" cx="256" cy="256" r="256"/>
<g>
	<polygon class="st1" points="393,367.3 400,382 415.9,378.3 408.8,393 421.5,403.1 405.6,406.7 405.7,423 393,412.8 380.3,423 
		380.3,406.7 364.4,403.1 377.2,393 370.1,378.3 386,382 	"/>
	<polygon class="st1" points="327.6,211.5 334.7,226.2 350.5,222.5 343.4,237.2 356.2,247.3 340.3,250.8 340.3,267.1 327.6,256.9 
		314.9,267.1 315,250.8 299.1,247.3 311.8,237.2 304.7,222.5 320.6,226.2 	"/>
	<polygon class="st1" points="393,122.4 400,137.1 415.9,133.5 408.8,148.1 421.5,158.2 405.6,161.8 405.7,178.1 393,167.9 
		380.3,178.1 380.3,161.8 364.4,158.2 377.2,148.1 370.1,133.5 386,137.1 	"/>
	<polygon class="st1" points="450.1,189.2 457.1,203.9 473,200.2 465.9,214.9 478.6,225 462.7,228.6 462.8,244.9 450.1,234.7 
		437.4,244.9 437.4,228.6 421.5,225 434.3,214.9 427.2,200.2 443,203.9 	"/>
	<polygon class="st1" points="409.2,267.1 414.8,284.1 432.7,284.1 418.2,294.6 423.7,311.7 409.2,301.1 394.8,311.7 400.3,294.6 
		385.8,284.1 403.7,284.1 	"/>
	<path class="st1" d="M283.8,328.3c-40,0-72.3-32.4-72.3-72.3s32.4-72.3,72.3-72.3c12.5,0,24.2,3.2,34.4,8.7
		c-16.1-15.7-38-25.4-62.2-25.4c-49.2,0-89,39.9-89,89s39.9,89,89,89c24.2,0,46.2-9.7,62.2-25.4C308,325.2,296.3,328.3,283.8,328.3z
		"/>
	<path class="st1" d="M161,100.2c-7.7-13.3-22.1-22.3-38.6-22.3s-30.9,9-38.6,22.3H161z"/>
	<path class="st1" d="M161.1,100.4l-38.7,38.7l-38.7-38.7c-3.7,6.5-5.8,14-5.8,22c0,24.6,19.9,44.5,44.5,44.5S167,147,167,122.4
		C167,114.4,164.8,106.9,161.1,100.4z"/>
</g>
<path class="st2" d="M111.3,128v37.6c3.6,0.9,7.3,1.4,11.1,1.4c3.8,0,7.6-0.5,11.1-1.4V128H111.3z"/>
</svg>
