<?xml version="1.0" encoding="utf-8"?>
<!-- Generator: Adobe Illustrator 24.1.0, SVG Export Plug-In . SVG Version: 6.00 Build 0)  -->
<svg version="1.1" id="Layer_1" xmlns="http://www.w3.org/2000/svg" xmlns:xlink="http://www.w3.org/1999/xlink" x="0px" y="0px"
	 viewBox="0 0 512 512" style="enable-background:new 0 0 512 512;" xml:space="preserve">
<style type="text/css">
	.st0{fill:#F7F7F7;}
	.st1{fill:#D2332B;}
	.st2{fill:#FECF0A;}
	.st3{fill:#006289;}
	.st4{fill:#76923B;}
</style>
<circle class="st0" cx="256" cy="256" r="256"/>
<path class="st1" d="M512,255.3H234.5c-55.1,55.1-88.4,97.6-122.4,131.7l144.7,13l224.5-22.3C500.9,341.5,512,300,512,256
	C512,255.8,512,255.5,512,255.3z"/>
<path class="st2" d="M112,132.8h368.4C436.9,53.7,352.7,0,256,0C185.5,0,121.7,28.5,75.4,74.6L112,132.8z"/>
<path class="st3" d="M123.2,377.7c-23,23-31.9,42.3-48.6,58.9C121,483.2,185.1,512,256,512c97.3,0,182-54.3,225.3-134.3H123.2
	L123.2,377.7z"/>
<path class="st4" d="M75,74.2c-100,100-100,262.1,0,362c41.3-41.3,81-81,181-181L75,74.2z"/>
<g>
	<path class="st0" d="M67.5,255.3c0-37.3,26.2-68.5,61.2-76.1c-5.4-1.2-11-1.8-16.7-1.8c-43,0-77.9,34.9-77.9,77.9
		S69,333.2,112,333.2c5.7,0,11.3-0.6,16.7-1.8C93.7,323.7,67.5,292.6,67.5,255.3z"/>
	<polygon class="st0" points="127.9,188.5 132,201.2 145.4,201.2 134.6,209.1 138.7,221.9 127.9,214 117,221.9 121.2,209.1 
		110.3,201.2 123.7,201.2 	"/>
	<polygon class="st0" points="127.9,221.9 132,234.6 145.4,234.6 134.6,242.5 138.7,255.3 127.9,247.4 117,255.3 121.2,242.5 
		110.3,234.6 123.7,234.6 	"/>
	<polygon class="st0" points="127.9,255.3 132,268 145.4,268 134.6,275.9 138.7,288.6 127.9,280.8 117,288.6 121.2,275.9 110.3,268 
		123.7,268 	"/>
	<polygon class="st0" points="127.9,288.6 132,301.4 145.4,301.4 134.6,309.3 138.7,322 127.9,314.2 117,322 121.2,309.3 
		110.3,301.4 123.7,301.4 	"/>
</g>
</svg>
