<?xml version="1.0" encoding="utf-8"?>
<!-- Generator: Adobe Illustrator 24.1.0, SVG Export Plug-In . SVG Version: 6.00 Build 0)  -->
<svg version="1.1" id="Layer_1" xmlns="http://www.w3.org/2000/svg" xmlns:xlink="http://www.w3.org/1999/xlink" x="0px" y="0px"
	 viewBox="0 0 512 512" style="enable-background:new 0 0 512 512;" xml:space="preserve">
<style type="text/css">
	.st0{fill:#006289;}
	.st1{fill:#F7F7F7;}
	.st2{fill:#D2332B;}
	.st3{fill:#496E2D;}
</style>
<path class="st0" d="M512,256c0,141.4-114.6,256-256,256S0,397.4,0,256C0,256.1,256,0,256,0C397.4,0,512,114.6,512,256z"/>
<g>
	<path class="st1" d="M256,0C256,0,256,0,256,0L256,0L256,0z"/>
	<path class="st1" d="M255.3,256h0.7c0-0.2,0-0.5,0-0.7C255.8,255.5,255.5,255.8,255.3,256z"/>
	<path class="st1" d="M256,133.6c0-45,0-74.6,0-133.6h0C114.6,0,0,114.6,0,256h133.6v-75.2l75.2,75.2h46.5c0.2-0.2,0.5-0.5,0.7-0.7
		c0-17.2,0-32.6,0-46.5l-75.2-75.2H256z"/>
</g>
<g>
	<path class="st2" d="M129.5,33.4c-40,22.8-73.3,56.1-96.1,96.1V256h66.8V100.2v0H256c0-21.1,0-41.1,0-66.8
		C256,33.4,129.5,33.4,129.5,33.4z"/>
	<path class="st2" d="M256,224.5l-91-91h-31.5v0L256,256h0C256,256,256,234.3,256,224.5z"/>
</g>
<g>
	<path class="st3" d="M445.2,256L445.2,256L445.2,256z"/>
	<path class="st3" d="M289.4,256L289.4,256L289.4,256z"/>
</g>
<g>
	<polygon class="st1" points="345,256 349.8,270.6 365.1,270.6 352.7,279.6 357.4,294.2 345,285.2 332.6,294.2 337.4,279.6 
		325,270.6 340.3,270.6 	"/>
	<polygon class="st1" points="282.1,282.1 295.7,289 306.6,278.2 304.2,293.3 317.8,300.3 302.7,302.7 300.3,317.8 293.3,304.2 
		278.2,306.6 289,295.7 	"/>
	<polygon class="st1" points="256,345 270.6,340.3 270.6,325 279.6,337.4 294.2,332.6 285.2,345 294.2,357.4 279.6,352.7 
		270.6,365.1 270.6,349.8 	"/>
	<polygon class="st1" points="282.1,408 289,394.4 278.2,383.5 293.3,385.9 300.3,372.3 302.7,387.4 317.8,389.8 304.2,396.7 
		306.6,411.9 295.7,401 	"/>
	<polygon class="st1" points="345,434.1 340.3,419.5 325,419.5 337.4,410.5 332.6,395.9 345,404.9 357.4,395.9 352.7,410.5 
		365.1,419.5 349.8,419.5 	"/>
	<polygon class="st1" points="408,408 394.4,401 383.5,411.9 385.9,396.7 372.3,389.8 387.4,387.4 389.8,372.3 396.7,385.9 
		411.9,383.5 401,394.4 	"/>
	<polygon class="st1" points="434.1,345 419.5,349.8 419.5,365.1 410.5,352.7 395.9,357.4 404.9,345 395.9,332.6 410.5,337.4 
		419.5,325 419.5,340.3 	"/>
	<polygon class="st1" points="408,282.1 401,295.7 411.9,306.6 396.7,304.2 389.8,317.8 387.4,302.7 372.3,300.3 385.9,293.3 
		383.5,278.2 394.4,289 	"/>
</g>
</svg>
