<?xml version="1.0" encoding="utf-8"?>
<!-- Generator: Adobe Illustrator 24.1.0, SVG Export Plug-In . SVG Version: 6.00 Build 0)  -->
<svg version="1.1" id="Layer_1" xmlns="http://www.w3.org/2000/svg" xmlns:xlink="http://www.w3.org/1999/xlink" x="0px" y="0px"
	 viewBox="0 0 512 512" style="enable-background:new 0 0 512 512;" xml:space="preserve">
<style type="text/css">
	.st0{fill:#F7F7F7;}
	.st1{fill:#1E2834;}
	.st2{fill:#ACABB1;}
</style>
<circle class="st0" cx="256" cy="256" r="256"/>
<path class="st1" d="M345.1,216.8c0-54.1-43.9-98-98-98c-40,0-74.3,23.9-89.6,58.2l-12.1,43.8l11.1,11.1l-22.3,44.5l22.3,11.1
	l-11.1,11.1v11.1l11.1,11.1v22.3l11.1,11.1l33.4-11.1c0,0,0,11.1,11.1,22.3c11.1,11.1,22.3,33.4,22.3,33.4s33.4,11.1,55.7-22.3
	c22.3-33.4,44.5-44.5,44.5-44.5l-21.5-42.9C332.8,271.3,345.1,245.5,345.1,216.8z"/>
<path class="st2" d="M353.1,254.3c45.2-7.6,52.8-96.2,52.8-96.2h-62.3c32.3,77.9-1.5,83.2-1.5,83.2c-4.6-3.4-168.4-81-173.6-83
	c-1.3,1.7-5.9,6.1-11.5,19.8c-5.6,13.7-7,26-7,26c2.6,1.7,176.6,62.5,181.2,63c9.1,6,20.4,23.8,14.1,76.7l60-16.9
	C405.3,326.8,384.9,272.7,353.1,254.3z"/>
</svg>
