<?xml version="1.0" encoding="utf-8"?>
<!-- Generator: Adobe Illustrator 24.1.0, SVG Export Plug-In . SVG Version: 6.00 Build 0)  -->
<svg version="1.1" id="Layer_1" xmlns="http://www.w3.org/2000/svg" xmlns:xlink="http://www.w3.org/1999/xlink" x="0px" y="0px"
	 viewBox="0 0 512 512" style="enable-background:new 0 0 512 512;" xml:space="preserve">
<style type="text/css">
	.st0{fill:#F7F7F7;}
	.st1{fill:#006289;}
	.st2{fill:#D2332B;}
	.st3{fill:#0C8DB0;}
	.st4{fill:#F0F0F0;}
</style>
<path class="st0" d="M512,256c0-31.3-5.6-61.3-15.9-89L256,155.8L15.9,167C5.6,194.7,0,224.7,0,256s5.6,61.3,15.9,89L256,356.2
	L496.1,345C506.4,317.3,512,287.3,512,256z"/>
<path class="st1" d="M256,512c110.1,0,203.9-69.5,240.1-167H15.9C52.1,442.5,145.9,512,256,512z"/>
<path class="st2" d="M15.9,167h480.2C459.9,69.5,366.1,0,256,0S52.1,69.5,15.9,167z"/>
<g>
	<polygon class="st3" points="322.8,178.1 278.3,178.1 285.7,122.4 315.4,100.2 345,122.4 345,167 	"/>
	<polygon class="st3" points="189.2,178.1 233.7,178.1 226.3,122.4 196.6,100.2 167,122.4 167,167 	"/>
</g>
<polygon class="st1" points="285.7,178.1 226.3,178.1 226.3,122.4 256,100.2 285.7,122.4 "/>
<path class="st4" d="M167,167v122.4c0,29.2,14.1,55.1,35.8,71.3l15.6-3.9l19.7,19.8c5.8,1.2,11.8,1.8,18,1.8
	c6.1,0,12.1-0.6,17.9-1.8l22.4-18.7l12.9,2.8c21.7-16.3,35.8-42.2,35.8-71.3V167H167z"/>
<g>
	<rect x="167" y="167" class="st2" width="35.6" height="35.6"/>
	<rect x="238.2" y="167" class="st2" width="35.6" height="35.6"/>
	<rect x="309.4" y="167" class="st2" width="35.6" height="35.6"/>
	<rect x="202.6" y="202.6" class="st2" width="35.6" height="35.6"/>
	<rect x="273.8" y="202.6" class="st2" width="35.6" height="35.6"/>
	<rect x="167" y="238.2" class="st2" width="35.6" height="35.6"/>
	<rect x="202.6" y="273.8" class="st2" width="35.6" height="35.6"/>
	<rect x="238.2" y="238.2" class="st2" width="35.6" height="35.6"/>
	<rect x="309.4" y="238.2" class="st2" width="35.6" height="35.6"/>
	<rect x="273.8" y="273.8" class="st2" width="35.6" height="35.6"/>
	<rect x="238.2" y="309.4" class="st2" width="35.6" height="35.6"/>
	<path class="st2" d="M202.6,309.4h-33.3c3.1,13.2,9.1,25.4,17.3,35.6h16V309.4z"/>
	<path class="st2" d="M309.4,345h16c8.2-10.3,14.2-22.4,17.3-35.6h-33.3V345z"/>
	<path class="st2" d="M202.6,345v15.5c10.4,7.8,22.5,13.4,35.6,16.1V345L202.6,345L202.6,345z"/>
	<path class="st2" d="M273.8,345v31.6c13.2-2.7,25.3-8.3,35.6-16.1V345H273.8z"/>
</g>
</svg>
