<?xml version="1.0" encoding="utf-8"?>
<!-- Generator: Adobe Illustrator 24.1.0, SVG Export Plug-In . SVG Version: 6.00 Build 0)  -->
<svg version="1.1" id="Layer_1" xmlns="http://www.w3.org/2000/svg" xmlns:xlink="http://www.w3.org/1999/xlink" x="0px" y="0px"
	 viewBox="0 0 512 512" style="enable-background:new 0 0 512 512;" xml:space="preserve">
<style type="text/css">
	.st0{fill:#F7F7F7;}
	.st1{fill:#76923B;}
	.st2{fill:#FECF0A;}
</style>
<circle class="st0" cx="256" cy="256" r="256"/>
<path class="st1" d="M400.7,222.6c-7.8,0-17.4,0-33.4,0c0,61.5-49.8,111.3-111.3,111.3c-61.5,0-111.3-49.8-111.3-111.3
	c-10.8,0-22.6,0-33.4,0c0,66.2,44.5,122,105.2,139.2c-6.7,12.6-5.6,28.6,3.9,40.4c12.5-10,25.4-20.4,36.4-29.2
	c11,8.8,23.9,19.1,36.4,29.2c9.6-12,10.5-28.1,3.7-40.8C356.8,343.8,400.7,288.4,400.7,222.6z"/>
<path class="st2" d="M167,211.5c0,0,0,55.7,55.7,55.7l11.1,11.1H256c0,0,11.1-33.4,33.4-33.4c0,0,0-22.3,22.3-22.3s33.4,0,33.4,0
	s-11.1-44.5,44.5-77.9l-22.3-11.1c0,0-77.9,55.7-133.6,44.5v22.3h-22.3l-11.1-11.1L167,211.5z"/>
</svg>
