<?xml version="1.0" encoding="utf-8"?>
<!-- Generator: Adobe Illustrator 24.1.0, SVG Export Plug-In . SVG Version: 6.00 Build 0)  -->
<svg version="1.1" id="Layer_1" xmlns="http://www.w3.org/2000/svg" xmlns:xlink="http://www.w3.org/1999/xlink" x="0px" y="0px"
	 viewBox="0 0 512 512" style="enable-background:new 0 0 512 512;" xml:space="preserve">
<style type="text/css">
	.st0{fill:#FECF0A;}
	.st1{fill:#D2332B;}
	.st2{fill:#0C8DB0;}
</style>
<path class="st0" d="M483.6,138.6C471.7,115.7,456.2,94.2,437,75c-19.2-19.2-40.7-34.7-63.6-46.5L193,193L28.4,373.4
	C40.3,396.3,55.8,417.8,75,437s40.7,34.7,63.6,46.5L319,319L483.6,138.6z"/>
<path class="st1" d="M75,437c10.7,10.7,22.2,20.3,34.2,28.8l356.6-356.6c-8.4-12-18-23.5-28.7-34.2c-10.7-10.7-22.2-20.3-34.2-28.7
	L46.2,402.8C54.7,414.8,64.2,426.3,75,437z"/>
<g>
	<path class="st2" d="M75,75C-5.8,155.7-21.3,277,28.4,373.4l345-345C277-21.3,155.7-5.8,75,75z"/>
	<path class="st2" d="M437,437c80.8-80.8,96.3-202.1,46.5-298.4l-345,345C235,533.3,356.3,517.8,437,437z"/>
</g>
<polygon class="st0" points="136.4,77.9 150.2,120.4 194.9,120.4 158.8,146.7 172.6,189.2 136.4,162.9 100.3,189.2 114.1,146.7 
	77.9,120.4 122.6,120.4 "/>
</svg>
