<?xml version="1.0" encoding="utf-8"?>
<!-- Generator: Adobe Illustrator 24.1.0, SVG Export Plug-In . SVG Version: 6.00 Build 0)  -->
<svg version="1.1" id="Layer_1" xmlns="http://www.w3.org/2000/svg" xmlns:xlink="http://www.w3.org/1999/xlink" x="0px" y="0px"
	 viewBox="0 0 512 512" style="enable-background:new 0 0 512 512;" xml:space="preserve">
<style type="text/css">
	.st0{fill:#12B2D9;}
	.st1{fill:#76923B;}
	.st2{fill:#F7F7F7;}
	.st3{fill:#D2332B;}
</style>
<path class="st0" d="M233.7,278.3c0,0-158.6-203.3-158.8-203.3C121.3,28.7,185.3,0,256,0c141.4,0,256,114.6,256,256L233.7,278.3z"/>
<path class="st1" d="M233.7,256c0,0-158.6,181.1-158.8,181c46.3,46.3,110.3,75,181,75c141.4,0,256-114.6,256-256H233.7z"/>
<path class="st2" d="M75,75C-25,175-25,337,75,437c41.3-41.3,81-81,181-181L75,75z"/>
<polygon class="st3" points="103.6,189.2 120.2,240.2 173.8,240.2 130.4,271.8 147,322.8 103.6,291.3 60.2,322.8 76.8,271.8 
	33.4,240.2 87,240.2 "/>
</svg>
