<?xml version="1.0" encoding="utf-8"?>
<!-- Generator: Adobe Illustrator 24.1.0, SVG Export Plug-In . SVG Version: 6.00 Build 0)  -->
<svg version="1.1" id="Layer_1" xmlns="http://www.w3.org/2000/svg" xmlns:xlink="http://www.w3.org/1999/xlink" x="0px" y="0px"
	 viewBox="0 0 512 512" style="enable-background:new 0 0 512 512;" xml:space="preserve">
<style type="text/css">
	.st0{fill:#F7F7F7;}
	.st1{fill:#76923B;}
	.st2{fill:#FECF0A;}
	.st3{fill:#1E2834;}
	.st4{fill:#D2332B;}
</style>
<circle class="st0" cx="256" cy="256" r="256"/>
<g>
	<path class="st1" d="M306.1,507.1c101.2-20.1,180.9-99.8,201-201h-201V507.1z"/>
	<path class="st1" d="M4.9,306.1c20.1,101.2,99.8,180.9,201,201v-201H4.9z"/>
	<path class="st1" d="M507.1,205.9C487,104.7,407.3,25,306.1,4.9v201H507.1z"/>
	<path class="st1" d="M205.9,4.9C104.7,25,25,104.7,4.9,205.9h201V4.9z"/>
</g>
<g>
	<path class="st2" d="M239.3,306.1h-33.4v201c10.9,2.2,22,3.6,33.4,4.4L239.3,306.1L239.3,306.1z"/>
	<path class="st2" d="M239.3,205.9V0.6c-11.3,0.7-22.5,2.2-33.4,4.4v201H239.3z"/>
</g>
<path class="st3" d="M272.7,0.6C267.2,0.2,261.6,0,256,0s-11.2,0.2-16.7,0.6v205.4h33.4L272.7,0.6L272.7,0.6z"/>
<path class="st3" d="M239.3,511.4c5.5,0.4,11.1,0.6,16.7,0.6s11.2-0.2,16.7-0.6V306.1h-33.4L239.3,511.4L239.3,511.4z"/>
<g>
	<path class="st2" d="M205.9,239.3v-33.4H4.9c-2.2,10.9-3.6,22-4.4,33.4L205.9,239.3L205.9,239.3z"/>
	<path class="st2" d="M306.1,239.3h205.4c-0.7-11.3-2.2-22.5-4.4-33.4h-201L306.1,239.3L306.1,239.3z"/>
</g>
<path class="st3" d="M306.1,272.7h205.4c0.4-5.5,0.6-11.1,0.6-16.7s-0.2-11.2-0.6-16.7H306.1V272.7z"/>
<path class="st3" d="M0.6,239.3C0.2,244.8,0,250.4,0,256s0.2,11.2,0.6,16.7h205.4v-33.4L0.6,239.3L0.6,239.3z"/>
<circle class="st4" cx="256" cy="256" r="122.4"/>
<g>
	<path class="st1" d="M283.9,269.7C274.8,251.4,263,233,263,233s0.3-8.4,0.3-13.4c0-7.5-6.1-13.7-13.7-13.7c-7.1,0-13,5.5-13.6,12.5
		c-5.6,0.4-10.1,5-10.1,10.7c0,4.2,2.4,7.8,5.8,9.6c1.7-4,5.1-7.1,9.2-8.6c0.7,0.6,1.4,1,2.2,1.5l1.8,0.8c0,0-6.5,18.3-6.5,28.1
		c0,27.6,18.2,36.1,18.2,36.1v0.3l-9.1,9.1h18.2v-18.2l9.1,9.1C274.9,296.8,292,286,283.9,269.7z"/>
	<polygon class="st1" points="256,155.8 260.1,168.6 273.6,168.6 262.7,176.5 266.9,189.2 256,181.3 245.1,189.2 249.3,176.5 
		238.4,168.6 251.9,168.6 	"/>
	<polygon class="st1" points="197.1,175 208,182.8 218.8,175 214.7,187.7 225.5,195.6 212.1,195.6 208,208.3 203.8,195.6 
		190.4,195.6 201.3,187.7 	"/>
	<polygon class="st1" points="160.7,225 174.1,225 178.3,212.3 182.4,225 195.8,225 185,232.9 189.1,245.7 178.3,237.8 167.4,245.7 
		171.6,232.9 	"/>
	<polygon class="st1" points="160.7,287 171.6,279.1 167.4,266.3 178.3,274.2 189.1,266.3 185,279.1 195.8,287 182.4,287 
		178.3,299.7 174.1,287 	"/>
	<polygon class="st1" points="197.1,337 201.3,324.3 190.4,316.4 203.8,316.4 208,303.7 212.1,316.4 225.5,316.4 214.7,324.3 
		218.8,337 208,329.2 	"/>
	<polygon class="st1" points="256,356.2 251.9,343.4 238.4,343.4 249.3,335.5 245.1,322.8 256,330.7 266.8,322.8 262.7,335.5 
		273.6,343.4 260.1,343.4 	"/>
	<polygon class="st1" points="314.9,337 304,329.2 293.2,337 297.3,324.3 286.5,316.4 299.9,316.4 304,303.7 308.2,316.4 
		321.6,316.4 310.7,324.3 	"/>
	<polygon class="st1" points="351.3,287 337.9,287 333.7,299.7 329.6,287 316.2,287 327,279.1 322.9,266.3 333.7,274.2 344.6,266.3 
		340.4,279.1 	"/>
	<polygon class="st1" points="351.3,225 340.4,232.9 344.6,245.7 333.7,237.8 322.9,245.7 327,232.9 316.2,225 329.6,225 
		333.7,212.3 337.9,225 	"/>
	<polygon class="st1" points="314.9,175 310.7,187.7 321.6,195.6 308.2,195.6 304,208.3 299.9,195.6 286.5,195.6 297.3,187.7 
		293.2,175 304,182.8 	"/>
</g>
</svg>
