<?xml version="1.0" encoding="utf-8"?>
<!-- Generator: Adobe Illustrator 24.1.0, SVG Export Plug-In . SVG Version: 6.00 Build 0)  -->
<svg version="1.1" id="Layer_1" xmlns="http://www.w3.org/2000/svg" xmlns:xlink="http://www.w3.org/1999/xlink" x="0px" y="0px"
	 viewBox="0 0 512 512" style="enable-background:new 0 0 512 512;" xml:space="preserve">
<style type="text/css">
	.st0{fill:#F7F7F7;}
	.st1{fill:#D2332B;}
	.st2{fill:#006289;}
	.st3{fill:#76923B;}
</style>
<circle class="st0" cx="256" cy="256" r="256"/>
<path class="st1" d="M8.8,322.8c23.6,87.7,92.7,156.8,180.4,180.4V322.8H8.8z"/>
<path class="st2" d="M189.2,8.8C101.5,32.5,32.5,101.5,8.8,189.2h180.4L189.2,8.8L189.2,8.8z"/>
<path class="st1" d="M503.2,189.2C479.5,101.5,410.5,32.5,322.8,8.8v180.4L503.2,189.2L503.2,189.2z"/>
<path class="st2" d="M322.8,503.2c87.7-23.6,156.8-92.7,180.4-180.4H322.8V503.2z"/>
<path class="st3" d="M322.8,256c0,36.9-29.9,66.8-66.8,66.8c-36.9,0-66.8-29.9-66.8-66.8s66.8-66.8,66.8-66.8S322.8,219.1,322.8,256
	z"/>
<path class="st2" d="M189.2,256c0-36.9,29.9-66.8,66.8-66.8c36.9,0,66.8,29.9,66.8,66.8"/>
<path class="st1" d="M218.4,222.6v41.7c0,20.7,16.8,37.6,37.6,37.6s37.6-16.8,37.6-37.6v-41.7H218.4z"/>
</svg>
