<?xml version="1.0" encoding="utf-8"?>
<!-- Generator: Adobe Illustrator 24.1.0, SVG Export Plug-In . SVG Version: 6.00 Build 0)  -->
<svg version="1.1" id="Layer_1" xmlns="http://www.w3.org/2000/svg" xmlns:xlink="http://www.w3.org/1999/xlink" x="0px" y="0px"
	 viewBox="0 0 512 512" style="enable-background:new 0 0 512 512;" xml:space="preserve">
<style type="text/css">
	.st0{fill:#FECF0A;}
	.st1{fill:#D2332B;}
	.st2{fill:#1E2834;}
	.st3{fill:#F7F7F7;}
</style>
<circle class="st0" cx="256" cy="256" r="256"/>
<path class="st1" d="M256,0C193.3,0,135.9,22.5,91.4,59.9l0,0L367.3,256L91.4,452.1l0,0C135.9,489.5,193.3,512,256,512
	c141.4,0,256-114.6,256-256S397.4,0,256,0z"/>
<path class="st2" d="M75,75C-25,175-25,337,75,437c41.3-41.3,81-81,181-181L75,75z"/>
<polygon class="st3" points="71,197.4 109.9,234.2 157,208.6 134,257 173,293.9 119.8,287 96.8,335.4 86.9,282.7 33.7,275.7 
	80.8,250.1 "/>
</svg>
