<?xml version="1.0" encoding="utf-8"?>
<!-- Generator: Adobe Illustrator 24.1.0, SVG Export Plug-In . SVG Version: 6.00 Build 0)  -->
<svg version="1.1" id="Layer_1" xmlns="http://www.w3.org/2000/svg" xmlns:xlink="http://www.w3.org/1999/xlink" x="0px" y="0px"
	 viewBox="0 0 512 512" style="enable-background:new 0 0 512 512;" xml:space="preserve">
<style type="text/css">
	.st0{fill:#FECF0A;}
	.st1{fill:#D2332B;}
	.st2{fill:#006289;}
	.st3{fill:#0C8DB0;}
	.st4{fill:#1E2834;}
</style>
<path class="st0" d="M0,256C0,114.6,114.6,0,256,0s256,114.6,256,256l-256,22.3L0,256z"/>
<path class="st1" d="M34.3,384c44.3,76.5,127,128,221.7,128s177.5-51.5,221.7-128L256,367.3L34.3,384z"/>
<path class="st2" d="M477.7,384c21.8-37.7,34.3-81.4,34.3-128H0c0,46.6,12.5,90.3,34.3,128H477.7z"/>
<circle class="st0" cx="256" cy="256" r="89"/>
<path class="st3" d="M256,311.7c-30.7,0-55.7-25-55.7-55.7v-33.4c0-30.7,25-55.7,55.7-55.7s55.7,25,55.7,55.7V256
	C311.7,286.7,286.7,311.7,256,311.7z"/>
<path class="st4" d="M345,122.4h-66.8c0-12.3-10-22.3-22.3-22.3s-22.3,10-22.3,22.3H167c0,12.3,10.7,22.3,23,22.3h-0.7
	c0,12.3,10,22.3,22.3,22.3c0,12.3,10,22.3,22.3,22.3h44.5c12.3,0,22.3-10,22.3-22.3c12.3,0,22.3-10,22.3-22.3H322
	C334.3,144.7,345,134.7,345,122.4z"/>
</svg>
