<?xml version="1.0" encoding="utf-8"?>
<!-- Generator: Adobe Illustrator 24.1.0, SVG Export Plug-In . SVG Version: 6.00 Build 0)  -->
<svg version="1.1" id="Layer_1" xmlns="http://www.w3.org/2000/svg" xmlns:xlink="http://www.w3.org/1999/xlink" x="0px" y="0px"
	 viewBox="0 0 512 512" style="enable-background:new 0 0 512 512;" xml:space="preserve">
<style type="text/css">
	.st0{fill:#F7F7F7;}
	.st1{fill:#D2332B;}
	.st2{fill:#1E2834;}
	.st3{fill:#F89341;}
</style>
<circle class="st0" cx="256" cy="256" r="256"/>
<path class="st1" d="M256,0C145.9,0,52.1,69.5,15.9,167h480.2C459.9,69.5,366.1,0,256,0z"/>
<path class="st2" d="M256,512c110.1,0,203.9-69.5,240.1-167H15.9C52.1,442.5,145.9,512,256,512z"/>
<path class="st3" d="M345,228.2h-66.8c0-12.3-10-22.3-22.3-22.3s-22.3,10-22.3,22.3H167c0,12.3,10.7,22.3,23,22.3h-0.7
	c0,12.3,10,22.3,22.3,22.3c0,12.3,10,22.3,22.3,22.3h44.5c12.3,0,22.3-10,22.3-22.3c12.3,0,22.3-10,22.3-22.3H322
	C334.3,250.4,345,240.5,345,228.2z"/>
</svg>
