<?xml version="1.0" encoding="utf-8"?>
<!-- Generator: Adobe Illustrator 24.1.0, SVG Export Plug-In . SVG Version: 6.00 Build 0)  -->
<svg version="1.1" id="Layer_1" xmlns="http://www.w3.org/2000/svg" xmlns:xlink="http://www.w3.org/1999/xlink" x="0px" y="0px"
	 viewBox="0 0 512 512" style="enable-background:new 0 0 512 512;" xml:space="preserve">
<style type="text/css">
	.st0{fill:#0C8DB0;}
	.st1{fill:#76923B;}
	.st2{fill:#D2332B;}
	.st3{fill:#FECF0A;}
</style>
<path class="st0" d="M233.7,233.7c0,0-158.6,203.3-158.8,203.3c46.3,46.3,110.3,75,181,75c141.4,0,256-114.6,256-256L233.7,233.7z"
	/>
<path class="st1" d="M233.7,256c0,0-158.6-181.1-158.8-181C121.3,28.7,185.3,0,256,0c141.4,0,256,114.6,256,256H233.7z"/>
<path class="st2" d="M75,75C-25,175-25,337,75,437c0,0,437-181,437-181L75,75z"/>
<path class="st3" d="M133.6,150.3c-49.1,0-89,39.9-89,89v33.4c0,49.1,39.9,89,89,89s89-39.9,89-89v-33.4
	C222.6,190.2,182.7,150.3,133.6,150.3z M189.2,272.7c0,24.9-16.4,46-39,53.1v-36.4l23.6-23.6l-23.6-23.6l0-8.4v-11.1h-33.4V256
	l-23.6,23.6l23.6,23.6v22.6c-22.6-7.1-39-28.2-39-53.1v-33.4c0-30.7,25-55.7,55.7-55.7s55.7,25,55.7,55.7L189.2,272.7L189.2,272.7z"
	/>
</svg>
