<?xml version="1.0" encoding="utf-8"?>
<!-- Generator: Adobe Illustrator 24.1.0, SVG Export Plug-In . SVG Version: 6.00 Build 0)  -->
<svg version="1.1" id="Layer_1" xmlns="http://www.w3.org/2000/svg" xmlns:xlink="http://www.w3.org/1999/xlink" x="0px" y="0px"
	 viewBox="0 0 512 512" style="enable-background:new 0 0 512 512;" xml:space="preserve">
<style type="text/css">
	.st0{fill:#FECF0A;}
	.st1{fill:#D2332B;}
	.st2{fill:#76923B;}
	.st3{fill:#006289;}
</style>
<path class="st0" d="M0,256c0,31.3,5.6,61.3,15.9,89L256,367.3L496.1,345c10.3-27.7,15.9-57.7,15.9-89c0-30.9-5.5-60.5-15.5-87.9
	L256,144.7L15.5,168.1C5.5,195.5,0,225.1,0,256z"/>
<path class="st1" d="M256,512c110.1,0,203.9-69.5,240.1-167H15.9C52.1,442.5,145.9,512,256,512z"/>
<path class="st2" d="M256,0C145.9,0,52.1,69.5,15.9,167h480.2C459.9,69.5,366.1,0,256,0z"/>
<circle class="st3" cx="256" cy="256" r="122.4"/>
<g>
	<polygon class="st0" points="256,161.2 278.1,229.2 349.7,229.2 291.7,271.3 314,339.5 256,297.2 198,339.4 220.2,271.3 
		162.3,229.2 233.9,229.2 	"/>
	<polygon class="st0" points="344.1,272.9 274,250.1 317.3,190.5 299.3,177.4 256,237.1 212.7,177.4 194.7,190.5 238,250.1 
		167.9,272.9 174.8,294.1 244.9,271.3 244.9,345 267.1,345 267.1,271.3 337.2,294.1 	"/>
</g>
</svg>
