<svg width="124" height="24" viewBox="0 0 124 24" fill="none" xmlns="http://www.w3.org/2000/svg">
<g clip-path="url(#clip0_1_277)">
<path d="M68.7679 17.9638C68.551 19.4843 67.3325 20.281 65.8859 20.1691C65.5241 20.1411 65.1973 20.0675 64.9036 19.9534C63.7374 19.2887 63.385 18.1757 63.2825 17.4767C63.2814 17.4772 63.2803 17.4772 63.2803 17.4778C63.2005 16.3962 63.1146 14.1346 63.6457 13.0658C64.0969 12.2467 64.8837 11.8004 65.9277 11.7662C67.4105 11.7179 68.5325 12.4483 68.7531 13.9429C68.949 15.26 68.9581 16.6478 68.7679 17.9638V17.9638ZM68.0319 7.97692C66.172 7.77958 64.5629 8.33932 63.2028 9.96366V9.45859V0.689797V0.593176V0.000864516L58.2776 0.593176V23.6529H63.2028V22.2841C63.8672 22.755 64.5133 23.3219 65.2691 23.5905C68.1386 24.612 71.9227 23.7792 73.2466 19.9675C74.0965 17.5222 74.0743 15.015 73.4344 12.5422C72.7248 9.79515 70.884 8.27857 68.0319 7.97692Z" fill="white"/>
<path d="M85.695 17.716C85.6785 17.8177 85.6614 17.9183 85.6383 18.0183C85.3113 19.4612 84.2561 20.2422 82.8491 20.1771C81.3362 20.1085 80.2984 19.2303 80.1526 17.7289C80.0473 16.6321 80.0388 15.5122 80.1304 14.415C80.2742 12.6826 81.3649 11.7353 83.0011 11.7673C84.346 11.7932 85.3039 12.55 85.6457 13.8339C85.9557 15.1257 85.7254 17.4221 85.695 17.716ZM85.4866 8.2618C83.7753 7.80719 82.0467 7.81281 80.3391 8.26454C77.7818 8.94047 76.0682 10.5475 75.516 13.1034C75.2143 14.4981 75.1545 15.9809 75.2342 17.4109C75.4164 20.6822 77.453 23.0123 80.6146 23.7361C80.659 23.7467 80.7054 23.7545 80.7507 23.7647H80.7495C80.7495 23.7647 80.7584 23.7663 80.7726 23.7692C80.8941 23.7934 81.016 23.8158 81.1381 23.8343C81.1788 23.8378 81.2206 23.8411 81.2608 23.8451C81.2619 23.8451 81.263 23.8451 81.2642 23.8451C81.4176 23.8731 81.6015 23.8939 81.795 23.9091C82.4139 23.9743 83.2015 24.0208 83.859 23.9439C83.8636 23.9439 83.8658 23.9428 83.8693 23.9422C83.9026 23.9417 83.9364 23.9417 83.9697 23.9395C87.2343 23.7708 89.7113 21.7268 90.4343 18.5908C90.8311 16.8709 90.8311 15.1425 90.4474 13.4215C89.8471 10.72 88.1973 8.98209 85.4866 8.2618" fill="white"/>
<path d="M11.5521 8.18092H8.03693V5.85916C8.29377 3.66448 11.9442 4.08144 11.9442 4.08144L11.9454 3.93136L11.9442 3.91448V0.309452H11.9437V0.308916H11.9408C11.8153 0.279092 4.67953 -1.40255 3.2623 3.99089C3.2623 3.99211 3.2623 3.99375 3.26065 3.99485C3.25775 4.00667 3.25442 4.01848 3.25152 4.0303C3.02858 4.70456 3.04395 7.79268 3.04671 8.18092H0V12.3102H3.23575V23.5422H7.94753V12.3102H11.5515L11.9573 8.18092H11.5521Z" fill="white"/>
<path d="M22.3846 17.9414C22.2307 19.372 21.0653 20.2311 19.6876 20.1772C18.276 20.1226 17.3418 19.372 17.0369 18.0268C16.6714 16.113 17.0991 13.8391 17.1354 13.6547C17.5043 12.3703 18.4452 11.7348 19.8257 11.7668C21.1812 11.7972 22.2263 12.5939 22.379 13.9886C22.5222 15.2932 22.5255 16.6361 22.3846 17.9414V17.9414ZM22.7893 10.1565C22.7316 10.093 22.6744 10.0317 22.6252 9.9806V9.98006C22.6172 9.97223 22.611 9.96548 22.603 9.95753C22.5346 9.88675 22.4865 9.8396 22.4865 9.8396C21.377 8.71912 20.9583 8.44042 20.0894 8.18589C16.7472 7.2083 13.4934 8.94617 12.4632 12.2855C11.8301 14.3375 11.8209 16.4496 12.1921 18.5274C12.9939 23.0275 16.3642 24.5345 19.9564 23.7917C21.0585 23.5635 21.8777 22.882 22.6376 21.933C22.6376 21.933 22.7061 21.8499 22.7898 21.688V23.6681H27.3862V8.19838H22.7898V10.1565H22.7893Z" fill="white"/>
<path d="M41.4244 22.5594C41.2112 21.7847 40.9684 21.0205 40.7336 20.2821L40.5118 19.4613C40.5118 19.4613 34.7509 22.2077 33.8525 16.989C33.7694 16.1276 33.7947 15.2386 33.9143 14.3886C34.1383 12.7844 35.1238 11.9253 36.6916 11.7781C37.2213 11.7281 37.7724 11.7533 38.2967 11.8416C39.0106 11.9613 39.7077 12.1747 40.4891 12.3663C40.7606 11.541 41.0384 10.7245 41.2972 9.90253C41.3379 9.77376 41.3717 9.66255 41.3982 9.56308H41.3988L41.5286 9.06914C41.4961 9.00345 41.4176 8.93554 41.3122 8.86917C41.3122 8.86917 41.3122 8.86917 41.3122 8.86973C41.1799 8.75963 40.9542 8.66798 40.6018 8.5399C40.4609 8.48876 40.3194 8.44328 40.1779 8.39943C40.0513 8.35957 39.9687 8.33594 39.9687 8.33594H39.9693C38.4558 7.90617 36.9019 7.87293 35.3236 8.03813C31.9966 8.38705 29.7388 10.3368 29.1123 13.5552C28.7835 15.2488 28.7989 16.9631 29.1764 18.6617C29.7417 21.2053 31.2941 22.8489 33.8181 23.5838C35.465 24.0631 37.1527 24.0873 38.8318 23.8271C39.538 23.7176 40.5508 23.3539 41.2778 23.095L41.5545 22.9983L41.4238 22.5583L41.4244 22.5594" fill="white"/>
<path d="M52.1599 14.3981H46.8382C46.8658 13.3469 46.9981 12.3697 47.9392 11.7746C48.9383 11.1442 50.0422 11.1206 51.0697 11.6859C52.1084 12.2556 52.1898 13.285 52.1599 14.3981ZM56.5899 16.5074C56.568 15.4365 56.5825 14.3604 56.4299 13.3081C56.0095 10.4222 54.2401 8.59607 51.3791 8.11904C50.2872 7.9375 49.1324 7.9617 48.0229 8.0668C44.9863 8.35446 42.6812 10.2329 42.209 13.0596C41.922 14.7745 41.8853 16.5945 42.1173 18.3167C42.4674 20.9076 43.7375 22.5578 45.9353 23.35C45.9358 23.35 45.9358 23.35 45.9364 23.35C45.9458 23.3506 45.9555 23.3523 45.9652 23.3535C45.964 23.3545 45.9646 23.3545 45.964 23.3551C46.9671 23.6529 51.8764 24.9278 56.2042 22.7684L56.0303 22.1358C56.0285 22.1369 56.026 22.1369 56.0243 22.1369C55.8239 21.293 55.5828 20.458 55.3559 19.6213L55.3317 19.5393C55.3317 19.5393 55.2418 19.5713 55.0821 19.6219C55.0787 19.6225 55.0741 19.6225 55.0707 19.623C54.8817 19.6719 54.6953 19.7292 54.5097 19.7911C54.4749 19.8023 54.4411 19.8129 54.4066 19.8231C53.7514 20.0063 52.8152 20.2321 51.826 20.3586C50.996 20.4417 50.1577 20.4451 49.3112 20.3731C47.9369 20.1473 46.8851 19.4163 46.9355 17.6879H47.7209C50.415 17.6879 53.1086 17.6879 55.8034 17.6874C55.8674 17.6874 55.9326 17.6879 55.9964 17.6868L55.9958 17.6879C55.9958 17.6879 56.5748 17.6807 56.599 17.675C56.599 17.675 56.5984 17.5233 56.599 17.5047L56.5899 16.5074" fill="white"/>
<path d="M123.751 8.35953H118.527L113.989 15.4045V0.0149972L109.064 0.60776V23.6681H113.989V16.6107L118.527 23.6781H123.751L118.827 16.0062L123.751 8.35953Z" fill="white"/>
<path d="M102.493 17.7132C102.476 17.8155 102.459 17.9155 102.436 18.016C102.108 19.4589 101.054 20.2388 99.6467 20.1748C98.1338 20.1046 97.096 19.2269 96.95 17.7261C96.845 16.6298 96.8353 15.51 96.9269 14.4127C97.073 12.6799 98.1626 11.7325 99.7999 11.7646C101.143 11.7904 102.102 12.5472 102.443 13.8311C102.752 15.1223 102.524 17.4199 102.493 17.7132V17.7132ZM102.285 8.2595C100.573 7.80432 98.8438 7.80995 97.1362 8.26182C94.58 8.93826 92.8662 10.5447 92.314 13.1002C92.0125 14.4953 91.9525 15.9776 92.0325 17.4081C92.2135 20.6794 94.2513 23.01 97.4117 23.7332C97.457 23.7439 97.5034 23.7518 97.5486 23.7619H97.5475C97.5475 23.7619 97.5554 23.7636 97.5697 23.7663C97.6912 23.7905 97.8142 23.813 97.9363 23.831C97.977 23.8349 98.0183 23.8389 98.059 23.8411C98.0601 23.8422 98.0613 23.8422 98.0624 23.8422C98.217 23.8704 98.3997 23.8917 98.5921 23.9068C99.2121 23.9721 100.001 24.0187 100.657 23.9417C100.66 23.9406 100.663 23.9406 100.667 23.9395C100.702 23.9389 100.735 23.9389 100.767 23.9372C104.032 23.7681 106.51 21.7234 107.233 18.5885C107.629 16.8687 107.629 15.1398 107.247 13.4187C106.644 10.7172 104.996 8.97925 102.285 8.2595" fill="white"/>
</g>
<defs>
<clipPath id="clip0_1_277">
<rect width="123.75" height="24" fill="white"/>
</clipPath>
</defs>
</svg>
