<?xml version="1.0" encoding="utf-8"?>
<!-- Generator: Adobe Illustrator 24.1.0, SVG Export Plug-In . SVG Version: 6.00 Build 0)  -->
<svg version="1.1" id="Layer_1" xmlns="http://www.w3.org/2000/svg" xmlns:xlink="http://www.w3.org/1999/xlink" x="0px" y="0px"
	 viewBox="0 0 512 512" style="enable-background:new 0 0 512 512;" xml:space="preserve">
<style type="text/css">
	.st0{fill:#F7F7F7;}
	.st1{fill:#006289;}
	.st2{fill:#D2332B;}
</style>
<circle class="st0" cx="256" cy="256" r="256"/>
<path class="st1" d="M500.9,256l9-33.4c-1.5-11.4-3.7-22.5-6.6-33.4H233.7V1c-11.4,1-22.5,2.7-33.4,5.1l-44.5,27.3l-22.3-2.2
	c-11.7,6.4-22.9,13.7-33.4,21.8v136.3H8.8c-2.9,10.9-5.2,22-6.6,33.4l9,33.4l-9,33.4c1.5,11.4,3.7,22.5,6.6,33.4h91.4v136.3
	c10.5,8.1,21.7,15.4,33.4,21.8l33.4-2.2l33.4,27.3c10.9,2.4,22,4.1,33.4,5.1V322.8h269.4c2.9-10.9,5.2-22,6.6-33.4L500.9,256z"/>
<path class="st2" d="M509.8,222.6H200.3h0V6.1c-23.7,5.2-46.1,13.7-66.8,25v191.5l0,0H2.2C0.7,233.5,0,244.7,0,256
	c0,11.3,0.7,22.5,2.2,33.4h131.4h0v191.5c20.7,11.3,43.1,19.8,66.8,25V289.4v0h309.5c1.4-10.9,2.2-22.1,2.2-33.4
	S511.3,233.5,509.8,222.6z"/>
</svg>
