<?xml version="1.0" encoding="utf-8"?>
<!-- Generator: Adobe Illustrator 24.1.0, SVG Export Plug-In . SVG Version: 6.00 Build 0)  -->
<svg version="1.1" id="Layer_1" xmlns="http://www.w3.org/2000/svg" xmlns:xlink="http://www.w3.org/1999/xlink" x="0px" y="0px"
	 viewBox="0 0 512 512" style="enable-background:new 0 0 512 512;" xml:space="preserve">
<style type="text/css">
	.st0{fill:#F7F7F7;}
	.st1{fill:#D2332B;}
	.st2{fill:#FECF0A;}
	.st3{fill:#006289;}
</style>
<circle class="st0" cx="256" cy="256" r="256"/>
<g>
	<path class="st1" d="M31.1,133.6h449.7C437.5,54,353,0,256,0S74.5,54,31.1,133.6z"/>
	<path class="st1" d="M256,512c97,0,181.5-54,224.9-133.6H31.1C74.5,458,159,512,256,512z"/>
</g>
<path class="st2" d="M345,256c0,49.2-39.9,77.9-89,77.9s-89-28.7-89-77.9s39.9-89,89-89S345,206.8,345,256z"/>
<path class="st3" d="M345,256c0,49.2-39.9,89-89,89s-89-39.9-89-89"/>
<g>
	<rect x="200.3" y="233.7" class="st1" width="22.3" height="44.5"/>
	<rect x="289.4" y="233.7" class="st1" width="22.3" height="44.5"/>
	<rect x="244.9" y="200.3" class="st1" width="22.3" height="77.9"/>
</g>
</svg>
