<?xml version="1.0" encoding="utf-8"?>
<!-- Generator: Adobe Illustrator 24.1.0, SVG Export Plug-In . SVG Version: 6.00 Build 0)  -->
<svg version="1.1" id="Layer_1" xmlns="http://www.w3.org/2000/svg" xmlns:xlink="http://www.w3.org/1999/xlink" x="0px" y="0px"
	 viewBox="0 0 512 512" style="enable-background:new 0 0 512 512;" xml:space="preserve">
<style type="text/css">
	.st0{fill:#F7F7F7;}
	.st1{fill:#D2332B;}
</style>
<circle class="st0" cx="256" cy="256" r="256"/>
<g>
	<path class="st1" d="M509.8,222.6H289.4h0V2.2C278.5,0.7,267.3,0,256,0s-22.5,0.7-33.4,2.2v220.4v0H2.2C0.7,233.5,0,244.7,0,256
		c0,11.3,0.7,22.5,2.2,33.4h220.4h0v220.4c10.9,1.4,22.1,2.2,33.4,2.2c11.3,0,22.5-0.7,33.4-2.2V289.4v0h220.4
		c1.4-10.9,2.2-22.1,2.2-33.4C512,244.7,511.3,233.5,509.8,222.6z"/>
	<polygon class="st1" points="155.8,122.4 155.8,89 122.4,89 122.4,122.4 89,122.4 89,155.8 122.4,155.8 122.4,189.2 155.8,189.2 
		155.8,155.8 189.2,155.8 189.2,122.4 	"/>
	<polygon class="st1" points="389.6,122.4 389.6,89 356.2,89 356.2,122.4 322.8,122.4 322.8,155.8 356.2,155.8 356.2,189.2 
		389.6,189.2 389.6,155.8 423,155.8 423,122.4 	"/>
	<polygon class="st1" points="155.8,356.2 155.8,322.8 122.4,322.8 122.4,356.2 89,356.2 89,389.6 122.4,389.6 122.4,423 155.8,423 
		155.8,389.6 189.2,389.6 189.2,356.2 	"/>
	<polygon class="st1" points="389.6,356.2 389.6,322.8 356.2,322.8 356.2,356.2 322.8,356.2 322.8,389.6 356.2,389.6 356.2,423 
		389.6,423 389.6,389.6 423,389.6 423,356.2 	"/>
</g>
</svg>
