<?xml version="1.0" encoding="utf-8"?>
<!-- Generator: Adobe Illustrator 24.1.0, SVG Export Plug-In . SVG Version: 6.00 Build 0)  -->
<svg version="1.1" id="Layer_1" xmlns="http://www.w3.org/2000/svg" xmlns:xlink="http://www.w3.org/1999/xlink" x="0px" y="0px"
	 viewBox="0 0 512 512" style="enable-background:new 0 0 512 512;" xml:space="preserve">
<style type="text/css">
	.st0{fill:#F7F7F7;}
	.st1{fill:#D2332B;}
	.st2{fill:#FECF0A;}
</style>
<circle class="st0" cx="256" cy="256" r="256"/>
<g>
	<path class="st1" d="M256,512c110.1,0,203.9-69.5,240.1-167H15.9C52.1,442.5,145.9,512,256,512z"/>
	<polygon class="st1" points="356.2,211.5 356.2,178.1 367.3,178.1 367.3,155.8 345,155.8 345,167 322.8,167 322.8,155.8 
		300.5,155.8 300.5,178.1 311.7,178.1 311.7,211.5 289.4,211.5 289.4,133.6 300.5,133.6 300.5,111.3 278.3,111.3 278.3,122.4 
		267.1,122.4 267.1,111.3 244.9,111.3 244.9,122.4 233.7,122.4 233.7,111.3 211.5,111.3 211.5,133.6 222.6,133.6 222.6,211.5 
		200.3,211.5 200.3,178.1 211.5,178.1 211.5,155.8 189.2,155.8 189.2,167 167,167 167,155.8 144.7,155.8 144.7,178.1 155.8,178.1 
		155.8,211.5 133.6,211.5 133.6,300.5 378.4,300.5 378.4,211.5 	"/>
</g>
<path class="st2" d="M256,289.4c-18.4,0-33.4,15-33.4,33.4c0,14.5,9.3,26.9,22.3,31.5v46.4h-33.4v44.5h55.7v-91
	c13-4.6,22.3-16.9,22.3-31.5C289.4,304.3,274.4,289.4,256,289.4z M256,333.9c-6.1,0-11.1-5-11.1-11.1c0-6.1,5-11.1,11.1-11.1
	s11.1,5,11.1,11.1C267.1,328.9,262.1,333.9,256,333.9z"/>
</svg>
