<svg width="92" height="30" viewBox="0 0 92 30" fill="none" xmlns="http://www.w3.org/2000/svg">
<g clip-path="url(#clip0_1_288)">
<path d="M22.6188 10.5939H11.8836V13.7622H19.4972C19.1211 18.205 15.4046 20.0997 11.8965 20.0997C7.40828 20.0997 3.49183 16.5874 3.49183 11.6647C3.49183 6.86918 7.22531 3.176 11.9065 3.176C15.518 3.176 17.6462 5.46586 17.6462 5.46586L19.8766 3.16862C19.8766 3.16862 17.0138 -0.00126723 11.7924 -0.00126723C5.1436 -0.00126723 0 5.57978 0 11.6082C0 17.5152 4.83838 23.2751 11.9619 23.2751C18.2271 23.2751 22.8132 19.0066 22.8132 12.6944C22.8132 11.3627 22.6187 10.5931 22.6187 10.5931L22.6188 10.5939" fill="white"/>
<path d="M31.4566 11.2379C33.6227 11.2379 35.6755 12.9797 35.6755 15.7864C35.6755 18.5336 33.6316 20.3249 31.4467 20.3249C29.046 20.3249 27.1521 18.4127 27.1521 15.7646C27.1521 13.1732 29.0225 11.2379 31.4566 11.2379V11.2379ZM31.4128 8.29945C27.0079 8.29945 23.8511 11.7244 23.8511 15.719C23.8511 19.7728 26.9129 23.2616 31.4646 23.2616C35.5849 23.2616 38.9606 20.1293 38.9606 15.8062C38.9606 10.8512 35.034 8.29945 31.4128 8.29945" fill="white"/>
<path d="M47.9024 11.2379C50.0687 11.2379 52.1213 12.9797 52.1213 15.7864C52.1213 18.5336 50.0773 20.3249 47.8924 20.3249C45.4918 20.3249 43.5979 18.4127 43.5979 15.7646C43.5979 13.1732 45.4681 11.2379 47.9024 11.2379V11.2379ZM47.8587 8.29945C43.4535 8.29945 40.2966 11.7244 40.2966 15.719C40.2966 19.7728 43.3589 23.2616 47.9103 23.2616C52.0306 23.2616 55.4064 20.1293 55.4064 15.8062C55.4064 10.8512 51.4797 8.29945 47.8587 8.29945" fill="white"/>
<path d="M64.2821 11.2398C66.2645 11.2398 68.2999 12.9233 68.2999 15.7983C68.2999 18.7204 66.2688 20.3308 64.2384 20.3308C62.0829 20.3308 60.0773 18.5901 60.0773 15.826C60.0773 12.9538 62.16 11.2398 64.2821 11.2398ZM63.9893 8.30721C59.9461 8.30721 56.7681 11.8293 56.7681 15.7824C56.7681 20.2854 60.4525 23.2715 63.9198 23.2715C66.0634 23.2715 67.2035 22.425 68.045 21.4536V22.9288C68.045 25.5098 66.4695 27.0554 64.0911 27.0554C61.7933 27.0554 60.641 25.3563 60.2403 24.3921L57.3498 25.594C58.3752 27.7508 60.4396 30 64.1151 30C68.135 30 71.199 27.4816 71.199 22.2001V8.75711H68.045V10.0244C67.0756 8.98507 65.7494 8.30735 63.9893 8.30735V8.30721" fill="white"/>
<path d="M85.3525 11.1666C86.727 11.1666 87.7158 11.8933 88.1359 12.7646L81.4003 15.5646C81.11 13.3969 83.1748 11.1666 85.3525 11.1666ZM85.2213 8.28942C81.4071 8.28942 78.2051 11.3074 78.2051 15.7605C78.2051 20.4727 81.7745 23.2675 85.5876 23.2675C88.7699 23.2675 90.7232 21.5358 91.8891 19.9842L89.2889 18.2636C88.614 19.305 87.4861 20.3229 85.6034 20.3229C83.4887 20.3229 82.5164 19.1712 81.9143 18.0557L92.0002 13.8933L91.4766 12.6735C90.5021 10.2848 88.2294 8.28984 85.2217 8.28984L85.2213 8.28942" fill="white"/>
<path d="M73.3967 22.8232H76.7095V0.772312H73.3967V22.8232" fill="white"/>
</g>
<defs>
<clipPath id="clip0_1_288">
<rect width="92" height="30" fill="white"/>
</clipPath>
</defs>
</svg>
