<?xml version="1.0" encoding="utf-8"?>
<!-- Generator: Adobe Illustrator 24.1.0, SVG Export Plug-In . SVG Version: 6.00 Build 0)  -->
<svg version="1.1" id="Layer_1" xmlns="http://www.w3.org/2000/svg" xmlns:xlink="http://www.w3.org/1999/xlink" x="0px" y="0px"
	 viewBox="0 0 512 512" style="enable-background:new 0 0 512 512;" xml:space="preserve">
<style type="text/css">
	.st0{fill:#F7F7F7;}
	.st1{fill:#0C8DB0;}
</style>
<circle class="st0" cx="256" cy="256" r="256"/>
<g>
	<path class="st1" d="M256,189.2h247.2c-6.4-23.8-16.2-46.3-28.8-66.8H256V189.2z"/>
	<path class="st1" d="M96.6,456.3h318.7c23.4-18.6,43.4-41.2,59.1-66.8H37.6C53.2,415.1,73.3,437.7,96.6,456.3z"/>
	<path class="st1" d="M89,61.9c-20.1,17.3-37.5,37.7-51.5,60.5H89V61.9z"/>
	<path class="st1" d="M256,256c0-26.1,0-47.9,0-66.8H155.8V256H89v-66.8H8.8C3.1,210.5,0,232.9,0,256s3.1,45.5,8.8,66.8h494.4
		c5.7-21.3,8.8-43.7,8.8-66.8H256z"/>
	<path class="st1" d="M256,0c-35.5,0-69.4,7.3-100.2,20.3v102.1H256c0-23.3,0-43.1,0-66.8h159.4C371.6,20.8,316.2,0,256,0z"/>
</g>
</svg>
