<?xml version="1.0" encoding="utf-8"?>
<!-- Generator: Adobe Illustrator 24.1.0, SVG Export Plug-In . SVG Version: 6.00 Build 0)  -->
<svg version="1.1" id="Layer_1" xmlns="http://www.w3.org/2000/svg" xmlns:xlink="http://www.w3.org/1999/xlink" x="0px" y="0px"
	 viewBox="0 0 512 512" style="enable-background:new 0 0 512 512;" xml:space="preserve">
<style type="text/css">
	.st0{fill:#FECF0A;}
	.st1{fill:#A2001D;}
	.st2{fill:#0052B4;}
	.st3{fill:#76923B;}
	.st4{fill:#D2332B;}
	.st5{fill:#FFDA44;}
</style>
<circle class="st0" cx="256" cy="256" r="256"/>
<path class="st1" d="M111.7,44.5C152.8,16.4,202.5,0,256,0s103.2,16.4,144.3,44.5L256,55.7L111.7,44.5z"/>
<polygon class="st2" points="256,256 239.7,239.7 235.3,247.4 "/>
<g>
	<path class="st3" d="M75,75C-25,175-25,337,75,437c41.3-41.3,81-81,181-181L75,75z"/>
	<path class="st3" d="M437,75c100,100,100,262.1,0,362c-41.3-41.3-81-81-181-181L437,75z"/>
</g>
<circle class="st4" cx="256" cy="256" r="89"/>
<g>
	<polygon class="st0" points="256,167 276,228.4 340.6,228.4 288.3,266.4 308.3,327.8 256,289.8 203.7,327.8 223.7,266.4 
		171.4,228.4 236,228.4 	"/>
	<path class="st5" d="M256,0C256,0,255.9,0,256,0L256,0C256.1,0,256,0,256,0z"/>
</g>
<g>
	<path class="st4" d="M256.1,0h-0.2C185.3,0,121.3,28.7,75,75h362C390.7,28.7,326.7,0,256.1,0z"/>
	<path class="st4" d="M75,437c46.3,46.3,110.3,75,181,75s134.7-28.6,181-75H75z"/>
</g>
<g>
	<polygon class="st0" points="256,27.8 260.1,40.6 273.6,40.6 262.7,48.5 266.9,61.2 256,53.3 245.2,61.2 249.3,48.5 238.4,40.6 
		251.9,40.6 	"/>
	<polygon class="st0" points="193.9,27.8 198.1,40.6 211.5,40.6 200.6,48.5 204.8,61.2 193.9,53.3 183.1,61.2 187.2,48.5 
		176.4,40.6 189.8,40.6 	"/>
	<polygon class="st0" points="318.1,27.8 322.2,40.6 335.6,40.6 324.8,48.5 328.9,61.2 318.1,53.3 307.2,61.2 311.4,48.5 
		300.5,40.6 313.9,40.6 	"/>
	<polygon class="st0" points="256,450.8 260.1,463.5 273.6,463.5 262.7,471.4 266.9,484.2 256,476.3 245.2,484.2 249.3,471.4 
		238.4,463.5 251.9,463.5 	"/>
	<polygon class="st0" points="193.9,450.8 198.1,463.5 211.5,463.5 200.6,471.4 204.8,484.2 193.9,476.3 183.1,484.2 187.2,471.4 
		176.4,463.5 189.8,463.5 	"/>
	<polygon class="st0" points="318.1,450.8 322.2,463.5 335.6,463.5 324.8,471.4 328.9,484.2 318.1,476.3 307.2,484.2 311.4,471.4 
		300.5,463.5 313.9,463.5 	"/>
	<path class="st0" d="M78,251.8c6.6,10.4,3.5,24.1-6.9,30.7c-10.4,6.6-24.1,3.5-30.7-6.9c-11.9-18.8-5-49.5-5-49.5
		S66.1,233,78,251.8z"/>
</g>
<circle class="st4" cx="65.1" cy="273.1" r="11.1"/>
</svg>
