<?xml version="1.0" encoding="utf-8"?>
<!-- Generator: Adobe Illustrator 24.1.0, SVG Export Plug-In . SVG Version: 6.00 Build 0)  -->
<svg version="1.1" id="Layer_1" xmlns="http://www.w3.org/2000/svg" xmlns:xlink="http://www.w3.org/1999/xlink" x="0px" y="0px"
	 viewBox="0 0 512 512" style="enable-background:new 0 0 512 512;" xml:space="preserve">
<style type="text/css">
	.st0{fill:#F7F7F7;}
	.st1{fill:#0C8DB0;}
	.st2{fill:#ACABB1;}
	.st3{fill:#9EB962;}
</style>
<circle class="st0" cx="256" cy="256" r="256"/>
<g>
	<path class="st1" d="M512,256c0-101.5-59.1-189.2-144.7-230.6v461.2C452.9,445.2,512,357.5,512,256z"/>
	<path class="st1" d="M0,256c0,101.5,59.1,189.2,144.7,230.6V25.4C59.1,66.8,0,154.5,0,256z"/>
</g>
<polygon class="st2" points="322.9,299.3 279.6,256 320.8,214.8 318.9,193 307.2,181.2 256,232.4 204.8,181.2 193.1,193 
	191.2,214.8 232.4,256 189.1,299.3 212.7,322.9 256,279.6 299.3,322.9 "/>
<path class="st3" d="M319,193l-23.6,23.6c10.1,10.1,16.3,24,16.3,39.4c0,30.7-24.9,55.7-55.7,55.7s-55.7-24.9-55.7-55.7
	c0-15.4,6.2-29.3,16.3-39.4L193,193c-16.1,16.1-26.1,38.4-26.1,63c0,49.2,39.9,89,89,89s89-39.9,89-89
	C345,231.4,335.1,209.1,319,193z"/>
</svg>
