<?xml version="1.0" encoding="utf-8"?>
<!-- Generator: Adobe Illustrator 24.1.0, SVG Export Plug-In . SVG Version: 6.00 Build 0)  -->
<svg version="1.1" id="Layer_1" xmlns="http://www.w3.org/2000/svg" xmlns:xlink="http://www.w3.org/1999/xlink" x="0px" y="0px"
	 viewBox="0 0 512 512" style="enable-background:new 0 0 512 512;" xml:space="preserve">
<style type="text/css">
	.st0{fill:#F0F0F0;}
	.st1{fill:#D2332B;}
	.st2{fill:#FECF0A;}
</style>
<circle class="st0" cx="256" cy="256" r="256"/>
<path class="st1" d="M509.8,222.6H289.4h0V2.2C278.5,0.7,267.3,0,256,0s-22.5,0.7-33.4,2.2v220.4l0,0H2.2C0.7,233.5,0,244.7,0,256
	c0,11.3,0.7,22.5,2.2,33.4h220.4h0v220.4c10.9,1.4,22.1,2.2,33.4,2.2c11.3,0,22.5-0.7,33.4-2.2V289.4v0h220.4
	c1.4-10.9,2.2-22.1,2.2-33.4S511.3,233.5,509.8,222.6z"/>
<polygon class="st2" points="328.3,267.1 345,278.3 345,233.7 328.3,244.9 267.1,244.9 267.1,183.7 278.3,167 233.7,167 
	244.9,183.7 244.9,244.9 183.7,244.9 167,233.7 167,278.3 183.7,267.1 244.9,267.1 244.9,328.3 233.7,345 278.3,345 267.1,328.3 
	267.1,267.1 "/>
</svg>
