<?xml version="1.0" encoding="utf-8"?>
<!-- Generator: Adobe Illustrator 24.1.0, SVG Export Plug-In . SVG Version: 6.00 Build 0)  -->
<svg version="1.1" id="Layer_1" xmlns="http://www.w3.org/2000/svg" xmlns:xlink="http://www.w3.org/1999/xlink" x="0px" y="0px"
	 viewBox="0 0 512 512" style="enable-background:new 0 0 512 512;" xml:space="preserve">
<style type="text/css">
	.st0{fill:#D2332B;}
	.st1{fill:#006289;}
	.st2{fill:#F0F0F0;}
	.st3{fill:#76923B;}
	.st4{fill:#FFDA44;}
</style>
<path class="st0" d="M512,256c0,141.4-114.6,256-256,256S0,397.4,0,256S256,0,256,0S512,114.6,512,256z"/>
<path class="st1" d="M0,256C0,114.6,114.6,0,256,0s256,114.6,256,256"/>
<polygon class="st2" points="345,322.8 256,311.7 167,322.8 167,189.2 345,189.2 "/>
<circle class="st1" cx="256" cy="267.1" r="44.5"/>
<circle class="st0" cx="256" cy="267.1" r="22.3"/>
<polygon class="st3" points="222.6,211.5 289.4,211.5 256,244.9 "/>
<rect x="244.9" y="233.7" class="st4" width="22.3" height="66.8"/>
<polygon class="st3" points="291.6,293.8 220.4,293.8 167,322.8 345,322.8 "/>
</svg>
