<?xml version="1.0" encoding="utf-8"?>
<!-- Generator: Adobe Illustrator 24.1.0, SVG Export Plug-In . SVG Version: 6.00 Build 0)  -->
<svg version="1.1" id="Layer_1" xmlns="http://www.w3.org/2000/svg" xmlns:xlink="http://www.w3.org/1999/xlink" x="0px" y="0px"
	 viewBox="0 0 512 512" style="enable-background:new 0 0 512 512;" xml:space="preserve">
<style type="text/css">
	.st0{fill:#F7F7F7;}
	.st1{fill:#D2332B;}
	.st2{fill:#006289;}
</style>
<circle class="st0" cx="256" cy="256" r="256"/>
<path class="st1" d="M256,512c64.9,0,124.2-24.2,169.3-64H86.7C131.8,487.8,191.1,512,256,512z"/>
<g>
	<path class="st2" d="M8.1,320c5.8,22.7,14.7,44.2,26.2,64h443.5c11.5-19.8,20.3-41.3,26.2-64L256,300.5L8.1,320z"/>
	<path class="st2" d="M503.9,192c-5.8-22.7-14.7-44.2-26.2-64L256,122.4c0-44.7,0-87,0-122.4c-19,0-37.6,2.1-55.4,6
		C200.3,6.1,33.4,137.7,33.4,256c4.3,0.7,222.6,22.3,222.6,22.3s0-48.8,0-86.3L503.9,192L503.9,192z"/>
</g>
<path class="st0" d="M256,159.7v-128h-81.1L200.6,6C95.1,29.3,14.1,117.6,1.7,226.8C0.6,236.4,0,246.1,0,256c26.7,0,129.7,0,129.7,0
	v-51l51.5,51h91.6l-97.9-96.3H256z"/>
<path class="st1" d="M256.1,256l-96.3-96.3h-30.2v0l96.3,96.3H97.4V128h380.4c-13.9-24.1-31.7-45.7-52.4-64H97.4v-8.9
	c-25.8,20.4-47.6,45.7-64,74.5V256H0c0,22.1,2.8,43.5,8.1,64h495.9c5.3-20.5,8.1-41.9,8.1-64H256.1z"/>
</svg>
