<?xml version="1.0" encoding="utf-8"?>
<!-- Generator: Adobe Illustrator 24.1.0, SVG Export Plug-In . SVG Version: 6.00 Build 0)  -->
<svg version="1.1" id="Layer_1" xmlns="http://www.w3.org/2000/svg" xmlns:xlink="http://www.w3.org/1999/xlink" x="0px" y="0px"
	 viewBox="0 0 512 512" style="enable-background:new 0 0 512 512;" xml:space="preserve">
<style type="text/css">
	.st0{fill:#F7F7F7;}
	.st1{fill:#12B2D9;}
</style>
<circle class="st0" cx="256" cy="256" r="256"/>
<g>
	<path class="st1" d="M256,512c101.5,0,189.2-59.1,230.6-144.7H25.4C66.8,452.9,154.5,512,256,512z"/>
	<path class="st1" d="M256,0C154.5,0,66.8,59.1,25.4,144.7h461.2C445.2,59.1,357.5,0,256,0z"/>
	<polygon class="st1" points="157.5,167 165.8,192.5 192.7,192.5 171,208.2 179.2,233.7 157.5,218 135.8,233.7 144.1,208.2 
		122.4,192.5 149.3,192.5 	"/>
	<polygon class="st1" points="157.5,278.3 165.8,303.8 192.7,303.8 171,319.5 179.2,345 157.5,329.3 135.8,345 144.1,319.5 
		122.4,303.8 149.3,303.8 	"/>
	<polygon class="st1" points="354.5,167 362.7,192.5 389.6,192.5 367.9,208.2 376.2,233.7 354.5,218 332.8,233.7 341,208.2 
		319.3,192.5 346.2,192.5 	"/>
	<polygon class="st1" points="354.5,278.3 362.7,303.8 389.6,303.8 367.9,319.5 376.2,345 354.5,329.3 332.8,345 341,319.5 
		319.3,303.8 346.2,303.8 	"/>
	<polygon class="st1" points="256,222.6 264.3,248.1 291.1,248.1 269.4,263.9 277.7,289.4 256,273.6 234.3,289.4 242.6,263.9 
		220.9,248.1 247.7,248.1 	"/>
</g>
</svg>
