<?xml version="1.0" encoding="utf-8"?>
<!-- Generator: Adobe Illustrator 24.1.0, SVG Export Plug-In . SVG Version: 6.00 Build 0)  -->
<svg version="1.1" id="Layer_1" xmlns="http://www.w3.org/2000/svg" xmlns:xlink="http://www.w3.org/1999/xlink" x="0px" y="0px"
	 viewBox="0 0 512 512" style="enable-background:new 0 0 512 512;" xml:space="preserve">
<style type="text/css">
	.st0{fill:#F7F7F7;}
	.st1{fill:#006289;}
	.st2{fill:#D2332B;}
</style>
<circle class="st0" cx="256" cy="256" r="256"/>
<g>
	<path class="st1" d="M8.8,322.8c14.8,55,47.5,102.6,91.4,136.3V322.8H8.8z"/>
	<path class="st1" d="M233.7,511c7.3,0.6,14.8,1,22.3,1c118.3,0,217.8-80.2,247.2-189.2H233.7V511z"/>
	<path class="st1" d="M503.2,189.2C473.8,80.2,374.3,0,256,0c-7.5,0-14.9,0.3-22.3,1v188.2H503.2z"/>
	<path class="st1" d="M100.2,52.9C56.3,86.6,23.6,134.3,8.8,189.2h91.4V52.9z"/>
</g>
<path class="st2" d="M509.8,222.6H200.3h0V6.1c-23.7,5.2-46.1,13.7-66.8,25v191.5l0,0H2.2C0.7,233.5,0,244.7,0,256
	c0,11.3,0.7,22.5,2.2,33.4h131.4h0v191.5c20.7,11.3,43.1,19.8,66.8,25V289.4v0h309.5c1.4-10.9,2.2-22.1,2.2-33.4
	S511.3,233.5,509.8,222.6z"/>
</svg>
