<?xml version="1.0" encoding="utf-8"?>
<!-- Generator: Adobe Illustrator 24.1.0, SVG Export Plug-In . SVG Version: 6.00 Build 0)  -->
<svg version="1.1" id="Layer_1" xmlns="http://www.w3.org/2000/svg" xmlns:xlink="http://www.w3.org/1999/xlink" x="0px" y="0px"
	 viewBox="0 0 512 512" style="enable-background:new 0 0 512 512;" xml:space="preserve">
<style type="text/css">
	.st0{fill:#F7F7F7;}
	.st1{fill:#F89341;}
	.st2{fill:#76923B;}
	.st3{fill:#006289;}
	.st4{fill:#F0F0F0;}
</style>
<circle class="st0" cx="256" cy="256" r="256"/>
<path class="st1" d="M256,0C154.5,0,66.8,59.1,25.4,144.7h461.2C445.2,59.1,357.5,0,256,0z"/>
<path class="st2" d="M256,512c101.5,0,189.2-59.1,230.6-144.7H25.4C66.8,452.9,154.5,512,256,512z"/>
<circle class="st3" cx="256" cy="256" r="89"/>
<circle class="st4" cx="256" cy="256" r="55.7"/>
<polygon class="st3" points="256,187.3 273.2,226.3 315.5,221.7 290.3,256 315.5,290.3 273.2,285.7 256,324.7 238.8,285.7 
	196.5,290.3 221.7,256 196.5,221.7 238.8,226.3 "/>
</svg>
