<?xml version="1.0" encoding="utf-8"?>
<!-- Generator: Adobe Illustrator 24.1.0, SVG Export Plug-In . SVG Version: 6.00 Build 0)  -->
<svg version="1.1" id="Layer_1" xmlns="http://www.w3.org/2000/svg" xmlns:xlink="http://www.w3.org/1999/xlink" x="0px" y="0px"
	 viewBox="0 0 512 512" style="enable-background:new 0 0 512 512;" xml:space="preserve">
<style type="text/css">
	.st0{fill:#F7F7F7;}
	.st1{fill:#D2332B;}
	.st2{fill:#76923B;}
</style>
<circle class="st0" cx="256" cy="256" r="256"/>
<path class="st1" d="M339.1,189.2h-33.5c0.3,3.7,0.4,7.4,0.4,11.1c0,24.8-6.2,48.8-17,65.9c-3.3,5.3-8.9,12.7-16.4,17.7v-94.7h-33.4
	v94.7c-7.5-5-13.1-12.5-16.4-17.7c-10.8-17.1-17-41.1-17-65.9c0-3.7,0.2-7.4,0.4-11.1h-33.5c-0.2,3.7-0.3,7.4-0.3,11.1
	c0,68.7,36.7,122.4,83.5,122.4s83.5-53.8,83.5-122.4C339.5,196.6,339.4,192.9,339.1,189.2z"/>
<path class="st2" d="M105.7,122.4h33.4v22.3h33.4v-22.3h33.4v22.3h33.4v-22.3h33.4v22.3h33.4v-22.3h33.4v22.3h33.4v-22.3h33.4v22.3
	h80.3C445.2,59.1,357.5,0,256,0S66.8,59.1,25.4,144.7h80.3V122.4z"/>
<path class="st1" d="M406.3,367.3v22.3h-33.4v-22.3h-33.4v22.3h-33.4v-22.3h-33.4v22.3h-33.4v-22.3h-33.4v22.3h-33.4v-22.3h-33.4
	v22.3h-33.4v-22.3H25.4C66.8,452.9,154.5,512,256,512s189.2-59.1,230.6-144.7L406.3,367.3L406.3,367.3z"/>
</svg>
