<?xml version="1.0" encoding="utf-8"?>
<!-- Generator: Adobe Illustrator 24.1.0, SVG Export Plug-In . SVG Version: 6.00 Build 0)  -->
<svg version="1.1" id="Layer_1" xmlns="http://www.w3.org/2000/svg" xmlns:xlink="http://www.w3.org/1999/xlink" x="0px" y="0px"
	 viewBox="0 0 512 512" style="enable-background:new 0 0 512 512;" xml:space="preserve">
<style type="text/css">
	.st0{fill:#F7F7F7;}
	.st1{fill:#AC2D2A;}
	.st2{fill:#1E2834;}
	.st3{fill:#76923B;}
</style>
<circle class="st0" cx="256" cy="256" r="256"/>
<path class="st1" d="M256,0C145.9,0,52.1,69.5,15.9,167h480.2C459.9,69.5,366.1,0,256,0z"/>
<path class="st2" d="M256,512c110.1,0,203.9-69.5,240.1-167H15.9C52.1,442.5,145.9,512,256,512z"/>
<g>
	<path class="st3" d="M194.8,239.3c-0.1,0-0.3,0-0.4,0v0h-48.9c2.5-9.6,11.2-16.7,21.5-16.7v-33.4c-30.7,0-55.7,25-55.7,55.7v27.3
		v0.6h83.1c0.2,0,0.3,0,0.4,0c3.1,0,5.6,2.5,5.6,5.6v11.1H89v33.4h144.7v-44.5C233.7,256.8,216.3,239.3,194.8,239.3z"/>
	<polygon class="st3" points="278.3,289.4 278.3,189.2 244.9,189.2 244.9,322.8 300.5,322.8 300.5,289.4 	"/>
	<polygon class="st3" points="389.6,289.4 389.6,189.2 356.2,189.2 356.2,289.4 345,289.4 345,256 311.7,256 311.7,322.8 
		411.8,322.8 411.8,289.4 	"/>
</g>
</svg>
