<?xml version="1.0" encoding="utf-8"?>
<!-- Generator: Adobe Illustrator 24.1.0, SVG Export Plug-In . SVG Version: 6.00 Build 0)  -->
<svg version="1.1" id="Layer_1" xmlns="http://www.w3.org/2000/svg" xmlns:xlink="http://www.w3.org/1999/xlink" x="0px" y="0px"
	 viewBox="0 0 512 512" style="enable-background:new 0 0 512 512;" xml:space="preserve">
<style type="text/css">
	.st0{fill:#F7F7F7;}
	.st1{fill:#006289;}
</style>
<circle class="st0" cx="256" cy="256" r="256"/>
<g>
	<path class="st1" d="M352.4,200.3h-64.3L256,144.7l-32.1,55.7h-64.3l32.1,55.7l-32.1,55.7h64.3l32.1,55.7l32.1-55.7h64.3L320.3,256
		L352.4,200.3z M295.5,256l-19.7,34.2h-39.5L216.5,256l19.7-34.2h39.5L295.5,256z M256,187.6l7.3,12.7h-14.7L256,187.6z
		 M196.8,221.8h14.7l-7.3,12.7L196.8,221.8z M196.8,290.2l7.3-12.7l7.3,12.7H196.8z M256,324.4l-7.3-12.7h14.7L256,324.4z
		 M315.2,290.2h-14.7l7.3-12.7L315.2,290.2z M300.5,221.8h14.7l-7.3,12.7L300.5,221.8z"/>
	<path class="st1" d="M415.4,55.7H96.6c-23.4,18.6-43.4,41.2-59.1,66.8h436.9C458.8,96.9,438.7,74.3,415.4,55.7z"/>
	<path class="st1" d="M96.6,456.3h318.7c23.4-18.6,43.4-41.2,59.1-66.8H37.6C53.2,415.1,73.3,437.7,96.6,456.3z"/>
</g>
</svg>
