<?xml version="1.0" encoding="utf-8"?>
<!-- Generator: Adobe Illustrator 24.1.0, SVG Export Plug-In . SVG Version: 6.00 Build 0)  -->
<svg version="1.1" id="Layer_1" xmlns="http://www.w3.org/2000/svg" xmlns:xlink="http://www.w3.org/1999/xlink" x="0px" y="0px"
	 viewBox="0 0 512 512" style="enable-background:new 0 0 512 512;" xml:space="preserve">
<style type="text/css">
	.st0{fill:#F7F7F7;}
	.st1{fill:#D2332B;}
	.st2{fill:#FECF0A;}
</style>
<circle class="st0" cx="256" cy="256" r="256"/>
<path class="st1" d="M459.1,411.9L303.2,256h0l155.9-155.9C452.4,91.4,445,83,437,75c-8-8-16.4-15.4-25.1-22.1L256,208.8l0,0
	L100.1,52.9C91.4,59.6,83,67,75,75s-15.4,16.4-22.1,25.1L208.8,256l0,0L52.9,411.9C59.6,420.6,67,429,75,437
	c8,8,16.4,15.4,25.1,22.1L256,303.2l0,0l155.9,155.9c8.7-6.7,17.1-14.1,25.1-22.1C445,429,452.4,420.6,459.1,411.9z"/>
<polygon class="st2" points="211.5,77.9 256,89 300.5,77.9 300.5,40.1 282.7,49 256,22.3 229.3,49 211.5,40.1 "/>
<path class="st1" d="M211.5,77.9v27.8c0,34.1,44.5,44.5,44.5,44.5s44.5-10.4,44.5-44.5V77.9H211.5z"/>
</svg>
