<?xml version="1.0" encoding="utf-8"?>
<!-- Generator: Adobe Illustrator 24.1.0, SVG Export Plug-In . SVG Version: 6.00 Build 0)  -->
<svg version="1.1" id="Layer_1" xmlns="http://www.w3.org/2000/svg" xmlns:xlink="http://www.w3.org/1999/xlink" x="0px" y="0px"
	 viewBox="0 0 512 512" style="enable-background:new 0 0 512 512;" xml:space="preserve">
<style type="text/css">
	.st0{fill:#12B2D9;}
	.st1{fill:#FECF0A;}
</style>
<circle class="st0" cx="256" cy="256" r="256"/>
<path class="st1" d="M400.7,258.8H111.3c0,20,17.4,36.2,37.4,36.2h-1.2c0,20,16.2,36.2,36.2,36.2c0,20,16.2,36.2,36.2,36.2h72.3
	c20,0,36.2-16.2,36.2-36.2c20,0,36.2-16.2,36.2-36.2h-1.2C383.3,295,400.7,278.8,400.7,258.8z"/>
<path class="st0" d="M356.2,211.5c0,55.3-44.9,100.2-100.2,100.2c-55.3,0-100.2-44.9-100.2-100.2"/>
<polygon class="st1" points="332.5,211.5 301.2,226.2 317.9,256.5 283.9,250 279.6,284.3 256,259 232.4,284.3 228.1,250 
	194.1,256.5 210.7,226.2 179.5,211.5 210.8,196.8 194.1,166.5 228.1,173 232.4,138.7 256,163.9 279.6,138.7 283.9,173 317.9,166.5 
	301.3,196.8 "/>
</svg>
