<?xml version="1.0" encoding="utf-8"?>
<!-- Generator: Adobe Illustrator 24.1.0, SVG Export Plug-In . SVG Version: 6.00 Build 0)  -->
<svg version="1.1" id="Layer_1" xmlns="http://www.w3.org/2000/svg" xmlns:xlink="http://www.w3.org/1999/xlink" x="0px" y="0px"
	 viewBox="0 0 512 512" style="enable-background:new 0 0 512 512;" xml:space="preserve">
<style type="text/css">
	.st0{fill:#F7F7F7;}
	.st1{fill:#1E2834;}
	.st2{fill:#76923B;}
	.st3{fill:#D2332B;}
	.st4{fill:#F0F0F0;}
</style>
<circle class="st0" cx="256" cy="256" r="256"/>
<path class="st1" d="M256,0C154.5,0,66.8,59.1,25.4,144.7h461.2C445.2,59.1,357.5,0,256,0z"/>
<path class="st2" d="M256,512c-101.5,0-189.2-59.1-230.6-144.7h461.2C445.2,452.9,357.5,512,256,512z"/>
<path class="st3" d="M499.9,178.1H12.1C4.2,202.7,0,228.8,0,256s4.2,53.3,12.1,77.9h487.8c7.8-24.6,12.1-50.7,12.1-77.9
	S507.8,202.7,499.9,178.1z"/>
<g>
	<polygon class="st4" points="335.7,118.3 305.4,104.3 256,216.2 206.6,104.3 176.3,118.3 237.6,256 176.3,393.7 206.6,407.7 
		256,295.8 305.4,407.7 335.7,393.7 274.4,256 	"/>
	<path class="st0" d="M276.6,131.5c-11.7-12.8-20.6-20.2-20.6-20.2s-8.9,7.4-20.6,20.2v249c11.7,12.8,20.6,20.2,20.6,20.2
		s8.9-7.4,20.6-20.2V131.5z"/>
</g>
<g>
	<path class="st3" d="M200.3,179.2v153.5c12.4,22,27.6,40,39,51.9V127.3C227.9,139.3,212.7,157.3,200.3,179.2z"/>
	<path class="st3" d="M311.7,179.2c-12.4-22-27.6-40-39-51.9v257.4c11.4-11.9,26.6-30,39-51.9V179.2z"/>
</g>
<path class="st1" d="M311.7,179.2v153.5c12.6-22.2,22.3-48.6,22.3-76.8S324.2,201.5,311.7,179.2z"/>
<path class="st1" d="M200.3,179.2v153.5c-12.6-22.2-22.3-48.6-22.3-76.8S187.8,201.5,200.3,179.2z"/>
</svg>
