<?xml version="1.0" encoding="utf-8"?>
<!-- Generator: Adobe Illustrator 24.1.0, SVG Export Plug-In . SVG Version: 6.00 Build 0)  -->
<svg version="1.1" id="Layer_1" xmlns="http://www.w3.org/2000/svg" xmlns:xlink="http://www.w3.org/1999/xlink" x="0px" y="0px"
	 viewBox="0 0 512 512" style="enable-background:new 0 0 512 512;" xml:space="preserve">
<style type="text/css">
	.st0{fill:#D2332B;}
	.st1{fill:#FECF0A;}
	.st2{fill:#F7F7F7;}
	.st3{fill:#006289;}
</style>
<path class="st0" d="M0,256C0,114.6,114.6,0,256,0s256,114.6,256,256"/>
<g>
	<polygon class="st1" points="345,238.1 308.7,255.2 328,290.4 288.5,282.9 283.5,322.8 256,293.4 228.5,322.8 223.5,282.9 
		184,290.4 203.3,255.2 167,238.1 203.3,221 184,185.7 223.5,193.3 228.5,153.4 256,182.7 283.5,153.4 288.5,193.3 328,185.7 
		308.7,221 	"/>
	<path class="st1" d="M322.8,83.5h-50.1c0-9.2-7.5-16.7-16.7-16.7s-16.7,7.5-16.7,16.7h-50.1c0,9.2,8,16.7,17.3,16.7h-0.6
		c0,9.2,7.5,16.7,16.7,16.7c0,9.2,7.5,16.7,16.7,16.7h33.4c9.2,0,16.7-7.5,16.7-16.7c9.2,0,16.7-7.5,16.7-16.7h-0.6
		C314.8,100.2,322.8,92.7,322.8,83.5z"/>
</g>
<path class="st2" d="M512,256c0,141.4-114.6,256-256,256S0,397.4,0,256C11.1,256,512,256,512,256z"/>
<g>
	<path class="st3" d="M256,512c80,0,151.5-36.7,198.4-94.2c-8.4-5.8-13-15.1-27.7-15.1c-21.3,0-21.3,19.5-42.7,19.5
		s-21.3-19.5-42.7-19.5c-21.3,0-21.3,19.5-42.7,19.5s-21.3-19.5-42.7-19.5c-21.3,0-21.3,19.5-42.7,19.5c-21.3,0-21.3-19.5-42.7-19.5
		c-21.3,0-21.3,19.5-42.7,19.5s-21.3-19.5-42.7-19.5c-14.7,0-19.3,9.3-27.7,15.1C104.5,475.3,176,512,256,512z"/>
	<path class="st3" d="M469.3,288.6c-21.3,0-21.3-19.5-42.7-19.5c-21.3,0-21.3,19.5-42.7,19.5s-21.3-19.5-42.7-19.5
		c-21.3,0-21.3,19.5-42.7,19.5s-21.3-19.5-42.7-19.5c-21.3,0-21.3,19.5-42.7,19.5c-21.3,0-21.3-19.5-42.7-19.5
		c-21.3,0-21.3,19.5-42.7,19.5s-21.3-19.5-42.7-19.5c-21.3,0-21.3,19.5-42.7,19.5c-21.2,0-21.3-19.3-42.3-19.5
		c0.6,11.7,2,23.2,4.1,34.4c17,2.5,18.5,19.2,38.2,19.2c21.3,0,21.3-19.5,42.7-19.5c21.3,0,21.3,19.5,42.7,19.5s21.3-19.5,42.7-19.5
		c21.3,0,21.3,19.5,42.7,19.5c21.3,0,21.3-19.5,42.7-19.5c21.3,0,21.3,19.5,42.7,19.5s21.3-19.5,42.7-19.5
		c21.3,0,21.3,19.5,42.7,19.5s21.3-19.5,42.7-19.5c21.3,0,21.3,19.5,42.7,19.5c19.7,0,21.2-16.7,38.2-19.2
		c2.1-11.2,3.5-22.7,4.1-34.4C490.7,269.4,490.5,288.6,469.3,288.6z"/>
	<path class="st3" d="M426.7,335.9c-21.3,0-21.3,19.5-42.7,19.5s-21.3-19.5-42.7-19.5c-21.3,0-21.3,19.5-42.7,19.5
		c-21.3,0-21.3-19.5-42.7-19.5c-21.3,0-21.3,19.5-42.7,19.5c-21.3,0-21.3-19.5-42.7-19.5c-21.3,0-21.3,19.5-42.7,19.5
		s-21.3-19.5-42.7-19.5c-21.3,0-21.3,19.5-42.7,19.5c-15.2,0-19.6-10-28.6-15.6c6,17.4,13.8,33.9,23.2,49.3c1.6,0.3,3.4,0.5,5.4,0.5
		c21.3,0,21.3-19.5,42.7-19.5c21.3,0,21.3,19.5,42.7,19.5s21.3-19.5,42.7-19.5c21.3,0,21.3,19.5,42.7,19.5
		c21.3,0,21.3-19.5,42.7-19.5c21.3,0,21.3,19.5,42.7,19.5c21.3,0,21.3-19.5,42.7-19.5c21.3,0,21.3,19.5,42.7,19.5
		s21.3-19.5,42.7-19.5c21.3,0,21.3,19.5,42.7,19.5c2,0,3.8-0.2,5.4-0.5c9.4-15.4,17.2-31.9,23.2-49.3c-9,5.7-13.4,15.6-28.6,15.6
		C448,355.4,448,335.9,426.7,335.9z"/>
</g>
<path class="st2" d="M511.2,235.8c-20.5,0.5-20.8,19.5-41.9,19.5c-21.3,0-21.3-19.5-42.7-19.5c-21.3,0-21.3,19.5-42.7,19.5
	s-21.3-19.5-42.7-19.5c-21.3,0-21.3,19.5-42.7,19.5s-21.3-19.5-42.7-19.5c-21.3,0-21.3,19.5-42.7,19.5c-21.3,0-21.3-19.5-42.7-19.5
	c-21.3,0-21.3,19.5-42.7,19.5s-21.3-19.5-42.7-19.5c-21.3,0-21.3,19.5-42.7,19.5c-21.1,0-21.3-19-41.9-19.5C0.3,242.4,0,249.2,0,256
	c0,4.7,0.1,9.3,0.4,13.9c20.9,0.2,21.1,19.5,42.3,19.5c21.3,0,21.3-19.5,42.7-19.5c21.3,0,21.3,19.5,42.7,19.5s21.3-19.5,42.7-19.5
	c21.3,0,21.3,19.5,42.7,19.5c21.3,0,21.3-19.5,42.7-19.5c21.3,0,21.3,19.5,42.7,19.5c21.3,0,21.3-19.5,42.7-19.5
	c21.3,0,21.3,19.5,42.7,19.5s21.3-19.5,42.7-19.5c21.3,0,21.3,19.5,42.7,19.5c21.2,0,21.3-19.3,42.3-19.5c0.2-4.6,0.4-9.2,0.4-13.9
	C512,249.2,511.7,242.4,511.2,235.8z"/>
</svg>
