<?xml version="1.0" encoding="utf-8"?>
<!-- Generator: Adobe Illustrator 24.1.0, SVG Export Plug-In . SVG Version: 6.00 Build 0)  -->
<svg version="1.1" id="Layer_1" xmlns="http://www.w3.org/2000/svg" xmlns:xlink="http://www.w3.org/1999/xlink" x="0px" y="0px"
	 viewBox="0 0 512 512" style="enable-background:new 0 0 512 512;" xml:space="preserve">
<style type="text/css">
	.st0{fill:#006289;}
	.st1{fill:#F7F7F7;}
	.st2{fill:#FECF0A;}
</style>
<circle class="st0" cx="256" cy="256" r="256"/>
<g>
	<polygon class="st1" points="112.4,155.8 118,172.8 135.9,172.8 121.4,183.3 126.9,200.3 112.4,189.8 98,200.3 103.5,183.3 
		89,172.8 106.9,172.8 	"/>
	<polygon class="st1" points="168.1,139.1 173.6,156.1 191.5,156.1 177,166.6 182.6,183.7 168.1,173.1 153.6,183.7 159.2,166.6 
		144.7,156.1 162.6,156.1 	"/>
	<polygon class="st1" points="223.8,122.4 229.3,139.4 247.2,139.4 232.7,150 238.2,167 223.8,156.4 209.3,167 214.8,150 
		200.3,139.4 218.2,139.4 	"/>
	<polygon class="st1" points="399.6,155.8 394,172.8 376.1,172.8 390.6,183.3 385.1,200.3 399.6,189.8 414,200.3 408.5,183.3 
		423,172.8 405.1,172.8 	"/>
	<polygon class="st1" points="343.9,139.1 338.4,156.1 320.5,156.1 335,166.6 329.4,183.7 343.9,173.1 358.4,183.7 352.8,166.6 
		367.3,156.1 349.4,156.1 	"/>
	<polygon class="st1" points="288.2,122.4 282.7,139.4 264.8,139.4 279.3,150 273.8,167 288.2,156.4 302.7,167 297.2,150 
		311.7,139.4 293.8,139.4 	"/>
</g>
<path class="st2" d="M300.5,267.1L256,211.5l-22.3,11.1v22.3l-33.4,22.3h-22.3v28.8c32.6,13.2,55.7,45.2,55.7,82.5l0,0H256v-22.3
	l22.3-22.3l22.3,22.3l22.3-22.3v-22.3l22.3-33.4L300.5,267.1z"/>
</svg>
