<?xml version="1.0" encoding="utf-8"?>
<!-- Generator: Adobe Illustrator 24.1.0, SVG Export Plug-In . SVG Version: 6.00 Build 0)  -->
<svg version="1.1" id="Layer_1" xmlns="http://www.w3.org/2000/svg" xmlns:xlink="http://www.w3.org/1999/xlink" x="0px" y="0px"
	 viewBox="0 0 512 512" style="enable-background:new 0 0 512 512;" xml:space="preserve">
<style type="text/css">
	.st0{fill:#F0F0F0;}
	.st1{fill:#D2332B;}
	.st2{fill:#76923B;}
	.st3{fill:#1E2834;}
</style>
<path class="st0" d="M496.1,345c10.3-27.7,15.9-57.7,15.9-89s-5.6-61.3-15.9-89L256,144.7L15.9,167C5.6,194.7,0,224.7,0,256
	s5.6,61.3,15.9,89L256,367.3L496.1,345z"/>
<path class="st1" d="M256,512c110.1,0,203.9-69.5,240.1-167H15.9C52.1,442.5,145.9,512,256,512z"/>
<path class="st2" d="M256,0C145.9,0,52.1,69.5,15.9,167h480.2C459.9,69.5,366.1,0,256,0z"/>
<path class="st3" d="M75,75C-25,175-25,337,75,437c26.1-26.1,51.6-51.6,92-92V167L75,75z"/>
</svg>
