<?xml version="1.0" encoding="utf-8"?>
<!-- Generator: Adobe Illustrator 24.1.0, SVG Export Plug-In . SVG Version: 6.00 Build 0)  -->
<svg version="1.1" id="Layer_1" xmlns="http://www.w3.org/2000/svg" xmlns:xlink="http://www.w3.org/1999/xlink" x="0px" y="0px"
	 viewBox="0 0 512 512" style="enable-background:new 0 0 512 512;" xml:space="preserve">
<style type="text/css">
	.st0{fill:#D2332B;}
	.st1{fill:#FECF0A;}
</style>
<circle class="st0" cx="256" cy="256" r="256"/>
<polygon class="st1" points="381.2,256 330,280.1 357.3,329.6 301.7,319 294.7,375.1 256,333.8 217.3,375.1 210.3,319 154.7,329.6 
	182,280.1 130.8,256 182,231.9 154.7,182.4 210.3,193 217.3,136.9 256,178.2 294.7,136.9 301.7,193 357.3,182.4 330,231.9 "/>
<circle class="st0" cx="256" cy="256" r="77.9"/>
<g>
	<path class="st1" d="M217,256c-1.9,0-3.7,0.1-5.6,0.3c0.1,10.8,4,20.7,10.4,28.3c3.4-9.3,8.6-17.7,15.1-24.9
		C230.8,257.3,224.1,256,217,256z"/>
	<path class="st1" d="M241,297.9c4.7,1.7,9.7,2.6,15,2.6s10.3-0.9,15-2.6c-2.6-10-7.8-19-15-26C248.8,279,243.6,287.9,241,297.9z"/>
	<path class="st1" d="M294.6,233.7c-7.7-13.3-22.1-22.3-38.6-22.3s-30.9,9-38.6,22.3c14,0.1,27.2,3.9,38.6,10.5
		C267.4,237.6,280.5,233.8,294.6,233.7z"/>
	<path class="st1" d="M275,259.7c6.5,7.2,11.6,15.7,15.1,24.9c6.4-7.7,10.4-17.5,10.4-28.3c-1.8-0.2-3.7-0.3-5.6-0.3
		C287.9,256,281.2,257.3,275,259.7z"/>
</g>
</svg>
