<?xml version="1.0" encoding="utf-8"?>
<!-- Generator: Adobe Illustrator 24.1.0, SVG Export Plug-In . SVG Version: 6.00 Build 0)  -->
<svg version="1.1" id="Layer_1" xmlns="http://www.w3.org/2000/svg" xmlns:xlink="http://www.w3.org/1999/xlink" x="0px" y="0px"
	 viewBox="0 0 512 512" style="enable-background:new 0 0 512 512;" xml:space="preserve">
<style type="text/css">
	.st0{fill:#D2332B;}
	.st1{fill:#006289;}
	.st2{fill:#F7F7F7;}
</style>
<g>
	<path class="st0" d="M486.6,144.7C445.2,59.1,357.5,0,256,0S66.8,59.1,25.4,144.7L256,167L486.6,144.7z"/>
	<path class="st0" d="M25.4,367.3C66.8,452.9,154.5,512,256,512s189.2-59.1,230.6-144.7L256,345L25.4,367.3z"/>
</g>
<path class="st1" d="M486.6,144.7H25.4C9.1,178.4,0,216.1,0,256s9.1,77.6,25.4,111.3h461.2C502.9,333.6,512,295.9,512,256
	S502.9,178.4,486.6,144.7z"/>
<circle class="st2" cx="256" cy="256" r="89"/>
</svg>
