<?xml version="1.0" encoding="utf-8"?>
<!-- Generator: Adobe Illustrator 24.1.0, SVG Export Plug-In . SVG Version: 6.00 Build 0)  -->
<svg version="1.1" id="Layer_1" xmlns="http://www.w3.org/2000/svg" xmlns:xlink="http://www.w3.org/1999/xlink" x="0px" y="0px"
	 viewBox="0 0 512 512" style="enable-background:new 0 0 512 512;" xml:space="preserve">
<style type="text/css">
	.st0{fill:#F7F7F7;}
	.st1{fill:#76923B;}
	.st2{fill:#0C8DB0;}
	.st3{fill:#1E2834;}
</style>
<path class="st0" d="M0,256c0,39.9,9.1,77.6,25.4,111.3L256,378.4l230.6-11.1C502.9,333.6,512,295.9,512,256s-9.1-77.6-25.4-111.3
	L256,133.6L25.4,144.7C9.1,178.4,0,216.1,0,256z"/>
<path class="st1" d="M256,512c101.5,0,189.2-59.1,230.6-144.7H25.4C66.8,452.9,154.5,512,256,512z"/>
<path class="st2" d="M256,0C154.5,0,66.8,59.1,25.4,144.7h461.2C445.2,59.1,357.5,0,256,0z"/>
<path class="st3" d="M272.7,250.4v-61.2h-33.4v61.2L199,290.8c11.7,19.2,32.9,32,57,32s45.3-12.8,57-32L272.7,250.4z"/>
</svg>
