<?xml version="1.0" encoding="utf-8"?>
<!-- Generator: Adobe Illustrator 24.1.0, SVG Export Plug-In . SVG Version: 6.00 Build 0)  -->
<svg version="1.1" id="Layer_1" xmlns="http://www.w3.org/2000/svg" xmlns:xlink="http://www.w3.org/1999/xlink" x="0px" y="0px"
	 viewBox="0 0 512 512" style="enable-background:new 0 0 512 512;" xml:space="preserve">
<style type="text/css">
	.st0{fill:#F0F0F0;}
	.st1{fill:#F7F7F7;}
	.st2{fill:#D2332B;}
	.st3{fill:#006289;}
</style>
<g>
	<circle class="st0" cx="256" cy="256" r="256"/>
	<path class="st1" d="M58.5,93.1h395c-14.6-17.7-31.5-33.3-50.3-46.5H108.8C90,59.8,73.1,75.4,58.5,93.1z"/>
	<path class="st1" d="M0,256c0,7.8,0.4,15.6,1.1,23.3h509.9c0.7-7.7,1.1-15.4,1.1-23.3c0-7.8-0.4-15.6-1.1-23.3H1.1
		C0.4,240.4,0,248.2,0,256z"/>
	<path class="st1" d="M27.9,372.4h456.2c7.5-14.7,13.7-30.3,18.3-46.5H9.6C14.2,342,20.4,357.6,27.9,372.4z"/>
	<path class="st1" d="M108.8,465.5h294.4c18.8-13.2,35.7-28.9,50.3-46.5h-395C73.1,436.6,90,452.2,108.8,465.5z"/>
	<path class="st1" d="M9.6,186.2h492.7c-4.6-16.2-10.7-31.8-18.3-46.5H27.9C20.4,154.4,14.2,170,9.6,186.2z"/>
</g>
<g>
	<path class="st2" d="M122.4,46.5h280.8C361.6,17.2,310.8,0,256,0C222.6,0,164.1,17.2,122.4,46.5z"/>
	<path class="st2" d="M244.9,139.6h239.2c-8.5-16.7-18.8-32.3-30.6-46.5H244.9V139.6z"/>
	<path class="st2" d="M244.9,232.7h266.1c-1.4-16-4.3-31.5-8.6-46.5H244.9V232.7z"/>
	<path class="st2" d="M9.6,325.8h492.7c4.2-15,7.1-30.6,8.6-46.5H1.1C2.5,295.3,5.4,310.8,9.6,325.8z"/>
	<path class="st2" d="M58.5,418.9h395c11.8-14.3,22.1-29.9,30.6-46.5H27.9C36.4,389,46.7,404.6,58.5,418.9z"/>
	<path class="st2" d="M256,512c54.8,0,105.6-17.2,147.2-46.5H108.8C150.4,494.8,201.2,512,256,512z"/>
</g>
<path class="st3" d="M9.6,186.2c-4.2,15-7.1,30.6-8.6,46.5H256V0C138.8,0,40,78.7,9.6,186.2z"/>
<polygon class="st1" points="152.4,66.8 169,117.8 222.6,117.8 179.2,149.3 195.8,200.3 152.4,168.8 109,200.3 125.6,149.3 
	82.2,117.8 135.8,117.8 "/>
</svg>
