<?xml version="1.0" encoding="utf-8"?>
<!-- Generator: Adobe Illustrator 24.1.0, SVG Export Plug-In . SVG Version: 6.00 Build 0)  -->
<svg version="1.1" id="Layer_1" xmlns="http://www.w3.org/2000/svg" xmlns:xlink="http://www.w3.org/1999/xlink" x="0px" y="0px"
	 viewBox="0 0 512 512" style="enable-background:new 0 0 512 512;" xml:space="preserve">
<style type="text/css">
	.st0{fill:#1E2834;}
	.st1{fill:#76923B;}
	.st2{fill:#D2332B;}
	.st3{fill:#F7F7F7;}
</style>
<path class="st0" d="M25.4,144.7C9.1,178.4,0,216.1,0,256s9.1,77.6,25.4,111.3L256,389.6l230.6-22.3C502.9,333.6,512,295.9,512,256
	s-9.1-77.6-25.4-111.3L256,122.4L25.4,144.7z"/>
<path class="st1" d="M25.4,367.3C66.8,452.9,154.5,512,256,512c101.5,0,189.2-59.1,230.6-144.7L25.4,367.3L25.4,367.3z"/>
<path class="st2" d="M25.4,144.7h461.2C445.2,59.1,357.5,0,256,0C154.5,0,66.8,59.1,25.4,144.7z"/>
<g>
	<polygon class="st3" points="315.6,209.2 336.6,238.1 370.6,227.1 349.6,256 370.6,285 336.6,273.9 315.5,302.8 315.6,267.1 
		281.5,256 315.6,244.9 	"/>
	<path class="st3" d="M258.3,328.3c-40,0-72.3-32.4-72.3-72.3s32.4-72.3,72.3-72.3c12.5,0,24.2,3.1,34.4,8.7
		c-16.1-15.7-38-25.4-62.2-25.4c-49.2,0-89,39.9-89,89s39.9,89,89,89c24.2,0,46.2-9.7,62.2-25.4
		C282.4,325.2,270.7,328.3,258.3,328.3z"/>
</g>
</svg>
