<?xml version="1.0" encoding="utf-8"?>
<!-- Generator: Adobe Illustrator 24.1.0, SVG Export Plug-In . SVG Version: 6.00 Build 0)  -->
<svg version="1.1" id="Layer_1" xmlns="http://www.w3.org/2000/svg" xmlns:xlink="http://www.w3.org/1999/xlink" x="0px" y="0px"
	 viewBox="0 0 512 512" style="enable-background:new 0 0 512 512;" xml:space="preserve">
<style type="text/css">
	.st0{fill:#D2332B;}
	.st1{fill:#006289;}
	.st2{fill:#FECF0A;}
</style>
<path class="st0" d="M518,256c0,141.4-114.6,256-256,256S6,397.4,6,256c11.1,0,256-33.4,256-33.4L518,256z"/>
<path class="st1" d="M0,256C0,114.6,114.6,0,256,0s256,114.6,256,256"/>
<path class="st2" d="M189.2,178.1c0-18.4-14.9-33.4-33.4-33.4c-8.6,0-16.4,3.2-22.3,8.5v-19.6h11.1v-22.3h-11.1v-11.1h-22.3v11.1
	h-11.1v22.3h11.1v19.6c-5.9-5.3-13.7-8.5-22.3-8.5c-18.4,0-33.4,14.9-33.4,33.4c0,9.9,4.3,18.8,11.1,24.9v19.6h111.3V203
	C184.9,196.9,189.2,188,189.2,178.1z"/>
</svg>
