<?xml version="1.0" encoding="utf-8"?>
<!-- Generator: Adobe Illustrator 24.1.0, SVG Export Plug-In . SVG Version: 6.00 Build 0)  -->
<svg version="1.1" id="Layer_1" xmlns="http://www.w3.org/2000/svg" xmlns:xlink="http://www.w3.org/1999/xlink" x="0px" y="0px"
	 viewBox="0 0 512 512" style="enable-background:new 0 0 512 512;" xml:space="preserve">
<style type="text/css">
	.st0{fill:#76923B;}
	.st1{fill:#F7F7F7;}
	.st2{fill:#FECF0A;}
</style>
<circle class="st0" cx="256" cy="256" r="256"/>
<path class="st1" d="M300.5,245.3c-6.3,0-12.2,1.3-17.8,3.2c3-6.8,5.1-14.3,5.1-22.3c0-31.8-31.8-55.7-31.8-55.7
	s-31.8,23.9-31.8,55.7c0,8,2,15.6,5.1,22.3c-5.5-2-11.5-3.2-17.8-3.2c-31.8,0-55.7,31.8-55.7,31.8s23.9,31.8,55.7,31.8
	c18.6,0,34.5-10.9,44.5-20c10,9,25.9,20,44.5,20c31.8,0,55.7-31.8,55.7-31.8S332.3,245.3,300.5,245.3z"/>
<g>
	<polygon class="st2" points="256,100.2 262.6,120.4 283.8,120.4 266.6,132.9 273.2,153.1 256,140.6 238.8,153.1 245.4,132.9 
		228.2,120.4 249.4,120.4 	"/>
	<polygon class="st2" points="175.2,135.5 187.8,146.9 202.5,138.4 195.6,153.9 208.3,165.3 191.3,163.5 184.4,179.1 180.9,162.4 
		164,160.7 178.7,152.2 	"/>
	<polygon class="st2" points="116,194.7 132.6,198.2 141.1,183.5 142.9,200.4 159.5,204 144,210.9 145.8,227.8 134.4,215.2 
		118.9,222.1 127.4,207.3 	"/>
	<polygon class="st2" points="336.8,135.5 324.2,146.9 309.5,138.4 316.4,153.9 303.7,165.3 320.7,163.5 327.6,179.1 331.1,162.4 
		348,160.7 333.3,152.2 	"/>
	<polygon class="st2" points="396,194.7 379.4,198.2 370.9,183.5 369.1,200.4 352.5,204 368,210.9 366.2,227.8 377.6,215.2 
		393.1,222.1 384.6,207.3 	"/>
</g>
<g>
	<path class="st1" d="M256,398c25.3,0,48.5-8.4,67.2-22.6H188.8C207.5,389.5,230.7,398,256,398z"/>
	<path class="st1" d="M154,331.2c3.5,8.1,8,15.7,13.3,22.6h177.5c5.3-6.9,9.7-14.5,13.3-22.6H154z"/>
</g>
</svg>
