<?xml version="1.0" encoding="utf-8"?>
<!-- Generator: Adobe Illustrator 24.1.0, SVG Export Plug-In . SVG Version: 6.00 Build 0)  -->
<svg version="1.1" id="Layer_1" xmlns="http://www.w3.org/2000/svg" xmlns:xlink="http://www.w3.org/1999/xlink" x="0px" y="0px"
	 viewBox="0 0 512 512" style="enable-background:new 0 0 512 512;" xml:space="preserve">
<style type="text/css">
	.st0{fill:#D2332B;}
	.st1{fill:#1E2834;}
	.st2{fill:#76923B;}
</style>
<path class="st0" d="M0,256c0,31.3,5.6,61.3,15.9,89L256,356.2L496.1,345c10.3-27.7,15.9-57.7,15.9-89s-5.6-61.3-15.9-89L256,155.8
	L15.9,167C5.6,194.7,0,224.7,0,256z"/>
<path class="st1" d="M256,0C145.9,0,52.1,69.5,15.9,167h480.2C459.9,69.5,366.1,0,256,0z"/>
<path class="st2" d="M496.1,345H15.9c36.2,97.5,130,167,240.1,167S459.9,442.5,496.1,345z"/>
<polygon class="st0" points="332.5,122.4 301.3,107.7 317.9,77.4 284,83.9 279.6,49.6 256,74.9 232.4,49.6 228.1,83.9 194.1,77.4 
	210.8,107.7 179.5,122.4 "/>
</svg>
