<?xml version="1.0" encoding="utf-8"?>
<!-- Generator: Adobe Illustrator 24.1.0, SVG Export Plug-In . SVG Version: 6.00 Build 0)  -->
<svg version="1.1" id="Layer_1" xmlns="http://www.w3.org/2000/svg" xmlns:xlink="http://www.w3.org/1999/xlink" x="0px" y="0px"
	 viewBox="0 0 512 512" style="enable-background:new 0 0 512 512;" xml:space="preserve">
<style type="text/css">
	.st0{fill:#F7F7F7;}
	.st1{fill:#D2332B;}
	.st2{fill:#006289;}
	.st3{fill:#FECF0A;}
</style>
<circle class="st0" cx="256" cy="256" r="256"/>
<g>
	<path class="st1" d="M244.9,256H512c0-23.1-3.1-45.5-8.8-66.8H244.9V256z"/>
	<path class="st1" d="M244.9,122.4h229.6c-15.7-25.6-35.7-48.2-59.1-66.8H244.9V122.4z"/>
	<path class="st1" d="M256,512c60.2,0,115.6-20.8,159.4-55.7H96.6C140.4,491.2,195.8,512,256,512z"/>
	<path class="st1" d="M37.6,389.6h436.9c12.6-20.5,22.3-43,28.8-66.8H8.8C15.2,346.6,25,369,37.6,389.6z"/>
</g>
<path class="st2" d="M256,256c0-141.4,0-158.1,0-256C114.6,0,0,114.6,0,256H256z"/>
<g>
	<path class="st3" d="M170.2,219.1c-35,0-63.3-28.3-63.3-63.3s28.3-63.3,63.3-63.3c10.9,0,21.2,2.8,30.1,7.6
		c-14-13.7-33.3-22.2-54.5-22.2c-43,0-77.9,34.9-77.9,77.9s34.9,77.9,77.9,77.9c21.2,0,40.4-8.5,54.5-22.2
		C191.4,216.4,181.1,219.1,170.2,219.1z"/>
	<polygon class="st3" points="188.1,111.3 199.3,134.8 224.7,128.9 213.3,152.4 233.7,168.6 208.3,174.3 208.4,200.3 188.1,184.1 
		167.7,200.3 167.8,174.3 142.4,168.6 162.8,152.4 151.4,128.9 176.8,134.8 	"/>
</g>
</svg>
