<?xml version="1.0" encoding="utf-8"?>
<!-- Generator: Adobe Illustrator 24.1.0, SVG Export Plug-In . SVG Version: 6.00 Build 0)  -->
<svg version="1.1" id="Layer_1" xmlns="http://www.w3.org/2000/svg" xmlns:xlink="http://www.w3.org/1999/xlink" x="0px" y="0px"
	 viewBox="0 0 512 512" style="enable-background:new 0 0 512 512;" xml:space="preserve">
<style type="text/css">
	.st0{fill:#006289;}
	.st1{fill:#F7F7F7;}
	.st2{fill:#F89341;}
</style>
<path class="st0" d="M256,512c141.4,0,256-114.6,256-256c0-43-10.6-83.4-29.3-119l-227,119.3L375,29.3C339.4,10.6,299,0,256,0
	C114.6,0,0,114.6,0,256c0,70.7,28.7,134.7,75,181C121.3,483.3,185.3,512,256,512z"/>
<path class="st1" d="M482.4,137.3c-11.7-22.3-27-43.2-45.7-62c-18.8-18.8-39.7-34-62-45.7l-300,407.7L482.4,137.3z"/>
<path class="st2" d="M74.7,437.3l407.7-300c-11.7-22.3-27-43.2-45.7-62L74.7,437.3z"/>
<polygon class="st1" points="222.3,150.1 191,164.8 207.7,195.1 173.7,188.6 169.4,222.9 145.8,197.7 122.1,222.9 117.8,188.6 
	83.9,195.1 100.5,164.8 69.3,150.1 100.5,135.4 83.9,105.1 117.8,111.6 122.1,77.3 145.8,102.6 169.4,77.3 173.7,111.6 207.7,105.1 
	191,135.4 "/>
</svg>
