<?xml version="1.0" encoding="utf-8"?>
<!-- Generator: Adobe Illustrator 24.1.0, SVG Export Plug-In . SVG Version: 6.00 Build 0)  -->
<svg version="1.1" id="Layer_1" xmlns="http://www.w3.org/2000/svg" xmlns:xlink="http://www.w3.org/1999/xlink" x="0px" y="0px"
	 viewBox="0 0 512 512" style="enable-background:new 0 0 512 512;" xml:space="preserve">
<style type="text/css">
	.st0{fill:#F7F7F7;}
	.st1{fill:#006289;}
</style>
<circle class="st0" cx="256" cy="256" r="256"/>
<g>
	<path class="st1" d="M509.8,222.6c-7.1-54-31.3-106.2-72.8-147.6S343.4,9.3,289.4,2.2l0,220.4L509.8,222.6L509.8,222.6z"/>
	<path class="st1" d="M222.6,2.2C168.6,9.3,116.5,33.5,75,75C33.5,116.5,9.3,168.6,2.2,222.6l220.4,0L222.6,2.2z"/>
	<path class="st1" d="M2.2,289.4C9.3,343.4,33.5,395.5,75,437c41.5,41.5,93.6,65.7,147.6,72.8l0-220.4L2.2,289.4z"/>
	<path class="st1" d="M289.4,509.8c54-7.1,106.2-31.3,147.6-72.8s65.7-93.6,72.8-147.6H289.4V509.8z"/>
</g>
<g>
	<path class="st0" d="M343.4,162.4c0-3.4,2.8-6.2,6.2-6.2h13.2c20.9,0,37.9-17,37.9-37.9s-17-37.9-37.9-37.9h-12.6
		c-4.1-3.1-9.6-5-15.7-5c-12.7,0-22.9,8.2-22.9,18.3c0,10,10.1,18.2,22.5,18.3l0,0.1h28.6c3.4,0,6.2,2.8,6.2,6.2s-2.8,6.2-6.2,6.2
		h-13.2c-20.9,0-37.9,17-37.9,37.9s17,37.9,37.9,37.9h51.1v-31.7h-51.1C346.2,168.6,343.4,165.8,343.4,162.4z"/>
	<path class="st0" d="M143,162.4c0-3.4,2.8-6.2,6.2-6.2h13.2c20.9,0,37.9-17,37.9-37.9s-17-37.9-37.9-37.9h-12.6
		c-4.1-3.1-9.6-5-15.7-5c-12.7,0-22.9,8.2-22.9,18.3c0,10,10.1,18.2,22.5,18.3l0,0.1h28.6c3.4,0,6.2,2.8,6.2,6.2s-2.8,6.2-6.2,6.2
		h-13.2c-20.9,0-37.9,17-37.9,37.9s17,37.9,37.9,37.9h51.1v-31.7h-51.1C145.8,168.6,143,165.8,143,162.4z"/>
	<path class="st0" d="M343.4,398.6c0-3.4,2.8-6.2,6.2-6.2h13.2c20.9,0,37.9-17,37.9-37.9s-17-37.9-37.9-37.9h-12.6
		c-4.1-3.1-9.6-5-15.7-5c-12.7,0-22.9,8.2-22.9,18.3c0,10,10.1,18.2,22.5,18.3l0,0.1h28.6c3.4,0,6.2,2.8,6.2,6.2s-2.8,6.2-6.2,6.2
		h-13.2c-20.9,0-37.9,17-37.9,37.9s17,37.9,37.9,37.9h51.1v-31.7h-51.1C346.2,404.8,343.4,402,343.4,398.6z"/>
	<path class="st0" d="M143,398.6c0-3.4,2.8-6.2,6.2-6.2h13.2c20.9,0,37.9-17,37.9-37.9s-17-37.9-37.9-37.9h-12.6
		c-4.1-3.1-9.6-5-15.7-5c-12.7,0-22.9,8.2-22.9,18.3c0,10,10.1,18.2,22.5,18.3l0,0.1h28.6c3.4,0,6.2,2.8,6.2,6.2s-2.8,6.2-6.2,6.2
		h-13.2c-20.9,0-37.9,17-37.9,37.9s17,37.9,37.9,37.9h51.1v-31.7h-51.1C145.8,404.8,143,402,143,398.6z"/>
</g>
</svg>
