<?xml version="1.0" encoding="utf-8"?>
<!-- Generator: Adobe Illustrator 24.1.0, SVG Export Plug-In . SVG Version: 6.00 Build 0)  -->
<svg version="1.1" id="Layer_1" xmlns="http://www.w3.org/2000/svg" xmlns:xlink="http://www.w3.org/1999/xlink" x="0px" y="0px"
	 viewBox="0 0 512 512" style="enable-background:new 0 0 512 512;" xml:space="preserve">
<style type="text/css">
	.st0{fill:#D2332B;}
	.st1{fill:#FECF0A;}
	.st2{fill:#006289;}
	.st3{fill:#76923B;}
</style>
<path class="st0" d="M31.1,133.6L256,155.8l224.9-22.3C437.5,54,353,0,256,0S74.5,54,31.1,133.6z"/>
<path class="st1" d="M31.1,378.4L256,400.7l224.9-22.3C500.7,342.1,512,300.4,512,256l-256-22.3L0,256
	C0,300.4,11.3,342.1,31.1,378.4z"/>
<path class="st2" d="M31.1,133.6C11.3,169.9,0,211.6,0,256h512c0-44.4-11.3-86.1-31.1-122.4H256H31.1z"/>
<path class="st3" d="M256,512c97,0,181.5-54,224.9-133.6H31.1C74.5,458,159,512,256,512z"/>
</svg>
