<?xml version="1.0" encoding="utf-8"?>
<!-- Generator: Adobe Illustrator 24.1.0, SVG Export Plug-In . SVG Version: 6.00 Build 0)  -->
<svg version="1.1" id="Layer_1" xmlns="http://www.w3.org/2000/svg" xmlns:xlink="http://www.w3.org/1999/xlink" x="0px" y="0px"
	 viewBox="0 0 512 512" style="enable-background:new 0 0 512 512;" xml:space="preserve">
<style type="text/css">
	.st0{fill:#76923B;}
	.st1{fill:#FECF0A;}
</style>
<circle class="st0" cx="256" cy="256" r="256"/>
<g>
	<path class="st1" d="M256,295.8c-42.6,0-78.2-30-87-70c-1.3,6.1-2.1,12.5-2.1,19.1c0,49.2,39.9,89,89,89s89-39.9,89-89
		c0-6.6-0.7-12.9-2.1-19.1C334.2,265.8,298.6,295.8,256,295.8z"/>
	<polygon class="st1" points="256,178.1 264.3,203.6 291.1,203.6 269.4,219.4 277.7,244.9 256,229.1 234.3,244.9 242.6,219.4 
		220.9,203.6 247.7,203.6 	"/>
</g>
</svg>
