<?xml version="1.0" encoding="utf-8"?>
<!-- Generator: Adobe Illustrator 24.1.0, SVG Export Plug-In . SVG Version: 6.00 Build 0)  -->
<svg version="1.1" id="Layer_1" xmlns="http://www.w3.org/2000/svg" xmlns:xlink="http://www.w3.org/1999/xlink" x="0px" y="0px"
	 viewBox="0 0 512 512" style="enable-background:new 0 0 512 512;" xml:space="preserve">
<style type="text/css">
	.st0{fill:#FECF0A;}
	.st1{fill:#006289;}
	.st2{fill:#D2332B;}
	.st3{fill:#F58220;}
</style>
<path class="st0" d="M367.3,25.4C333.6,9.1,295.9,0,256,0s-77.6,9.1-111.3,25.4L122.4,256l22.3,230.6C178.4,502.9,216.1,512,256,512
	s77.6-9.1,111.3-25.4L389.6,256L367.3,25.4z"/>
<path class="st1" d="M144.7,25.4C59.1,66.8,0,154.5,0,256s59.1,189.2,144.7,230.6V25.4z"/>
<path class="st2" d="M367.3,25.4v461.2C452.9,445.2,512,357.5,512,256S452.9,66.8,367.3,25.4z"/>
<path class="st3" d="M345,201.4h-61.2c0-15.4-12.5-27.8-27.8-27.8s-27.8,12.5-27.8,27.8H167c0,15.1,13.2,27.4,28.3,27.4h-0.9
	c0,15.1,12.3,27.4,27.4,27.4c0,13.4,9.6,24.5,22.3,26.9l-21.6,48.7c10.3,4.2,21.7,6.5,33.5,6.5c11.9,0,23.2-2.3,33.5-6.5l-21.6-48.7
	c12.7-2.4,22.3-13.5,22.3-26.9c15.1,0,27.4-12.3,27.4-27.4h-0.9C331.9,228.8,345,216.5,345,201.4z"/>
<polygon class="st1" points="256,239.3 219.8,256 219.8,289.4 256,311.7 292.2,289.4 292.2,256 "/>
<rect x="219.8" y="222.6" class="st2" width="72.3" height="33.4"/>
</svg>
