<?xml version="1.0" encoding="utf-8"?>
<!-- Generator: Adobe Illustrator 24.1.0, SVG Export Plug-In . SVG Version: 6.00 Build 0)  -->
<svg version="1.1" id="Layer_1" xmlns="http://www.w3.org/2000/svg" xmlns:xlink="http://www.w3.org/1999/xlink" x="0px" y="0px"
	 viewBox="0 0 512 512" style="enable-background:new 0 0 512 512;" xml:space="preserve">
<style type="text/css">
	.st0{fill:#006289;}
	.st1{fill:#AC2D2A;}
	.st2{fill:#FECF0A;}
</style>
<path class="st0" d="M256,512c31.3,0,61.3-5.6,89-15.9L356.2,256L345,15.9C317.3,5.6,287.3,0,256,0s-61.3,5.6-89,15.9L155.8,256
	L167,496.1C194.7,506.4,224.7,512,256,512z"/>
<g>
	<path class="st1" d="M0,256c0,110.1,69.5,203.9,167,240.1V15.9C69.5,52.1,0,145.9,0,256z"/>
	<path class="st1" d="M345,15.9v480.2c97.5-36.2,167-130,167-240.1S442.5,52.1,345,15.9z"/>
</g>
<g>
	<rect x="122.4" y="256" class="st2" width="22.3" height="89"/>
	<rect x="33.4" y="256" class="st2" width="22.3" height="89"/>
	<circle class="st2" cx="89" cy="289.4" r="22.3"/>
	<circle class="st2" cx="89" cy="211.5" r="11.1"/>
	<rect x="66.8" y="322.8" class="st2" width="44.5" height="22.3"/>
	<rect x="66.8" y="233.7" class="st2" width="44.5" height="22.3"/>
	<polygon class="st2" points="89,133.6 96.9,157.8 122.4,157.8 101.8,172.8 109.7,197.1 89,182.1 68.4,197.1 76.3,172.8 55.7,157.8 
		81.2,157.8 	"/>
</g>
</svg>
