<?xml version="1.0" encoding="utf-8"?>
<!-- Generator: Adobe Illustrator 24.1.0, SVG Export Plug-In . SVG Version: 6.00 Build 0)  -->
<svg version="1.1" id="Layer_1" xmlns="http://www.w3.org/2000/svg" xmlns:xlink="http://www.w3.org/1999/xlink" x="0px" y="0px"
	 viewBox="0 0 512 512" style="enable-background:new 0 0 512 512;" xml:space="preserve">
<style type="text/css">
	.st0{fill:#FFDA44;}
	.st1{fill:#AC2D2A;}
	.st2{fill:#FECF0A;}
	.st3{fill:#76923B;}
	.st4{fill:#006289;}
</style>
<circle class="st0" cx="256" cy="256" r="256"/>
<path class="st1" d="M512,256c0-87.9-44.3-165.4-111.7-211.5H111.7C44.3,90.6,0,168.1,0,256c0,87.9,44.3,165.4,111.7,211.5h288.6
	C467.7,421.4,512,343.9,512,256z"/>
<g>
	<polygon class="st2" points="200.3,189.2 311.7,189.2 311.7,144.7 289.4,155.8 256,122.4 222.6,155.8 200.3,144.7 	"/>
	<path class="st2" d="M356.2,256h-55.6c2.2-3.8,3.5-8.1,3.5-12.8c0-14.2-11.5-25.7-25.7-25.7c-9.8,0-18.3,5.5-22.6,13.6
		c-4.3-8.1-12.8-13.6-22.6-13.6c-14.2,0-25.7,11.5-25.7,25.7c0,4.7,1.3,9,3.4,12.8h-55c0,17,14.8,30.8,31.8,30.8h-1
		c0,14,9.3,25.8,22,29.5l-25,25l23.6,23.6l33.5-33.5c1.3,0.5,2.7,0.9,4.1,1.1l-20.2,45.7c9.7,3.9,20.3,6.1,31.4,6.1
		c11.1,0,21.7-2.2,31.4-6.1l-20.2-45.7c1.4-0.3,2.8-0.6,4.1-1.1l33.5,33.5l23.6-23.6l-25-25c12.7-3.8,22-15.6,22-29.5h-1
		C341.3,286.8,356.2,273,356.2,256z"/>
</g>
<polygon class="st3" points="256,272.7 219.8,289.4 219.8,322.8 256,345 292.2,322.8 292.2,289.4 "/>
<rect x="219.8" y="256" class="st4" width="72.3" height="44.5"/>
</svg>
