<?xml version="1.0" encoding="utf-8"?>
<!-- Generator: Adobe Illustrator 24.1.0, SVG Export Plug-In . SVG Version: 6.00 Build 0)  -->
<svg version="1.1" id="Layer_1" xmlns="http://www.w3.org/2000/svg" xmlns:xlink="http://www.w3.org/1999/xlink" x="0px" y="0px"
	 viewBox="0 0 512 512" style="enable-background:new 0 0 512 512;" xml:space="preserve">
<style type="text/css">
	.st0{fill:#F7F7F7;}
	.st1{fill:#FECF0A;}
	.st2{fill:#76923B;}
	.st3{fill:#1E2834;}
	.st4{fill:#AC2D2A;}
</style>
<circle class="st0" cx="256" cy="256" r="256"/>
<path class="st1" d="M138.4,356.2L75,437c46.3,46.3,110.3,75,181,75c105.8,0,196.6-64.2,235.6-155.8H138.4z"/>
<path class="st2" d="M492,156.8C453.3,64.7,362.2,0,256,0C185.3,0,121.3,28.7,75,75l64.1,81.8L492,156.8L492,156.8z"/>
<path class="st3" d="M55.7,188.3v134.5h447.5c5.7-21.3,8.8-43.7,8.8-66.8c0-23.4-3.2-46.1-9.1-67.7L55.7,188.3L55.7,188.3z"/>
<path class="st4" d="M75,75C-25,175-25,337,75,437c41.3-41.3,81-81,181-181L75,75z"/>
<polygon class="st1" points="103.6,189.2 120.2,240.2 173.8,240.2 130.4,271.8 147,322.8 103.6,291.3 60.2,322.8 76.8,271.8 
	33.4,240.2 87,240.2 "/>
<rect x="55.1" y="256" class="st0" width="97" height="44.5"/>
<polygon class="st3" points="170.5,205 154.8,189.2 103.6,240.4 52.5,189.2 36.7,205 87.9,256.1 36.7,307.3 52.5,322.8 103.6,271.7 
	154.8,322.8 170.5,307.3 119.3,256.1 "/>
</svg>
