<?xml version="1.0" encoding="utf-8"?>
<!-- Generator: Adobe Illustrator 24.1.0, SVG Export Plug-In . SVG Version: 6.00 Build 0)  -->
<svg version="1.1" id="Layer_1" xmlns="http://www.w3.org/2000/svg" xmlns:xlink="http://www.w3.org/1999/xlink" x="0px" y="0px"
	 viewBox="0 0 512 512" style="enable-background:new 0 0 512 512;" xml:space="preserve">
<style type="text/css">
	.st0{fill:#F7F7F7;}
	.st1{fill:#AC2D2A;}
	.st2{fill:#006289;}
	.st3{fill:#76923B;}
	.st4{fill:#FECF0A;}
</style>
<circle class="st0" cx="256" cy="256" r="256"/>
<path class="st1" d="M75,437c10.7,10.7,22.2,20.3,34.2,28.7l356.6-356.6c-8.4-12-18-23.5-28.7-34.2c-10.7-10.7-22.2-20.3-34.2-28.7
	L46.2,402.8C54.7,414.8,64.2,426.3,75,437z"/>
<path class="st2" d="M75,75C-5.8,155.7-21.3,277,28.4,373.4L373.4,28.4C277-21.3,155.7-5.8,75,75z"/>
<path class="st3" d="M437,437c80.8-80.8,96.3-202.1,46.5-298.4L138.6,483.6C235,533.3,356.3,517.8,437,437z"/>
<polygon class="st4" points="211.5,144.7 182.8,158.2 198.1,186 166.9,180 163,211.5 141.3,188.3 119.6,211.5 115.6,180 84.5,186 
	99.8,158.2 71.1,144.7 99.8,131.2 84.5,103.4 115.6,109.4 119.6,77.9 141.3,101.1 163,77.9 166.9,109.4 198.1,103.4 182.8,131.2 "/>
</svg>
