<?xml version="1.0" encoding="utf-8"?>
<!-- Generator: Adobe Illustrator 24.1.0, SVG Export Plug-In . SVG Version: 6.00 Build 0)  -->
<svg version="1.1" id="Layer_1" xmlns="http://www.w3.org/2000/svg" xmlns:xlink="http://www.w3.org/1999/xlink" x="0px" y="0px"
	 viewBox="0 0 512 512" style="enable-background:new 0 0 512 512;" xml:space="preserve">
<style type="text/css">
	.st0{fill:#0052B4;}
	.st1{fill:#FECF0A;}
	.st2{fill:#006289;}
	.st3{fill:#F7F7F7;}
</style>
<circle class="st0" cx="256" cy="256" r="256"/>
<circle class="st1" cx="256" cy="256" r="256"/>
<g>
	<path class="st2" d="M256,0C122.1,0,12.3,102.8,1,233.7H511C499.7,102.8,389.9,0,256,0z"/>
	<path class="st2" d="M256,512c133.9,0,243.7-102.8,255-233.7H1C12.3,409.2,122.1,512,256,512z"/>
</g>
<polygon class="st3" points="211.5,345 182.8,358.5 198.1,386.3 166.9,380.4 163,411.8 141.3,388.7 119.6,411.8 115.6,380.4 
	84.5,386.3 99.8,358.5 71.1,345 99.8,331.5 84.5,303.8 115.6,309.7 119.6,278.3 141.3,301.4 163,278.3 166.9,309.7 198.1,303.8 
	182.8,331.6 "/>
</svg>
