<?xml version="1.0" encoding="utf-8"?>
<!-- Generator: Adobe Illustrator 24.1.0, SVG Export Plug-In . SVG Version: 6.00 Build 0)  -->
<svg version="1.1" id="Layer_1" xmlns="http://www.w3.org/2000/svg" xmlns:xlink="http://www.w3.org/1999/xlink" x="0px" y="0px"
	 viewBox="0 0 512 512" style="enable-background:new 0 0 512 512;" xml:space="preserve">
<style type="text/css">
	.st0{fill:#F7F7F7;}
	.st1{fill:#0052B4;}
	.st2{fill:#006289;}
	.st3{fill:#D2332B;}
</style>
<circle class="st0" cx="256" cy="256" r="256"/>
<g>
	<polygon class="st1" points="510.5,283.8 510.5,283.8 510.5,283.8 	"/>
	<path class="st2" d="M510.5,283.8C510.5,283.8,510.5,283.8,510.5,283.8L229.7,1.3c-12.7,1.3-25.1,3.5-37.1,6.6
		C81.9,36.1,0,256,0,256s358.4,239.8,399.3,212.2c8.2-5.5,16-11.5,23.5-18L256.4,283.8H510.5z"/>
</g>
<path class="st3" d="M445.2,256L196.2,7C83.7,33.9,0,135.2,0,256c0,141.4,114.6,256,256,256c53.6,0,103.4-16.5,144.5-44.7L189.2,256
	H445.2z"/>
<g>
	<polygon class="st0" points="243.5,378 212.2,363.3 228.9,333 194.9,339.5 190.6,305.2 167,330.4 143.3,305.2 139,339.5 105.1,333 
		121.7,363.3 90.4,378 121.7,392.7 105.1,423 139,416.5 143.3,450.8 167,425.6 190.6,450.8 194.9,416.5 228.9,423 212.2,392.7 	"/>
	<polygon class="st0" points="222.6,142 199.9,131.3 212,109.3 187.3,114 184.2,89 167,107.4 149.8,89 146.6,114 121.9,109.3 
		134,131.3 111.3,142 167,153.1 	"/>
	<path class="st0" d="M233.7,142c0,36.9-29.9,66.8-66.8,66.8s-66.8-29.9-66.8-66.8"/>
</g>
</svg>
