<?xml version="1.0" encoding="utf-8"?>
<!-- Generator: Adobe Illustrator 24.1.0, SVG Export Plug-In . SVG Version: 6.00 Build 0)  -->
<svg version="1.1" id="Layer_1" xmlns="http://www.w3.org/2000/svg" xmlns:xlink="http://www.w3.org/1999/xlink" x="0px" y="0px"
	 viewBox="0 0 512 512" style="enable-background:new 0 0 512 512;" xml:space="preserve">
<style type="text/css">
	.st0{fill:#006289;}
	.st1{fill:#F0F0F0;}
	.st2{fill:#F7F7F7;}
	.st3{fill:#D2332B;}
</style>
<path class="st0" d="M512,256c0,141.4-114.6,256-256,256S0,397.4,0,256C0,256.1,256,0,256,0C397.4,0,512,114.6,512,256z"/>
<g>
	<path class="st1" d="M256,0C256,0,256,0,256,0L256,0L256,0z"/>
	<path class="st1" d="M255.3,256h0.7c0-0.2,0-0.5,0-0.7C255.8,255.5,255.5,255.8,255.3,256z"/>
	<path class="st2" d="M256,133.6c0-45,0-74.6,0-133.6h0C114.6,0,0,114.6,0,256h133.6v-75.2l75.2,75.2h46.5c0.2-0.2,0.5-0.5,0.7-0.7
		c0-17.2,0-32.6,0-46.5l-75.2-75.2H256z"/>
</g>
<g>
	<path class="st3" d="M129.5,33.4c-40,22.8-73.3,56.1-96.1,96.1V256h66.8V100.2v0H256c0-21.1,0-41.1,0-66.8
		C256,33.4,129.5,33.4,129.5,33.4z"/>
	<path class="st3" d="M256,224.5l-91-91c0,0-31.5,0-31.5,0v0L256,256h0C256,256,256,234.3,256,224.5z"/>
	<polygon class="st3" points="443.3,190 448.9,207 466.7,207 452.3,217.5 457.8,234.5 443.3,224 428.9,234.5 434.4,217.5 419.9,207 
		437.8,207 	"/>
	<polygon class="st3" points="379.4,312.4 387.7,337.9 414.5,337.9 392.8,353.7 401.1,379.2 379.4,363.4 357.7,379.2 366,353.7 
		344.3,337.9 371.1,337.9 	"/>
	<polygon class="st3" points="381.8,112 388.7,133.3 411.1,133.3 393,146.4 399.9,167.7 381.8,154.6 363.7,167.7 370.6,146.4 
		352.6,133.3 374.9,133.3 	"/>
	<polygon class="st3" points="320.3,189.2 328.6,214.7 355.4,214.7 333.7,230.5 342,256 320.3,240.2 298.6,256 306.9,230.5 
		285.2,214.7 312,214.7 	"/>
</g>
</svg>
