<?xml version="1.0" encoding="utf-8"?>
<!-- Generator: Adobe Illustrator 24.1.0, SVG Export Plug-In . SVG Version: 6.00 Build 0)  -->
<svg version="1.1" id="Layer_1" xmlns="http://www.w3.org/2000/svg" xmlns:xlink="http://www.w3.org/1999/xlink" x="0px" y="0px"
	 viewBox="0 0 512 512" style="enable-background:new 0 0 512 512;" xml:space="preserve">
<style type="text/css">
	.st0{fill:#F7F7F7;}
	.st1{fill:#0C8DB0;}
	.st2{fill:#FECF0A;}
	.st3{fill:#006289;}
	.st4{fill:#76923B;}
</style>
<circle class="st0" cx="256" cy="256" r="256"/>
<g>
	<path class="st1" d="M256,0C154.5,0,66.8,59.1,25.4,144.7h461.2C445.2,59.1,357.5,0,256,0z"/>
	<path class="st1" d="M256,512c101.5,0,189.2-59.1,230.6-144.7H25.4C66.8,452.9,154.5,512,256,512z"/>
</g>
<path class="st2" d="M256,178.1c-43,0-77.9,34.9-77.9,77.9s34.9,77.9,77.9,77.9s77.9-34.9,77.9-77.9S299,178.1,256,178.1z
	 M256,300.5c-24.6,0-44.5-19.9-44.5-44.5s19.9-44.5,44.5-44.5s44.5,19.9,44.5,44.5S280.6,300.5,256,300.5z"/>
<polygon class="st3" points="294.6,267.1 256,256 217.4,267.1 204.6,289.4 307.4,289.4 "/>
<polygon class="st1" points="256,200.3 230.3,244.9 256,256 281.7,244.9 "/>
<polygon class="st4" points="217.4,267.1 294.6,267.1 281.7,244.9 230.3,244.9 "/>
</svg>
