<?xml version="1.0" encoding="utf-8"?>
<!-- Generator: Adobe Illustrator 24.1.0, SVG Export Plug-In . SVG Version: 6.00 Build 0)  -->
<svg version="1.1" id="Layer_1" xmlns="http://www.w3.org/2000/svg" xmlns:xlink="http://www.w3.org/1999/xlink" x="0px" y="0px"
	 viewBox="0 0 512 512" style="enable-background:new 0 0 512 512;" xml:space="preserve">
<style type="text/css">
	.st0{fill:#F0F0F0;}
	.st1{fill:#FECF0A;}
	.st2{fill:#006289;}
	.st3{fill:#F7F7F7;}
	.st4{fill:#D2332B;}
</style>
<path class="st0" d="M256,0C256,0,256,0,256,0L256,0L256,0z"/>
<path class="st1" d="M512,256c0,141.4-114.6,256-256,256S0,397.4,0,256C0,256.1,256,0,256,0C397.4,0,512,114.6,512,256z"/>
<g>
	<polygon class="st2" points="256,122.4 256,208.8 167,122.4 	"/>
	<polygon class="st2" points="133.6,256 208.8,256 133.6,155.8 122.4,233.7 	"/>
</g>
<g>
	<path class="st0" d="M255.3,256h0.7c0-0.2,0-0.5,0-0.7C255.8,255.5,255.5,255.8,255.3,256z"/>
	<path class="st3" d="M256,133.6c0-45,0-74.6,0-133.6h0C114.6,0,0,114.6,0,256h133.6v-75.2l75.2,75.2h46.5c0.2-0.2,0.5-0.5,0.7-0.7
		c0-17.2,0-32.6,0-46.5l-75.2-75.2H256z"/>
</g>
<g>
	<path class="st4" d="M256,224.5l-91-91h-31.5v0L256,256h0C256,256,256,234.3,256,224.5z"/>
	<path class="st4" d="M129.5,33.4c-9.9,5.6-19.3,11.9-28.3,18.7h10.5L83.9,72.3l10.6,32.6L66.8,84.8l-3,2.1
		c-11.5,13.1-21.7,27.4-30.4,42.6V256h66.8V100.2v0H256c0-21.1,0-41.1,0-66.8C256,33.4,129.5,33.4,129.5,33.4z"/>
</g>
<path class="st2" d="M109.4,46.2c-2.8,1.9-5.5,3.9-8.2,6L83.9,72.3L66.8,84.8l-3,2.2c-6.3,7.1-12.2,14.6-17.7,22.4
	c6.2,3,13.2,4.7,20.6,4.7c26.1,0,47.3-21.2,47.3-47.3C114.1,59.4,112.4,52.4,109.4,46.2z"/>
<g>
	<path class="st1" d="M63.8,86.9l3-2.2l27.8,20.2L83.9,72.3l27.8-20.2h-10.5C87.6,62.5,75.1,74.1,63.8,86.9z"/>
	<polygon class="st1" points="176.9,44.5 182.5,61.5 200.3,61.5 185.9,72 191.4,89 176.9,78.5 162.5,89 168,72 153.5,61.5 
		171.4,61.5 	"/>
	<polygon class="st1" points="66.8,155.8 72.3,172.8 90.2,172.8 75.7,183.3 81.2,200.3 66.8,189.8 52.3,200.3 57.8,183.3 
		43.4,172.8 61.3,172.8 	"/>
</g>
</svg>
