<?xml version="1.0" encoding="utf-8"?>
<!-- Generator: Adobe Illustrator 24.1.0, SVG Export Plug-In . SVG Version: 6.00 Build 0)  -->
<svg version="1.1" id="Layer_1" xmlns="http://www.w3.org/2000/svg" xmlns:xlink="http://www.w3.org/1999/xlink" x="0px" y="0px"
	 viewBox="0 0 512 512" style="enable-background:new 0 0 512 512;" xml:space="preserve">
<style type="text/css">
	.st0{fill:#F7F7F7;}
	.st1{fill:#76923B;}
</style>
<path class="st0" d="M367.3,25.4C333.6,9.1,295.9,0,256,0s-77.6,9.1-111.3,25.4L122.4,256l22.3,230.6C178.4,502.9,216.1,512,256,512
	s77.6-9.1,111.3-25.4L389.6,256L367.3,25.4z"/>
<g>
	<path class="st1" d="M144.7,25.4C59.1,66.8,0,154.5,0,256s59.1,189.2,144.7,230.6V25.4z"/>
	<path class="st1" d="M367.3,25.4v461.2C452.9,445.2,512,357.5,512,256S452.9,66.8,367.3,25.4z"/>
	<polygon class="st1" points="322.8,333.9 256,122.4 189.2,333.9 239.3,333.9 239.3,389.6 272.7,389.6 272.7,333.9 	"/>
</g>
</svg>
