<?xml version="1.0" encoding="utf-8"?>
<!-- Generator: Adobe Illustrator 24.1.0, SVG Export Plug-In . SVG Version: 6.00 Build 0)  -->
<svg version="1.1" id="Layer_1" xmlns="http://www.w3.org/2000/svg" xmlns:xlink="http://www.w3.org/1999/xlink" x="0px" y="0px"
	 viewBox="0 0 512 512" style="enable-background:new 0 0 512 512;" xml:space="preserve">
<style type="text/css">
	.st0{fill:#0C8DB0;}
	.st1{fill:#F7F7F7;}
	.st2{fill:#BDBCC1;}
</style>
<circle class="st0" cx="256" cy="256" r="256"/>
<path class="st1" d="M247.9,417.2c-6.9-0.3-12.6-4.8-14.8-10.9l0,0c-4,5.2-10.7,7.7-17.4,6l0,0c-6.7-1.7-11.4-7.3-12.4-13.7l0,0
	c-4.9,4.3-12.1,5.4-18.3,2.4l0,0c-6.2-3-9.7-9.4-9.3-15.9l0,0c-5.7,3.2-12.9,2.9-18.4-1.4l0,0c-5.5-4.2-7.6-11.2-5.9-17.5l0,0
	c-6.2,2-13.2,0.2-17.7-5l0,0c-4.5-5.2-5.2-12.5-2.3-18.3l0,0c-6.5,0.7-13-2.4-16.4-8.5l0,0c-3.4-6-2.6-13.3,1.4-18.4l0,0
	c-6.5-0.6-12.3-5-14.3-11.6l0,0c-2.1-6.6,0.1-13.5,5.1-17.7l0,0c-6.2-1.9-11-7.4-11.7-14.3l0,0c-0.7-6.9,2.9-13.2,8.5-16.3l0,0
	c-5.7-3.1-9.3-9.4-8.6-16.3l0,0c0,0,0,0,0,0l0,0c0.7-6.9,5.4-12.4,11.6-14.3l0,0c-5-4.2-7.2-11.1-5.1-17.7l0,0
	c2.1-6.6,7.8-11,14.3-11.7l0,0c-4-5.1-4.8-12.3-1.4-18.4l0,0c3.3-6,9.9-9.2,16.4-8.5l0,0c-2.9-5.8-2.2-13,2.3-18.3l0,0
	c4.5-5.2,11.5-7,17.7-5.1l0,0c-1.7-6.3,0.4-13.2,5.9-17.5l0,0c5.4-4.2,12.7-4.6,18.4-1.4l0,0c-0.4-6.5,3.1-12.9,9.3-15.9l0,0
	c6.2-3.1,13.4-1.9,18.3,2.3l0,0c0.9-6.4,5.6-12,12.3-13.7l0,0l0,0l0,0c6.7-1.7,13.5,0.8,17.4,6l0,0c2.2-6.1,7.9-10.6,14.8-10.9l0,0
	c6.9-0.4,13,3.5,15.9,9.3l0,0c3.4-5.5,9.9-8.8,16.7-7.8l0,0c6.8,1,12.1,6.1,13.7,12.3l0,0c4.5-4.7,11.5-6.6,17.9-4.2l0,0
	c6.5,2.4,10.6,8.4,10.9,14.9l0,0c5.3-3.7,12.6-4.2,18.4-0.5l0,0c5.9,3.6,8.7,10.3,7.7,16.8l0,0c6-2.6,13.1-1.6,18.2,3.2l0,0
	c5,4.8,6.4,11.9,4.2,18l0,0c6.4-1.3,13.2,1.1,17.2,6.8l0,0l0,0l0,0c4,5.7,3.9,12.9,0.5,18.4l0,0c6.5,0,12.7,3.7,15.4,10.1l0,0
	c2.7,6.3,1.2,13.5-3.2,18.2l0,0c6.4,1.3,11.7,6.2,13.1,13l0,0c1.4,6.8-1.5,13.4-6.8,17.1l0,0c6,2.5,10.2,8.4,10.2,15.3l0,0
	c0,0.1,0,0.1,0,0.2l0,0c0,0,0,0.1,0,0.1l0,0c0,6.9-4.2,12.8-10.2,15.4l0,0c5.3,3.7,8.3,10.3,6.9,17.1l0,0c-1.4,6.8-6.7,11.7-13.1,13
	l0,0c4.5,4.7,6,11.8,3.3,18.2l0,0l0,0l0,0c-2.7,6.3-8.9,10.1-15.4,10.1l0,0c3.5,5.5,3.5,12.8-0.4,18.4l0,0c-4,5.7-10.8,8.1-17.1,6.8
	l0,0c2.3,6.1,0.9,13.2-4.1,18l0,0l0,0l0,0c-5,4.8-12.2,5.8-18.1,3.2l0,0c1,6.4-1.8,13.1-7.6,16.8l0,0c-5.9,3.7-13.1,3.2-18.4-0.5
	l0,0c-0.3,6.5-4.4,12.5-10.9,14.9l0,0c0,0,0,0,0,0l0,0c-6.5,2.4-13.5,0.5-18-4.2l0,0c-1.6,6.3-6.8,11.3-13.7,12.4l0,0l0,0l0,0
	c-6.8,1-13.3-2.2-16.7-7.7l0,0c-2.7,5.6-8.5,9.4-15,9.4l0,0C248.5,417.2,248.2,417.2,247.9,417.2z"/>
<circle class="st0" cx="256" cy="256" r="111.3"/>
<path class="st2" d="M280.4,218.2c5.5-4.1,9-10.5,9-17.9v-11.1c0-12.3-10-22.3-22.3-22.3h-22.3c-12.3,0-22.3,10-22.3,22.3v11.1
	c0,7.3,3.6,13.8,9,17.9L211.5,423c0,0,11.1,11.1,44.5,11.1s44.5-11.1,44.5-11.1L280.4,218.2z"/>
<polygon class="st1" points="256,167 275.3,226.5 337.9,226.5 287.3,263.3 306.6,322.8 256,286 205.4,322.8 224.7,263.3 
	174.1,226.5 236.7,226.5 "/>
</svg>
