<?xml version="1.0" encoding="utf-8"?>
<!-- Generator: Adobe Illustrator 24.1.0, SVG Export Plug-In . SVG Version: 6.00 Build 0)  -->
<svg version="1.1" id="Layer_1" xmlns="http://www.w3.org/2000/svg" xmlns:xlink="http://www.w3.org/1999/xlink" x="0px" y="0px"
	 viewBox="0 0 512 512" style="enable-background:new 0 0 512 512;" xml:space="preserve">
<style type="text/css">
	.st0{fill:#F7F7F7;}
	.st1{fill:#D2332B;}
</style>
<circle class="st0" cx="256" cy="256" r="256"/>
<g>
	<path class="st1" d="M61.9,89c-9,10.4-17.1,21.6-24.4,33.4h436.9c-7.2-11.8-15.4-23-24.4-33.4H61.9z"/>
	<path class="st1" d="M61.9,423h388.1c9-10.4,17.1-21.6,24.4-33.4H37.6C44.8,401.4,53,412.5,61.9,423z"/>
	<polygon class="st1" points="223.2,209.2 244.2,238.1 278.3,227.1 257.2,256 278.2,285 244.2,273.9 223.2,302.8 223.2,267.1 
		189.2,256 223.2,244.9 	"/>
	<path class="st1" d="M165.9,328.3c-40,0-72.3-32.4-72.3-72.3s32.4-72.3,72.3-72.3c12.5,0,24.2,3.1,34.4,8.7
		c-16.1-15.7-38-25.4-62.2-25.4c-49.2,0-89,39.9-89,89s39.9,89,89,89c24.2,0,46.2-9.7,62.2-25.4
		C190.1,325.2,178.4,328.3,165.9,328.3z"/>
</g>
</svg>
