<?xml version="1.0" encoding="utf-8"?>
<!-- Generator: Adobe Illustrator 24.1.0, SVG Export Plug-In . SVG Version: 6.00 Build 0)  -->
<svg version="1.1" id="Layer_1" xmlns="http://www.w3.org/2000/svg" xmlns:xlink="http://www.w3.org/1999/xlink" x="0px" y="0px"
	 viewBox="0 0 512 512" style="enable-background:new 0 0 512 512;" xml:space="preserve">
<style type="text/css">
	.st0{fill:#F7F7F7;}
	.st1{fill:#006289;}
	.st2{fill:#D2332B;}
</style>
<circle class="st0" cx="256" cy="256" r="256"/>
<g>
	<path class="st1" d="M256,0C178.4,0,108.9,34.5,61.9,89h388.1C403.1,34.5,333.6,0,256,0z"/>
	<path class="st1" d="M450.1,423H61.9c46.9,54.5,116.5,89,194.1,89S403.1,477.5,450.1,423z"/>
</g>
<path class="st2" d="M474.4,122.4H37.6C13.7,161.3,0,207.1,0,256s13.7,94.7,37.6,133.6h436.9C498.3,350.7,512,304.9,512,256
	S498.3,161.3,474.4,122.4z"/>
<circle class="st0" cx="157.5" cy="256" r="98.5"/>
<polygon class="st2" points="157.5,157.5 179.6,225.5 251.2,225.5 193.3,267.6 215.5,335.8 157.5,293.5 99.5,335.7 121.7,267.6 
	63.8,225.5 135.4,225.5 "/>
</svg>
