<?xml version="1.0" encoding="utf-8"?>
<!-- Generator: Adobe Illustrator 24.1.0, SVG Export Plug-In . SVG Version: 6.00 Build 0)  -->
<svg version="1.1" id="Layer_1" xmlns="http://www.w3.org/2000/svg" xmlns:xlink="http://www.w3.org/1999/xlink" x="0px" y="0px"
	 viewBox="0 0 512 512" style="enable-background:new 0 0 512 512;" xml:space="preserve">
<style type="text/css">
	.st0{fill:#F7F7F7;}
	.st1{fill:#D80027;}
	.st2{fill:#D2332B;}
	.st3{fill:#76923B;}
</style>
<circle class="st0" cx="256" cy="256" r="256"/>
<g>
	<path class="st1" d="M0,256c0,97,54,181.5,133.6,224.9V31.1C54,74.5,0,159,0,256z"/>
	<path class="st2" d="M496.1,345c10.3-27.7,15.9-57.7,15.9-89s-5.6-61.3-15.9-89H15.9C5.6,194.7,0,224.7,0,256s5.6,61.3,15.9,89
		L256,367.3L496.1,345z"/>
</g>
<path class="st3" d="M256,512c110.1,0,203.9-69.5,240.1-167H15.9C52.1,442.5,145.9,512,256,512z"/>
<path class="st2" d="M0,256c0,118.3,80.2,217.8,189.2,247.2V8.8C80.2,38.2,0,137.7,0,256z"/>
<polygon class="st0" points="156.6,112.7 133,89 117.3,104.8 101.5,89 77.9,112.7 93.7,128.4 77.9,144.1 101.5,167.7 117.3,152 
	133,167.7 156.6,144.1 140.9,128.4 "/>
</svg>
