<?xml version="1.0" encoding="utf-8"?>
<!-- Generator: Adobe Illustrator 24.1.0, SVG Export Plug-In . SVG Version: 6.00 Build 0)  -->
<svg version="1.1" id="Layer_1" xmlns="http://www.w3.org/2000/svg" xmlns:xlink="http://www.w3.org/1999/xlink" x="0px" y="0px"
	 viewBox="0 0 512 512" style="enable-background:new 0 0 512 512;" xml:space="preserve">
<style type="text/css">
	.st0{fill:#F0F0F0;}
	.st1{fill:#F7F7F7;}
	.st2{fill:#76923B;}
</style>
<g>
	<circle class="st0" cx="256" cy="256" r="256"/>
	<path class="st1" d="M0,256c0,97,54,181.5,133.6,224.9V31.1C54,74.5,0,159,0,256z"/>
</g>
<path class="st2" d="M256,0c-44.4,0-86.1,11.3-122.4,31.1v449.7C169.9,500.7,211.6,512,256,512c141.4,0,256-114.6,256-256
	S397.4,0,256,0z"/>
<g>
	<path class="st1" d="M365.5,298.3c-32.4,23.4-77.6,16.1-101-16.3c-23.4-32.4-16.1-77.6,16.3-101c10.1-7.3,21.4-11.6,33-13.1
		c-22.2-3.3-45.7,1.7-65.3,15.9c-39.9,28.8-48.8,84.5-20,124.3c28.8,39.9,84.5,48.8,124.3,20c19.6-14.2,31.8-34.9,35.6-57
		C383.2,281.6,375.6,291,365.5,298.3z"/>
	<polygon class="st1" points="364.1,167 382.3,186.6 406.6,175.3 393.6,198.8 411.8,218.4 385.5,213.2 372.4,236.7 369.2,210 
		342.9,204.9 367.3,193.6 	"/>
</g>
</svg>
