<?xml version="1.0" encoding="utf-8"?>
<!-- Generator: Adobe Illustrator 24.1.0, SVG Export Plug-In . SVG Version: 6.00 Build 0)  -->
<svg version="1.1" id="Layer_1" xmlns="http://www.w3.org/2000/svg" xmlns:xlink="http://www.w3.org/1999/xlink" x="0px" y="0px"
	 viewBox="0 0 512 512" style="enable-background:new 0 0 512 512;" xml:space="preserve">
<style type="text/css">
	.st0{fill:#1E2834;}
	.st1{fill:#AC2D2A;}
	.st2{fill:#F7F7F7;}
	.st3{fill:#FECF0A;}
</style>
<path class="st0" d="M437,437C337,537,175,537,75,437C-25,337-25,175,75,75C175-25,321.3-9.3,421.3,90.7
	C521.3,190.7,537,337,437,437z"/>
<path class="st1" d="M75,75C175-25,337-25,437,75c100,100,100,262.1,0,362"/>
<g>
	<polygon class="st2" points="195.6,345 199.8,357.8 213.2,357.8 202.3,365.7 206.5,378.4 195.6,370.6 184.8,378.4 188.9,365.7 
		178.1,357.8 191.5,357.8 	"/>
	<polygon class="st2" points="161.4,222.6 168.3,243.9 190.6,243.9 172.6,257 179.5,278.3 161.4,265.1 143.3,278.3 150.2,257 
		132.1,243.9 154.5,243.9 	"/>
	<polygon class="st2" points="161.4,378.4 168.3,399.7 190.6,399.7 172.6,412.8 179.5,434.1 161.4,420.9 143.3,434.1 150.2,412.8 
		132.1,399.7 154.5,399.7 	"/>
	<polygon class="st2" points="226.7,278.3 233.6,299.5 256,299.5 237.9,312.7 244.8,333.9 226.7,320.8 208.7,333.9 215.6,312.7 
		197.5,299.5 219.8,299.5 	"/>
	<polygon class="st2" points="96,278.3 102.9,299.5 125.3,299.5 107.2,312.7 114.1,333.9 96,320.8 78,333.9 84.9,312.7 66.8,299.5 
		89.1,299.5 	"/>
</g>
<path class="st3" d="M428.5,189.6c-11.4-11.4-26.3-18.2-42.3-19.4l47.8-37.2c-19-19-44.6-27.6-69.5-25.8c-3-10.7-8.7-20.8-17.1-29.3
	l-18.9,37.8c-1.2-2.3-2.8-4.4-4.7-6.3c-10.9-10.9-28.5-10.9-39.4,0s-10.9,28.5,0,39.4c1.9,1.9,4,3.5,6.3,4.7l-37.8,18.9
	c8.4,8.4,18.6,14.1,29.3,17.1c-1.8,24.9,6.8,50.4,25.8,69.5l41.8-53.7c3.1-3.1,7.3-4.8,11.7-4.8c4.5,0,8.7,1.7,11.8,4.9
	c3.2,3.2,4.9,7.3,4.9,11.8c0,4.5-1.7,8.7-4.9,11.8l15.7,15.7c7.4-7.4,11.4-17.1,11.4-27.5c0-8.5-2.7-16.6-7.7-23.3
	c7.3,2,14.2,5.8,19.9,11.5c17.4,17.4,17.4,45.6,0,63l15.7,15.7c12.6-12.6,19.6-29.4,19.6-47.2C448.1,218.9,441.2,202.2,428.5,189.6z
	"/>
</svg>
