<?xml version="1.0" encoding="utf-8"?>
<!-- Generator: Adobe Illustrator 24.1.0, SVG Export Plug-In . SVG Version: 6.00 Build 0)  -->
<svg version="1.1" id="Layer_1" xmlns="http://www.w3.org/2000/svg" xmlns:xlink="http://www.w3.org/1999/xlink" x="0px" y="0px"
	 viewBox="0 0 512 512" style="enable-background:new 0 0 512 512;" xml:space="preserve">
<style type="text/css">
	.st0{fill:#F7F7F7;}
	.st1{fill:#F2442F;}
	.st2{fill:#006289;}
	.st3{fill:#9EB962;}
	.st4{fill:#FECF0A;}
</style>
<circle class="st0" cx="256" cy="256" r="256"/>
<path class="st1" d="M256,0C154.5,0,66.8,59.1,25.4,144.7h461.2C445.2,59.1,357.5,0,256,0z"/>
<path class="st2" d="M256,512c101.5,0,189.2-59.1,230.6-144.7H25.4C66.8,452.9,154.5,512,256,512z"/>
<path class="st3" d="M319,181.9l-23.6,23.6c10.1,10.1,16.3,24,16.3,39.4c0,30.7-24.9,55.7-55.7,55.7s-55.7-24.9-55.7-55.7
	c0-15.4,6.2-29.3,16.3-39.4L193,181.9c-16.1,16.1-26.1,38.4-26.1,63c0,49.2,39.9,89,89,89s89-39.9,89-89
	C345,220.3,335.1,198,319,181.9z"/>
<polygon class="st4" points="256,211.5 264.3,237 291.1,237 269.4,252.8 277.7,278.3 256,262.5 234.3,278.3 242.6,252.8 220.9,237 
	247.7,237 "/>
</svg>
