<?xml version="1.0" encoding="utf-8"?>
<!-- Generator: Adobe Illustrator 24.1.0, SVG Export Plug-In . SVG Version: 6.00 Build 0)  -->
<svg version="1.1" id="Layer_1" xmlns="http://www.w3.org/2000/svg" xmlns:xlink="http://www.w3.org/1999/xlink" x="0px" y="0px"
	 viewBox="0 0 512 512" style="enable-background:new 0 0 512 512;" xml:space="preserve">
<style type="text/css">
	.st0{fill:#F7F7F7;}
	.st1{fill:#D2332B;}
	.st2{fill:#006289;}
	.st3{fill:#FECF0A;}
</style>
<circle class="st0" cx="256" cy="256" r="256"/>
<path class="st1" d="M256,0v256L75,437c46.3,46.3,110.3,75,181,75c141.4,0,256-114.6,256-256S256,0,256,0z"/>
<path class="st2" d="M256,0C185.3,0,121.3,28.7,75,75c62.8,62.8,85.1,85.1,181,181h256C512,114.6,397.4,0,256,0z"/>
<g>
	<polygon class="st3" points="175.3,256 144,241.3 160.7,211 126.7,217.5 122.4,183.2 98.8,208.4 75.1,183.2 70.8,217.5 36.9,211 
		53.5,241.3 22.3,256 53.5,270.7 36.9,301 70.8,294.5 75.1,328.8 98.8,303.6 122.4,328.8 126.7,294.5 160.7,301 144,270.7 	"/>
	<polygon class="st3" points="68.3,100.2 78.7,114.7 95.7,109.3 85.1,123.7 95.5,138.2 78.5,132.6 67.9,147 68.1,129.1 51.1,123.5 
		68.1,118.1 	"/>
	<polygon class="st3" points="68.3,365 78.7,379.6 95.7,374.2 85.1,388.5 95.5,403.1 78.5,397.4 67.9,411.8 68.1,393.9 51.1,388.3 
		68.1,382.9 	"/>
	<polygon class="st3" points="216.7,232.6 206.3,247.1 189.2,241.7 199.8,256.1 189.4,270.7 206.4,265 217,279.4 216.9,261.5 
		233.8,255.9 216.8,250.5 	"/>
</g>
</svg>
