<?xml version="1.0" encoding="utf-8"?>
<!-- Generator: Adobe Illustrator 24.1.0, SVG Export Plug-In . SVG Version: 6.00 Build 0)  -->
<svg version="1.1" id="Layer_1" xmlns="http://www.w3.org/2000/svg" xmlns:xlink="http://www.w3.org/1999/xlink" x="0px" y="0px"
	 viewBox="0 0 512 512" style="enable-background:new 0 0 512 512;" xml:space="preserve">
<style type="text/css">
	.st0{fill:#76923B;}
	.st1{fill:#D2332B;}
	.st2{fill:#FECF0A;}
	.st3{fill:#F7F7F7;}
</style>
<path class="st0" d="M0,256c0,110.1,69.5,203.9,167,240.1L189.2,256L167,15.9C69.5,52.1,0,145.9,0,256z"/>
<path class="st1" d="M512,256C512,114.6,397.4,0,256,0c-31.3,0-61.3,5.6-89,15.9v480.2c27.7,10.3,57.7,15.9,89,15.9
	C397.4,512,512,397.4,512,256z"/>
<circle class="st2" cx="167" cy="256" r="89"/>
<path class="st1" d="M116.9,211.5v55.7c0,27.7,22.4,50.1,50.1,50.1s50.1-22.4,50.1-50.1v-55.7H116.9z"/>
<path class="st3" d="M167,283.8c-9.2,0-16.7-7.5-16.7-16.7v-22.3h33.4v22.3C183.7,276.3,176.2,283.8,167,283.8z"/>
</svg>
