<?xml version="1.0" encoding="utf-8"?>
<!-- Generator: Adobe Illustrator 24.1.0, SVG Export Plug-In . SVG Version: 6.00 Build 0)  -->
<svg version="1.1" id="Layer_1" xmlns="http://www.w3.org/2000/svg" xmlns:xlink="http://www.w3.org/1999/xlink" x="0px" y="0px"
	 viewBox="0 0 512 512" style="enable-background:new 0 0 512 512;" xml:space="preserve">
<style type="text/css">
	.st0{fill:#F7F7F7;}
	.st1{fill:#D2332B;}
	.st2{fill:#006289;}
</style>
<circle class="st0" cx="256" cy="256" r="256"/>
<g>
	<path class="st1" d="M256,0C172.2,0,97.9,40.2,51.2,102.4h409.6C414.1,40.2,339.8,0,256,0z"/>
	<path class="st1" d="M256,512c83.8,0,158.1-40.2,204.8-102.4H51.2C97.9,471.8,172.2,512,256,512z"/>
	<path class="st1" d="M0,256c0,17.5,1.8,34.7,5.1,51.2h501.7c3.4-16.5,5.1-33.7,5.1-51.2s-1.8-34.7-5.1-51.2H5.1
		C1.8,221.3,0,238.5,0,256z"/>
</g>
<path class="st2" d="M75,75C-25,175-25,337,75,437c41.3-41.3,81-81,181-181L75,75z"/>
<polygon class="st0" points="103.6,189.2 120.2,240.2 173.8,240.2 130.4,271.8 147,322.8 103.6,291.3 60.2,322.8 76.8,271.8 
	33.4,240.2 87,240.2 "/>
</svg>
