<?xml version="1.0" encoding="utf-8"?>
<!-- Generator: Adobe Illustrator 24.1.0, SVG Export Plug-In . SVG Version: 6.00 Build 0)  -->
<svg version="1.1" id="Layer_1" xmlns="http://www.w3.org/2000/svg" xmlns:xlink="http://www.w3.org/1999/xlink" x="0px" y="0px"
	 viewBox="0 0 512 512" style="enable-background:new 0 0 512 512;" xml:space="preserve">
<style type="text/css">
	.st0{fill:#F7F7F7;}
	.st1{fill:#D2332B;}
</style>
<circle class="st0" cx="256" cy="256" r="256"/>
<path class="st1" d="M333.9,211.5v22.3h30.6c-12.8,17.7-29.7,32.2-49.5,41.9c-5.1-5.3-12.2-8.5-20-8.5c-13.3,0-24.4,9.3-27.1,21.7
	c-3.9,0.3-7.8,0.5-11.8,0.5s-7.9-0.2-11.8-0.5c-2.8-12.4-13.9-21.7-27.1-21.7c-7.9,0-15,3.3-20,8.5c-19.7-9.7-36.7-24.2-49.5-41.9
	h30.6v-22.3h-77.9c0,86.1,69.8,155.8,155.8,155.8c86.1,0,155.8-69.8,155.8-155.8L333.9,211.5L333.9,211.5z"/>
</svg>
