<?xml version="1.0" standalone="no"?>
<!DOCTYPE svg PUBLIC "-//W3C//DTD SVG 1.1//EN" "http://www.w3.org/Graphics/SVG/1.1/DTD/svg11.dtd" >
<svg xmlns="http://www.w3.org/2000/svg" xmlns:xlink="http://www.w3.org/1999/xlink" version="1.1">
<metadata>
Created by FontForge 20170731 at Wed Jun  8 19:13:27 2016
 By Aleksey,,,
Copyright (c) 2016 by Rene' Bieder. All rights reserved.
</metadata>
<defs>
<font id="RationalDisplayDEMO-SemiBold" horiz-adv-x="1727" >
  <font-face 
    font-family="Rational Display DEMO SemiBold"
    font-weight="600"
    font-stretch="normal"
    units-per-em="1000"
    panose-1="0 0 7 0 0 0 0 0 0 0"
    ascent="800"
    descent="-200"
    x-height="508"
    cap-height="700"
    bbox="-1627 -213 1627 800"
    underline-thickness="50"
    underline-position="-200"
    unicode-range="U+0020-FB02"
  />
<missing-glyph horiz-adv-x="600" 
d="M49 0v700h500v-700h-500zM300 402l151 239h-304zM108 102l159 250l-159 250v-500zM490 102v499l-158 -249zM145 59h308l-153 242z" />
    <glyph glyph-name="fl" unicode="fl" 
d="M1627 0v700h-1527v-700h1527zM132 32v636h1463v-636h-1463zM1456 356q0 65 -38 106t-100 41t-100.5 -41t-38.5 -106q0 -64 38.5 -104.5t100.5 -40.5t100 40.5t38 104.5zM526 356q0 63 -40.5 102.5t-106.5 39.5h-89v-284h89q66 0 106.5 39.5t40.5 102.5zM619 469h163v29
h-198v-284h198v30h-163v100h153v30h-153v95zM1121 498h-33l-111 -136l-110 136h-32v-284h34v227l102 -124h14l102 124v-227h34v284zM1216 356q0 52 28 84.5t74 32.5t74.5 -33t28.5 -84t-28.5 -83.5t-74.5 -32.5t-74 32.5t-28 83.5zM489 356q0 -50 -29 -81t-78 -31h-58v225
h58q49 0 78 -31.5t29 -81.5z" />
    <glyph glyph-name=".notdef" horiz-adv-x="600" 
d="M49 0v700h500v-700h-500zM300 402l151 239h-304zM108 102l159 250l-159 250v-500zM490 102v499l-158 -249zM145 59h308l-153 242z" />
    <glyph glyph-name=".null" horiz-adv-x="0" 
 />
    <glyph glyph-name="nonmarkingreturn" horiz-adv-x="333" 
 />
    <glyph glyph-name="space" unicode=" " horiz-adv-x="228" 
 />
    <glyph glyph-name="exclam" unicode="!" horiz-adv-x="310" 
d="M91 220l-17 480h161l-16 -480h-128zM78 0v138h154v-138h-154z" />
    <glyph glyph-name="quotedbl" unicode="&#x22;" horiz-adv-x="445" 
d="M54 423v277h135v-277h-135zM256 423v277h135v-277h-135z" />
    <glyph glyph-name="numbersign" unicode="#" horiz-adv-x="777" 
d="M747 418h-156l-32 -146h140v-108h-163l-35 -164h-125l35 164h-137l-35 -164h-125l35 164h-119v108h142l32 146h-126v108h149l37 174h125l-37 -174h137l37 174h125l-37 -174h133v-108zM434 272l32 146h-137l-32 -146h137z" />
    <glyph glyph-name="dollar" unicode="$" horiz-adv-x="668" 
d="M614 219q0 -87 -56.5 -141t-161.5 -64l2 -114h-121l2 117q-100 16 -159 77.5t-66 164.5h146q6 -99 81 -128l3 177q-47 11 -78 21.5t-64.5 30.5t-50.5 53.5t-17 79.5q0 80 52.5 130.5t152.5 61.5l-2 115h121l-2 -116q95 -13 151 -67.5t60 -147.5h-141q-6 80 -73 106
l-3 -167h-9q102 -22 136 -37q97 -44 97 -152zM222 498q0 -24 13.5 -38t48.5 -26l-2 142q-60 -20 -60 -78zM394 125q67 19 67 82q0 30 -15.5 46t-53.5 28z" />
    <glyph glyph-name="percent" unicode="%" horiz-adv-x="904" 
d="M223 713q81 0 134.5 -51.5t53.5 -128.5q0 -78 -53.5 -130t-134.5 -52t-134 52t-53 130q0 77 53 128.5t134 51.5zM681 713l57 -39l-518 -687l-56 41zM223 631q-38 0 -61.5 -27.5t-23.5 -70.5t23.5 -70.5t61.5 -27.5t62 27t24 71t-24 71t-62 27zM681 349q81 0 134 -51.5
t53 -128.5q0 -78 -53 -130t-134 -52t-134.5 52t-53.5 130q0 77 53.5 128.5t134.5 51.5zM681 266q-38 0 -62 -27t-24 -70q0 -44 24 -71t62 -27t61.5 27.5t23.5 70.5t-23.5 70t-61.5 27z" />
    <glyph glyph-name="ampersand" unicode="&#x26;" horiz-adv-x="736" 
d="M592 145l148 -145h-168l-62 60q-98 -72 -225 -72q-111 0 -183.5 56t-72.5 146q0 64 39 110t112 86q-80 89 -80 160q0 75 59.5 120.5t154.5 45.5q90 0 148.5 -43t58.5 -119q0 -60 -36 -103t-115 -84l130 -127q24 58 24 125h132q0 -123 -64 -216zM316 619
q-37 0 -58.5 -21.5t-21.5 -53.5q0 -43 56 -103q54 25 79.5 48t25.5 57q0 31 -23 52t-58 21zM305 102q70 0 122 40l-172 168q-43 -21 -67 -44.5t-24 -58.5q0 -46 40 -75.5t101 -29.5z" />
    <glyph glyph-name="quotesingle" unicode="'" horiz-adv-x="247" 
d="M54 700h139v-277h-139v277z" />
    <glyph glyph-name="parenleft" unicode="(" horiz-adv-x="359" 
d="M325 780q-72 -109 -112 -210t-40 -223q0 -231 152 -462h-129q-162 204 -162 462q0 131 42 233t120 200h129z" />
    <glyph glyph-name="parenright" unicode=")" horiz-adv-x="359" 
d="M34 780h129q78 -98 120 -200t42 -233q0 -258 -162 -462h-129q152 231 152 462q0 122 -40 223t-112 210z" />
    <glyph glyph-name="asterisk" unicode="*" horiz-adv-x="429" 
d="M397 565l-106 -23l73 -95l-79 -55l-71 111l-71 -111l-79 55l73 96l-105 22l25 94l115 -37l-6 121h96l-6 -121l116 37z" />
    <glyph glyph-name="plus" unicode="+" horiz-adv-x="627" 
d="M565 399v-117h-191v-198h-121v198h-191v117h191v198h121v-198h191z" />
    <glyph glyph-name="comma" unicode="," horiz-adv-x="283" 
d="M51 -119l12 273h182l-96 -273h-98z" />
    <glyph glyph-name="hyphen" unicode="-" horiz-adv-x="426" 
d="M54 349h318v-125h-318v125z" />
    <glyph glyph-name="period" unicode="." horiz-adv-x="268" 
d="M55 0v154h158v-154h-158z" />
    <glyph glyph-name="slash" unicode="/" horiz-adv-x="446" 
d="M286 700h128l-254 -700h-128z" />
    <glyph glyph-name="zero" unicode="0" horiz-adv-x="696" 
d="M348 713q138 0 221.5 -99.5t83.5 -263.5t-83.5 -263.5t-221.5 -99.5t-221.5 99.5t-83.5 263.5t83.5 263.5t221.5 99.5zM348 590q-70 0 -110 -63t-40 -177t40 -177t110 -63t110 63t40 177t-40 177t-110 63z" />
    <glyph glyph-name="one" unicode="1" horiz-adv-x="471" 
d="M285 700h92v-700h-145v562l-199 -89v152z" />
    <glyph glyph-name="two" unicode="2" horiz-adv-x="597" 
d="M213 115h340v-115h-526v97l250 215q70 60 96.5 98.5t26.5 75.5q0 49 -31.5 78.5t-84.5 29.5q-54 0 -87 -32.5t-34 -90.5h-142q5 115 74.5 178.5t190.5 63.5q118 0 187 -61t69 -161q0 -66 -53.5 -133t-163.5 -151z" />
    <glyph glyph-name="three" unicode="3" horiz-adv-x="620" 
d="M441 359q130 -39 130 -167q0 -90 -71.5 -147.5t-183.5 -57.5q-121 0 -195.5 62t-84.5 173h144q4 -57 39.5 -87.5t95.5 -30.5q52 0 85.5 28t33.5 70q0 49 -37 76.5t-102 27.5h-57l-1 103h57q55 0 89.5 25t34.5 65q0 47 -29.5 73.5t-81.5 26.5q-117 0 -120 -119h-141
q9 114 77 173t184 59q112 0 179.5 -55t67.5 -149q0 -110 -113 -149z" />
    <glyph glyph-name="four" unicode="4" horiz-adv-x="660" 
d="M633 257v-113h-97v-144h-144v144h-338l-18 82q133 246 172 474h153q-36 -208 -160 -443h192l19 251h124v-251h97z" />
    <glyph glyph-name="five" unicode="5" horiz-adv-x="640" 
d="M360 468q97 0 165 -67t68 -168q0 -107 -75.5 -175.5t-195.5 -68.5q-115 0 -191.5 61.5t-85.5 167.5h143q7 -51 44.5 -82.5t90.5 -31.5q56 0 92.5 36t36.5 92q0 54 -37 89.5t-95 35.5q-80 0 -127 -62l-128 34l16 371l2 -1v1h480v-121h-361l-10 -195q55 84 168 84z" />
    <glyph glyph-name="six" unicode="6" horiz-adv-x="643" 
d="M366 457q101 0 167 -64t66 -162q0 -109 -73.5 -176.5t-192.5 -67.5q-137 0 -212 95q-72 89 -72 264q0 174 79 270.5t208 96.5q40 0 78 -9.5t75.5 -30.5t65.5 -61.5t38 -95.5h-152q-8 44 -36 65t-65 21q-65 0 -103.5 -63t-44.5 -184q49 102 174 102zM337 97q55 0 89 36
t34 93q0 56 -34.5 92.5t-90.5 36.5q-54 0 -89.5 -34.5t-35.5 -90.5q0 -57 35.5 -95t91.5 -38z" />
    <glyph glyph-name="seven" unicode="7" horiz-adv-x="583" 
d="M26 700h543v-108q-125 -120 -184 -275.5t-59 -316.5h-165v11q0 152 63.5 299t190.5 260h-389v130z" />
    <glyph glyph-name="eight" unicode="8" horiz-adv-x="644" 
d="M451 368q77 -19 115 -65t38 -110q0 -90 -78.5 -147t-200.5 -57t-201 57t-79 147q0 64 38 110t115 65q-64 18 -96 59t-32 98q0 82 72 134t183 52q110 0 182 -52t72 -134q0 -57 -32 -98t-96 -59zM325 606q-51 0 -83 -27t-32 -69q0 -41 32 -69t83 -28q50 0 82 28t32 69
q0 42 -32 69t-82 27zM325 102q56 0 92 30t36 78q0 45 -35.5 74t-92.5 29t-93 -29t-36 -74q0 -48 36 -78t93 -30z" />
    <glyph glyph-name="nine" unicode="9" horiz-adv-x="643" 
d="M518 618q76 -94 76 -264q0 -174 -79 -270.5t-208 -96.5q-40 0 -78 9.5t-76 30.5t-66 61.5t-38 95.5h153q9 -44 37.5 -65t65.5 -21q64 0 102 63t44 184q-49 -102 -174 -102q-101 0 -167 64t-66 162q0 109 73.5 176.5t192.5 67.5q132 0 208 -95zM308 345q55 0 90 34.5
t35 90.5q0 57 -35.5 95t-91.5 38q-55 0 -89 -36t-34 -93q0 -56 34.5 -92.5t90.5 -36.5z" />
    <glyph glyph-name="colon" unicode=":" horiz-adv-x="268" 
d="M55 354v154h158v-154h-158zM55 0v154h158v-154h-158z" />
    <glyph glyph-name="semicolon" unicode=";" horiz-adv-x="296" 
d="M81 354v154h158v-154h-158zM51 -119l24 273h162l-92 -273h-94z" />
    <glyph glyph-name="less" unicode="&#x3c;" 
d="M1627 0v700h-1527v-700h1527zM132 32v636h1463v-636h-1463zM1456 356q0 65 -38 106t-100 41t-100.5 -41t-38.5 -106q0 -64 38.5 -104.5t100.5 -40.5t100 40.5t38 104.5zM526 356q0 63 -40.5 102.5t-106.5 39.5h-89v-284h89q66 0 106.5 39.5t40.5 102.5zM619 469h163v29
h-198v-284h198v30h-163v100h153v30h-153v95zM1121 498h-33l-111 -136l-110 136h-32v-284h34v227l102 -124h14l102 124v-227h34v284zM1216 356q0 52 28 84.5t74 32.5t74.5 -33t28.5 -84t-28.5 -83.5t-74.5 -32.5t-74 32.5t-28 83.5zM489 356q0 -50 -29 -81t-78 -31h-58v225
h58q49 0 78 -31.5t29 -81.5z" />
    <glyph glyph-name="equal" unicode="=" horiz-adv-x="631" 
d="M62 506h507v-105h-507v105zM62 286h507v-105h-507v105z" />
    <glyph glyph-name="greater" unicode="&#x3e;" 
d="M1627 0v700h-1527v-700h1527zM132 32v636h1463v-636h-1463zM1456 356q0 65 -38 106t-100 41t-100.5 -41t-38.5 -106q0 -64 38.5 -104.5t100.5 -40.5t100 40.5t38 104.5zM526 356q0 63 -40.5 102.5t-106.5 39.5h-89v-284h89q66 0 106.5 39.5t40.5 102.5zM619 469h163v29
h-198v-284h198v30h-163v100h153v30h-153v95zM1121 498h-33l-111 -136l-110 136h-32v-284h34v227l102 -124h14l102 124v-227h34v284zM1216 356q0 52 28 84.5t74 32.5t74.5 -33t28.5 -84t-28.5 -83.5t-74.5 -32.5t-74 32.5t-28 83.5zM489 356q0 -50 -29 -81t-78 -31h-58v225
h58q49 0 78 -31.5t29 -81.5z" />
    <glyph glyph-name="question" unicode="?" horiz-adv-x="537" 
d="M265 713q103 0 168.5 -56.5t65.5 -141.5q0 -83 -42 -129t-128 -81l-11 -4v-80h-124v137l76 36q55 25 77 51t22 65q0 40 -29.5 66.5t-74.5 26.5q-52 0 -83 -29t-33 -81h-133q4 105 71 162.5t178 57.5zM177 0v138h153v-138h-153z" />
    <glyph glyph-name="at" unicode="@" horiz-adv-x="942" 
d="M555 470h122v-298q0 -51 46 -51q49 0 78.5 55t29.5 135q0 139 -95.5 228.5t-247.5 89.5q-157 0 -264 -103t-107 -260q0 -155 105 -254.5t273 -99.5q179 0 306 123v-94q-132 -95 -304 -95q-203 0 -331 118.5t-128 301.5q0 185 129 306.5t320 121.5q181 0 299 -109
t118 -275q0 -115 -59 -184t-154 -69q-54 0 -86 23t-43 59h-2q-16 -37 -52.5 -60t-83.5 -23q-80 0 -132.5 61.5t-52.5 153.5q0 91 52.5 149t136.5 58q83 0 125 -58h2v50zM557 273v6q0 48 -26 78.5t-68 30.5q-44 0 -71 -31.5t-27 -84.5t27.5 -84.5t69.5 -31.5t68 32t27 85z
" />
    <glyph glyph-name="A" unicode="A" horiz-adv-x="790" 
d="M595 0l-55 149h-290l-55 -149h-164l280 700h167l281 -700h-164zM293 267h204l-102 276z" />
    <glyph glyph-name="B" unicode="B" horiz-adv-x="749" 
d="M524 359q164 -32 164 -170q0 -85 -64 -137t-170 -52h-366v700h366q98 0 157 -48t59 -125q0 -125 -146 -168zM245 589v-178h161q59 0 88 25t29 64q0 41 -28 65t-75 24h-175zM416 111q52 0 87.5 25.5t35.5 72.5q0 41 -29.5 70t-87.5 29h-177v-197h171z" />
    <glyph glyph-name="C" unicode="C" horiz-adv-x="788" 
d="M734 263q-16 -131 -101.5 -203t-225.5 -72q-156 0 -255 102t-99 260t99 260.5t255 102.5q138 0 224.5 -71.5t103.5 -200.5h-166q-12 68 -54.5 105t-108.5 37q-87 0 -139.5 -64.5t-52.5 -167.5q0 -104 52.5 -168.5t139.5 -64.5q65 0 106.5 37.5t54.5 107.5h167z" />
    <glyph glyph-name="D" unicode="D" horiz-adv-x="771" 
d="M338 700q174 0 277 -97t103 -251q0 -156 -103 -254t-277 -98h-250v700h250zM348 128q97 0 153.5 61.5t56.5 162.5q0 99 -56.5 159.5t-153.5 60.5h-103v-444h103z" />
    <glyph glyph-name="E" unicode="E" horiz-adv-x="677" 
d="M621 579h-376v-161h352v-117h-352v-180h376v-121h-533v700h533v-121z" />
    <glyph glyph-name="F" unicode="F" horiz-adv-x="669" 
d="M621 573h-376v-171h354v-128h-354v-274h-157v700h533v-127z" />
    <glyph glyph-name="G" unicode="G" horiz-adv-x="812" 
d="M398 380h338v-380h-111l-10 92q-68 -103 -215 -103q-158 0 -252.5 99.5t-94.5 261.5q0 163 97 263t258 100q132 0 218 -67t108 -185h-164q-33 126 -164 126q-89 0 -141 -67t-52 -169q0 -108 52.5 -172t146.5 -64q69 0 120 40t63 110h-197v115z" />
    <glyph glyph-name="H" unicode="H" horiz-adv-x="787" 
d="M542 700h157v-700h-157v290h-297v-290h-157v700h157v-282h297v282z" />
    <glyph glyph-name="I" unicode="I" horiz-adv-x="333" 
d="M88 700h157v-700h-157v700z" />
    <glyph glyph-name="J" unicode="J" horiz-adv-x="540" 
d="M43 150q76 -34 132 -34q58 0 92 31.5t34 82.5v470h156v-473q0 -106 -70 -172t-194 -66q-81 0 -150 23v138z" />
    <glyph glyph-name="K" unicode="K" horiz-adv-x="750" 
d="M541 0l-176 289h-120v-289h-157v700h157v-280h121l172 280h168l-218 -344l231 -356h-178z" />
    <glyph glyph-name="L" unicode="L" horiz-adv-x="641" 
d="M245 128h342v-128h-499v700h157v-572z" />
    <glyph glyph-name="M" unicode="M" horiz-adv-x="898" 
d="M667 700h143v-700h-151v465l-202 -274h-16l-202 274v-465h-151v700h143l218 -307z" />
    <glyph glyph-name="N" unicode="N" horiz-adv-x="787" 
d="M544 700h155v-700h-138l-318 450v-450h-155v700h142l314 -450v450z" />
    <glyph glyph-name="O" unicode="O" horiz-adv-x="820" 
d="M410 713q156 0 256.5 -103t100.5 -261q0 -157 -100.5 -259t-256.5 -102t-256.5 102t-100.5 259q0 158 100.5 261t256.5 103zM410 583q-89 0 -142.5 -65t-53.5 -169q0 -103 53.5 -167t142.5 -64t142.5 64t53.5 167q0 104 -53.5 169t-142.5 65z" />
    <glyph glyph-name="P" unicode="P" horiz-adv-x="717" 
d="M442 700q110 0 177 -61t67 -157t-67.5 -158.5t-176.5 -62.5h-197v-261h-157v700h354zM418 379q52 0 83 29.5t31 73.5q0 42 -31 71t-83 29h-173v-203h173z" />
    <glyph glyph-name="Q" unicode="Q" horiz-adv-x="820" 
d="M801 38l-96 -99l-105 99q-84 -50 -190 -50q-156 0 -256.5 102t-100.5 259q0 158 100.5 261t256.5 103t256.5 -103t100.5 -261q0 -126 -68 -221zM410 118q45 0 85 19l-106 99l84 91l110 -97q23 52 23 119q0 104 -53.5 169t-142.5 65t-142.5 -65t-53.5 -169
q0 -103 53.5 -167t142.5 -64z" />
    <glyph glyph-name="R" unicode="R" horiz-adv-x="737" 
d="M705 0h-175l-131 281h-154v-281h-157v700h358q103 0 169.5 -58t66.5 -148q0 -70 -38.5 -122t-103.5 -75zM245 584v-189h179q45 0 74.5 28t29.5 71q0 39 -29.5 64.5t-74.5 25.5h-179z" />
    <glyph glyph-name="S" unicode="S" horiz-adv-x="696" 
d="M213 255q4 -71 45 -109.5t104 -38.5q54 0 89 24t35 66q0 41 -34 60t-113 39q-30 7 -39 9.5t-37 10t-38.5 11.5t-33.5 13t-32.5 16.5t-26.5 19.5t-24.5 24.5t-16.5 28.5t-12.5 34.5t-3.5 40.5q0 98 71 153.5t198 55.5q128 0 203.5 -59.5t84.5 -178.5h-155
q-11 122 -130 122q-54 0 -86 -23t-32 -63q0 -35 32 -55t125 -45q7 -2 31.5 -7.5t34.5 -8.5t33.5 -10t35 -12t31 -15t30 -19.5t24 -24t20 -30t11.5 -36t5 -43.5q0 -97 -75.5 -156.5t-205.5 -59.5q-136 0 -219.5 69.5t-87.5 196.5h159z" />
    <glyph glyph-name="T" unicode="T" horiz-adv-x="639" 
d="M617 700v-128h-219v-572h-157v572h-219v128h595z" />
    <glyph glyph-name="U" unicode="U" horiz-adv-x="778" 
d="M538 700h157v-428q0 -126 -84.5 -203.5t-221.5 -77.5t-221.5 77.5t-84.5 203.5v428h157v-428q0 -68 40.5 -109t108.5 -41t108.5 41t40.5 109v428z" />
    <glyph glyph-name="V" unicode="V" horiz-adv-x="750" 
d="M546 700h173l-261 -700h-166l-261 700h172l172 -516z" />
    <glyph glyph-name="W" unicode="W" horiz-adv-x="1046" 
d="M858 700h158l-193 -700h-155l-146 486l-144 -486h-155l-192 700h158l121 -494l153 494h120l153 -494z" />
    <glyph glyph-name="X" unicode="X" horiz-adv-x="726" 
d="M466 346l229 -346h-180l-152 246l-152 -246h-180l229 346l-226 354h180l149 -257l149 257h180z" />
    <glyph glyph-name="Y" unicode="Y" horiz-adv-x="742" 
d="M711 700l-261 -443v-257h-157v255l-262 445h179l161 -298l161 298h179z" />
    <glyph glyph-name="Z" unicode="Z" horiz-adv-x="692" 
d="M245 123h395v-123h-588v113l392 464h-392v123h583v-111z" />
    <glyph glyph-name="bracketleft" unicode="[" horiz-adv-x="380" 
d="M348 677h-135v-689h135v-103h-272v895h272v-103z" />
    <glyph glyph-name="backslash" unicode="\" horiz-adv-x="446" 
d="M160 700l254 -700h-128l-254 700h128z" />
    <glyph glyph-name="bracketright" unicode="]" horiz-adv-x="380" 
d="M304 780v-895h-272v103h135v689h-135v103h272z" />
    <glyph glyph-name="asciicircum" unicode="^" 
d="M1627 0v700h-1527v-700h1527zM132 32v636h1463v-636h-1463zM1456 356q0 65 -38 106t-100 41t-100.5 -41t-38.5 -106q0 -64 38.5 -104.5t100.5 -40.5t100 40.5t38 104.5zM526 356q0 63 -40.5 102.5t-106.5 39.5h-89v-284h89q66 0 106.5 39.5t40.5 102.5zM619 469h163v29
h-198v-284h198v30h-163v100h153v30h-153v95zM1121 498h-33l-111 -136l-110 136h-32v-284h34v227l102 -124h14l102 124v-227h34v284zM1216 356q0 52 28 84.5t74 32.5t74.5 -33t28.5 -84t-28.5 -83.5t-74.5 -32.5t-74 32.5t-28 83.5zM489 356q0 -50 -29 -81t-78 -31h-58v225
h58q49 0 78 -31.5t29 -81.5z" />
    <glyph glyph-name="underscore" unicode="_" horiz-adv-x="600" 
d="M40 -76h520v-100h-520v100z" />
    <glyph glyph-name="grave" unicode="`" 
d="M1627 0v700h-1527v-700h1527zM132 32v636h1463v-636h-1463zM1456 356q0 65 -38 106t-100 41t-100.5 -41t-38.5 -106q0 -64 38.5 -104.5t100.5 -40.5t100 40.5t38 104.5zM526 356q0 63 -40.5 102.5t-106.5 39.5h-89v-284h89q66 0 106.5 39.5t40.5 102.5zM619 469h163v29
h-198v-284h198v30h-163v100h153v30h-153v95zM1121 498h-33l-111 -136l-110 136h-32v-284h34v227l102 -124h14l102 124v-227h34v284zM1216 356q0 52 28 84.5t74 32.5t74.5 -33t28.5 -84t-28.5 -83.5t-74.5 -32.5t-74 32.5t-28 83.5zM489 356q0 -50 -29 -81t-78 -31h-58v225
h58q49 0 78 -31.5t29 -81.5z" />
    <glyph glyph-name="a" unicode="a" horiz-adv-x="571" 
d="M282 521q108 0 166.5 -50.5t58.5 -142.5v-328h-136v70h-3q-18 -29 -59.5 -54t-106.5 -25q-75 0 -121.5 41.5t-46.5 108.5q0 80 68 126.5t219 46.5h50v15q0 41 -24 64.5t-65 23.5q-40 0 -64 -19.5t-27 -53.5h-134q1 84 63 130.5t162 46.5zM251 91q50 0 85 29.5t35 71.5v36
h-49q-148 0 -148 -77q0 -28 21 -44t56 -16z" />
    <glyph glyph-name="b" unicode="b" horiz-adv-x="639" 
d="M368 -13q-51 0 -94.5 25t-63.5 66h-1l1 -78h-141v700h141l-1 -264h1q19 39 62.5 62t95.5 23q107 0 171 -73.5t64 -190.5q0 -121 -63.5 -195.5t-171.5 -74.5zM335 407q-57 0 -93 -41t-37 -108v-6q0 -69 36 -110t94 -41q57 0 93 42.5t36 113.5q0 67 -36 108.5t-93 41.5z
" />
    <glyph glyph-name="c" unicode="c" horiz-adv-x="575" 
d="M547 202q-8 -98 -75 -156.5t-173 -58.5q-117 0 -190 75.5t-73 192.5q0 116 73 191t190 75q103 0 169.5 -55.5t76.5 -150.5h-139q-17 92 -109 92q-58 0 -91.5 -42t-33.5 -110q0 -69 33.5 -111t91.5 -42q48 0 76 27t36 73h138z" />
    <glyph glyph-name="d" unicode="d" horiz-adv-x="642" 
d="M271 -13q-108 0 -171.5 74.5t-63.5 195.5q0 117 64 190.5t171 73.5q53 0 99 -23.5t64 -61.5h1v264h141v-700h-141v78h-1q-19 -41 -65 -66t-98 -25zM303 407q-57 0 -92.5 -41.5t-35.5 -108.5q0 -71 35.5 -113.5t92.5 -42.5q58 0 94 41t36 110v6q0 67 -36 108t-94 41z" />
    <glyph glyph-name="e" unicode="e" horiz-adv-x="579" 
d="M296 -13q-119 0 -189.5 73.5t-70.5 192.5q0 120 71 194t188 74q120 0 184 -74.5t64 -199.5v-23h-369v-3q4 -58 37.5 -93t83.5 -35q80 0 106 71h139q-23 -86 -87 -131.5t-157 -45.5zM178 305h231q-2 52 -32 84t-81 32q-49 0 -80.5 -31t-37.5 -85z" />
    <glyph glyph-name="f" unicode="f" horiz-adv-x="436" 
d="M335 613q-86 0 -86 -79v-26h163v-110h-163v-398h-141v398h-99v110h99v26q0 87 58 139t152 52q48 0 94 -15v-110q-40 13 -77 13z" />
    <glyph glyph-name="g" unicode="g" horiz-adv-x="625" 
d="M418 508h141v-505q0 -95 -72 -154t-186 -59q-110 0 -181 51t-81 143h146q8 -40 39 -63t79 -23q50 0 82.5 26.5t32.5 70.5v92h-1q-19 -31 -59 -51.5t-91 -20.5q-106 0 -171 70.5t-65 182.5q0 113 65 183t170 70q51 0 90.5 -21.5t60.5 -54.5h1v63zM298 120q56 0 91 41.5
t36 107.5v6q0 60 -35.5 98t-91.5 38q-57 0 -92 -39.5t-35 -102.5q0 -65 35 -107t92 -42z" />
    <glyph glyph-name="h" unicode="h" horiz-adv-x="625" 
d="M373 521q89 0 138.5 -57t49.5 -152v-312h-141v282q0 53 -24.5 84t-65.5 31q-54 0 -87 -36.5t-33 -102.5v-258h-141v700h141v-286q47 107 163 107z" />
    <glyph glyph-name="i" unicode="i" horiz-adv-x="279" 
d="M54 587v131h171v-131h-171zM69 0v508h141v-508h-141z" />
    <glyph glyph-name="j" unicode="j" horiz-adv-x="291" 
d="M66 587v131h171v-131h-171zM-67 -86q54 -22 86 -22q27 0 44.5 17.5t17.5 43.5v555h141v-554q0 -73 -48 -120t-122 -47q-57 0 -119 18v109z" />
    <glyph glyph-name="k" unicode="k" horiz-adv-x="597" 
d="M426 0l-121 218h-95v-218h-141v700h141v-354h94l107 162h163l-159 -222l176 -286h-165z" />
    <glyph glyph-name="l" unicode="l" horiz-adv-x="279" 
d="M69 700h141v-700h-141v700z" />
    <glyph glyph-name="m" unicode="m" horiz-adv-x="944" 
d="M694 521q84 0 134.5 -55.5t50.5 -158.5v-307h-141v290q0 52 -23.5 79.5t-64.5 27.5q-105 0 -105 -121v-276h-141v290q0 51 -24 79t-65 28q-51 0 -78 -31t-27 -90v-276h-141v508h141v-85q45 98 153 98q117 0 161 -99q51 99 170 99z" />
    <glyph glyph-name="n" unicode="n" horiz-adv-x="625" 
d="M373 521q89 0 138.5 -57t49.5 -152v-312h-141v282q0 53 -24.5 84t-65.5 31q-54 0 -87 -36.5t-33 -102.5v-258h-141v508h141v-94q47 107 163 107z" />
    <glyph glyph-name="o" unicode="o" horiz-adv-x="601" 
d="M300 521q119 0 192 -75t73 -191q0 -117 -73 -192.5t-192 -75.5q-118 0 -191 75.5t-73 192.5q0 116 73 191t191 75zM300 408q-59 0 -93.5 -43t-34.5 -110q0 -69 34.5 -112t93.5 -43q60 0 94.5 43t34.5 112q0 67 -34.5 110t-94.5 43z" />
    <glyph glyph-name="p" unicode="p" horiz-adv-x="639" 
d="M69 -200v708h141l-1 -78h1q20 41 63.5 66t94.5 25q108 0 171.5 -74.5t63.5 -195.5q0 -117 -64 -190.5t-171 -73.5q-52 0 -95.5 23t-62.5 62h-1l1 -272h-141zM335 101q57 0 93 41.5t36 108.5q0 71 -36 113.5t-93 42.5q-58 0 -94 -41t-36 -110v-6q1 -67 37 -108t93 -41z
" />
    <glyph glyph-name="q" unicode="q" horiz-adv-x="639" 
d="M570 -200h-141l1 272h-1q-19 -39 -62.5 -62t-95.5 -23q-107 0 -171 73.5t-64 190.5q0 121 63.5 195.5t171.5 74.5q51 0 94.5 -25t63.5 -66h1l-1 78h141v-708zM304 101q57 0 93 41t37 108v6q0 69 -36 110t-94 41q-57 0 -93 -42.5t-36 -113.5q0 -67 36 -108.5t93 -41.5z
" />
    <glyph glyph-name="r" unicode="r" horiz-adv-x="451" 
d="M210 374q46 142 219 142v-149q-120 12 -169.5 -30t-49.5 -146v-191h-141v508h141v-134z" />
    <glyph glyph-name="s" unicode="s" horiz-adv-x="515" 
d="M352 347q-13 77 -97 77q-36 0 -57.5 -15t-21.5 -38q0 -26 21.5 -36.5t86.5 -25.5q33 -7 47 -10.5t41 -11t39 -14t29.5 -18.5t24.5 -25.5t13 -33.5t6 -44q0 -81 -57 -123t-159 -42q-109 0 -171 50.5t-67 142.5h126q14 -92 110 -92q83 0 83 57q0 26 -21.5 37t-92.5 26
q-41 9 -63.5 15t-50.5 18t-42.5 27t-24.5 39.5t-10 57.5q0 78 57 117t155 39q205 0 223 -174h-127z" />
    <glyph glyph-name="t" unicode="t" horiz-adv-x="442" 
d="M421 398h-175v-209q0 -39 21.5 -59.5t60.5 -20.5q41 0 83 22v-119q-41 -22 -105 -22q-91 0 -146 49t-55 130v229h-91v110h2q46 0 67.5 20t21.5 64v68h141v-152h175v-110z" />
    <glyph glyph-name="u" unicode="u" horiz-adv-x="623" 
d="M554 508v-508h-141v87q-47 -98 -159 -98q-88 0 -140 57t-52 158v304h141v-282q0 -53 24 -84t66 -31q54 0 87 36.5t33 102.5v258h141z" />
    <glyph glyph-name="v" unicode="v" horiz-adv-x="563" 
d="M402 508h155l-204 -508h-143l-204 508h155l120 -352z" />
    <glyph glyph-name="w" unicode="w" horiz-adv-x="782" 
d="M634 508h142l-153 -508h-135l-97 334l-96 -334h-136l-153 508h143l89 -334l97 334h112l97 -334z" />
    <glyph glyph-name="x" unicode="x" horiz-adv-x="560" 
d="M374 259l180 -259h-167l-114 164l-116 -164h-151l184 254l-180 254h167l111 -169l111 169h151z" />
    <glyph glyph-name="y" unicode="y" horiz-adv-x="565" 
d="M410 508h149l-201 -553q-28 -81 -88 -124.5t-143 -43.5q-62 0 -125 27v124q71 -37 125 -37q71 0 106 73l-227 534h158l129 -353z" />
    <glyph glyph-name="z" unicode="z" horiz-adv-x="550" 
d="M230 110h274v-110h-458v87l276 311h-276v110h450v-91z" />
    <glyph glyph-name="braceleft" unicode="{" horiz-adv-x="424" 
d="M267 489q0 -72 -28.5 -108.5t-90.5 -48.5q62 -12 90.5 -48t28.5 -110v-126q0 -25 16 -40.5t41 -15.5h68v-107h-76q-91 0 -139.5 41.5t-48.5 118.5v129q0 64 -25.5 87t-67.5 23h-15v97h15q42 0 67.5 22.5t25.5 85.5v131q0 77 48.5 118.5t139.5 41.5h76v-107h-68
q-25 0 -41 -15.5t-16 -40.5v-128z" />
    <glyph glyph-name="bar" unicode="|" 
d="M1627 0v700h-1527v-700h1527zM132 32v636h1463v-636h-1463zM1456 356q0 65 -38 106t-100 41t-100.5 -41t-38.5 -106q0 -64 38.5 -104.5t100.5 -40.5t100 40.5t38 104.5zM526 356q0 63 -40.5 102.5t-106.5 39.5h-89v-284h89q66 0 106.5 39.5t40.5 102.5zM619 469h163v29
h-198v-284h198v30h-163v100h153v30h-153v95zM1121 498h-33l-111 -136l-110 136h-32v-284h34v227l102 -124h14l102 124v-227h34v284zM1216 356q0 52 28 84.5t74 32.5t74.5 -33t28.5 -84t-28.5 -83.5t-74.5 -32.5t-74 32.5t-28 83.5zM489 356q0 -50 -29 -81t-78 -31h-58v225
h58q49 0 78 -31.5t29 -81.5z" />
    <glyph glyph-name="braceright" unicode="}" horiz-adv-x="424" 
d="M389 381h15v-97h-15q-42 0 -67.5 -23t-25.5 -87v-129q0 -77 -48.5 -118.5t-139.5 -41.5h-76v107h68q25 0 41 15.5t16 40.5v126q0 74 28.5 110t90.5 48q-62 12 -90.5 48.5t-28.5 108.5v128q0 25 -16 40.5t-41 15.5h-68v107h76q91 0 139.5 -41.5t48.5 -118.5v-131
q0 -63 25.5 -85.5t67.5 -22.5z" />
    <glyph glyph-name="asciitilde" unicode="~" 
d="M1627 0v700h-1527v-700h1527zM132 32v636h1463v-636h-1463zM1456 356q0 65 -38 106t-100 41t-100.5 -41t-38.5 -106q0 -64 38.5 -104.5t100.5 -40.5t100 40.5t38 104.5zM526 356q0 63 -40.5 102.5t-106.5 39.5h-89v-284h89q66 0 106.5 39.5t40.5 102.5zM619 469h163v29
h-198v-284h198v30h-163v100h153v30h-153v95zM1121 498h-33l-111 -136l-110 136h-32v-284h34v227l102 -124h14l102 124v-227h34v284zM1216 356q0 52 28 84.5t74 32.5t74.5 -33t28.5 -84t-28.5 -83.5t-74.5 -32.5t-74 32.5t-28 83.5zM489 356q0 -50 -29 -81t-78 -31h-58v225
h58q49 0 78 -31.5t29 -81.5z" />
    <glyph glyph-name="uni00A0" unicode="&#xa0;" horiz-adv-x="264" 
 />
    <glyph glyph-name="exclamdown" unicode="&#xa1;" horiz-adv-x="310" 
d="M78 610h154v-138h-154v138zM91 390h128l16 -480h-161z" />
    <glyph glyph-name="cent" unicode="&#xa2;" horiz-adv-x="589" 
d="M561 292q-13 -82 -66 -135t-133 -67l1 -102h-110l1 103q-98 17 -158 88.5t-60 174.5q0 102 60 173t158 88l-1 97h110l-1 -96q78 -13 131 -64t66 -129h-139q-15 51 -60 72l-1 -96l2 -186q49 23 61 79h139zM175 354q0 -52 21.5 -89t58.5 -53l2 187l-1 97q-81 -35 -81 -142z
" />
    <glyph glyph-name="sterling" unicode="&#xa3;" horiz-adv-x="626" 
d="M294 265q0 -29 -13 -56.5t-26.5 -43t-47.5 -49.5h370v-116h-517l-14 85q9 12 36.5 45t35.5 44.5t17 34t9 44.5q0 14 -4 36h-116v88h75q-34 62 -34 114q0 95 71 158.5t184 63.5q106 0 174.5 -55t82.5 -159h-132q-10 46 -43.5 72.5t-79.5 26.5q-52 0 -85 -31t-33 -80
q0 -47 45 -110h243v-88h-200q2 -16 2 -24z" />
    <glyph glyph-name="currency" unicode="&#xa4;" 
d="M1627 0v700h-1527v-700h1527zM132 32v636h1463v-636h-1463zM1456 356q0 65 -38 106t-100 41t-100.5 -41t-38.5 -106q0 -64 38.5 -104.5t100.5 -40.5t100 40.5t38 104.5zM526 356q0 63 -40.5 102.5t-106.5 39.5h-89v-284h89q66 0 106.5 39.5t40.5 102.5zM619 469h163v29
h-198v-284h198v30h-163v100h153v30h-153v95zM1121 498h-33l-111 -136l-110 136h-32v-284h34v227l102 -124h14l102 124v-227h34v284zM1216 356q0 52 28 84.5t74 32.5t74.5 -33t28.5 -84t-28.5 -83.5t-74.5 -32.5t-74 32.5t-28 83.5zM489 356q0 -50 -29 -81t-78 -31h-58v225
h58q49 0 78 -31.5t29 -81.5z" />
    <glyph glyph-name="yen" unicode="&#xa5;" horiz-adv-x="674" 
d="M671 700l-196 -345h126v-74h-167l-25 -43v-9h192v-74h-192v-155h-143v155h-193v74h193v7l-26 45h-167v74h126l-196 345h171l163 -315l162 315h172z" />
    <glyph glyph-name="brokenbar" unicode="&#xa6;" 
d="M1627 0v700h-1527v-700h1527zM132 32v636h1463v-636h-1463zM1456 356q0 65 -38 106t-100 41t-100.5 -41t-38.5 -106q0 -64 38.5 -104.5t100.5 -40.5t100 40.5t38 104.5zM526 356q0 63 -40.5 102.5t-106.5 39.5h-89v-284h89q66 0 106.5 39.5t40.5 102.5zM619 469h163v29
h-198v-284h198v30h-163v100h153v30h-153v95zM1121 498h-33l-111 -136l-110 136h-32v-284h34v227l102 -124h14l102 124v-227h34v284zM1216 356q0 52 28 84.5t74 32.5t74.5 -33t28.5 -84t-28.5 -83.5t-74.5 -32.5t-74 32.5t-28 83.5zM489 356q0 -50 -29 -81t-78 -31h-58v225
h58q49 0 78 -31.5t29 -81.5z" />
    <glyph glyph-name="section" unicode="&#xa7;" 
d="M1627 0v700h-1527v-700h1527zM132 32v636h1463v-636h-1463zM1456 356q0 65 -38 106t-100 41t-100.5 -41t-38.5 -106q0 -64 38.5 -104.5t100.5 -40.5t100 40.5t38 104.5zM526 356q0 63 -40.5 102.5t-106.5 39.5h-89v-284h89q66 0 106.5 39.5t40.5 102.5zM619 469h163v29
h-198v-284h198v30h-163v100h153v30h-153v95zM1121 498h-33l-111 -136l-110 136h-32v-284h34v227l102 -124h14l102 124v-227h34v284zM1216 356q0 52 28 84.5t74 32.5t74.5 -33t28.5 -84t-28.5 -83.5t-74.5 -32.5t-74 32.5t-28 83.5zM489 356q0 -50 -29 -81t-78 -31h-58v225
h58q49 0 78 -31.5t29 -81.5z" />
    <glyph glyph-name="dieresis" unicode="&#xa8;" 
d="M1627 0v700h-1527v-700h1527zM132 32v636h1463v-636h-1463zM1456 356q0 65 -38 106t-100 41t-100.5 -41t-38.5 -106q0 -64 38.5 -104.5t100.5 -40.5t100 40.5t38 104.5zM526 356q0 63 -40.5 102.5t-106.5 39.5h-89v-284h89q66 0 106.5 39.5t40.5 102.5zM619 469h163v29
h-198v-284h198v30h-163v100h153v30h-153v95zM1121 498h-33l-111 -136l-110 136h-32v-284h34v227l102 -124h14l102 124v-227h34v284zM1216 356q0 52 28 84.5t74 32.5t74.5 -33t28.5 -84t-28.5 -83.5t-74.5 -32.5t-74 32.5t-28 83.5zM489 356q0 -50 -29 -81t-78 -31h-58v225
h58q49 0 78 -31.5t29 -81.5z" />
    <glyph glyph-name="copyright" unicode="&#xa9;" 
d="M1627 0v700h-1527v-700h1527zM132 32v636h1463v-636h-1463zM1456 356q0 65 -38 106t-100 41t-100.5 -41t-38.5 -106q0 -64 38.5 -104.5t100.5 -40.5t100 40.5t38 104.5zM526 356q0 63 -40.5 102.5t-106.5 39.5h-89v-284h89q66 0 106.5 39.5t40.5 102.5zM619 469h163v29
h-198v-284h198v30h-163v100h153v30h-153v95zM1121 498h-33l-111 -136l-110 136h-32v-284h34v227l102 -124h14l102 124v-227h34v284zM1216 356q0 52 28 84.5t74 32.5t74.5 -33t28.5 -84t-28.5 -83.5t-74.5 -32.5t-74 32.5t-28 83.5zM489 356q0 -50 -29 -81t-78 -31h-58v225
h58q49 0 78 -31.5t29 -81.5z" />
    <glyph glyph-name="ordfeminine" unicode="&#xaa;" horiz-adv-x="439" 
d="M219 707q84 0 131 -40.5t47 -105.5v-259h-112v54h-3q-11 -23 -42.5 -43.5t-86.5 -20.5q-57 0 -94 33t-37 84q0 131 220 131h43v22q0 29 -17.5 45.5t-50.5 16.5q-63 0 -68 -52h-110q2 65 51 100t129 35zM196 373q37 0 62.5 23t26.5 60v22h-42q-103 0 -103 -59
q0 -20 15.5 -33t40.5 -13z" />
    <glyph glyph-name="guillemotleft" unicode="&#xab;" horiz-adv-x="594" 
d="M187 261l135 -183h-145l-135 183l135 183h145zM411 261l145 -183h-155l-135 183l135 183h155z" />
    <glyph glyph-name="logicalnot" unicode="&#xac;" 
d="M1627 0v700h-1527v-700h1527zM132 32v636h1463v-636h-1463zM1456 356q0 65 -38 106t-100 41t-100.5 -41t-38.5 -106q0 -64 38.5 -104.5t100.5 -40.5t100 40.5t38 104.5zM526 356q0 63 -40.5 102.5t-106.5 39.5h-89v-284h89q66 0 106.5 39.5t40.5 102.5zM619 469h163v29
h-198v-284h198v30h-163v100h153v30h-153v95zM1121 498h-33l-111 -136l-110 136h-32v-284h34v227l102 -124h14l102 124v-227h34v284zM1216 356q0 52 28 84.5t74 32.5t74.5 -33t28.5 -84t-28.5 -83.5t-74.5 -32.5t-74 32.5t-28 83.5zM489 356q0 -50 -29 -81t-78 -31h-58v225
h58q49 0 78 -31.5t29 -81.5z" />
    <glyph glyph-name="registered" unicode="&#xae;" 
d="M1627 0v700h-1527v-700h1527zM132 32v636h1463v-636h-1463zM1456 356q0 65 -38 106t-100 41t-100.5 -41t-38.5 -106q0 -64 38.5 -104.5t100.5 -40.5t100 40.5t38 104.5zM526 356q0 63 -40.5 102.5t-106.5 39.5h-89v-284h89q66 0 106.5 39.5t40.5 102.5zM619 469h163v29
h-198v-284h198v30h-163v100h153v30h-153v95zM1121 498h-33l-111 -136l-110 136h-32v-284h34v227l102 -124h14l102 124v-227h34v284zM1216 356q0 52 28 84.5t74 32.5t74.5 -33t28.5 -84t-28.5 -83.5t-74.5 -32.5t-74 32.5t-28 83.5zM489 356q0 -50 -29 -81t-78 -31h-58v225
h58q49 0 78 -31.5t29 -81.5z" />
    <glyph glyph-name="macron" unicode="&#xaf;" 
d="M1627 0v700h-1527v-700h1527zM132 32v636h1463v-636h-1463zM1456 356q0 65 -38 106t-100 41t-100.5 -41t-38.5 -106q0 -64 38.5 -104.5t100.5 -40.5t100 40.5t38 104.5zM526 356q0 63 -40.5 102.5t-106.5 39.5h-89v-284h89q66 0 106.5 39.5t40.5 102.5zM619 469h163v29
h-198v-284h198v30h-163v100h153v30h-153v95zM1121 498h-33l-111 -136l-110 136h-32v-284h34v227l102 -124h14l102 124v-227h34v284zM1216 356q0 52 28 84.5t74 32.5t74.5 -33t28.5 -84t-28.5 -83.5t-74.5 -32.5t-74 32.5t-28 83.5zM489 356q0 -50 -29 -81t-78 -31h-58v225
h58q49 0 78 -31.5t29 -81.5z" />
    <glyph glyph-name="degree" unicode="&#xb0;" horiz-adv-x="464" 
d="M231 740q73 0 126 -49.5t53 -123.5t-52.5 -124t-125.5 -50t-125.5 50t-52.5 124t52 123.5t125 49.5zM232 655q-35 0 -58.5 -25t-23.5 -63t23.5 -62.5t58.5 -24.5t58.5 24.5t23.5 62.5t-23.5 63t-58.5 25z" />
    <glyph glyph-name="plusminus" unicode="&#xb1;" 
d="M1627 0v700h-1527v-700h1527zM132 32v636h1463v-636h-1463zM1456 356q0 65 -38 106t-100 41t-100.5 -41t-38.5 -106q0 -64 38.5 -104.5t100.5 -40.5t100 40.5t38 104.5zM526 356q0 63 -40.5 102.5t-106.5 39.5h-89v-284h89q66 0 106.5 39.5t40.5 102.5zM619 469h163v29
h-198v-284h198v30h-163v100h153v30h-153v95zM1121 498h-33l-111 -136l-110 136h-32v-284h34v227l102 -124h14l102 124v-227h34v284zM1216 356q0 52 28 84.5t74 32.5t74.5 -33t28.5 -84t-28.5 -83.5t-74.5 -32.5t-74 32.5t-28 83.5zM489 356q0 -50 -29 -81t-78 -31h-58v225
h58q49 0 78 -31.5t29 -81.5z" />
    <glyph glyph-name="uni00B2" unicode="&#xb2;" 
d="M1627 0v700h-1527v-700h1527zM132 32v636h1463v-636h-1463zM1456 356q0 65 -38 106t-100 41t-100.5 -41t-38.5 -106q0 -64 38.5 -104.5t100.5 -40.5t100 40.5t38 104.5zM526 356q0 63 -40.5 102.5t-106.5 39.5h-89v-284h89q66 0 106.5 39.5t40.5 102.5zM619 469h163v29
h-198v-284h198v30h-163v100h153v30h-153v95zM1121 498h-33l-111 -136l-110 136h-32v-284h34v227l102 -124h14l102 124v-227h34v284zM1216 356q0 52 28 84.5t74 32.5t74.5 -33t28.5 -84t-28.5 -83.5t-74.5 -32.5t-74 32.5t-28 83.5zM489 356q0 -50 -29 -81t-78 -31h-58v225
h58q49 0 78 -31.5t29 -81.5z" />
    <glyph glyph-name="uni00B3" unicode="&#xb3;" 
d="M1627 0v700h-1527v-700h1527zM132 32v636h1463v-636h-1463zM1456 356q0 65 -38 106t-100 41t-100.5 -41t-38.5 -106q0 -64 38.5 -104.5t100.5 -40.5t100 40.5t38 104.5zM526 356q0 63 -40.5 102.5t-106.5 39.5h-89v-284h89q66 0 106.5 39.5t40.5 102.5zM619 469h163v29
h-198v-284h198v30h-163v100h153v30h-153v95zM1121 498h-33l-111 -136l-110 136h-32v-284h34v227l102 -124h14l102 124v-227h34v284zM1216 356q0 52 28 84.5t74 32.5t74.5 -33t28.5 -84t-28.5 -83.5t-74.5 -32.5t-74 32.5t-28 83.5zM489 356q0 -50 -29 -81t-78 -31h-58v225
h58q49 0 78 -31.5t29 -81.5z" />
    <glyph glyph-name="acute" unicode="&#xb4;" 
d="M1627 0v700h-1527v-700h1527zM132 32v636h1463v-636h-1463zM1456 356q0 65 -38 106t-100 41t-100.5 -41t-38.5 -106q0 -64 38.5 -104.5t100.5 -40.5t100 40.5t38 104.5zM526 356q0 63 -40.5 102.5t-106.5 39.5h-89v-284h89q66 0 106.5 39.5t40.5 102.5zM619 469h163v29
h-198v-284h198v30h-163v100h153v30h-153v95zM1121 498h-33l-111 -136l-110 136h-32v-284h34v227l102 -124h14l102 124v-227h34v284zM1216 356q0 52 28 84.5t74 32.5t74.5 -33t28.5 -84t-28.5 -83.5t-74.5 -32.5t-74 32.5t-28 83.5zM489 356q0 -50 -29 -81t-78 -31h-58v225
h58q49 0 78 -31.5t29 -81.5z" />
    <glyph glyph-name="paragraph" unicode="&#xb6;" 
d="M1627 0v700h-1527v-700h1527zM132 32v636h1463v-636h-1463zM1456 356q0 65 -38 106t-100 41t-100.5 -41t-38.5 -106q0 -64 38.5 -104.5t100.5 -40.5t100 40.5t38 104.5zM526 356q0 63 -40.5 102.5t-106.5 39.5h-89v-284h89q66 0 106.5 39.5t40.5 102.5zM619 469h163v29
h-198v-284h198v30h-163v100h153v30h-153v95zM1121 498h-33l-111 -136l-110 136h-32v-284h34v227l102 -124h14l102 124v-227h34v284zM1216 356q0 52 28 84.5t74 32.5t74.5 -33t28.5 -84t-28.5 -83.5t-74.5 -32.5t-74 32.5t-28 83.5zM489 356q0 -50 -29 -81t-78 -31h-58v225
h58q49 0 78 -31.5t29 -81.5z" />
    <glyph glyph-name="periodcentered" unicode="&#xb7;" horiz-adv-x="268" 
d="M55 236v154h158v-154h-158z" />
    <glyph glyph-name="cedilla" unicode="&#xb8;" 
d="M1627 0v700h-1527v-700h1527zM132 32v636h1463v-636h-1463zM1456 356q0 65 -38 106t-100 41t-100.5 -41t-38.5 -106q0 -64 38.5 -104.5t100.5 -40.5t100 40.5t38 104.5zM526 356q0 63 -40.5 102.5t-106.5 39.5h-89v-284h89q66 0 106.5 39.5t40.5 102.5zM619 469h163v29
h-198v-284h198v30h-163v100h153v30h-153v95zM1121 498h-33l-111 -136l-110 136h-32v-284h34v227l102 -124h14l102 124v-227h34v284zM1216 356q0 52 28 84.5t74 32.5t74.5 -33t28.5 -84t-28.5 -83.5t-74.5 -32.5t-74 32.5t-28 83.5zM489 356q0 -50 -29 -81t-78 -31h-58v225
h58q49 0 78 -31.5t29 -81.5z" />
    <glyph glyph-name="uni00B9" unicode="&#xb9;" 
d="M1627 0v700h-1527v-700h1527zM132 32v636h1463v-636h-1463zM1456 356q0 65 -38 106t-100 41t-100.5 -41t-38.5 -106q0 -64 38.5 -104.5t100.5 -40.5t100 40.5t38 104.5zM526 356q0 63 -40.5 102.5t-106.5 39.5h-89v-284h89q66 0 106.5 39.5t40.5 102.5zM619 469h163v29
h-198v-284h198v30h-163v100h153v30h-153v95zM1121 498h-33l-111 -136l-110 136h-32v-284h34v227l102 -124h14l102 124v-227h34v284zM1216 356q0 52 28 84.5t74 32.5t74.5 -33t28.5 -84t-28.5 -83.5t-74.5 -32.5t-74 32.5t-28 83.5zM489 356q0 -50 -29 -81t-78 -31h-58v225
h58q49 0 78 -31.5t29 -81.5z" />
    <glyph glyph-name="ordmasculine" unicode="&#xba;" horiz-adv-x="479" 
d="M240 707q94 0 152.5 -58t58.5 -148q0 -91 -58.5 -150t-152.5 -59t-153 59t-59 150q0 90 59 148t153 58zM240 616q-44 0 -70 -31.5t-26 -83.5q0 -53 26 -85t70 -32t69.5 32.5t25.5 84.5t-25.5 83.5t-69.5 31.5z" />
    <glyph glyph-name="guillemotright" unicode="&#xbb;" horiz-adv-x="594" 
d="M183 261l-145 183h155l135 -183l-135 -183h-155zM407 261l-135 183h145l135 -183l-135 -183h-145z" />
    <glyph glyph-name="onequarter" unicode="&#xbc;" 
d="M1627 0v700h-1527v-700h1527zM132 32v636h1463v-636h-1463zM1456 356q0 65 -38 106t-100 41t-100.5 -41t-38.5 -106q0 -64 38.5 -104.5t100.5 -40.5t100 40.5t38 104.5zM526 356q0 63 -40.5 102.5t-106.5 39.5h-89v-284h89q66 0 106.5 39.5t40.5 102.5zM619 469h163v29
h-198v-284h198v30h-163v100h153v30h-153v95zM1121 498h-33l-111 -136l-110 136h-32v-284h34v227l102 -124h14l102 124v-227h34v284zM1216 356q0 52 28 84.5t74 32.5t74.5 -33t28.5 -84t-28.5 -83.5t-74.5 -32.5t-74 32.5t-28 83.5zM489 356q0 -50 -29 -81t-78 -31h-58v225
h58q49 0 78 -31.5t29 -81.5z" />
    <glyph glyph-name="onehalf" unicode="&#xbd;" 
d="M1627 0v700h-1527v-700h1527zM132 32v636h1463v-636h-1463zM1456 356q0 65 -38 106t-100 41t-100.5 -41t-38.5 -106q0 -64 38.5 -104.5t100.5 -40.5t100 40.5t38 104.5zM526 356q0 63 -40.5 102.5t-106.5 39.5h-89v-284h89q66 0 106.5 39.5t40.5 102.5zM619 469h163v29
h-198v-284h198v30h-163v100h153v30h-153v95zM1121 498h-33l-111 -136l-110 136h-32v-284h34v227l102 -124h14l102 124v-227h34v284zM1216 356q0 52 28 84.5t74 32.5t74.5 -33t28.5 -84t-28.5 -83.5t-74.5 -32.5t-74 32.5t-28 83.5zM489 356q0 -50 -29 -81t-78 -31h-58v225
h58q49 0 78 -31.5t29 -81.5z" />
    <glyph glyph-name="threequarters" unicode="&#xbe;" 
d="M1627 0v700h-1527v-700h1527zM132 32v636h1463v-636h-1463zM1456 356q0 65 -38 106t-100 41t-100.5 -41t-38.5 -106q0 -64 38.5 -104.5t100.5 -40.5t100 40.5t38 104.5zM526 356q0 63 -40.5 102.5t-106.5 39.5h-89v-284h89q66 0 106.5 39.5t40.5 102.5zM619 469h163v29
h-198v-284h198v30h-163v100h153v30h-153v95zM1121 498h-33l-111 -136l-110 136h-32v-284h34v227l102 -124h14l102 124v-227h34v284zM1216 356q0 52 28 84.5t74 32.5t74.5 -33t28.5 -84t-28.5 -83.5t-74.5 -32.5t-74 32.5t-28 83.5zM489 356q0 -50 -29 -81t-78 -31h-58v225
h58q49 0 78 -31.5t29 -81.5z" />
    <glyph glyph-name="questiondown" unicode="&#xbf;" horiz-adv-x="537" 
d="M360 615v-138h-153v138h153zM388 122h133q-4 -105 -71 -162.5t-178 -57.5q-103 0 -168.5 56.5t-65.5 141.5q0 83 42 129t128 81l11 4v80h124v-137l-76 -36q-55 -25 -77 -51t-22 -65q0 -40 29.5 -66.5t74.5 -26.5q52 0 83 29t33 81z" />
    <glyph glyph-name="Agrave" unicode="&#xc0;" 
d="M1627 0v700h-1527v-700h1527zM132 32v636h1463v-636h-1463zM1456 356q0 65 -38 106t-100 41t-100.5 -41t-38.5 -106q0 -64 38.5 -104.5t100.5 -40.5t100 40.5t38 104.5zM526 356q0 63 -40.5 102.5t-106.5 39.5h-89v-284h89q66 0 106.5 39.5t40.5 102.5zM619 469h163v29
h-198v-284h198v30h-163v100h153v30h-153v95zM1121 498h-33l-111 -136l-110 136h-32v-284h34v227l102 -124h14l102 124v-227h34v284zM1216 356q0 52 28 84.5t74 32.5t74.5 -33t28.5 -84t-28.5 -83.5t-74.5 -32.5t-74 32.5t-28 83.5zM489 356q0 -50 -29 -81t-78 -31h-58v225
h58q49 0 78 -31.5t29 -81.5z" />
    <glyph glyph-name="Aacute" unicode="&#xc1;" 
d="M1627 0v700h-1527v-700h1527zM132 32v636h1463v-636h-1463zM1456 356q0 65 -38 106t-100 41t-100.5 -41t-38.5 -106q0 -64 38.5 -104.5t100.5 -40.5t100 40.5t38 104.5zM526 356q0 63 -40.5 102.5t-106.5 39.5h-89v-284h89q66 0 106.5 39.5t40.5 102.5zM619 469h163v29
h-198v-284h198v30h-163v100h153v30h-153v95zM1121 498h-33l-111 -136l-110 136h-32v-284h34v227l102 -124h14l102 124v-227h34v284zM1216 356q0 52 28 84.5t74 32.5t74.5 -33t28.5 -84t-28.5 -83.5t-74.5 -32.5t-74 32.5t-28 83.5zM489 356q0 -50 -29 -81t-78 -31h-58v225
h58q49 0 78 -31.5t29 -81.5z" />
    <glyph glyph-name="Acircumflex" unicode="&#xc2;" 
d="M1627 0v700h-1527v-700h1527zM132 32v636h1463v-636h-1463zM1456 356q0 65 -38 106t-100 41t-100.5 -41t-38.5 -106q0 -64 38.5 -104.5t100.5 -40.5t100 40.5t38 104.5zM526 356q0 63 -40.5 102.5t-106.5 39.5h-89v-284h89q66 0 106.5 39.5t40.5 102.5zM619 469h163v29
h-198v-284h198v30h-163v100h153v30h-153v95zM1121 498h-33l-111 -136l-110 136h-32v-284h34v227l102 -124h14l102 124v-227h34v284zM1216 356q0 52 28 84.5t74 32.5t74.5 -33t28.5 -84t-28.5 -83.5t-74.5 -32.5t-74 32.5t-28 83.5zM489 356q0 -50 -29 -81t-78 -31h-58v225
h58q49 0 78 -31.5t29 -81.5z" />
    <glyph glyph-name="Atilde" unicode="&#xc3;" 
d="M1627 0v700h-1527v-700h1527zM132 32v636h1463v-636h-1463zM1456 356q0 65 -38 106t-100 41t-100.5 -41t-38.5 -106q0 -64 38.5 -104.5t100.5 -40.5t100 40.5t38 104.5zM526 356q0 63 -40.5 102.5t-106.5 39.5h-89v-284h89q66 0 106.5 39.5t40.5 102.5zM619 469h163v29
h-198v-284h198v30h-163v100h153v30h-153v95zM1121 498h-33l-111 -136l-110 136h-32v-284h34v227l102 -124h14l102 124v-227h34v284zM1216 356q0 52 28 84.5t74 32.5t74.5 -33t28.5 -84t-28.5 -83.5t-74.5 -32.5t-74 32.5t-28 83.5zM489 356q0 -50 -29 -81t-78 -31h-58v225
h58q49 0 78 -31.5t29 -81.5z" />
    <glyph glyph-name="Adieresis" unicode="&#xc4;" 
d="M1627 0v700h-1527v-700h1527zM132 32v636h1463v-636h-1463zM1456 356q0 65 -38 106t-100 41t-100.5 -41t-38.5 -106q0 -64 38.5 -104.5t100.5 -40.5t100 40.5t38 104.5zM526 356q0 63 -40.5 102.5t-106.5 39.5h-89v-284h89q66 0 106.5 39.5t40.5 102.5zM619 469h163v29
h-198v-284h198v30h-163v100h153v30h-153v95zM1121 498h-33l-111 -136l-110 136h-32v-284h34v227l102 -124h14l102 124v-227h34v284zM1216 356q0 52 28 84.5t74 32.5t74.5 -33t28.5 -84t-28.5 -83.5t-74.5 -32.5t-74 32.5t-28 83.5zM489 356q0 -50 -29 -81t-78 -31h-58v225
h58q49 0 78 -31.5t29 -81.5z" />
    <glyph glyph-name="Aring" unicode="&#xc5;" 
d="M1627 0v700h-1527v-700h1527zM132 32v636h1463v-636h-1463zM1456 356q0 65 -38 106t-100 41t-100.5 -41t-38.5 -106q0 -64 38.5 -104.5t100.5 -40.5t100 40.5t38 104.5zM526 356q0 63 -40.5 102.5t-106.5 39.5h-89v-284h89q66 0 106.5 39.5t40.5 102.5zM619 469h163v29
h-198v-284h198v30h-163v100h153v30h-153v95zM1121 498h-33l-111 -136l-110 136h-32v-284h34v227l102 -124h14l102 124v-227h34v284zM1216 356q0 52 28 84.5t74 32.5t74.5 -33t28.5 -84t-28.5 -83.5t-74.5 -32.5t-74 32.5t-28 83.5zM489 356q0 -50 -29 -81t-78 -31h-58v225
h58q49 0 78 -31.5t29 -81.5z" />
    <glyph glyph-name="AE" unicode="&#xc6;" horiz-adv-x="1142" 
d="M1086 579h-376v-161h352v-117h-352v-180h376v-121h-533v149h-245l-87 -149h-190l450 700h605v-121zM377 267h176v300z" />
    <glyph glyph-name="Ccedilla" unicode="&#xc7;" 
d="M1627 0v700h-1527v-700h1527zM132 32v636h1463v-636h-1463zM1456 356q0 65 -38 106t-100 41t-100.5 -41t-38.5 -106q0 -64 38.5 -104.5t100.5 -40.5t100 40.5t38 104.5zM526 356q0 63 -40.5 102.5t-106.5 39.5h-89v-284h89q66 0 106.5 39.5t40.5 102.5zM619 469h163v29
h-198v-284h198v30h-163v100h153v30h-153v95zM1121 498h-33l-111 -136l-110 136h-32v-284h34v227l102 -124h14l102 124v-227h34v284zM1216 356q0 52 28 84.5t74 32.5t74.5 -33t28.5 -84t-28.5 -83.5t-74.5 -32.5t-74 32.5t-28 83.5zM489 356q0 -50 -29 -81t-78 -31h-58v225
h58q49 0 78 -31.5t29 -81.5z" />
    <glyph glyph-name="Egrave" unicode="&#xc8;" 
d="M1627 0v700h-1527v-700h1527zM132 32v636h1463v-636h-1463zM1456 356q0 65 -38 106t-100 41t-100.5 -41t-38.5 -106q0 -64 38.5 -104.5t100.5 -40.5t100 40.5t38 104.5zM526 356q0 63 -40.5 102.5t-106.5 39.5h-89v-284h89q66 0 106.5 39.5t40.5 102.5zM619 469h163v29
h-198v-284h198v30h-163v100h153v30h-153v95zM1121 498h-33l-111 -136l-110 136h-32v-284h34v227l102 -124h14l102 124v-227h34v284zM1216 356q0 52 28 84.5t74 32.5t74.5 -33t28.5 -84t-28.5 -83.5t-74.5 -32.5t-74 32.5t-28 83.5zM489 356q0 -50 -29 -81t-78 -31h-58v225
h58q49 0 78 -31.5t29 -81.5z" />
    <glyph glyph-name="Eacute" unicode="&#xc9;" 
d="M1627 0v700h-1527v-700h1527zM132 32v636h1463v-636h-1463zM1456 356q0 65 -38 106t-100 41t-100.5 -41t-38.5 -106q0 -64 38.5 -104.5t100.5 -40.5t100 40.5t38 104.5zM526 356q0 63 -40.5 102.5t-106.5 39.5h-89v-284h89q66 0 106.5 39.5t40.5 102.5zM619 469h163v29
h-198v-284h198v30h-163v100h153v30h-153v95zM1121 498h-33l-111 -136l-110 136h-32v-284h34v227l102 -124h14l102 124v-227h34v284zM1216 356q0 52 28 84.5t74 32.5t74.5 -33t28.5 -84t-28.5 -83.5t-74.5 -32.5t-74 32.5t-28 83.5zM489 356q0 -50 -29 -81t-78 -31h-58v225
h58q49 0 78 -31.5t29 -81.5z" />
    <glyph glyph-name="Ecircumflex" unicode="&#xca;" 
d="M1627 0v700h-1527v-700h1527zM132 32v636h1463v-636h-1463zM1456 356q0 65 -38 106t-100 41t-100.5 -41t-38.5 -106q0 -64 38.5 -104.5t100.5 -40.5t100 40.5t38 104.5zM526 356q0 63 -40.5 102.5t-106.5 39.5h-89v-284h89q66 0 106.5 39.5t40.5 102.5zM619 469h163v29
h-198v-284h198v30h-163v100h153v30h-153v95zM1121 498h-33l-111 -136l-110 136h-32v-284h34v227l102 -124h14l102 124v-227h34v284zM1216 356q0 52 28 84.5t74 32.5t74.5 -33t28.5 -84t-28.5 -83.5t-74.5 -32.5t-74 32.5t-28 83.5zM489 356q0 -50 -29 -81t-78 -31h-58v225
h58q49 0 78 -31.5t29 -81.5z" />
    <glyph glyph-name="Edieresis" unicode="&#xcb;" 
d="M1627 0v700h-1527v-700h1527zM132 32v636h1463v-636h-1463zM1456 356q0 65 -38 106t-100 41t-100.5 -41t-38.5 -106q0 -64 38.5 -104.5t100.5 -40.5t100 40.5t38 104.5zM526 356q0 63 -40.5 102.5t-106.5 39.5h-89v-284h89q66 0 106.5 39.5t40.5 102.5zM619 469h163v29
h-198v-284h198v30h-163v100h153v30h-153v95zM1121 498h-33l-111 -136l-110 136h-32v-284h34v227l102 -124h14l102 124v-227h34v284zM1216 356q0 52 28 84.5t74 32.5t74.5 -33t28.5 -84t-28.5 -83.5t-74.5 -32.5t-74 32.5t-28 83.5zM489 356q0 -50 -29 -81t-78 -31h-58v225
h58q49 0 78 -31.5t29 -81.5z" />
    <glyph glyph-name="Igrave" unicode="&#xcc;" 
d="M1627 0v700h-1527v-700h1527zM132 32v636h1463v-636h-1463zM1456 356q0 65 -38 106t-100 41t-100.5 -41t-38.5 -106q0 -64 38.5 -104.5t100.5 -40.5t100 40.5t38 104.5zM526 356q0 63 -40.5 102.5t-106.5 39.5h-89v-284h89q66 0 106.5 39.5t40.5 102.5zM619 469h163v29
h-198v-284h198v30h-163v100h153v30h-153v95zM1121 498h-33l-111 -136l-110 136h-32v-284h34v227l102 -124h14l102 124v-227h34v284zM1216 356q0 52 28 84.5t74 32.5t74.5 -33t28.5 -84t-28.5 -83.5t-74.5 -32.5t-74 32.5t-28 83.5zM489 356q0 -50 -29 -81t-78 -31h-58v225
h58q49 0 78 -31.5t29 -81.5z" />
    <glyph glyph-name="Iacute" unicode="&#xcd;" 
d="M1627 0v700h-1527v-700h1527zM132 32v636h1463v-636h-1463zM1456 356q0 65 -38 106t-100 41t-100.5 -41t-38.5 -106q0 -64 38.5 -104.5t100.5 -40.5t100 40.5t38 104.5zM526 356q0 63 -40.5 102.5t-106.5 39.5h-89v-284h89q66 0 106.5 39.5t40.5 102.5zM619 469h163v29
h-198v-284h198v30h-163v100h153v30h-153v95zM1121 498h-33l-111 -136l-110 136h-32v-284h34v227l102 -124h14l102 124v-227h34v284zM1216 356q0 52 28 84.5t74 32.5t74.5 -33t28.5 -84t-28.5 -83.5t-74.5 -32.5t-74 32.5t-28 83.5zM489 356q0 -50 -29 -81t-78 -31h-58v225
h58q49 0 78 -31.5t29 -81.5z" />
    <glyph glyph-name="Icircumflex" unicode="&#xce;" 
d="M1627 0v700h-1527v-700h1527zM132 32v636h1463v-636h-1463zM1456 356q0 65 -38 106t-100 41t-100.5 -41t-38.5 -106q0 -64 38.5 -104.5t100.5 -40.5t100 40.5t38 104.5zM526 356q0 63 -40.5 102.5t-106.5 39.5h-89v-284h89q66 0 106.5 39.5t40.5 102.5zM619 469h163v29
h-198v-284h198v30h-163v100h153v30h-153v95zM1121 498h-33l-111 -136l-110 136h-32v-284h34v227l102 -124h14l102 124v-227h34v284zM1216 356q0 52 28 84.5t74 32.5t74.5 -33t28.5 -84t-28.5 -83.5t-74.5 -32.5t-74 32.5t-28 83.5zM489 356q0 -50 -29 -81t-78 -31h-58v225
h58q49 0 78 -31.5t29 -81.5z" />
    <glyph glyph-name="Idieresis" unicode="&#xcf;" 
d="M1627 0v700h-1527v-700h1527zM132 32v636h1463v-636h-1463zM1456 356q0 65 -38 106t-100 41t-100.5 -41t-38.5 -106q0 -64 38.5 -104.5t100.5 -40.5t100 40.5t38 104.5zM526 356q0 63 -40.5 102.5t-106.5 39.5h-89v-284h89q66 0 106.5 39.5t40.5 102.5zM619 469h163v29
h-198v-284h198v30h-163v100h153v30h-153v95zM1121 498h-33l-111 -136l-110 136h-32v-284h34v227l102 -124h14l102 124v-227h34v284zM1216 356q0 52 28 84.5t74 32.5t74.5 -33t28.5 -84t-28.5 -83.5t-74.5 -32.5t-74 32.5t-28 83.5zM489 356q0 -50 -29 -81t-78 -31h-58v225
h58q49 0 78 -31.5t29 -81.5z" />
    <glyph glyph-name="Eth" unicode="&#xd0;" 
d="M1627 0v700h-1527v-700h1527zM132 32v636h1463v-636h-1463zM1456 356q0 65 -38 106t-100 41t-100.5 -41t-38.5 -106q0 -64 38.5 -104.5t100.5 -40.5t100 40.5t38 104.5zM526 356q0 63 -40.5 102.5t-106.5 39.5h-89v-284h89q66 0 106.5 39.5t40.5 102.5zM619 469h163v29
h-198v-284h198v30h-163v100h153v30h-153v95zM1121 498h-33l-111 -136l-110 136h-32v-284h34v227l102 -124h14l102 124v-227h34v284zM1216 356q0 52 28 84.5t74 32.5t74.5 -33t28.5 -84t-28.5 -83.5t-74.5 -32.5t-74 32.5t-28 83.5zM489 356q0 -50 -29 -81t-78 -31h-58v225
h58q49 0 78 -31.5t29 -81.5z" />
    <glyph glyph-name="Ntilde" unicode="&#xd1;" 
d="M1627 0v700h-1527v-700h1527zM132 32v636h1463v-636h-1463zM1456 356q0 65 -38 106t-100 41t-100.5 -41t-38.5 -106q0 -64 38.5 -104.5t100.5 -40.5t100 40.5t38 104.5zM526 356q0 63 -40.5 102.5t-106.5 39.5h-89v-284h89q66 0 106.5 39.5t40.5 102.5zM619 469h163v29
h-198v-284h198v30h-163v100h153v30h-153v95zM1121 498h-33l-111 -136l-110 136h-32v-284h34v227l102 -124h14l102 124v-227h34v284zM1216 356q0 52 28 84.5t74 32.5t74.5 -33t28.5 -84t-28.5 -83.5t-74.5 -32.5t-74 32.5t-28 83.5zM489 356q0 -50 -29 -81t-78 -31h-58v225
h58q49 0 78 -31.5t29 -81.5z" />
    <glyph glyph-name="Ograve" unicode="&#xd2;" 
d="M1627 0v700h-1527v-700h1527zM132 32v636h1463v-636h-1463zM1456 356q0 65 -38 106t-100 41t-100.5 -41t-38.5 -106q0 -64 38.5 -104.5t100.5 -40.5t100 40.5t38 104.5zM526 356q0 63 -40.5 102.5t-106.5 39.5h-89v-284h89q66 0 106.5 39.5t40.5 102.5zM619 469h163v29
h-198v-284h198v30h-163v100h153v30h-153v95zM1121 498h-33l-111 -136l-110 136h-32v-284h34v227l102 -124h14l102 124v-227h34v284zM1216 356q0 52 28 84.5t74 32.5t74.5 -33t28.5 -84t-28.5 -83.5t-74.5 -32.5t-74 32.5t-28 83.5zM489 356q0 -50 -29 -81t-78 -31h-58v225
h58q49 0 78 -31.5t29 -81.5z" />
    <glyph glyph-name="Oacute" unicode="&#xd3;" 
d="M1627 0v700h-1527v-700h1527zM132 32v636h1463v-636h-1463zM1456 356q0 65 -38 106t-100 41t-100.5 -41t-38.5 -106q0 -64 38.5 -104.5t100.5 -40.5t100 40.5t38 104.5zM526 356q0 63 -40.5 102.5t-106.5 39.5h-89v-284h89q66 0 106.5 39.5t40.5 102.5zM619 469h163v29
h-198v-284h198v30h-163v100h153v30h-153v95zM1121 498h-33l-111 -136l-110 136h-32v-284h34v227l102 -124h14l102 124v-227h34v284zM1216 356q0 52 28 84.5t74 32.5t74.5 -33t28.5 -84t-28.5 -83.5t-74.5 -32.5t-74 32.5t-28 83.5zM489 356q0 -50 -29 -81t-78 -31h-58v225
h58q49 0 78 -31.5t29 -81.5z" />
    <glyph glyph-name="Ocircumflex" unicode="&#xd4;" 
d="M1627 0v700h-1527v-700h1527zM132 32v636h1463v-636h-1463zM1456 356q0 65 -38 106t-100 41t-100.5 -41t-38.5 -106q0 -64 38.5 -104.5t100.5 -40.5t100 40.5t38 104.5zM526 356q0 63 -40.5 102.5t-106.5 39.5h-89v-284h89q66 0 106.5 39.5t40.5 102.5zM619 469h163v29
h-198v-284h198v30h-163v100h153v30h-153v95zM1121 498h-33l-111 -136l-110 136h-32v-284h34v227l102 -124h14l102 124v-227h34v284zM1216 356q0 52 28 84.5t74 32.5t74.5 -33t28.5 -84t-28.5 -83.5t-74.5 -32.5t-74 32.5t-28 83.5zM489 356q0 -50 -29 -81t-78 -31h-58v225
h58q49 0 78 -31.5t29 -81.5z" />
    <glyph glyph-name="Otilde" unicode="&#xd5;" 
d="M1627 0v700h-1527v-700h1527zM132 32v636h1463v-636h-1463zM1456 356q0 65 -38 106t-100 41t-100.5 -41t-38.5 -106q0 -64 38.5 -104.5t100.5 -40.5t100 40.5t38 104.5zM526 356q0 63 -40.5 102.5t-106.5 39.5h-89v-284h89q66 0 106.5 39.5t40.5 102.5zM619 469h163v29
h-198v-284h198v30h-163v100h153v30h-153v95zM1121 498h-33l-111 -136l-110 136h-32v-284h34v227l102 -124h14l102 124v-227h34v284zM1216 356q0 52 28 84.5t74 32.5t74.5 -33t28.5 -84t-28.5 -83.5t-74.5 -32.5t-74 32.5t-28 83.5zM489 356q0 -50 -29 -81t-78 -31h-58v225
h58q49 0 78 -31.5t29 -81.5z" />
    <glyph glyph-name="Odieresis" unicode="&#xd6;" 
d="M1627 0v700h-1527v-700h1527zM132 32v636h1463v-636h-1463zM1456 356q0 65 -38 106t-100 41t-100.5 -41t-38.5 -106q0 -64 38.5 -104.5t100.5 -40.5t100 40.5t38 104.5zM526 356q0 63 -40.5 102.5t-106.5 39.5h-89v-284h89q66 0 106.5 39.5t40.5 102.5zM619 469h163v29
h-198v-284h198v30h-163v100h153v30h-153v95zM1121 498h-33l-111 -136l-110 136h-32v-284h34v227l102 -124h14l102 124v-227h34v284zM1216 356q0 52 28 84.5t74 32.5t74.5 -33t28.5 -84t-28.5 -83.5t-74.5 -32.5t-74 32.5t-28 83.5zM489 356q0 -50 -29 -81t-78 -31h-58v225
h58q49 0 78 -31.5t29 -81.5z" />
    <glyph glyph-name="multiply" unicode="&#xd7;" 
d="M1627 0v700h-1527v-700h1527zM132 32v636h1463v-636h-1463zM1456 356q0 65 -38 106t-100 41t-100.5 -41t-38.5 -106q0 -64 38.5 -104.5t100.5 -40.5t100 40.5t38 104.5zM526 356q0 63 -40.5 102.5t-106.5 39.5h-89v-284h89q66 0 106.5 39.5t40.5 102.5zM619 469h163v29
h-198v-284h198v30h-163v100h153v30h-153v95zM1121 498h-33l-111 -136l-110 136h-32v-284h34v227l102 -124h14l102 124v-227h34v284zM1216 356q0 52 28 84.5t74 32.5t74.5 -33t28.5 -84t-28.5 -83.5t-74.5 -32.5t-74 32.5t-28 83.5zM489 356q0 -50 -29 -81t-78 -31h-58v225
h58q49 0 78 -31.5t29 -81.5z" />
    <glyph glyph-name="Oslash" unicode="&#xd8;" 
d="M1627 0v700h-1527v-700h1527zM132 32v636h1463v-636h-1463zM1456 356q0 65 -38 106t-100 41t-100.5 -41t-38.5 -106q0 -64 38.5 -104.5t100.5 -40.5t100 40.5t38 104.5zM526 356q0 63 -40.5 102.5t-106.5 39.5h-89v-284h89q66 0 106.5 39.5t40.5 102.5zM619 469h163v29
h-198v-284h198v30h-163v100h153v30h-153v95zM1121 498h-33l-111 -136l-110 136h-32v-284h34v227l102 -124h14l102 124v-227h34v284zM1216 356q0 52 28 84.5t74 32.5t74.5 -33t28.5 -84t-28.5 -83.5t-74.5 -32.5t-74 32.5t-28 83.5zM489 356q0 -50 -29 -81t-78 -31h-58v225
h58q49 0 78 -31.5t29 -81.5z" />
    <glyph glyph-name="Ugrave" unicode="&#xd9;" 
d="M1627 0v700h-1527v-700h1527zM132 32v636h1463v-636h-1463zM1456 356q0 65 -38 106t-100 41t-100.5 -41t-38.5 -106q0 -64 38.5 -104.5t100.5 -40.5t100 40.5t38 104.5zM526 356q0 63 -40.5 102.5t-106.5 39.5h-89v-284h89q66 0 106.5 39.5t40.5 102.5zM619 469h163v29
h-198v-284h198v30h-163v100h153v30h-153v95zM1121 498h-33l-111 -136l-110 136h-32v-284h34v227l102 -124h14l102 124v-227h34v284zM1216 356q0 52 28 84.5t74 32.5t74.5 -33t28.5 -84t-28.5 -83.5t-74.5 -32.5t-74 32.5t-28 83.5zM489 356q0 -50 -29 -81t-78 -31h-58v225
h58q49 0 78 -31.5t29 -81.5z" />
    <glyph glyph-name="Uacute" unicode="&#xda;" 
d="M1627 0v700h-1527v-700h1527zM132 32v636h1463v-636h-1463zM1456 356q0 65 -38 106t-100 41t-100.5 -41t-38.5 -106q0 -64 38.5 -104.5t100.5 -40.5t100 40.5t38 104.5zM526 356q0 63 -40.5 102.5t-106.5 39.5h-89v-284h89q66 0 106.5 39.5t40.5 102.5zM619 469h163v29
h-198v-284h198v30h-163v100h153v30h-153v95zM1121 498h-33l-111 -136l-110 136h-32v-284h34v227l102 -124h14l102 124v-227h34v284zM1216 356q0 52 28 84.5t74 32.5t74.5 -33t28.5 -84t-28.5 -83.5t-74.5 -32.5t-74 32.5t-28 83.5zM489 356q0 -50 -29 -81t-78 -31h-58v225
h58q49 0 78 -31.5t29 -81.5z" />
    <glyph glyph-name="Ucircumflex" unicode="&#xdb;" 
d="M1627 0v700h-1527v-700h1527zM132 32v636h1463v-636h-1463zM1456 356q0 65 -38 106t-100 41t-100.5 -41t-38.5 -106q0 -64 38.5 -104.5t100.5 -40.5t100 40.5t38 104.5zM526 356q0 63 -40.5 102.5t-106.5 39.5h-89v-284h89q66 0 106.5 39.5t40.5 102.5zM619 469h163v29
h-198v-284h198v30h-163v100h153v30h-153v95zM1121 498h-33l-111 -136l-110 136h-32v-284h34v227l102 -124h14l102 124v-227h34v284zM1216 356q0 52 28 84.5t74 32.5t74.5 -33t28.5 -84t-28.5 -83.5t-74.5 -32.5t-74 32.5t-28 83.5zM489 356q0 -50 -29 -81t-78 -31h-58v225
h58q49 0 78 -31.5t29 -81.5z" />
    <glyph glyph-name="Udieresis" unicode="&#xdc;" 
d="M1627 0v700h-1527v-700h1527zM132 32v636h1463v-636h-1463zM1456 356q0 65 -38 106t-100 41t-100.5 -41t-38.5 -106q0 -64 38.5 -104.5t100.5 -40.5t100 40.5t38 104.5zM526 356q0 63 -40.5 102.5t-106.5 39.5h-89v-284h89q66 0 106.5 39.5t40.5 102.5zM619 469h163v29
h-198v-284h198v30h-163v100h153v30h-153v95zM1121 498h-33l-111 -136l-110 136h-32v-284h34v227l102 -124h14l102 124v-227h34v284zM1216 356q0 52 28 84.5t74 32.5t74.5 -33t28.5 -84t-28.5 -83.5t-74.5 -32.5t-74 32.5t-28 83.5zM489 356q0 -50 -29 -81t-78 -31h-58v225
h58q49 0 78 -31.5t29 -81.5z" />
    <glyph glyph-name="Yacute" unicode="&#xdd;" 
d="M1627 0v700h-1527v-700h1527zM132 32v636h1463v-636h-1463zM1456 356q0 65 -38 106t-100 41t-100.5 -41t-38.5 -106q0 -64 38.5 -104.5t100.5 -40.5t100 40.5t38 104.5zM526 356q0 63 -40.5 102.5t-106.5 39.5h-89v-284h89q66 0 106.5 39.5t40.5 102.5zM619 469h163v29
h-198v-284h198v30h-163v100h153v30h-153v95zM1121 498h-33l-111 -136l-110 136h-32v-284h34v227l102 -124h14l102 124v-227h34v284zM1216 356q0 52 28 84.5t74 32.5t74.5 -33t28.5 -84t-28.5 -83.5t-74.5 -32.5t-74 32.5t-28 83.5zM489 356q0 -50 -29 -81t-78 -31h-58v225
h58q49 0 78 -31.5t29 -81.5z" />
    <glyph glyph-name="Thorn" unicode="&#xde;" horiz-adv-x="718" 
d="M443 576q109 0 176.5 -61.5t67.5 -157.5t-67.5 -158.5t-176.5 -62.5h-198v-136h-157v700h157v-124h198zM419 254q52 0 83 30t31 73q0 42 -31 71.5t-83 29.5h-174v-204h174z" />
    <glyph glyph-name="germandbls" unicode="&#xdf;" horiz-adv-x="642" 
d="M416 381q87 -14 139 -62t52 -127q0 -87 -64 -144.5t-172 -57.5q-51 0 -105 13l1 123q46 -23 84 -23q53 0 84 29t31 72q0 53 -46.5 85t-124.5 35v101q62 7 95.5 32.5t33.5 65.5q0 39 -27 63.5t-74 24.5q-54 0 -83.5 -33t-29.5 -94v-484h-141v508q0 98 70 155.5t183 57.5
q103 0 169 -52.5t66 -130.5q0 -57 -38.5 -98t-102.5 -59z" />
    <glyph glyph-name="agrave" unicode="&#xe0;" 
d="M1627 0v700h-1527v-700h1527zM132 32v636h1463v-636h-1463zM1456 356q0 65 -38 106t-100 41t-100.5 -41t-38.5 -106q0 -64 38.5 -104.5t100.5 -40.5t100 40.5t38 104.5zM526 356q0 63 -40.5 102.5t-106.5 39.5h-89v-284h89q66 0 106.5 39.5t40.5 102.5zM619 469h163v29
h-198v-284h198v30h-163v100h153v30h-153v95zM1121 498h-33l-111 -136l-110 136h-32v-284h34v227l102 -124h14l102 124v-227h34v284zM1216 356q0 52 28 84.5t74 32.5t74.5 -33t28.5 -84t-28.5 -83.5t-74.5 -32.5t-74 32.5t-28 83.5zM489 356q0 -50 -29 -81t-78 -31h-58v225
h58q49 0 78 -31.5t29 -81.5z" />
    <glyph glyph-name="aacute" unicode="&#xe1;" 
d="M1627 0v700h-1527v-700h1527zM132 32v636h1463v-636h-1463zM1456 356q0 65 -38 106t-100 41t-100.5 -41t-38.5 -106q0 -64 38.5 -104.5t100.5 -40.5t100 40.5t38 104.5zM526 356q0 63 -40.5 102.5t-106.5 39.5h-89v-284h89q66 0 106.5 39.5t40.5 102.5zM619 469h163v29
h-198v-284h198v30h-163v100h153v30h-153v95zM1121 498h-33l-111 -136l-110 136h-32v-284h34v227l102 -124h14l102 124v-227h34v284zM1216 356q0 52 28 84.5t74 32.5t74.5 -33t28.5 -84t-28.5 -83.5t-74.5 -32.5t-74 32.5t-28 83.5zM489 356q0 -50 -29 -81t-78 -31h-58v225
h58q49 0 78 -31.5t29 -81.5z" />
    <glyph glyph-name="acircumflex" unicode="&#xe2;" 
d="M1627 0v700h-1527v-700h1527zM132 32v636h1463v-636h-1463zM1456 356q0 65 -38 106t-100 41t-100.5 -41t-38.5 -106q0 -64 38.5 -104.5t100.5 -40.5t100 40.5t38 104.5zM526 356q0 63 -40.5 102.5t-106.5 39.5h-89v-284h89q66 0 106.5 39.5t40.5 102.5zM619 469h163v29
h-198v-284h198v30h-163v100h153v30h-153v95zM1121 498h-33l-111 -136l-110 136h-32v-284h34v227l102 -124h14l102 124v-227h34v284zM1216 356q0 52 28 84.5t74 32.5t74.5 -33t28.5 -84t-28.5 -83.5t-74.5 -32.5t-74 32.5t-28 83.5zM489 356q0 -50 -29 -81t-78 -31h-58v225
h58q49 0 78 -31.5t29 -81.5z" />
    <glyph glyph-name="atilde" unicode="&#xe3;" 
d="M1627 0v700h-1527v-700h1527zM132 32v636h1463v-636h-1463zM1456 356q0 65 -38 106t-100 41t-100.5 -41t-38.5 -106q0 -64 38.5 -104.5t100.5 -40.5t100 40.5t38 104.5zM526 356q0 63 -40.5 102.5t-106.5 39.5h-89v-284h89q66 0 106.5 39.5t40.5 102.5zM619 469h163v29
h-198v-284h198v30h-163v100h153v30h-153v95zM1121 498h-33l-111 -136l-110 136h-32v-284h34v227l102 -124h14l102 124v-227h34v284zM1216 356q0 52 28 84.5t74 32.5t74.5 -33t28.5 -84t-28.5 -83.5t-74.5 -32.5t-74 32.5t-28 83.5zM489 356q0 -50 -29 -81t-78 -31h-58v225
h58q49 0 78 -31.5t29 -81.5z" />
    <glyph glyph-name="adieresis" unicode="&#xe4;" 
d="M1627 0v700h-1527v-700h1527zM132 32v636h1463v-636h-1463zM1456 356q0 65 -38 106t-100 41t-100.5 -41t-38.5 -106q0 -64 38.5 -104.5t100.5 -40.5t100 40.5t38 104.5zM526 356q0 63 -40.5 102.5t-106.5 39.5h-89v-284h89q66 0 106.5 39.5t40.5 102.5zM619 469h163v29
h-198v-284h198v30h-163v100h153v30h-153v95zM1121 498h-33l-111 -136l-110 136h-32v-284h34v227l102 -124h14l102 124v-227h34v284zM1216 356q0 52 28 84.5t74 32.5t74.5 -33t28.5 -84t-28.5 -83.5t-74.5 -32.5t-74 32.5t-28 83.5zM489 356q0 -50 -29 -81t-78 -31h-58v225
h58q49 0 78 -31.5t29 -81.5z" />
    <glyph glyph-name="aring" unicode="&#xe5;" 
d="M1627 0v700h-1527v-700h1527zM132 32v636h1463v-636h-1463zM1456 356q0 65 -38 106t-100 41t-100.5 -41t-38.5 -106q0 -64 38.5 -104.5t100.5 -40.5t100 40.5t38 104.5zM526 356q0 63 -40.5 102.5t-106.5 39.5h-89v-284h89q66 0 106.5 39.5t40.5 102.5zM619 469h163v29
h-198v-284h198v30h-163v100h153v30h-153v95zM1121 498h-33l-111 -136l-110 136h-32v-284h34v227l102 -124h14l102 124v-227h34v284zM1216 356q0 52 28 84.5t74 32.5t74.5 -33t28.5 -84t-28.5 -83.5t-74.5 -32.5t-74 32.5t-28 83.5zM489 356q0 -50 -29 -81t-78 -31h-58v225
h58q49 0 78 -31.5t29 -81.5z" />
    <glyph glyph-name="ae" unicode="&#xe6;" horiz-adv-x="892" 
d="M856 225h-352v-7q4 -57 35 -90.5t77 -33.5q71 0 98 69h139q-22 -86 -84 -130t-153 -44q-119 0 -184 81q-69 -81 -204 -81q-90 0 -142 40.5t-52 109.5q0 79 71.5 124.5t208.5 45.5h50v21q0 41 -22 65t-60 24q-40 0 -63.5 -20t-25.5 -55h-137q1 84 63 129.5t163 45.5
q112 0 169 -62q64 62 163 62q111 0 176.5 -73.5t65.5 -190.5v-30zM615 421q-96 0 -110 -112h217q-2 52 -29.5 82t-77.5 30zM245 89q54 0 86.5 30.5t32.5 78.5v27h-53q-134 0 -134 -76q0 -28 18.5 -44t49.5 -16z" />
    <glyph glyph-name="ccedilla" unicode="&#xe7;" 
d="M1627 0v700h-1527v-700h1527zM132 32v636h1463v-636h-1463zM1456 356q0 65 -38 106t-100 41t-100.5 -41t-38.5 -106q0 -64 38.5 -104.5t100.5 -40.5t100 40.5t38 104.5zM526 356q0 63 -40.5 102.5t-106.5 39.5h-89v-284h89q66 0 106.5 39.5t40.5 102.5zM619 469h163v29
h-198v-284h198v30h-163v100h153v30h-153v95zM1121 498h-33l-111 -136l-110 136h-32v-284h34v227l102 -124h14l102 124v-227h34v284zM1216 356q0 52 28 84.5t74 32.5t74.5 -33t28.5 -84t-28.5 -83.5t-74.5 -32.5t-74 32.5t-28 83.5zM489 356q0 -50 -29 -81t-78 -31h-58v225
h58q49 0 78 -31.5t29 -81.5z" />
    <glyph glyph-name="egrave" unicode="&#xe8;" 
d="M1627 0v700h-1527v-700h1527zM132 32v636h1463v-636h-1463zM1456 356q0 65 -38 106t-100 41t-100.5 -41t-38.5 -106q0 -64 38.5 -104.5t100.5 -40.5t100 40.5t38 104.5zM526 356q0 63 -40.5 102.5t-106.5 39.5h-89v-284h89q66 0 106.5 39.5t40.5 102.5zM619 469h163v29
h-198v-284h198v30h-163v100h153v30h-153v95zM1121 498h-33l-111 -136l-110 136h-32v-284h34v227l102 -124h14l102 124v-227h34v284zM1216 356q0 52 28 84.5t74 32.5t74.5 -33t28.5 -84t-28.5 -83.5t-74.5 -32.5t-74 32.5t-28 83.5zM489 356q0 -50 -29 -81t-78 -31h-58v225
h58q49 0 78 -31.5t29 -81.5z" />
    <glyph glyph-name="eacute" unicode="&#xe9;" 
d="M1627 0v700h-1527v-700h1527zM132 32v636h1463v-636h-1463zM1456 356q0 65 -38 106t-100 41t-100.5 -41t-38.5 -106q0 -64 38.5 -104.5t100.5 -40.5t100 40.5t38 104.5zM526 356q0 63 -40.5 102.5t-106.5 39.5h-89v-284h89q66 0 106.5 39.5t40.5 102.5zM619 469h163v29
h-198v-284h198v30h-163v100h153v30h-153v95zM1121 498h-33l-111 -136l-110 136h-32v-284h34v227l102 -124h14l102 124v-227h34v284zM1216 356q0 52 28 84.5t74 32.5t74.5 -33t28.5 -84t-28.5 -83.5t-74.5 -32.5t-74 32.5t-28 83.5zM489 356q0 -50 -29 -81t-78 -31h-58v225
h58q49 0 78 -31.5t29 -81.5z" />
    <glyph glyph-name="ecircumflex" unicode="&#xea;" 
d="M1627 0v700h-1527v-700h1527zM132 32v636h1463v-636h-1463zM1456 356q0 65 -38 106t-100 41t-100.5 -41t-38.5 -106q0 -64 38.5 -104.5t100.5 -40.5t100 40.5t38 104.5zM526 356q0 63 -40.5 102.5t-106.5 39.5h-89v-284h89q66 0 106.5 39.5t40.5 102.5zM619 469h163v29
h-198v-284h198v30h-163v100h153v30h-153v95zM1121 498h-33l-111 -136l-110 136h-32v-284h34v227l102 -124h14l102 124v-227h34v284zM1216 356q0 52 28 84.5t74 32.5t74.5 -33t28.5 -84t-28.5 -83.5t-74.5 -32.5t-74 32.5t-28 83.5zM489 356q0 -50 -29 -81t-78 -31h-58v225
h58q49 0 78 -31.5t29 -81.5z" />
    <glyph glyph-name="edieresis" unicode="&#xeb;" 
d="M1627 0v700h-1527v-700h1527zM132 32v636h1463v-636h-1463zM1456 356q0 65 -38 106t-100 41t-100.5 -41t-38.5 -106q0 -64 38.5 -104.5t100.5 -40.5t100 40.5t38 104.5zM526 356q0 63 -40.5 102.5t-106.5 39.5h-89v-284h89q66 0 106.5 39.5t40.5 102.5zM619 469h163v29
h-198v-284h198v30h-163v100h153v30h-153v95zM1121 498h-33l-111 -136l-110 136h-32v-284h34v227l102 -124h14l102 124v-227h34v284zM1216 356q0 52 28 84.5t74 32.5t74.5 -33t28.5 -84t-28.5 -83.5t-74.5 -32.5t-74 32.5t-28 83.5zM489 356q0 -50 -29 -81t-78 -31h-58v225
h58q49 0 78 -31.5t29 -81.5z" />
    <glyph glyph-name="igrave" unicode="&#xec;" 
d="M1627 0v700h-1527v-700h1527zM132 32v636h1463v-636h-1463zM1456 356q0 65 -38 106t-100 41t-100.5 -41t-38.5 -106q0 -64 38.5 -104.5t100.5 -40.5t100 40.5t38 104.5zM526 356q0 63 -40.5 102.5t-106.5 39.5h-89v-284h89q66 0 106.5 39.5t40.5 102.5zM619 469h163v29
h-198v-284h198v30h-163v100h153v30h-153v95zM1121 498h-33l-111 -136l-110 136h-32v-284h34v227l102 -124h14l102 124v-227h34v284zM1216 356q0 52 28 84.5t74 32.5t74.5 -33t28.5 -84t-28.5 -83.5t-74.5 -32.5t-74 32.5t-28 83.5zM489 356q0 -50 -29 -81t-78 -31h-58v225
h58q49 0 78 -31.5t29 -81.5z" />
    <glyph glyph-name="iacute" unicode="&#xed;" 
d="M1627 0v700h-1527v-700h1527zM132 32v636h1463v-636h-1463zM1456 356q0 65 -38 106t-100 41t-100.5 -41t-38.5 -106q0 -64 38.5 -104.5t100.5 -40.5t100 40.5t38 104.5zM526 356q0 63 -40.5 102.5t-106.5 39.5h-89v-284h89q66 0 106.5 39.5t40.5 102.5zM619 469h163v29
h-198v-284h198v30h-163v100h153v30h-153v95zM1121 498h-33l-111 -136l-110 136h-32v-284h34v227l102 -124h14l102 124v-227h34v284zM1216 356q0 52 28 84.5t74 32.5t74.5 -33t28.5 -84t-28.5 -83.5t-74.5 -32.5t-74 32.5t-28 83.5zM489 356q0 -50 -29 -81t-78 -31h-58v225
h58q49 0 78 -31.5t29 -81.5z" />
    <glyph glyph-name="icircumflex" unicode="&#xee;" 
d="M1627 0v700h-1527v-700h1527zM132 32v636h1463v-636h-1463zM1456 356q0 65 -38 106t-100 41t-100.5 -41t-38.5 -106q0 -64 38.5 -104.5t100.5 -40.5t100 40.5t38 104.5zM526 356q0 63 -40.5 102.5t-106.5 39.5h-89v-284h89q66 0 106.5 39.5t40.5 102.5zM619 469h163v29
h-198v-284h198v30h-163v100h153v30h-153v95zM1121 498h-33l-111 -136l-110 136h-32v-284h34v227l102 -124h14l102 124v-227h34v284zM1216 356q0 52 28 84.5t74 32.5t74.5 -33t28.5 -84t-28.5 -83.5t-74.5 -32.5t-74 32.5t-28 83.5zM489 356q0 -50 -29 -81t-78 -31h-58v225
h58q49 0 78 -31.5t29 -81.5z" />
    <glyph glyph-name="idieresis" unicode="&#xef;" 
d="M1627 0v700h-1527v-700h1527zM132 32v636h1463v-636h-1463zM1456 356q0 65 -38 106t-100 41t-100.5 -41t-38.5 -106q0 -64 38.5 -104.5t100.5 -40.5t100 40.5t38 104.5zM526 356q0 63 -40.5 102.5t-106.5 39.5h-89v-284h89q66 0 106.5 39.5t40.5 102.5zM619 469h163v29
h-198v-284h198v30h-163v100h153v30h-153v95zM1121 498h-33l-111 -136l-110 136h-32v-284h34v227l102 -124h14l102 124v-227h34v284zM1216 356q0 52 28 84.5t74 32.5t74.5 -33t28.5 -84t-28.5 -83.5t-74.5 -32.5t-74 32.5t-28 83.5zM489 356q0 -50 -29 -81t-78 -31h-58v225
h58q49 0 78 -31.5t29 -81.5z" />
    <glyph glyph-name="eth" unicode="&#xf0;" horiz-adv-x="609" 
d="M366 652q207 -103 207 -366q0 -143 -76 -220t-193 -77q-124 0 -196 71.5t-72 193.5q0 112 64.5 180.5t174.5 68.5q115 0 173 -82q-48 124 -186 159l-117 -80l-34 47l67 47q-43 4 -104 4v111q128 0 226 -31l111 78l35 -49zM304 97q61 0 97 42.5t36 111.5q0 68 -37 110
t-96 42q-60 0 -96 -42t-36 -110q0 -69 36 -111.5t96 -42.5z" />
    <glyph glyph-name="ntilde" unicode="&#xf1;" 
d="M1627 0v700h-1527v-700h1527zM132 32v636h1463v-636h-1463zM1456 356q0 65 -38 106t-100 41t-100.5 -41t-38.5 -106q0 -64 38.5 -104.5t100.5 -40.5t100 40.5t38 104.5zM526 356q0 63 -40.5 102.5t-106.5 39.5h-89v-284h89q66 0 106.5 39.5t40.5 102.5zM619 469h163v29
h-198v-284h198v30h-163v100h153v30h-153v95zM1121 498h-33l-111 -136l-110 136h-32v-284h34v227l102 -124h14l102 124v-227h34v284zM1216 356q0 52 28 84.5t74 32.5t74.5 -33t28.5 -84t-28.5 -83.5t-74.5 -32.5t-74 32.5t-28 83.5zM489 356q0 -50 -29 -81t-78 -31h-58v225
h58q49 0 78 -31.5t29 -81.5z" />
    <glyph glyph-name="ograve" unicode="&#xf2;" 
d="M1627 0v700h-1527v-700h1527zM132 32v636h1463v-636h-1463zM1456 356q0 65 -38 106t-100 41t-100.5 -41t-38.5 -106q0 -64 38.5 -104.5t100.5 -40.5t100 40.5t38 104.5zM526 356q0 63 -40.5 102.5t-106.5 39.5h-89v-284h89q66 0 106.5 39.5t40.5 102.5zM619 469h163v29
h-198v-284h198v30h-163v100h153v30h-153v95zM1121 498h-33l-111 -136l-110 136h-32v-284h34v227l102 -124h14l102 124v-227h34v284zM1216 356q0 52 28 84.5t74 32.5t74.5 -33t28.5 -84t-28.5 -83.5t-74.5 -32.5t-74 32.5t-28 83.5zM489 356q0 -50 -29 -81t-78 -31h-58v225
h58q49 0 78 -31.5t29 -81.5z" />
    <glyph glyph-name="oacute" unicode="&#xf3;" 
d="M1627 0v700h-1527v-700h1527zM132 32v636h1463v-636h-1463zM1456 356q0 65 -38 106t-100 41t-100.5 -41t-38.5 -106q0 -64 38.5 -104.5t100.5 -40.5t100 40.5t38 104.5zM526 356q0 63 -40.5 102.5t-106.5 39.5h-89v-284h89q66 0 106.5 39.5t40.5 102.5zM619 469h163v29
h-198v-284h198v30h-163v100h153v30h-153v95zM1121 498h-33l-111 -136l-110 136h-32v-284h34v227l102 -124h14l102 124v-227h34v284zM1216 356q0 52 28 84.5t74 32.5t74.5 -33t28.5 -84t-28.5 -83.5t-74.5 -32.5t-74 32.5t-28 83.5zM489 356q0 -50 -29 -81t-78 -31h-58v225
h58q49 0 78 -31.5t29 -81.5z" />
    <glyph glyph-name="ocircumflex" unicode="&#xf4;" 
d="M1627 0v700h-1527v-700h1527zM132 32v636h1463v-636h-1463zM1456 356q0 65 -38 106t-100 41t-100.5 -41t-38.5 -106q0 -64 38.5 -104.5t100.5 -40.5t100 40.5t38 104.5zM526 356q0 63 -40.5 102.5t-106.5 39.5h-89v-284h89q66 0 106.5 39.5t40.5 102.5zM619 469h163v29
h-198v-284h198v30h-163v100h153v30h-153v95zM1121 498h-33l-111 -136l-110 136h-32v-284h34v227l102 -124h14l102 124v-227h34v284zM1216 356q0 52 28 84.5t74 32.5t74.5 -33t28.5 -84t-28.5 -83.5t-74.5 -32.5t-74 32.5t-28 83.5zM489 356q0 -50 -29 -81t-78 -31h-58v225
h58q49 0 78 -31.5t29 -81.5z" />
    <glyph glyph-name="otilde" unicode="&#xf5;" 
d="M1627 0v700h-1527v-700h1527zM132 32v636h1463v-636h-1463zM1456 356q0 65 -38 106t-100 41t-100.5 -41t-38.5 -106q0 -64 38.5 -104.5t100.5 -40.5t100 40.5t38 104.5zM526 356q0 63 -40.5 102.5t-106.5 39.5h-89v-284h89q66 0 106.5 39.5t40.5 102.5zM619 469h163v29
h-198v-284h198v30h-163v100h153v30h-153v95zM1121 498h-33l-111 -136l-110 136h-32v-284h34v227l102 -124h14l102 124v-227h34v284zM1216 356q0 52 28 84.5t74 32.5t74.5 -33t28.5 -84t-28.5 -83.5t-74.5 -32.5t-74 32.5t-28 83.5zM489 356q0 -50 -29 -81t-78 -31h-58v225
h58q49 0 78 -31.5t29 -81.5z" />
    <glyph glyph-name="odieresis" unicode="&#xf6;" 
d="M1627 0v700h-1527v-700h1527zM132 32v636h1463v-636h-1463zM1456 356q0 65 -38 106t-100 41t-100.5 -41t-38.5 -106q0 -64 38.5 -104.5t100.5 -40.5t100 40.5t38 104.5zM526 356q0 63 -40.5 102.5t-106.5 39.5h-89v-284h89q66 0 106.5 39.5t40.5 102.5zM619 469h163v29
h-198v-284h198v30h-163v100h153v30h-153v95zM1121 498h-33l-111 -136l-110 136h-32v-284h34v227l102 -124h14l102 124v-227h34v284zM1216 356q0 52 28 84.5t74 32.5t74.5 -33t28.5 -84t-28.5 -83.5t-74.5 -32.5t-74 32.5t-28 83.5zM489 356q0 -50 -29 -81t-78 -31h-58v225
h58q49 0 78 -31.5t29 -81.5z" />
    <glyph glyph-name="divide" unicode="&#xf7;" 
d="M1627 0v700h-1527v-700h1527zM132 32v636h1463v-636h-1463zM1456 356q0 65 -38 106t-100 41t-100.5 -41t-38.5 -106q0 -64 38.5 -104.5t100.5 -40.5t100 40.5t38 104.5zM526 356q0 63 -40.5 102.5t-106.5 39.5h-89v-284h89q66 0 106.5 39.5t40.5 102.5zM619 469h163v29
h-198v-284h198v30h-163v100h153v30h-153v95zM1121 498h-33l-111 -136l-110 136h-32v-284h34v227l102 -124h14l102 124v-227h34v284zM1216 356q0 52 28 84.5t74 32.5t74.5 -33t28.5 -84t-28.5 -83.5t-74.5 -32.5t-74 32.5t-28 83.5zM489 356q0 -50 -29 -81t-78 -31h-58v225
h58q49 0 78 -31.5t29 -81.5z" />
    <glyph glyph-name="oslash" unicode="&#xf8;" 
d="M1627 0v700h-1527v-700h1527zM132 32v636h1463v-636h-1463zM1456 356q0 65 -38 106t-100 41t-100.5 -41t-38.5 -106q0 -64 38.5 -104.5t100.5 -40.5t100 40.5t38 104.5zM526 356q0 63 -40.5 102.5t-106.5 39.5h-89v-284h89q66 0 106.5 39.5t40.5 102.5zM619 469h163v29
h-198v-284h198v30h-163v100h153v30h-153v95zM1121 498h-33l-111 -136l-110 136h-32v-284h34v227l102 -124h14l102 124v-227h34v284zM1216 356q0 52 28 84.5t74 32.5t74.5 -33t28.5 -84t-28.5 -83.5t-74.5 -32.5t-74 32.5t-28 83.5zM489 356q0 -50 -29 -81t-78 -31h-58v225
h58q49 0 78 -31.5t29 -81.5z" />
    <glyph glyph-name="ugrave" unicode="&#xf9;" 
d="M1627 0v700h-1527v-700h1527zM132 32v636h1463v-636h-1463zM1456 356q0 65 -38 106t-100 41t-100.5 -41t-38.5 -106q0 -64 38.5 -104.5t100.5 -40.5t100 40.5t38 104.5zM526 356q0 63 -40.5 102.5t-106.5 39.5h-89v-284h89q66 0 106.5 39.5t40.5 102.5zM619 469h163v29
h-198v-284h198v30h-163v100h153v30h-153v95zM1121 498h-33l-111 -136l-110 136h-32v-284h34v227l102 -124h14l102 124v-227h34v284zM1216 356q0 52 28 84.5t74 32.5t74.5 -33t28.5 -84t-28.5 -83.5t-74.5 -32.5t-74 32.5t-28 83.5zM489 356q0 -50 -29 -81t-78 -31h-58v225
h58q49 0 78 -31.5t29 -81.5z" />
    <glyph glyph-name="uacute" unicode="&#xfa;" 
d="M1627 0v700h-1527v-700h1527zM132 32v636h1463v-636h-1463zM1456 356q0 65 -38 106t-100 41t-100.5 -41t-38.5 -106q0 -64 38.5 -104.5t100.5 -40.5t100 40.5t38 104.5zM526 356q0 63 -40.5 102.5t-106.5 39.5h-89v-284h89q66 0 106.5 39.5t40.5 102.5zM619 469h163v29
h-198v-284h198v30h-163v100h153v30h-153v95zM1121 498h-33l-111 -136l-110 136h-32v-284h34v227l102 -124h14l102 124v-227h34v284zM1216 356q0 52 28 84.5t74 32.5t74.5 -33t28.5 -84t-28.5 -83.5t-74.5 -32.5t-74 32.5t-28 83.5zM489 356q0 -50 -29 -81t-78 -31h-58v225
h58q49 0 78 -31.5t29 -81.5z" />
    <glyph glyph-name="ucircumflex" unicode="&#xfb;" 
d="M1627 0v700h-1527v-700h1527zM132 32v636h1463v-636h-1463zM1456 356q0 65 -38 106t-100 41t-100.5 -41t-38.5 -106q0 -64 38.5 -104.5t100.5 -40.5t100 40.5t38 104.5zM526 356q0 63 -40.5 102.5t-106.5 39.5h-89v-284h89q66 0 106.5 39.5t40.5 102.5zM619 469h163v29
h-198v-284h198v30h-163v100h153v30h-153v95zM1121 498h-33l-111 -136l-110 136h-32v-284h34v227l102 -124h14l102 124v-227h34v284zM1216 356q0 52 28 84.5t74 32.5t74.5 -33t28.5 -84t-28.5 -83.5t-74.5 -32.5t-74 32.5t-28 83.5zM489 356q0 -50 -29 -81t-78 -31h-58v225
h58q49 0 78 -31.5t29 -81.5z" />
    <glyph glyph-name="udieresis" unicode="&#xfc;" 
d="M1627 0v700h-1527v-700h1527zM132 32v636h1463v-636h-1463zM1456 356q0 65 -38 106t-100 41t-100.5 -41t-38.5 -106q0 -64 38.5 -104.5t100.5 -40.5t100 40.5t38 104.5zM526 356q0 63 -40.5 102.5t-106.5 39.5h-89v-284h89q66 0 106.5 39.5t40.5 102.5zM619 469h163v29
h-198v-284h198v30h-163v100h153v30h-153v95zM1121 498h-33l-111 -136l-110 136h-32v-284h34v227l102 -124h14l102 124v-227h34v284zM1216 356q0 52 28 84.5t74 32.5t74.5 -33t28.5 -84t-28.5 -83.5t-74.5 -32.5t-74 32.5t-28 83.5zM489 356q0 -50 -29 -81t-78 -31h-58v225
h58q49 0 78 -31.5t29 -81.5z" />
    <glyph glyph-name="yacute" unicode="&#xfd;" 
d="M1627 0v700h-1527v-700h1527zM132 32v636h1463v-636h-1463zM1456 356q0 65 -38 106t-100 41t-100.5 -41t-38.5 -106q0 -64 38.5 -104.5t100.5 -40.5t100 40.5t38 104.5zM526 356q0 63 -40.5 102.5t-106.5 39.5h-89v-284h89q66 0 106.5 39.5t40.5 102.5zM619 469h163v29
h-198v-284h198v30h-163v100h153v30h-153v95zM1121 498h-33l-111 -136l-110 136h-32v-284h34v227l102 -124h14l102 124v-227h34v284zM1216 356q0 52 28 84.5t74 32.5t74.5 -33t28.5 -84t-28.5 -83.5t-74.5 -32.5t-74 32.5t-28 83.5zM489 356q0 -50 -29 -81t-78 -31h-58v225
h58q49 0 78 -31.5t29 -81.5z" />
    <glyph glyph-name="thorn" unicode="&#xfe;" horiz-adv-x="639" 
d="M69 -200v900h141v-264h1q20 37 63 60t94 23q108 0 171.5 -74t63.5 -194q0 -117 -63.5 -189.5t-171.5 -72.5q-52 0 -95.5 21.5t-61.5 55.5h-1v-266h-141zM335 102q57 0 93 41t36 108q0 71 -36 113t-93 42q-58 0 -94 -41t-36 -109v-6q1 -67 37 -107.5t93 -40.5z" />
    <glyph glyph-name="ydieresis" unicode="&#xff;" 
d="M1627 0v700h-1527v-700h1527zM132 32v636h1463v-636h-1463zM1456 356q0 65 -38 106t-100 41t-100.5 -41t-38.5 -106q0 -64 38.5 -104.5t100.5 -40.5t100 40.5t38 104.5zM526 356q0 63 -40.5 102.5t-106.5 39.5h-89v-284h89q66 0 106.5 39.5t40.5 102.5zM619 469h163v29
h-198v-284h198v30h-163v100h153v30h-153v95zM1121 498h-33l-111 -136l-110 136h-32v-284h34v227l102 -124h14l102 124v-227h34v284zM1216 356q0 52 28 84.5t74 32.5t74.5 -33t28.5 -84t-28.5 -83.5t-74.5 -32.5t-74 32.5t-28 83.5zM489 356q0 -50 -29 -81t-78 -31h-58v225
h58q49 0 78 -31.5t29 -81.5z" />
    <glyph glyph-name="Amacron" unicode="&#x100;" 
d="M1627 0v700h-1527v-700h1527zM132 32v636h1463v-636h-1463zM1456 356q0 65 -38 106t-100 41t-100.5 -41t-38.5 -106q0 -64 38.5 -104.5t100.5 -40.5t100 40.5t38 104.5zM526 356q0 63 -40.5 102.5t-106.5 39.5h-89v-284h89q66 0 106.5 39.5t40.5 102.5zM619 469h163v29
h-198v-284h198v30h-163v100h153v30h-153v95zM1121 498h-33l-111 -136l-110 136h-32v-284h34v227l102 -124h14l102 124v-227h34v284zM1216 356q0 52 28 84.5t74 32.5t74.5 -33t28.5 -84t-28.5 -83.5t-74.5 -32.5t-74 32.5t-28 83.5zM489 356q0 -50 -29 -81t-78 -31h-58v225
h58q49 0 78 -31.5t29 -81.5z" />
    <glyph glyph-name="amacron" unicode="&#x101;" 
d="M1627 0v700h-1527v-700h1527zM132 32v636h1463v-636h-1463zM1456 356q0 65 -38 106t-100 41t-100.5 -41t-38.5 -106q0 -64 38.5 -104.5t100.5 -40.5t100 40.5t38 104.5zM526 356q0 63 -40.5 102.5t-106.5 39.5h-89v-284h89q66 0 106.5 39.5t40.5 102.5zM619 469h163v29
h-198v-284h198v30h-163v100h153v30h-153v95zM1121 498h-33l-111 -136l-110 136h-32v-284h34v227l102 -124h14l102 124v-227h34v284zM1216 356q0 52 28 84.5t74 32.5t74.5 -33t28.5 -84t-28.5 -83.5t-74.5 -32.5t-74 32.5t-28 83.5zM489 356q0 -50 -29 -81t-78 -31h-58v225
h58q49 0 78 -31.5t29 -81.5z" />
    <glyph glyph-name="Abreve" unicode="&#x102;" 
d="M1627 0v700h-1527v-700h1527zM132 32v636h1463v-636h-1463zM1456 356q0 65 -38 106t-100 41t-100.5 -41t-38.5 -106q0 -64 38.5 -104.5t100.5 -40.5t100 40.5t38 104.5zM526 356q0 63 -40.5 102.5t-106.5 39.5h-89v-284h89q66 0 106.5 39.5t40.5 102.5zM619 469h163v29
h-198v-284h198v30h-163v100h153v30h-153v95zM1121 498h-33l-111 -136l-110 136h-32v-284h34v227l102 -124h14l102 124v-227h34v284zM1216 356q0 52 28 84.5t74 32.5t74.5 -33t28.5 -84t-28.5 -83.5t-74.5 -32.5t-74 32.5t-28 83.5zM489 356q0 -50 -29 -81t-78 -31h-58v225
h58q49 0 78 -31.5t29 -81.5z" />
    <glyph glyph-name="abreve" unicode="&#x103;" 
d="M1627 0v700h-1527v-700h1527zM132 32v636h1463v-636h-1463zM1456 356q0 65 -38 106t-100 41t-100.5 -41t-38.5 -106q0 -64 38.5 -104.5t100.5 -40.5t100 40.5t38 104.5zM526 356q0 63 -40.5 102.5t-106.5 39.5h-89v-284h89q66 0 106.5 39.5t40.5 102.5zM619 469h163v29
h-198v-284h198v30h-163v100h153v30h-153v95zM1121 498h-33l-111 -136l-110 136h-32v-284h34v227l102 -124h14l102 124v-227h34v284zM1216 356q0 52 28 84.5t74 32.5t74.5 -33t28.5 -84t-28.5 -83.5t-74.5 -32.5t-74 32.5t-28 83.5zM489 356q0 -50 -29 -81t-78 -31h-58v225
h58q49 0 78 -31.5t29 -81.5z" />
    <glyph glyph-name="Aogonek" unicode="&#x104;" 
d="M1627 0v700h-1527v-700h1527zM132 32v636h1463v-636h-1463zM1456 356q0 65 -38 106t-100 41t-100.5 -41t-38.5 -106q0 -64 38.5 -104.5t100.5 -40.5t100 40.5t38 104.5zM526 356q0 63 -40.5 102.5t-106.5 39.5h-89v-284h89q66 0 106.5 39.5t40.5 102.5zM619 469h163v29
h-198v-284h198v30h-163v100h153v30h-153v95zM1121 498h-33l-111 -136l-110 136h-32v-284h34v227l102 -124h14l102 124v-227h34v284zM1216 356q0 52 28 84.5t74 32.5t74.5 -33t28.5 -84t-28.5 -83.5t-74.5 -32.5t-74 32.5t-28 83.5zM489 356q0 -50 -29 -81t-78 -31h-58v225
h58q49 0 78 -31.5t29 -81.5z" />
    <glyph glyph-name="aogonek" unicode="&#x105;" 
d="M1627 0v700h-1527v-700h1527zM132 32v636h1463v-636h-1463zM1456 356q0 65 -38 106t-100 41t-100.5 -41t-38.5 -106q0 -64 38.5 -104.5t100.5 -40.5t100 40.5t38 104.5zM526 356q0 63 -40.5 102.5t-106.5 39.5h-89v-284h89q66 0 106.5 39.5t40.5 102.5zM619 469h163v29
h-198v-284h198v30h-163v100h153v30h-153v95zM1121 498h-33l-111 -136l-110 136h-32v-284h34v227l102 -124h14l102 124v-227h34v284zM1216 356q0 52 28 84.5t74 32.5t74.5 -33t28.5 -84t-28.5 -83.5t-74.5 -32.5t-74 32.5t-28 83.5zM489 356q0 -50 -29 -81t-78 -31h-58v225
h58q49 0 78 -31.5t29 -81.5z" />
    <glyph glyph-name="Cacute" unicode="&#x106;" 
d="M1627 0v700h-1527v-700h1527zM132 32v636h1463v-636h-1463zM1456 356q0 65 -38 106t-100 41t-100.5 -41t-38.5 -106q0 -64 38.5 -104.5t100.5 -40.5t100 40.5t38 104.5zM526 356q0 63 -40.5 102.5t-106.5 39.5h-89v-284h89q66 0 106.5 39.5t40.5 102.5zM619 469h163v29
h-198v-284h198v30h-163v100h153v30h-153v95zM1121 498h-33l-111 -136l-110 136h-32v-284h34v227l102 -124h14l102 124v-227h34v284zM1216 356q0 52 28 84.5t74 32.5t74.5 -33t28.5 -84t-28.5 -83.5t-74.5 -32.5t-74 32.5t-28 83.5zM489 356q0 -50 -29 -81t-78 -31h-58v225
h58q49 0 78 -31.5t29 -81.5z" />
    <glyph glyph-name="cacute" unicode="&#x107;" 
d="M1627 0v700h-1527v-700h1527zM132 32v636h1463v-636h-1463zM1456 356q0 65 -38 106t-100 41t-100.5 -41t-38.5 -106q0 -64 38.5 -104.5t100.5 -40.5t100 40.5t38 104.5zM526 356q0 63 -40.5 102.5t-106.5 39.5h-89v-284h89q66 0 106.5 39.5t40.5 102.5zM619 469h163v29
h-198v-284h198v30h-163v100h153v30h-153v95zM1121 498h-33l-111 -136l-110 136h-32v-284h34v227l102 -124h14l102 124v-227h34v284zM1216 356q0 52 28 84.5t74 32.5t74.5 -33t28.5 -84t-28.5 -83.5t-74.5 -32.5t-74 32.5t-28 83.5zM489 356q0 -50 -29 -81t-78 -31h-58v225
h58q49 0 78 -31.5t29 -81.5z" />
    <glyph glyph-name="Cdotaccent" unicode="&#x10a;" 
d="M1627 0v700h-1527v-700h1527zM132 32v636h1463v-636h-1463zM1456 356q0 65 -38 106t-100 41t-100.5 -41t-38.5 -106q0 -64 38.5 -104.5t100.5 -40.5t100 40.5t38 104.5zM526 356q0 63 -40.5 102.5t-106.5 39.5h-89v-284h89q66 0 106.5 39.5t40.5 102.5zM619 469h163v29
h-198v-284h198v30h-163v100h153v30h-153v95zM1121 498h-33l-111 -136l-110 136h-32v-284h34v227l102 -124h14l102 124v-227h34v284zM1216 356q0 52 28 84.5t74 32.5t74.5 -33t28.5 -84t-28.5 -83.5t-74.5 -32.5t-74 32.5t-28 83.5zM489 356q0 -50 -29 -81t-78 -31h-58v225
h58q49 0 78 -31.5t29 -81.5z" />
    <glyph glyph-name="cdotaccent" unicode="&#x10b;" 
d="M1627 0v700h-1527v-700h1527zM132 32v636h1463v-636h-1463zM1456 356q0 65 -38 106t-100 41t-100.5 -41t-38.5 -106q0 -64 38.5 -104.5t100.5 -40.5t100 40.5t38 104.5zM526 356q0 63 -40.5 102.5t-106.5 39.5h-89v-284h89q66 0 106.5 39.5t40.5 102.5zM619 469h163v29
h-198v-284h198v30h-163v100h153v30h-153v95zM1121 498h-33l-111 -136l-110 136h-32v-284h34v227l102 -124h14l102 124v-227h34v284zM1216 356q0 52 28 84.5t74 32.5t74.5 -33t28.5 -84t-28.5 -83.5t-74.5 -32.5t-74 32.5t-28 83.5zM489 356q0 -50 -29 -81t-78 -31h-58v225
h58q49 0 78 -31.5t29 -81.5z" />
    <glyph glyph-name="Ccaron" unicode="&#x10c;" 
d="M1627 0v700h-1527v-700h1527zM132 32v636h1463v-636h-1463zM1456 356q0 65 -38 106t-100 41t-100.5 -41t-38.5 -106q0 -64 38.5 -104.5t100.5 -40.5t100 40.5t38 104.5zM526 356q0 63 -40.5 102.5t-106.5 39.5h-89v-284h89q66 0 106.5 39.5t40.5 102.5zM619 469h163v29
h-198v-284h198v30h-163v100h153v30h-153v95zM1121 498h-33l-111 -136l-110 136h-32v-284h34v227l102 -124h14l102 124v-227h34v284zM1216 356q0 52 28 84.5t74 32.5t74.5 -33t28.5 -84t-28.5 -83.5t-74.5 -32.5t-74 32.5t-28 83.5zM489 356q0 -50 -29 -81t-78 -31h-58v225
h58q49 0 78 -31.5t29 -81.5z" />
    <glyph glyph-name="ccaron" unicode="&#x10d;" 
d="M1627 0v700h-1527v-700h1527zM132 32v636h1463v-636h-1463zM1456 356q0 65 -38 106t-100 41t-100.5 -41t-38.5 -106q0 -64 38.5 -104.5t100.5 -40.5t100 40.5t38 104.5zM526 356q0 63 -40.5 102.5t-106.5 39.5h-89v-284h89q66 0 106.5 39.5t40.5 102.5zM619 469h163v29
h-198v-284h198v30h-163v100h153v30h-153v95zM1121 498h-33l-111 -136l-110 136h-32v-284h34v227l102 -124h14l102 124v-227h34v284zM1216 356q0 52 28 84.5t74 32.5t74.5 -33t28.5 -84t-28.5 -83.5t-74.5 -32.5t-74 32.5t-28 83.5zM489 356q0 -50 -29 -81t-78 -31h-58v225
h58q49 0 78 -31.5t29 -81.5z" />
    <glyph glyph-name="Dcaron" unicode="&#x10e;" 
d="M1627 0v700h-1527v-700h1527zM132 32v636h1463v-636h-1463zM1456 356q0 65 -38 106t-100 41t-100.5 -41t-38.5 -106q0 -64 38.5 -104.5t100.5 -40.5t100 40.5t38 104.5zM526 356q0 63 -40.5 102.5t-106.5 39.5h-89v-284h89q66 0 106.5 39.5t40.5 102.5zM619 469h163v29
h-198v-284h198v30h-163v100h153v30h-153v95zM1121 498h-33l-111 -136l-110 136h-32v-284h34v227l102 -124h14l102 124v-227h34v284zM1216 356q0 52 28 84.5t74 32.5t74.5 -33t28.5 -84t-28.5 -83.5t-74.5 -32.5t-74 32.5t-28 83.5zM489 356q0 -50 -29 -81t-78 -31h-58v225
h58q49 0 78 -31.5t29 -81.5z" />
    <glyph glyph-name="dcaron" unicode="&#x10f;" 
d="M1627 0v700h-1527v-700h1527zM132 32v636h1463v-636h-1463zM1456 356q0 65 -38 106t-100 41t-100.5 -41t-38.5 -106q0 -64 38.5 -104.5t100.5 -40.5t100 40.5t38 104.5zM526 356q0 63 -40.5 102.5t-106.5 39.5h-89v-284h89q66 0 106.5 39.5t40.5 102.5zM619 469h163v29
h-198v-284h198v30h-163v100h153v30h-153v95zM1121 498h-33l-111 -136l-110 136h-32v-284h34v227l102 -124h14l102 124v-227h34v284zM1216 356q0 52 28 84.5t74 32.5t74.5 -33t28.5 -84t-28.5 -83.5t-74.5 -32.5t-74 32.5t-28 83.5zM489 356q0 -50 -29 -81t-78 -31h-58v225
h58q49 0 78 -31.5t29 -81.5z" />
    <glyph glyph-name="Dcroat" unicode="&#x110;" 
d="M1627 0v700h-1527v-700h1527zM132 32v636h1463v-636h-1463zM1456 356q0 65 -38 106t-100 41t-100.5 -41t-38.5 -106q0 -64 38.5 -104.5t100.5 -40.5t100 40.5t38 104.5zM526 356q0 63 -40.5 102.5t-106.5 39.5h-89v-284h89q66 0 106.5 39.5t40.5 102.5zM619 469h163v29
h-198v-284h198v30h-163v100h153v30h-153v95zM1121 498h-33l-111 -136l-110 136h-32v-284h34v227l102 -124h14l102 124v-227h34v284zM1216 356q0 52 28 84.5t74 32.5t74.5 -33t28.5 -84t-28.5 -83.5t-74.5 -32.5t-74 32.5t-28 83.5zM489 356q0 -50 -29 -81t-78 -31h-58v225
h58q49 0 78 -31.5t29 -81.5z" />
    <glyph glyph-name="dcroat" unicode="&#x111;" 
d="M1627 0v700h-1527v-700h1527zM132 32v636h1463v-636h-1463zM1456 356q0 65 -38 106t-100 41t-100.5 -41t-38.5 -106q0 -64 38.5 -104.5t100.5 -40.5t100 40.5t38 104.5zM526 356q0 63 -40.5 102.5t-106.5 39.5h-89v-284h89q66 0 106.5 39.5t40.5 102.5zM619 469h163v29
h-198v-284h198v30h-163v100h153v30h-153v95zM1121 498h-33l-111 -136l-110 136h-32v-284h34v227l102 -124h14l102 124v-227h34v284zM1216 356q0 52 28 84.5t74 32.5t74.5 -33t28.5 -84t-28.5 -83.5t-74.5 -32.5t-74 32.5t-28 83.5zM489 356q0 -50 -29 -81t-78 -31h-58v225
h58q49 0 78 -31.5t29 -81.5z" />
    <glyph glyph-name="Emacron" unicode="&#x112;" 
d="M1627 0v700h-1527v-700h1527zM132 32v636h1463v-636h-1463zM1456 356q0 65 -38 106t-100 41t-100.5 -41t-38.5 -106q0 -64 38.5 -104.5t100.5 -40.5t100 40.5t38 104.5zM526 356q0 63 -40.5 102.5t-106.5 39.5h-89v-284h89q66 0 106.5 39.5t40.5 102.5zM619 469h163v29
h-198v-284h198v30h-163v100h153v30h-153v95zM1121 498h-33l-111 -136l-110 136h-32v-284h34v227l102 -124h14l102 124v-227h34v284zM1216 356q0 52 28 84.5t74 32.5t74.5 -33t28.5 -84t-28.5 -83.5t-74.5 -32.5t-74 32.5t-28 83.5zM489 356q0 -50 -29 -81t-78 -31h-58v225
h58q49 0 78 -31.5t29 -81.5z" />
    <glyph glyph-name="emacron" unicode="&#x113;" 
d="M1627 0v700h-1527v-700h1527zM132 32v636h1463v-636h-1463zM1456 356q0 65 -38 106t-100 41t-100.5 -41t-38.5 -106q0 -64 38.5 -104.5t100.5 -40.5t100 40.5t38 104.5zM526 356q0 63 -40.5 102.5t-106.5 39.5h-89v-284h89q66 0 106.5 39.5t40.5 102.5zM619 469h163v29
h-198v-284h198v30h-163v100h153v30h-153v95zM1121 498h-33l-111 -136l-110 136h-32v-284h34v227l102 -124h14l102 124v-227h34v284zM1216 356q0 52 28 84.5t74 32.5t74.5 -33t28.5 -84t-28.5 -83.5t-74.5 -32.5t-74 32.5t-28 83.5zM489 356q0 -50 -29 -81t-78 -31h-58v225
h58q49 0 78 -31.5t29 -81.5z" />
    <glyph glyph-name="Ebreve" unicode="&#x114;" 
d="M1627 0v700h-1527v-700h1527zM132 32v636h1463v-636h-1463zM1456 356q0 65 -38 106t-100 41t-100.5 -41t-38.5 -106q0 -64 38.5 -104.5t100.5 -40.5t100 40.5t38 104.5zM526 356q0 63 -40.5 102.5t-106.5 39.5h-89v-284h89q66 0 106.5 39.5t40.5 102.5zM619 469h163v29
h-198v-284h198v30h-163v100h153v30h-153v95zM1121 498h-33l-111 -136l-110 136h-32v-284h34v227l102 -124h14l102 124v-227h34v284zM1216 356q0 52 28 84.5t74 32.5t74.5 -33t28.5 -84t-28.5 -83.5t-74.5 -32.5t-74 32.5t-28 83.5zM489 356q0 -50 -29 -81t-78 -31h-58v225
h58q49 0 78 -31.5t29 -81.5z" />
    <glyph glyph-name="ebreve" unicode="&#x115;" 
d="M1627 0v700h-1527v-700h1527zM132 32v636h1463v-636h-1463zM1456 356q0 65 -38 106t-100 41t-100.5 -41t-38.5 -106q0 -64 38.5 -104.5t100.5 -40.5t100 40.5t38 104.5zM526 356q0 63 -40.5 102.5t-106.5 39.5h-89v-284h89q66 0 106.5 39.5t40.5 102.5zM619 469h163v29
h-198v-284h198v30h-163v100h153v30h-153v95zM1121 498h-33l-111 -136l-110 136h-32v-284h34v227l102 -124h14l102 124v-227h34v284zM1216 356q0 52 28 84.5t74 32.5t74.5 -33t28.5 -84t-28.5 -83.5t-74.5 -32.5t-74 32.5t-28 83.5zM489 356q0 -50 -29 -81t-78 -31h-58v225
h58q49 0 78 -31.5t29 -81.5z" />
    <glyph glyph-name="Edotaccent" unicode="&#x116;" 
d="M1627 0v700h-1527v-700h1527zM132 32v636h1463v-636h-1463zM1456 356q0 65 -38 106t-100 41t-100.5 -41t-38.5 -106q0 -64 38.5 -104.5t100.5 -40.5t100 40.5t38 104.5zM526 356q0 63 -40.5 102.5t-106.5 39.5h-89v-284h89q66 0 106.5 39.5t40.5 102.5zM619 469h163v29
h-198v-284h198v30h-163v100h153v30h-153v95zM1121 498h-33l-111 -136l-110 136h-32v-284h34v227l102 -124h14l102 124v-227h34v284zM1216 356q0 52 28 84.5t74 32.5t74.5 -33t28.5 -84t-28.5 -83.5t-74.5 -32.5t-74 32.5t-28 83.5zM489 356q0 -50 -29 -81t-78 -31h-58v225
h58q49 0 78 -31.5t29 -81.5z" />
    <glyph glyph-name="edotaccent" unicode="&#x117;" 
d="M1627 0v700h-1527v-700h1527zM132 32v636h1463v-636h-1463zM1456 356q0 65 -38 106t-100 41t-100.5 -41t-38.5 -106q0 -64 38.5 -104.5t100.5 -40.5t100 40.5t38 104.5zM526 356q0 63 -40.5 102.5t-106.5 39.5h-89v-284h89q66 0 106.5 39.5t40.5 102.5zM619 469h163v29
h-198v-284h198v30h-163v100h153v30h-153v95zM1121 498h-33l-111 -136l-110 136h-32v-284h34v227l102 -124h14l102 124v-227h34v284zM1216 356q0 52 28 84.5t74 32.5t74.5 -33t28.5 -84t-28.5 -83.5t-74.5 -32.5t-74 32.5t-28 83.5zM489 356q0 -50 -29 -81t-78 -31h-58v225
h58q49 0 78 -31.5t29 -81.5z" />
    <glyph glyph-name="Eogonek" unicode="&#x118;" 
d="M1627 0v700h-1527v-700h1527zM132 32v636h1463v-636h-1463zM1456 356q0 65 -38 106t-100 41t-100.5 -41t-38.5 -106q0 -64 38.5 -104.5t100.5 -40.5t100 40.5t38 104.5zM526 356q0 63 -40.5 102.5t-106.5 39.5h-89v-284h89q66 0 106.5 39.5t40.5 102.5zM619 469h163v29
h-198v-284h198v30h-163v100h153v30h-153v95zM1121 498h-33l-111 -136l-110 136h-32v-284h34v227l102 -124h14l102 124v-227h34v284zM1216 356q0 52 28 84.5t74 32.5t74.5 -33t28.5 -84t-28.5 -83.5t-74.5 -32.5t-74 32.5t-28 83.5zM489 356q0 -50 -29 -81t-78 -31h-58v225
h58q49 0 78 -31.5t29 -81.5z" />
    <glyph glyph-name="eogonek" unicode="&#x119;" 
d="M1627 0v700h-1527v-700h1527zM132 32v636h1463v-636h-1463zM1456 356q0 65 -38 106t-100 41t-100.5 -41t-38.5 -106q0 -64 38.5 -104.5t100.5 -40.5t100 40.5t38 104.5zM526 356q0 63 -40.5 102.5t-106.5 39.5h-89v-284h89q66 0 106.5 39.5t40.5 102.5zM619 469h163v29
h-198v-284h198v30h-163v100h153v30h-153v95zM1121 498h-33l-111 -136l-110 136h-32v-284h34v227l102 -124h14l102 124v-227h34v284zM1216 356q0 52 28 84.5t74 32.5t74.5 -33t28.5 -84t-28.5 -83.5t-74.5 -32.5t-74 32.5t-28 83.5zM489 356q0 -50 -29 -81t-78 -31h-58v225
h58q49 0 78 -31.5t29 -81.5z" />
    <glyph glyph-name="Ecaron" unicode="&#x11a;" 
d="M1627 0v700h-1527v-700h1527zM132 32v636h1463v-636h-1463zM1456 356q0 65 -38 106t-100 41t-100.5 -41t-38.5 -106q0 -64 38.5 -104.5t100.5 -40.5t100 40.5t38 104.5zM526 356q0 63 -40.5 102.5t-106.5 39.5h-89v-284h89q66 0 106.5 39.5t40.5 102.5zM619 469h163v29
h-198v-284h198v30h-163v100h153v30h-153v95zM1121 498h-33l-111 -136l-110 136h-32v-284h34v227l102 -124h14l102 124v-227h34v284zM1216 356q0 52 28 84.5t74 32.5t74.5 -33t28.5 -84t-28.5 -83.5t-74.5 -32.5t-74 32.5t-28 83.5zM489 356q0 -50 -29 -81t-78 -31h-58v225
h58q49 0 78 -31.5t29 -81.5z" />
    <glyph glyph-name="ecaron" unicode="&#x11b;" 
d="M1627 0v700h-1527v-700h1527zM132 32v636h1463v-636h-1463zM1456 356q0 65 -38 106t-100 41t-100.5 -41t-38.5 -106q0 -64 38.5 -104.5t100.5 -40.5t100 40.5t38 104.5zM526 356q0 63 -40.5 102.5t-106.5 39.5h-89v-284h89q66 0 106.5 39.5t40.5 102.5zM619 469h163v29
h-198v-284h198v30h-163v100h153v30h-153v95zM1121 498h-33l-111 -136l-110 136h-32v-284h34v227l102 -124h14l102 124v-227h34v284zM1216 356q0 52 28 84.5t74 32.5t74.5 -33t28.5 -84t-28.5 -83.5t-74.5 -32.5t-74 32.5t-28 83.5zM489 356q0 -50 -29 -81t-78 -31h-58v225
h58q49 0 78 -31.5t29 -81.5z" />
    <glyph glyph-name="Gbreve" unicode="&#x11e;" 
d="M1627 0v700h-1527v-700h1527zM132 32v636h1463v-636h-1463zM1456 356q0 65 -38 106t-100 41t-100.5 -41t-38.5 -106q0 -64 38.5 -104.5t100.5 -40.5t100 40.5t38 104.5zM526 356q0 63 -40.5 102.5t-106.5 39.5h-89v-284h89q66 0 106.5 39.5t40.5 102.5zM619 469h163v29
h-198v-284h198v30h-163v100h153v30h-153v95zM1121 498h-33l-111 -136l-110 136h-32v-284h34v227l102 -124h14l102 124v-227h34v284zM1216 356q0 52 28 84.5t74 32.5t74.5 -33t28.5 -84t-28.5 -83.5t-74.5 -32.5t-74 32.5t-28 83.5zM489 356q0 -50 -29 -81t-78 -31h-58v225
h58q49 0 78 -31.5t29 -81.5z" />
    <glyph glyph-name="gbreve" unicode="&#x11f;" 
d="M1627 0v700h-1527v-700h1527zM132 32v636h1463v-636h-1463zM1456 356q0 65 -38 106t-100 41t-100.5 -41t-38.5 -106q0 -64 38.5 -104.5t100.5 -40.5t100 40.5t38 104.5zM526 356q0 63 -40.5 102.5t-106.5 39.5h-89v-284h89q66 0 106.5 39.5t40.5 102.5zM619 469h163v29
h-198v-284h198v30h-163v100h153v30h-153v95zM1121 498h-33l-111 -136l-110 136h-32v-284h34v227l102 -124h14l102 124v-227h34v284zM1216 356q0 52 28 84.5t74 32.5t74.5 -33t28.5 -84t-28.5 -83.5t-74.5 -32.5t-74 32.5t-28 83.5zM489 356q0 -50 -29 -81t-78 -31h-58v225
h58q49 0 78 -31.5t29 -81.5z" />
    <glyph glyph-name="Gdotaccent" unicode="&#x120;" 
d="M1627 0v700h-1527v-700h1527zM132 32v636h1463v-636h-1463zM1456 356q0 65 -38 106t-100 41t-100.5 -41t-38.5 -106q0 -64 38.5 -104.5t100.5 -40.5t100 40.5t38 104.5zM526 356q0 63 -40.5 102.5t-106.5 39.5h-89v-284h89q66 0 106.5 39.5t40.5 102.5zM619 469h163v29
h-198v-284h198v30h-163v100h153v30h-153v95zM1121 498h-33l-111 -136l-110 136h-32v-284h34v227l102 -124h14l102 124v-227h34v284zM1216 356q0 52 28 84.5t74 32.5t74.5 -33t28.5 -84t-28.5 -83.5t-74.5 -32.5t-74 32.5t-28 83.5zM489 356q0 -50 -29 -81t-78 -31h-58v225
h58q49 0 78 -31.5t29 -81.5z" />
    <glyph glyph-name="gdotaccent" unicode="&#x121;" 
d="M1627 0v700h-1527v-700h1527zM132 32v636h1463v-636h-1463zM1456 356q0 65 -38 106t-100 41t-100.5 -41t-38.5 -106q0 -64 38.5 -104.5t100.5 -40.5t100 40.5t38 104.5zM526 356q0 63 -40.5 102.5t-106.5 39.5h-89v-284h89q66 0 106.5 39.5t40.5 102.5zM619 469h163v29
h-198v-284h198v30h-163v100h153v30h-153v95zM1121 498h-33l-111 -136l-110 136h-32v-284h34v227l102 -124h14l102 124v-227h34v284zM1216 356q0 52 28 84.5t74 32.5t74.5 -33t28.5 -84t-28.5 -83.5t-74.5 -32.5t-74 32.5t-28 83.5zM489 356q0 -50 -29 -81t-78 -31h-58v225
h58q49 0 78 -31.5t29 -81.5z" />
    <glyph glyph-name="Gcommaaccent" unicode="&#x122;" 
d="M1627 0v700h-1527v-700h1527zM132 32v636h1463v-636h-1463zM1456 356q0 65 -38 106t-100 41t-100.5 -41t-38.5 -106q0 -64 38.5 -104.5t100.5 -40.5t100 40.5t38 104.5zM526 356q0 63 -40.5 102.5t-106.5 39.5h-89v-284h89q66 0 106.5 39.5t40.5 102.5zM619 469h163v29
h-198v-284h198v30h-163v100h153v30h-153v95zM1121 498h-33l-111 -136l-110 136h-32v-284h34v227l102 -124h14l102 124v-227h34v284zM1216 356q0 52 28 84.5t74 32.5t74.5 -33t28.5 -84t-28.5 -83.5t-74.5 -32.5t-74 32.5t-28 83.5zM489 356q0 -50 -29 -81t-78 -31h-58v225
h58q49 0 78 -31.5t29 -81.5z" />
    <glyph glyph-name="gcommaaccent" unicode="&#x123;" 
d="M1627 0v700h-1527v-700h1527zM132 32v636h1463v-636h-1463zM1456 356q0 65 -38 106t-100 41t-100.5 -41t-38.5 -106q0 -64 38.5 -104.5t100.5 -40.5t100 40.5t38 104.5zM526 356q0 63 -40.5 102.5t-106.5 39.5h-89v-284h89q66 0 106.5 39.5t40.5 102.5zM619 469h163v29
h-198v-284h198v30h-163v100h153v30h-153v95zM1121 498h-33l-111 -136l-110 136h-32v-284h34v227l102 -124h14l102 124v-227h34v284zM1216 356q0 52 28 84.5t74 32.5t74.5 -33t28.5 -84t-28.5 -83.5t-74.5 -32.5t-74 32.5t-28 83.5zM489 356q0 -50 -29 -81t-78 -31h-58v225
h58q49 0 78 -31.5t29 -81.5z" />
    <glyph glyph-name="Hbar" unicode="&#x126;" 
d="M1627 0v700h-1527v-700h1527zM132 32v636h1463v-636h-1463zM1456 356q0 65 -38 106t-100 41t-100.5 -41t-38.5 -106q0 -64 38.5 -104.5t100.5 -40.5t100 40.5t38 104.5zM526 356q0 63 -40.5 102.5t-106.5 39.5h-89v-284h89q66 0 106.5 39.5t40.5 102.5zM619 469h163v29
h-198v-284h198v30h-163v100h153v30h-153v95zM1121 498h-33l-111 -136l-110 136h-32v-284h34v227l102 -124h14l102 124v-227h34v284zM1216 356q0 52 28 84.5t74 32.5t74.5 -33t28.5 -84t-28.5 -83.5t-74.5 -32.5t-74 32.5t-28 83.5zM489 356q0 -50 -29 -81t-78 -31h-58v225
h58q49 0 78 -31.5t29 -81.5z" />
    <glyph glyph-name="hbar" unicode="&#x127;" 
d="M1627 0v700h-1527v-700h1527zM132 32v636h1463v-636h-1463zM1456 356q0 65 -38 106t-100 41t-100.5 -41t-38.5 -106q0 -64 38.5 -104.5t100.5 -40.5t100 40.5t38 104.5zM526 356q0 63 -40.5 102.5t-106.5 39.5h-89v-284h89q66 0 106.5 39.5t40.5 102.5zM619 469h163v29
h-198v-284h198v30h-163v100h153v30h-153v95zM1121 498h-33l-111 -136l-110 136h-32v-284h34v227l102 -124h14l102 124v-227h34v284zM1216 356q0 52 28 84.5t74 32.5t74.5 -33t28.5 -84t-28.5 -83.5t-74.5 -32.5t-74 32.5t-28 83.5zM489 356q0 -50 -29 -81t-78 -31h-58v225
h58q49 0 78 -31.5t29 -81.5z" />
    <glyph glyph-name="Imacron" unicode="&#x12a;" 
d="M1627 0v700h-1527v-700h1527zM132 32v636h1463v-636h-1463zM1456 356q0 65 -38 106t-100 41t-100.5 -41t-38.5 -106q0 -64 38.5 -104.5t100.5 -40.5t100 40.5t38 104.5zM526 356q0 63 -40.5 102.5t-106.5 39.5h-89v-284h89q66 0 106.5 39.5t40.5 102.5zM619 469h163v29
h-198v-284h198v30h-163v100h153v30h-153v95zM1121 498h-33l-111 -136l-110 136h-32v-284h34v227l102 -124h14l102 124v-227h34v284zM1216 356q0 52 28 84.5t74 32.5t74.5 -33t28.5 -84t-28.5 -83.5t-74.5 -32.5t-74 32.5t-28 83.5zM489 356q0 -50 -29 -81t-78 -31h-58v225
h58q49 0 78 -31.5t29 -81.5z" />
    <glyph glyph-name="imacron" unicode="&#x12b;" 
d="M1627 0v700h-1527v-700h1527zM132 32v636h1463v-636h-1463zM1456 356q0 65 -38 106t-100 41t-100.5 -41t-38.5 -106q0 -64 38.5 -104.5t100.5 -40.5t100 40.5t38 104.5zM526 356q0 63 -40.5 102.5t-106.5 39.5h-89v-284h89q66 0 106.5 39.5t40.5 102.5zM619 469h163v29
h-198v-284h198v30h-163v100h153v30h-153v95zM1121 498h-33l-111 -136l-110 136h-32v-284h34v227l102 -124h14l102 124v-227h34v284zM1216 356q0 52 28 84.5t74 32.5t74.5 -33t28.5 -84t-28.5 -83.5t-74.5 -32.5t-74 32.5t-28 83.5zM489 356q0 -50 -29 -81t-78 -31h-58v225
h58q49 0 78 -31.5t29 -81.5z" />
    <glyph glyph-name="Iogonek" unicode="&#x12e;" 
d="M1627 0v700h-1527v-700h1527zM132 32v636h1463v-636h-1463zM1456 356q0 65 -38 106t-100 41t-100.5 -41t-38.5 -106q0 -64 38.5 -104.5t100.5 -40.5t100 40.5t38 104.5zM526 356q0 63 -40.5 102.5t-106.5 39.5h-89v-284h89q66 0 106.5 39.5t40.5 102.5zM619 469h163v29
h-198v-284h198v30h-163v100h153v30h-153v95zM1121 498h-33l-111 -136l-110 136h-32v-284h34v227l102 -124h14l102 124v-227h34v284zM1216 356q0 52 28 84.5t74 32.5t74.5 -33t28.5 -84t-28.5 -83.5t-74.5 -32.5t-74 32.5t-28 83.5zM489 356q0 -50 -29 -81t-78 -31h-58v225
h58q49 0 78 -31.5t29 -81.5z" />
    <glyph glyph-name="iogonek" unicode="&#x12f;" 
d="M1627 0v700h-1527v-700h1527zM132 32v636h1463v-636h-1463zM1456 356q0 65 -38 106t-100 41t-100.5 -41t-38.5 -106q0 -64 38.5 -104.5t100.5 -40.5t100 40.5t38 104.5zM526 356q0 63 -40.5 102.5t-106.5 39.5h-89v-284h89q66 0 106.5 39.5t40.5 102.5zM619 469h163v29
h-198v-284h198v30h-163v100h153v30h-153v95zM1121 498h-33l-111 -136l-110 136h-32v-284h34v227l102 -124h14l102 124v-227h34v284zM1216 356q0 52 28 84.5t74 32.5t74.5 -33t28.5 -84t-28.5 -83.5t-74.5 -32.5t-74 32.5t-28 83.5zM489 356q0 -50 -29 -81t-78 -31h-58v225
h58q49 0 78 -31.5t29 -81.5z" />
    <glyph glyph-name="Idotaccent" unicode="&#x130;" 
d="M1627 0v700h-1527v-700h1527zM132 32v636h1463v-636h-1463zM1456 356q0 65 -38 106t-100 41t-100.5 -41t-38.5 -106q0 -64 38.5 -104.5t100.5 -40.5t100 40.5t38 104.5zM526 356q0 63 -40.5 102.5t-106.5 39.5h-89v-284h89q66 0 106.5 39.5t40.5 102.5zM619 469h163v29
h-198v-284h198v30h-163v100h153v30h-153v95zM1121 498h-33l-111 -136l-110 136h-32v-284h34v227l102 -124h14l102 124v-227h34v284zM1216 356q0 52 28 84.5t74 32.5t74.5 -33t28.5 -84t-28.5 -83.5t-74.5 -32.5t-74 32.5t-28 83.5zM489 356q0 -50 -29 -81t-78 -31h-58v225
h58q49 0 78 -31.5t29 -81.5z" />
    <glyph glyph-name="dotlessi" unicode="&#x131;" horiz-adv-x="250" 
d="M54 0v508h141v-508h-141z" />
    <glyph glyph-name="IJ" unicode="&#x132;" horiz-adv-x="873" 
d="M88 700h157v-700h-157v700zM376 150q76 -34 132 -34q58 0 92 31.5t34 82.5v470h156v-473q0 -106 -70 -172t-194 -66q-81 0 -150 23v138z" />
    <glyph glyph-name="ij" unicode="&#x133;" horiz-adv-x="570" 
d="M54 587v131h171v-131h-171zM345 587v131h171v-131h-171zM69 0v508h141v-508h-141zM212 -86q54 -22 86 -22q27 0 44.5 17.5t17.5 43.5v555h141v-554q0 -73 -48 -120t-122 -47q-57 0 -119 18v109z" />
    <glyph glyph-name="Kcommaaccent" unicode="&#x136;" 
d="M1627 0v700h-1527v-700h1527zM132 32v636h1463v-636h-1463zM1456 356q0 65 -38 106t-100 41t-100.5 -41t-38.5 -106q0 -64 38.5 -104.5t100.5 -40.5t100 40.5t38 104.5zM526 356q0 63 -40.5 102.5t-106.5 39.5h-89v-284h89q66 0 106.5 39.5t40.5 102.5zM619 469h163v29
h-198v-284h198v30h-163v100h153v30h-153v95zM1121 498h-33l-111 -136l-110 136h-32v-284h34v227l102 -124h14l102 124v-227h34v284zM1216 356q0 52 28 84.5t74 32.5t74.5 -33t28.5 -84t-28.5 -83.5t-74.5 -32.5t-74 32.5t-28 83.5zM489 356q0 -50 -29 -81t-78 -31h-58v225
h58q49 0 78 -31.5t29 -81.5z" />
    <glyph glyph-name="kcommaaccent" unicode="&#x137;" 
d="M1627 0v700h-1527v-700h1527zM132 32v636h1463v-636h-1463zM1456 356q0 65 -38 106t-100 41t-100.5 -41t-38.5 -106q0 -64 38.5 -104.5t100.5 -40.5t100 40.5t38 104.5zM526 356q0 63 -40.5 102.5t-106.5 39.5h-89v-284h89q66 0 106.5 39.5t40.5 102.5zM619 469h163v29
h-198v-284h198v30h-163v100h153v30h-153v95zM1121 498h-33l-111 -136l-110 136h-32v-284h34v227l102 -124h14l102 124v-227h34v284zM1216 356q0 52 28 84.5t74 32.5t74.5 -33t28.5 -84t-28.5 -83.5t-74.5 -32.5t-74 32.5t-28 83.5zM489 356q0 -50 -29 -81t-78 -31h-58v225
h58q49 0 78 -31.5t29 -81.5z" />
    <glyph glyph-name="Lacute" unicode="&#x139;" 
d="M1627 0v700h-1527v-700h1527zM132 32v636h1463v-636h-1463zM1456 356q0 65 -38 106t-100 41t-100.5 -41t-38.5 -106q0 -64 38.5 -104.5t100.5 -40.5t100 40.5t38 104.5zM526 356q0 63 -40.5 102.5t-106.5 39.5h-89v-284h89q66 0 106.5 39.5t40.5 102.5zM619 469h163v29
h-198v-284h198v30h-163v100h153v30h-153v95zM1121 498h-33l-111 -136l-110 136h-32v-284h34v227l102 -124h14l102 124v-227h34v284zM1216 356q0 52 28 84.5t74 32.5t74.5 -33t28.5 -84t-28.5 -83.5t-74.5 -32.5t-74 32.5t-28 83.5zM489 356q0 -50 -29 -81t-78 -31h-58v225
h58q49 0 78 -31.5t29 -81.5z" />
    <glyph glyph-name="lacute" unicode="&#x13a;" 
d="M1627 0v700h-1527v-700h1527zM132 32v636h1463v-636h-1463zM1456 356q0 65 -38 106t-100 41t-100.5 -41t-38.5 -106q0 -64 38.5 -104.5t100.5 -40.5t100 40.5t38 104.5zM526 356q0 63 -40.5 102.5t-106.5 39.5h-89v-284h89q66 0 106.5 39.5t40.5 102.5zM619 469h163v29
h-198v-284h198v30h-163v100h153v30h-153v95zM1121 498h-33l-111 -136l-110 136h-32v-284h34v227l102 -124h14l102 124v-227h34v284zM1216 356q0 52 28 84.5t74 32.5t74.5 -33t28.5 -84t-28.5 -83.5t-74.5 -32.5t-74 32.5t-28 83.5zM489 356q0 -50 -29 -81t-78 -31h-58v225
h58q49 0 78 -31.5t29 -81.5z" />
    <glyph glyph-name="Lcommaaccent" unicode="&#x13b;" 
d="M1627 0v700h-1527v-700h1527zM132 32v636h1463v-636h-1463zM1456 356q0 65 -38 106t-100 41t-100.5 -41t-38.5 -106q0 -64 38.5 -104.5t100.5 -40.5t100 40.5t38 104.5zM526 356q0 63 -40.5 102.5t-106.5 39.5h-89v-284h89q66 0 106.5 39.5t40.5 102.5zM619 469h163v29
h-198v-284h198v30h-163v100h153v30h-153v95zM1121 498h-33l-111 -136l-110 136h-32v-284h34v227l102 -124h14l102 124v-227h34v284zM1216 356q0 52 28 84.5t74 32.5t74.5 -33t28.5 -84t-28.5 -83.5t-74.5 -32.5t-74 32.5t-28 83.5zM489 356q0 -50 -29 -81t-78 -31h-58v225
h58q49 0 78 -31.5t29 -81.5z" />
    <glyph glyph-name="lcommaaccent" unicode="&#x13c;" 
d="M1627 0v700h-1527v-700h1527zM132 32v636h1463v-636h-1463zM1456 356q0 65 -38 106t-100 41t-100.5 -41t-38.5 -106q0 -64 38.5 -104.5t100.5 -40.5t100 40.5t38 104.5zM526 356q0 63 -40.5 102.5t-106.5 39.5h-89v-284h89q66 0 106.5 39.5t40.5 102.5zM619 469h163v29
h-198v-284h198v30h-163v100h153v30h-153v95zM1121 498h-33l-111 -136l-110 136h-32v-284h34v227l102 -124h14l102 124v-227h34v284zM1216 356q0 52 28 84.5t74 32.5t74.5 -33t28.5 -84t-28.5 -83.5t-74.5 -32.5t-74 32.5t-28 83.5zM489 356q0 -50 -29 -81t-78 -31h-58v225
h58q49 0 78 -31.5t29 -81.5z" />
    <glyph glyph-name="Lcaron" unicode="&#x13d;" 
d="M1627 0v700h-1527v-700h1527zM132 32v636h1463v-636h-1463zM1456 356q0 65 -38 106t-100 41t-100.5 -41t-38.5 -106q0 -64 38.5 -104.5t100.5 -40.5t100 40.5t38 104.5zM526 356q0 63 -40.5 102.5t-106.5 39.5h-89v-284h89q66 0 106.5 39.5t40.5 102.5zM619 469h163v29
h-198v-284h198v30h-163v100h153v30h-153v95zM1121 498h-33l-111 -136l-110 136h-32v-284h34v227l102 -124h14l102 124v-227h34v284zM1216 356q0 52 28 84.5t74 32.5t74.5 -33t28.5 -84t-28.5 -83.5t-74.5 -32.5t-74 32.5t-28 83.5zM489 356q0 -50 -29 -81t-78 -31h-58v225
h58q49 0 78 -31.5t29 -81.5z" />
    <glyph glyph-name="lcaron" unicode="&#x13e;" 
d="M1627 0v700h-1527v-700h1527zM132 32v636h1463v-636h-1463zM1456 356q0 65 -38 106t-100 41t-100.5 -41t-38.5 -106q0 -64 38.5 -104.5t100.5 -40.5t100 40.5t38 104.5zM526 356q0 63 -40.5 102.5t-106.5 39.5h-89v-284h89q66 0 106.5 39.5t40.5 102.5zM619 469h163v29
h-198v-284h198v30h-163v100h153v30h-153v95zM1121 498h-33l-111 -136l-110 136h-32v-284h34v227l102 -124h14l102 124v-227h34v284zM1216 356q0 52 28 84.5t74 32.5t74.5 -33t28.5 -84t-28.5 -83.5t-74.5 -32.5t-74 32.5t-28 83.5zM489 356q0 -50 -29 -81t-78 -31h-58v225
h58q49 0 78 -31.5t29 -81.5z" />
    <glyph glyph-name="Lslash" unicode="&#x141;" 
d="M1627 0v700h-1527v-700h1527zM132 32v636h1463v-636h-1463zM1456 356q0 65 -38 106t-100 41t-100.5 -41t-38.5 -106q0 -64 38.5 -104.5t100.5 -40.5t100 40.5t38 104.5zM526 356q0 63 -40.5 102.5t-106.5 39.5h-89v-284h89q66 0 106.5 39.5t40.5 102.5zM619 469h163v29
h-198v-284h198v30h-163v100h153v30h-153v95zM1121 498h-33l-111 -136l-110 136h-32v-284h34v227l102 -124h14l102 124v-227h34v284zM1216 356q0 52 28 84.5t74 32.5t74.5 -33t28.5 -84t-28.5 -83.5t-74.5 -32.5t-74 32.5t-28 83.5zM489 356q0 -50 -29 -81t-78 -31h-58v225
h58q49 0 78 -31.5t29 -81.5z" />
    <glyph glyph-name="lslash" unicode="&#x142;" 
d="M1627 0v700h-1527v-700h1527zM132 32v636h1463v-636h-1463zM1456 356q0 65 -38 106t-100 41t-100.5 -41t-38.5 -106q0 -64 38.5 -104.5t100.5 -40.5t100 40.5t38 104.5zM526 356q0 63 -40.5 102.5t-106.5 39.5h-89v-284h89q66 0 106.5 39.5t40.5 102.5zM619 469h163v29
h-198v-284h198v30h-163v100h153v30h-153v95zM1121 498h-33l-111 -136l-110 136h-32v-284h34v227l102 -124h14l102 124v-227h34v284zM1216 356q0 52 28 84.5t74 32.5t74.5 -33t28.5 -84t-28.5 -83.5t-74.5 -32.5t-74 32.5t-28 83.5zM489 356q0 -50 -29 -81t-78 -31h-58v225
h58q49 0 78 -31.5t29 -81.5z" />
    <glyph glyph-name="Nacute" unicode="&#x143;" 
d="M1627 0v700h-1527v-700h1527zM132 32v636h1463v-636h-1463zM1456 356q0 65 -38 106t-100 41t-100.5 -41t-38.5 -106q0 -64 38.5 -104.5t100.5 -40.5t100 40.5t38 104.5zM526 356q0 63 -40.5 102.5t-106.5 39.5h-89v-284h89q66 0 106.5 39.5t40.5 102.5zM619 469h163v29
h-198v-284h198v30h-163v100h153v30h-153v95zM1121 498h-33l-111 -136l-110 136h-32v-284h34v227l102 -124h14l102 124v-227h34v284zM1216 356q0 52 28 84.5t74 32.5t74.5 -33t28.5 -84t-28.5 -83.5t-74.5 -32.5t-74 32.5t-28 83.5zM489 356q0 -50 -29 -81t-78 -31h-58v225
h58q49 0 78 -31.5t29 -81.5z" />
    <glyph glyph-name="nacute" unicode="&#x144;" 
d="M1627 0v700h-1527v-700h1527zM132 32v636h1463v-636h-1463zM1456 356q0 65 -38 106t-100 41t-100.5 -41t-38.5 -106q0 -64 38.5 -104.5t100.5 -40.5t100 40.5t38 104.5zM526 356q0 63 -40.5 102.5t-106.5 39.5h-89v-284h89q66 0 106.5 39.5t40.5 102.5zM619 469h163v29
h-198v-284h198v30h-163v100h153v30h-153v95zM1121 498h-33l-111 -136l-110 136h-32v-284h34v227l102 -124h14l102 124v-227h34v284zM1216 356q0 52 28 84.5t74 32.5t74.5 -33t28.5 -84t-28.5 -83.5t-74.5 -32.5t-74 32.5t-28 83.5zM489 356q0 -50 -29 -81t-78 -31h-58v225
h58q49 0 78 -31.5t29 -81.5z" />
    <glyph glyph-name="Ncommaaccent" unicode="&#x145;" 
d="M1627 0v700h-1527v-700h1527zM132 32v636h1463v-636h-1463zM1456 356q0 65 -38 106t-100 41t-100.5 -41t-38.5 -106q0 -64 38.5 -104.5t100.5 -40.5t100 40.5t38 104.5zM526 356q0 63 -40.5 102.5t-106.5 39.5h-89v-284h89q66 0 106.5 39.5t40.5 102.5zM619 469h163v29
h-198v-284h198v30h-163v100h153v30h-153v95zM1121 498h-33l-111 -136l-110 136h-32v-284h34v227l102 -124h14l102 124v-227h34v284zM1216 356q0 52 28 84.5t74 32.5t74.5 -33t28.5 -84t-28.5 -83.5t-74.5 -32.5t-74 32.5t-28 83.5zM489 356q0 -50 -29 -81t-78 -31h-58v225
h58q49 0 78 -31.5t29 -81.5z" />
    <glyph glyph-name="ncommaaccent" unicode="&#x146;" 
d="M1627 0v700h-1527v-700h1527zM132 32v636h1463v-636h-1463zM1456 356q0 65 -38 106t-100 41t-100.5 -41t-38.5 -106q0 -64 38.5 -104.5t100.5 -40.5t100 40.5t38 104.5zM526 356q0 63 -40.5 102.5t-106.5 39.5h-89v-284h89q66 0 106.5 39.5t40.5 102.5zM619 469h163v29
h-198v-284h198v30h-163v100h153v30h-153v95zM1121 498h-33l-111 -136l-110 136h-32v-284h34v227l102 -124h14l102 124v-227h34v284zM1216 356q0 52 28 84.5t74 32.5t74.5 -33t28.5 -84t-28.5 -83.5t-74.5 -32.5t-74 32.5t-28 83.5zM489 356q0 -50 -29 -81t-78 -31h-58v225
h58q49 0 78 -31.5t29 -81.5z" />
    <glyph glyph-name="Ncaron" unicode="&#x147;" 
d="M1627 0v700h-1527v-700h1527zM132 32v636h1463v-636h-1463zM1456 356q0 65 -38 106t-100 41t-100.5 -41t-38.5 -106q0 -64 38.5 -104.5t100.5 -40.5t100 40.5t38 104.5zM526 356q0 63 -40.5 102.5t-106.5 39.5h-89v-284h89q66 0 106.5 39.5t40.5 102.5zM619 469h163v29
h-198v-284h198v30h-163v100h153v30h-153v95zM1121 498h-33l-111 -136l-110 136h-32v-284h34v227l102 -124h14l102 124v-227h34v284zM1216 356q0 52 28 84.5t74 32.5t74.5 -33t28.5 -84t-28.5 -83.5t-74.5 -32.5t-74 32.5t-28 83.5zM489 356q0 -50 -29 -81t-78 -31h-58v225
h58q49 0 78 -31.5t29 -81.5z" />
    <glyph glyph-name="ncaron" unicode="&#x148;" 
d="M1627 0v700h-1527v-700h1527zM132 32v636h1463v-636h-1463zM1456 356q0 65 -38 106t-100 41t-100.5 -41t-38.5 -106q0 -64 38.5 -104.5t100.5 -40.5t100 40.5t38 104.5zM526 356q0 63 -40.5 102.5t-106.5 39.5h-89v-284h89q66 0 106.5 39.5t40.5 102.5zM619 469h163v29
h-198v-284h198v30h-163v100h153v30h-153v95zM1121 498h-33l-111 -136l-110 136h-32v-284h34v227l102 -124h14l102 124v-227h34v284zM1216 356q0 52 28 84.5t74 32.5t74.5 -33t28.5 -84t-28.5 -83.5t-74.5 -32.5t-74 32.5t-28 83.5zM489 356q0 -50 -29 -81t-78 -31h-58v225
h58q49 0 78 -31.5t29 -81.5z" />
    <glyph glyph-name="Eng" unicode="&#x14a;" 
d="M1627 0v700h-1527v-700h1527zM132 32v636h1463v-636h-1463zM1456 356q0 65 -38 106t-100 41t-100.5 -41t-38.5 -106q0 -64 38.5 -104.5t100.5 -40.5t100 40.5t38 104.5zM526 356q0 63 -40.5 102.5t-106.5 39.5h-89v-284h89q66 0 106.5 39.5t40.5 102.5zM619 469h163v29
h-198v-284h198v30h-163v100h153v30h-153v95zM1121 498h-33l-111 -136l-110 136h-32v-284h34v227l102 -124h14l102 124v-227h34v284zM1216 356q0 52 28 84.5t74 32.5t74.5 -33t28.5 -84t-28.5 -83.5t-74.5 -32.5t-74 32.5t-28 83.5zM489 356q0 -50 -29 -81t-78 -31h-58v225
h58q49 0 78 -31.5t29 -81.5z" />
    <glyph glyph-name="eng" unicode="&#x14b;" 
d="M1627 0v700h-1527v-700h1527zM132 32v636h1463v-636h-1463zM1456 356q0 65 -38 106t-100 41t-100.5 -41t-38.5 -106q0 -64 38.5 -104.5t100.5 -40.5t100 40.5t38 104.5zM526 356q0 63 -40.5 102.5t-106.5 39.5h-89v-284h89q66 0 106.5 39.5t40.5 102.5zM619 469h163v29
h-198v-284h198v30h-163v100h153v30h-153v95zM1121 498h-33l-111 -136l-110 136h-32v-284h34v227l102 -124h14l102 124v-227h34v284zM1216 356q0 52 28 84.5t74 32.5t74.5 -33t28.5 -84t-28.5 -83.5t-74.5 -32.5t-74 32.5t-28 83.5zM489 356q0 -50 -29 -81t-78 -31h-58v225
h58q49 0 78 -31.5t29 -81.5z" />
    <glyph glyph-name="Omacron" unicode="&#x14c;" 
d="M1627 0v700h-1527v-700h1527zM132 32v636h1463v-636h-1463zM1456 356q0 65 -38 106t-100 41t-100.5 -41t-38.5 -106q0 -64 38.5 -104.5t100.5 -40.5t100 40.5t38 104.5zM526 356q0 63 -40.5 102.5t-106.5 39.5h-89v-284h89q66 0 106.5 39.5t40.5 102.5zM619 469h163v29
h-198v-284h198v30h-163v100h153v30h-153v95zM1121 498h-33l-111 -136l-110 136h-32v-284h34v227l102 -124h14l102 124v-227h34v284zM1216 356q0 52 28 84.5t74 32.5t74.5 -33t28.5 -84t-28.5 -83.5t-74.5 -32.5t-74 32.5t-28 83.5zM489 356q0 -50 -29 -81t-78 -31h-58v225
h58q49 0 78 -31.5t29 -81.5z" />
    <glyph glyph-name="omacron" unicode="&#x14d;" 
d="M1627 0v700h-1527v-700h1527zM132 32v636h1463v-636h-1463zM1456 356q0 65 -38 106t-100 41t-100.5 -41t-38.5 -106q0 -64 38.5 -104.5t100.5 -40.5t100 40.5t38 104.5zM526 356q0 63 -40.5 102.5t-106.5 39.5h-89v-284h89q66 0 106.5 39.5t40.5 102.5zM619 469h163v29
h-198v-284h198v30h-163v100h153v30h-153v95zM1121 498h-33l-111 -136l-110 136h-32v-284h34v227l102 -124h14l102 124v-227h34v284zM1216 356q0 52 28 84.5t74 32.5t74.5 -33t28.5 -84t-28.5 -83.5t-74.5 -32.5t-74 32.5t-28 83.5zM489 356q0 -50 -29 -81t-78 -31h-58v225
h58q49 0 78 -31.5t29 -81.5z" />
    <glyph glyph-name="Ohungarumlaut" unicode="&#x150;" 
d="M1627 0v700h-1527v-700h1527zM132 32v636h1463v-636h-1463zM1456 356q0 65 -38 106t-100 41t-100.5 -41t-38.5 -106q0 -64 38.5 -104.5t100.5 -40.5t100 40.5t38 104.5zM526 356q0 63 -40.5 102.5t-106.5 39.5h-89v-284h89q66 0 106.5 39.5t40.5 102.5zM619 469h163v29
h-198v-284h198v30h-163v100h153v30h-153v95zM1121 498h-33l-111 -136l-110 136h-32v-284h34v227l102 -124h14l102 124v-227h34v284zM1216 356q0 52 28 84.5t74 32.5t74.5 -33t28.5 -84t-28.5 -83.5t-74.5 -32.5t-74 32.5t-28 83.5zM489 356q0 -50 -29 -81t-78 -31h-58v225
h58q49 0 78 -31.5t29 -81.5z" />
    <glyph glyph-name="ohungarumlaut" unicode="&#x151;" 
d="M1627 0v700h-1527v-700h1527zM132 32v636h1463v-636h-1463zM1456 356q0 65 -38 106t-100 41t-100.5 -41t-38.5 -106q0 -64 38.5 -104.5t100.5 -40.5t100 40.5t38 104.5zM526 356q0 63 -40.5 102.5t-106.5 39.5h-89v-284h89q66 0 106.5 39.5t40.5 102.5zM619 469h163v29
h-198v-284h198v30h-163v100h153v30h-153v95zM1121 498h-33l-111 -136l-110 136h-32v-284h34v227l102 -124h14l102 124v-227h34v284zM1216 356q0 52 28 84.5t74 32.5t74.5 -33t28.5 -84t-28.5 -83.5t-74.5 -32.5t-74 32.5t-28 83.5zM489 356q0 -50 -29 -81t-78 -31h-58v225
h58q49 0 78 -31.5t29 -81.5z" />
    <glyph glyph-name="OE" unicode="&#x152;" horiz-adv-x="1116" 
d="M1059 579h-376v-161h352v-117h-352v-180h376v-121h-626q-174 0 -277 98t-103 254q0 154 103 251t277 97h626v-121zM526 128v444h-103q-97 0 -153.5 -60.5t-56.5 -159.5q0 -101 56.5 -162.5t153.5 -61.5h103z" />
    <glyph glyph-name="oe" unicode="&#x153;" horiz-adv-x="972" 
d="M936 224h-369v-3q4 -58 37.5 -93t83.5 -35q80 0 106 71h139q-23 -86 -87 -131.5t-157 -45.5q-122 0 -194 78q-75 -78 -195 -78q-118 0 -191 75.5t-73 192.5q0 116 73 191t191 75q122 0 195 -79q73 79 193 79t184 -74.5t64 -199.5v-23zM689 421q-49 0 -80.5 -31t-37.5 -85
h231q-2 52 -32 84t-81 32zM300 100q60 0 94.5 43t34.5 112q0 67 -34.5 110t-94.5 43q-59 0 -93.5 -43t-34.5 -110q0 -69 34.5 -112t93.5 -43z" />
    <glyph glyph-name="Racute" unicode="&#x154;" 
d="M1627 0v700h-1527v-700h1527zM132 32v636h1463v-636h-1463zM1456 356q0 65 -38 106t-100 41t-100.5 -41t-38.5 -106q0 -64 38.5 -104.5t100.5 -40.5t100 40.5t38 104.5zM526 356q0 63 -40.5 102.5t-106.5 39.5h-89v-284h89q66 0 106.5 39.5t40.5 102.5zM619 469h163v29
h-198v-284h198v30h-163v100h153v30h-153v95zM1121 498h-33l-111 -136l-110 136h-32v-284h34v227l102 -124h14l102 124v-227h34v284zM1216 356q0 52 28 84.5t74 32.5t74.5 -33t28.5 -84t-28.5 -83.5t-74.5 -32.5t-74 32.5t-28 83.5zM489 356q0 -50 -29 -81t-78 -31h-58v225
h58q49 0 78 -31.5t29 -81.5z" />
    <glyph glyph-name="racute" unicode="&#x155;" 
d="M1627 0v700h-1527v-700h1527zM132 32v636h1463v-636h-1463zM1456 356q0 65 -38 106t-100 41t-100.5 -41t-38.5 -106q0 -64 38.5 -104.5t100.5 -40.5t100 40.5t38 104.5zM526 356q0 63 -40.5 102.5t-106.5 39.5h-89v-284h89q66 0 106.5 39.5t40.5 102.5zM619 469h163v29
h-198v-284h198v30h-163v100h153v30h-153v95zM1121 498h-33l-111 -136l-110 136h-32v-284h34v227l102 -124h14l102 124v-227h34v284zM1216 356q0 52 28 84.5t74 32.5t74.5 -33t28.5 -84t-28.5 -83.5t-74.5 -32.5t-74 32.5t-28 83.5zM489 356q0 -50 -29 -81t-78 -31h-58v225
h58q49 0 78 -31.5t29 -81.5z" />
    <glyph glyph-name="Rcommaaccent" unicode="&#x156;" 
d="M1627 0v700h-1527v-700h1527zM132 32v636h1463v-636h-1463zM1456 356q0 65 -38 106t-100 41t-100.5 -41t-38.5 -106q0 -64 38.5 -104.5t100.5 -40.5t100 40.5t38 104.5zM526 356q0 63 -40.5 102.5t-106.5 39.5h-89v-284h89q66 0 106.5 39.5t40.5 102.5zM619 469h163v29
h-198v-284h198v30h-163v100h153v30h-153v95zM1121 498h-33l-111 -136l-110 136h-32v-284h34v227l102 -124h14l102 124v-227h34v284zM1216 356q0 52 28 84.5t74 32.5t74.5 -33t28.5 -84t-28.5 -83.5t-74.5 -32.5t-74 32.5t-28 83.5zM489 356q0 -50 -29 -81t-78 -31h-58v225
h58q49 0 78 -31.5t29 -81.5z" />
    <glyph glyph-name="rcommaaccent" unicode="&#x157;" 
d="M1627 0v700h-1527v-700h1527zM132 32v636h1463v-636h-1463zM1456 356q0 65 -38 106t-100 41t-100.5 -41t-38.5 -106q0 -64 38.5 -104.5t100.5 -40.5t100 40.5t38 104.5zM526 356q0 63 -40.5 102.5t-106.5 39.5h-89v-284h89q66 0 106.5 39.5t40.5 102.5zM619 469h163v29
h-198v-284h198v30h-163v100h153v30h-153v95zM1121 498h-33l-111 -136l-110 136h-32v-284h34v227l102 -124h14l102 124v-227h34v284zM1216 356q0 52 28 84.5t74 32.5t74.5 -33t28.5 -84t-28.5 -83.5t-74.5 -32.5t-74 32.5t-28 83.5zM489 356q0 -50 -29 -81t-78 -31h-58v225
h58q49 0 78 -31.5t29 -81.5z" />
    <glyph glyph-name="Rcaron" unicode="&#x158;" 
d="M1627 0v700h-1527v-700h1527zM132 32v636h1463v-636h-1463zM1456 356q0 65 -38 106t-100 41t-100.5 -41t-38.5 -106q0 -64 38.5 -104.5t100.5 -40.5t100 40.5t38 104.5zM526 356q0 63 -40.5 102.5t-106.5 39.5h-89v-284h89q66 0 106.5 39.5t40.5 102.5zM619 469h163v29
h-198v-284h198v30h-163v100h153v30h-153v95zM1121 498h-33l-111 -136l-110 136h-32v-284h34v227l102 -124h14l102 124v-227h34v284zM1216 356q0 52 28 84.5t74 32.5t74.5 -33t28.5 -84t-28.5 -83.5t-74.5 -32.5t-74 32.5t-28 83.5zM489 356q0 -50 -29 -81t-78 -31h-58v225
h58q49 0 78 -31.5t29 -81.5z" />
    <glyph glyph-name="rcaron" unicode="&#x159;" 
d="M1627 0v700h-1527v-700h1527zM132 32v636h1463v-636h-1463zM1456 356q0 65 -38 106t-100 41t-100.5 -41t-38.5 -106q0 -64 38.5 -104.5t100.5 -40.5t100 40.5t38 104.5zM526 356q0 63 -40.5 102.5t-106.5 39.5h-89v-284h89q66 0 106.5 39.5t40.5 102.5zM619 469h163v29
h-198v-284h198v30h-163v100h153v30h-153v95zM1121 498h-33l-111 -136l-110 136h-32v-284h34v227l102 -124h14l102 124v-227h34v284zM1216 356q0 52 28 84.5t74 32.5t74.5 -33t28.5 -84t-28.5 -83.5t-74.5 -32.5t-74 32.5t-28 83.5zM489 356q0 -50 -29 -81t-78 -31h-58v225
h58q49 0 78 -31.5t29 -81.5z" />
    <glyph glyph-name="Sacute" unicode="&#x15a;" 
d="M1627 0v700h-1527v-700h1527zM132 32v636h1463v-636h-1463zM1456 356q0 65 -38 106t-100 41t-100.5 -41t-38.5 -106q0 -64 38.5 -104.5t100.5 -40.5t100 40.5t38 104.5zM526 356q0 63 -40.5 102.5t-106.5 39.5h-89v-284h89q66 0 106.5 39.5t40.5 102.5zM619 469h163v29
h-198v-284h198v30h-163v100h153v30h-153v95zM1121 498h-33l-111 -136l-110 136h-32v-284h34v227l102 -124h14l102 124v-227h34v284zM1216 356q0 52 28 84.5t74 32.5t74.5 -33t28.5 -84t-28.5 -83.5t-74.5 -32.5t-74 32.5t-28 83.5zM489 356q0 -50 -29 -81t-78 -31h-58v225
h58q49 0 78 -31.5t29 -81.5z" />
    <glyph glyph-name="sacute" unicode="&#x15b;" 
d="M1627 0v700h-1527v-700h1527zM132 32v636h1463v-636h-1463zM1456 356q0 65 -38 106t-100 41t-100.5 -41t-38.5 -106q0 -64 38.5 -104.5t100.5 -40.5t100 40.5t38 104.5zM526 356q0 63 -40.5 102.5t-106.5 39.5h-89v-284h89q66 0 106.5 39.5t40.5 102.5zM619 469h163v29
h-198v-284h198v30h-163v100h153v30h-153v95zM1121 498h-33l-111 -136l-110 136h-32v-284h34v227l102 -124h14l102 124v-227h34v284zM1216 356q0 52 28 84.5t74 32.5t74.5 -33t28.5 -84t-28.5 -83.5t-74.5 -32.5t-74 32.5t-28 83.5zM489 356q0 -50 -29 -81t-78 -31h-58v225
h58q49 0 78 -31.5t29 -81.5z" />
    <glyph glyph-name="Scedilla" unicode="&#x15e;" 
d="M1627 0v700h-1527v-700h1527zM132 32v636h1463v-636h-1463zM1456 356q0 65 -38 106t-100 41t-100.5 -41t-38.5 -106q0 -64 38.5 -104.5t100.5 -40.5t100 40.5t38 104.5zM526 356q0 63 -40.5 102.5t-106.5 39.5h-89v-284h89q66 0 106.5 39.5t40.5 102.5zM619 469h163v29
h-198v-284h198v30h-163v100h153v30h-153v95zM1121 498h-33l-111 -136l-110 136h-32v-284h34v227l102 -124h14l102 124v-227h34v284zM1216 356q0 52 28 84.5t74 32.5t74.5 -33t28.5 -84t-28.5 -83.5t-74.5 -32.5t-74 32.5t-28 83.5zM489 356q0 -50 -29 -81t-78 -31h-58v225
h58q49 0 78 -31.5t29 -81.5z" />
    <glyph glyph-name="scedilla" unicode="&#x15f;" 
d="M1627 0v700h-1527v-700h1527zM132 32v636h1463v-636h-1463zM1456 356q0 65 -38 106t-100 41t-100.5 -41t-38.5 -106q0 -64 38.5 -104.5t100.5 -40.5t100 40.5t38 104.5zM526 356q0 63 -40.5 102.5t-106.5 39.5h-89v-284h89q66 0 106.5 39.5t40.5 102.5zM619 469h163v29
h-198v-284h198v30h-163v100h153v30h-153v95zM1121 498h-33l-111 -136l-110 136h-32v-284h34v227l102 -124h14l102 124v-227h34v284zM1216 356q0 52 28 84.5t74 32.5t74.5 -33t28.5 -84t-28.5 -83.5t-74.5 -32.5t-74 32.5t-28 83.5zM489 356q0 -50 -29 -81t-78 -31h-58v225
h58q49 0 78 -31.5t29 -81.5z" />
    <glyph glyph-name="Scaron" unicode="&#x160;" 
d="M1627 0v700h-1527v-700h1527zM132 32v636h1463v-636h-1463zM1456 356q0 65 -38 106t-100 41t-100.5 -41t-38.5 -106q0 -64 38.5 -104.5t100.5 -40.5t100 40.5t38 104.5zM526 356q0 63 -40.5 102.5t-106.5 39.5h-89v-284h89q66 0 106.5 39.5t40.5 102.5zM619 469h163v29
h-198v-284h198v30h-163v100h153v30h-153v95zM1121 498h-33l-111 -136l-110 136h-32v-284h34v227l102 -124h14l102 124v-227h34v284zM1216 356q0 52 28 84.5t74 32.5t74.5 -33t28.5 -84t-28.5 -83.5t-74.5 -32.5t-74 32.5t-28 83.5zM489 356q0 -50 -29 -81t-78 -31h-58v225
h58q49 0 78 -31.5t29 -81.5z" />
    <glyph glyph-name="scaron" unicode="&#x161;" 
d="M1627 0v700h-1527v-700h1527zM132 32v636h1463v-636h-1463zM1456 356q0 65 -38 106t-100 41t-100.5 -41t-38.5 -106q0 -64 38.5 -104.5t100.5 -40.5t100 40.5t38 104.5zM526 356q0 63 -40.5 102.5t-106.5 39.5h-89v-284h89q66 0 106.5 39.5t40.5 102.5zM619 469h163v29
h-198v-284h198v30h-163v100h153v30h-153v95zM1121 498h-33l-111 -136l-110 136h-32v-284h34v227l102 -124h14l102 124v-227h34v284zM1216 356q0 52 28 84.5t74 32.5t74.5 -33t28.5 -84t-28.5 -83.5t-74.5 -32.5t-74 32.5t-28 83.5zM489 356q0 -50 -29 -81t-78 -31h-58v225
h58q49 0 78 -31.5t29 -81.5z" />
    <glyph glyph-name="uni0162" unicode="&#x162;" 
d="M1627 0v700h-1527v-700h1527zM132 32v636h1463v-636h-1463zM1456 356q0 65 -38 106t-100 41t-100.5 -41t-38.5 -106q0 -64 38.5 -104.5t100.5 -40.5t100 40.5t38 104.5zM526 356q0 63 -40.5 102.5t-106.5 39.5h-89v-284h89q66 0 106.5 39.5t40.5 102.5zM619 469h163v29
h-198v-284h198v30h-163v100h153v30h-153v95zM1121 498h-33l-111 -136l-110 136h-32v-284h34v227l102 -124h14l102 124v-227h34v284zM1216 356q0 52 28 84.5t74 32.5t74.5 -33t28.5 -84t-28.5 -83.5t-74.5 -32.5t-74 32.5t-28 83.5zM489 356q0 -50 -29 -81t-78 -31h-58v225
h58q49 0 78 -31.5t29 -81.5z" />
    <glyph glyph-name="uni0163" unicode="&#x163;" 
d="M1627 0v700h-1527v-700h1527zM132 32v636h1463v-636h-1463zM1456 356q0 65 -38 106t-100 41t-100.5 -41t-38.5 -106q0 -64 38.5 -104.5t100.5 -40.5t100 40.5t38 104.5zM526 356q0 63 -40.5 102.5t-106.5 39.5h-89v-284h89q66 0 106.5 39.5t40.5 102.5zM619 469h163v29
h-198v-284h198v30h-163v100h153v30h-153v95zM1121 498h-33l-111 -136l-110 136h-32v-284h34v227l102 -124h14l102 124v-227h34v284zM1216 356q0 52 28 84.5t74 32.5t74.5 -33t28.5 -84t-28.5 -83.5t-74.5 -32.5t-74 32.5t-28 83.5zM489 356q0 -50 -29 -81t-78 -31h-58v225
h58q49 0 78 -31.5t29 -81.5z" />
    <glyph glyph-name="Tcaron" unicode="&#x164;" 
d="M1627 0v700h-1527v-700h1527zM132 32v636h1463v-636h-1463zM1456 356q0 65 -38 106t-100 41t-100.5 -41t-38.5 -106q0 -64 38.5 -104.5t100.5 -40.5t100 40.5t38 104.5zM526 356q0 63 -40.5 102.5t-106.5 39.5h-89v-284h89q66 0 106.5 39.5t40.5 102.5zM619 469h163v29
h-198v-284h198v30h-163v100h153v30h-153v95zM1121 498h-33l-111 -136l-110 136h-32v-284h34v227l102 -124h14l102 124v-227h34v284zM1216 356q0 52 28 84.5t74 32.5t74.5 -33t28.5 -84t-28.5 -83.5t-74.5 -32.5t-74 32.5t-28 83.5zM489 356q0 -50 -29 -81t-78 -31h-58v225
h58q49 0 78 -31.5t29 -81.5z" />
    <glyph glyph-name="tcaron" unicode="&#x165;" 
d="M1627 0v700h-1527v-700h1527zM132 32v636h1463v-636h-1463zM1456 356q0 65 -38 106t-100 41t-100.5 -41t-38.5 -106q0 -64 38.5 -104.5t100.5 -40.5t100 40.5t38 104.5zM526 356q0 63 -40.5 102.5t-106.5 39.5h-89v-284h89q66 0 106.5 39.5t40.5 102.5zM619 469h163v29
h-198v-284h198v30h-163v100h153v30h-153v95zM1121 498h-33l-111 -136l-110 136h-32v-284h34v227l102 -124h14l102 124v-227h34v284zM1216 356q0 52 28 84.5t74 32.5t74.5 -33t28.5 -84t-28.5 -83.5t-74.5 -32.5t-74 32.5t-28 83.5zM489 356q0 -50 -29 -81t-78 -31h-58v225
h58q49 0 78 -31.5t29 -81.5z" />
    <glyph glyph-name="Tbar" unicode="&#x166;" 
d="M1627 0v700h-1527v-700h1527zM132 32v636h1463v-636h-1463zM1456 356q0 65 -38 106t-100 41t-100.5 -41t-38.5 -106q0 -64 38.5 -104.5t100.5 -40.5t100 40.5t38 104.5zM526 356q0 63 -40.5 102.5t-106.5 39.5h-89v-284h89q66 0 106.5 39.5t40.5 102.5zM619 469h163v29
h-198v-284h198v30h-163v100h153v30h-153v95zM1121 498h-33l-111 -136l-110 136h-32v-284h34v227l102 -124h14l102 124v-227h34v284zM1216 356q0 52 28 84.5t74 32.5t74.5 -33t28.5 -84t-28.5 -83.5t-74.5 -32.5t-74 32.5t-28 83.5zM489 356q0 -50 -29 -81t-78 -31h-58v225
h58q49 0 78 -31.5t29 -81.5z" />
    <glyph glyph-name="tbar" unicode="&#x167;" 
d="M1627 0v700h-1527v-700h1527zM132 32v636h1463v-636h-1463zM1456 356q0 65 -38 106t-100 41t-100.5 -41t-38.5 -106q0 -64 38.5 -104.5t100.5 -40.5t100 40.5t38 104.5zM526 356q0 63 -40.5 102.5t-106.5 39.5h-89v-284h89q66 0 106.5 39.5t40.5 102.5zM619 469h163v29
h-198v-284h198v30h-163v100h153v30h-153v95zM1121 498h-33l-111 -136l-110 136h-32v-284h34v227l102 -124h14l102 124v-227h34v284zM1216 356q0 52 28 84.5t74 32.5t74.5 -33t28.5 -84t-28.5 -83.5t-74.5 -32.5t-74 32.5t-28 83.5zM489 356q0 -50 -29 -81t-78 -31h-58v225
h58q49 0 78 -31.5t29 -81.5z" />
    <glyph glyph-name="Umacron" unicode="&#x16a;" 
d="M1627 0v700h-1527v-700h1527zM132 32v636h1463v-636h-1463zM1456 356q0 65 -38 106t-100 41t-100.5 -41t-38.5 -106q0 -64 38.5 -104.5t100.5 -40.5t100 40.5t38 104.5zM526 356q0 63 -40.5 102.5t-106.5 39.5h-89v-284h89q66 0 106.5 39.5t40.5 102.5zM619 469h163v29
h-198v-284h198v30h-163v100h153v30h-153v95zM1121 498h-33l-111 -136l-110 136h-32v-284h34v227l102 -124h14l102 124v-227h34v284zM1216 356q0 52 28 84.5t74 32.5t74.5 -33t28.5 -84t-28.5 -83.5t-74.5 -32.5t-74 32.5t-28 83.5zM489 356q0 -50 -29 -81t-78 -31h-58v225
h58q49 0 78 -31.5t29 -81.5z" />
    <glyph glyph-name="umacron" unicode="&#x16b;" 
d="M1627 0v700h-1527v-700h1527zM132 32v636h1463v-636h-1463zM1456 356q0 65 -38 106t-100 41t-100.5 -41t-38.5 -106q0 -64 38.5 -104.5t100.5 -40.5t100 40.5t38 104.5zM526 356q0 63 -40.5 102.5t-106.5 39.5h-89v-284h89q66 0 106.5 39.5t40.5 102.5zM619 469h163v29
h-198v-284h198v30h-163v100h153v30h-153v95zM1121 498h-33l-111 -136l-110 136h-32v-284h34v227l102 -124h14l102 124v-227h34v284zM1216 356q0 52 28 84.5t74 32.5t74.5 -33t28.5 -84t-28.5 -83.5t-74.5 -32.5t-74 32.5t-28 83.5zM489 356q0 -50 -29 -81t-78 -31h-58v225
h58q49 0 78 -31.5t29 -81.5z" />
    <glyph glyph-name="Uring" unicode="&#x16e;" 
d="M1627 0v700h-1527v-700h1527zM132 32v636h1463v-636h-1463zM1456 356q0 65 -38 106t-100 41t-100.5 -41t-38.5 -106q0 -64 38.5 -104.5t100.5 -40.5t100 40.5t38 104.5zM526 356q0 63 -40.5 102.5t-106.5 39.5h-89v-284h89q66 0 106.5 39.5t40.5 102.5zM619 469h163v29
h-198v-284h198v30h-163v100h153v30h-153v95zM1121 498h-33l-111 -136l-110 136h-32v-284h34v227l102 -124h14l102 124v-227h34v284zM1216 356q0 52 28 84.5t74 32.5t74.5 -33t28.5 -84t-28.5 -83.5t-74.5 -32.5t-74 32.5t-28 83.5zM489 356q0 -50 -29 -81t-78 -31h-58v225
h58q49 0 78 -31.5t29 -81.5z" />
    <glyph glyph-name="uring" unicode="&#x16f;" 
d="M1627 0v700h-1527v-700h1527zM132 32v636h1463v-636h-1463zM1456 356q0 65 -38 106t-100 41t-100.5 -41t-38.5 -106q0 -64 38.5 -104.5t100.5 -40.5t100 40.5t38 104.5zM526 356q0 63 -40.5 102.5t-106.5 39.5h-89v-284h89q66 0 106.5 39.5t40.5 102.5zM619 469h163v29
h-198v-284h198v30h-163v100h153v30h-153v95zM1121 498h-33l-111 -136l-110 136h-32v-284h34v227l102 -124h14l102 124v-227h34v284zM1216 356q0 52 28 84.5t74 32.5t74.5 -33t28.5 -84t-28.5 -83.5t-74.5 -32.5t-74 32.5t-28 83.5zM489 356q0 -50 -29 -81t-78 -31h-58v225
h58q49 0 78 -31.5t29 -81.5z" />
    <glyph glyph-name="Uhungarumlaut" unicode="&#x170;" 
d="M1627 0v700h-1527v-700h1527zM132 32v636h1463v-636h-1463zM1456 356q0 65 -38 106t-100 41t-100.5 -41t-38.5 -106q0 -64 38.5 -104.5t100.5 -40.5t100 40.5t38 104.5zM526 356q0 63 -40.5 102.5t-106.5 39.5h-89v-284h89q66 0 106.5 39.5t40.5 102.5zM619 469h163v29
h-198v-284h198v30h-163v100h153v30h-153v95zM1121 498h-33l-111 -136l-110 136h-32v-284h34v227l102 -124h14l102 124v-227h34v284zM1216 356q0 52 28 84.5t74 32.5t74.5 -33t28.5 -84t-28.5 -83.5t-74.5 -32.5t-74 32.5t-28 83.5zM489 356q0 -50 -29 -81t-78 -31h-58v225
h58q49 0 78 -31.5t29 -81.5z" />
    <glyph glyph-name="uhungarumlaut" unicode="&#x171;" 
d="M1627 0v700h-1527v-700h1527zM132 32v636h1463v-636h-1463zM1456 356q0 65 -38 106t-100 41t-100.5 -41t-38.5 -106q0 -64 38.5 -104.5t100.5 -40.5t100 40.5t38 104.5zM526 356q0 63 -40.5 102.5t-106.5 39.5h-89v-284h89q66 0 106.5 39.5t40.5 102.5zM619 469h163v29
h-198v-284h198v30h-163v100h153v30h-153v95zM1121 498h-33l-111 -136l-110 136h-32v-284h34v227l102 -124h14l102 124v-227h34v284zM1216 356q0 52 28 84.5t74 32.5t74.5 -33t28.5 -84t-28.5 -83.5t-74.5 -32.5t-74 32.5t-28 83.5zM489 356q0 -50 -29 -81t-78 -31h-58v225
h58q49 0 78 -31.5t29 -81.5z" />
    <glyph glyph-name="Uogonek" unicode="&#x172;" 
d="M1627 0v700h-1527v-700h1527zM132 32v636h1463v-636h-1463zM1456 356q0 65 -38 106t-100 41t-100.5 -41t-38.5 -106q0 -64 38.5 -104.5t100.5 -40.5t100 40.5t38 104.5zM526 356q0 63 -40.5 102.5t-106.5 39.5h-89v-284h89q66 0 106.5 39.5t40.5 102.5zM619 469h163v29
h-198v-284h198v30h-163v100h153v30h-153v95zM1121 498h-33l-111 -136l-110 136h-32v-284h34v227l102 -124h14l102 124v-227h34v284zM1216 356q0 52 28 84.5t74 32.5t74.5 -33t28.5 -84t-28.5 -83.5t-74.5 -32.5t-74 32.5t-28 83.5zM489 356q0 -50 -29 -81t-78 -31h-58v225
h58q49 0 78 -31.5t29 -81.5z" />
    <glyph glyph-name="uogonek" unicode="&#x173;" 
d="M1627 0v700h-1527v-700h1527zM132 32v636h1463v-636h-1463zM1456 356q0 65 -38 106t-100 41t-100.5 -41t-38.5 -106q0 -64 38.5 -104.5t100.5 -40.5t100 40.5t38 104.5zM526 356q0 63 -40.5 102.5t-106.5 39.5h-89v-284h89q66 0 106.5 39.5t40.5 102.5zM619 469h163v29
h-198v-284h198v30h-163v100h153v30h-153v95zM1121 498h-33l-111 -136l-110 136h-32v-284h34v227l102 -124h14l102 124v-227h34v284zM1216 356q0 52 28 84.5t74 32.5t74.5 -33t28.5 -84t-28.5 -83.5t-74.5 -32.5t-74 32.5t-28 83.5zM489 356q0 -50 -29 -81t-78 -31h-58v225
h58q49 0 78 -31.5t29 -81.5z" />
    <glyph glyph-name="Wcircumflex" unicode="&#x174;" 
d="M1627 0v700h-1527v-700h1527zM132 32v636h1463v-636h-1463zM1456 356q0 65 -38 106t-100 41t-100.5 -41t-38.5 -106q0 -64 38.5 -104.5t100.5 -40.5t100 40.5t38 104.5zM526 356q0 63 -40.5 102.5t-106.5 39.5h-89v-284h89q66 0 106.5 39.5t40.5 102.5zM619 469h163v29
h-198v-284h198v30h-163v100h153v30h-153v95zM1121 498h-33l-111 -136l-110 136h-32v-284h34v227l102 -124h14l102 124v-227h34v284zM1216 356q0 52 28 84.5t74 32.5t74.5 -33t28.5 -84t-28.5 -83.5t-74.5 -32.5t-74 32.5t-28 83.5zM489 356q0 -50 -29 -81t-78 -31h-58v225
h58q49 0 78 -31.5t29 -81.5z" />
    <glyph glyph-name="wcircumflex" unicode="&#x175;" 
d="M1627 0v700h-1527v-700h1527zM132 32v636h1463v-636h-1463zM1456 356q0 65 -38 106t-100 41t-100.5 -41t-38.5 -106q0 -64 38.5 -104.5t100.5 -40.5t100 40.5t38 104.5zM526 356q0 63 -40.5 102.5t-106.5 39.5h-89v-284h89q66 0 106.5 39.5t40.5 102.5zM619 469h163v29
h-198v-284h198v30h-163v100h153v30h-153v95zM1121 498h-33l-111 -136l-110 136h-32v-284h34v227l102 -124h14l102 124v-227h34v284zM1216 356q0 52 28 84.5t74 32.5t74.5 -33t28.5 -84t-28.5 -83.5t-74.5 -32.5t-74 32.5t-28 83.5zM489 356q0 -50 -29 -81t-78 -31h-58v225
h58q49 0 78 -31.5t29 -81.5z" />
    <glyph glyph-name="Ycircumflex" unicode="&#x176;" 
d="M1627 0v700h-1527v-700h1527zM132 32v636h1463v-636h-1463zM1456 356q0 65 -38 106t-100 41t-100.5 -41t-38.5 -106q0 -64 38.5 -104.5t100.5 -40.5t100 40.5t38 104.5zM526 356q0 63 -40.5 102.5t-106.5 39.5h-89v-284h89q66 0 106.5 39.5t40.5 102.5zM619 469h163v29
h-198v-284h198v30h-163v100h153v30h-153v95zM1121 498h-33l-111 -136l-110 136h-32v-284h34v227l102 -124h14l102 124v-227h34v284zM1216 356q0 52 28 84.5t74 32.5t74.5 -33t28.5 -84t-28.5 -83.5t-74.5 -32.5t-74 32.5t-28 83.5zM489 356q0 -50 -29 -81t-78 -31h-58v225
h58q49 0 78 -31.5t29 -81.5z" />
    <glyph glyph-name="ycircumflex" unicode="&#x177;" 
d="M1627 0v700h-1527v-700h1527zM132 32v636h1463v-636h-1463zM1456 356q0 65 -38 106t-100 41t-100.5 -41t-38.5 -106q0 -64 38.5 -104.5t100.5 -40.5t100 40.5t38 104.5zM526 356q0 63 -40.5 102.5t-106.5 39.5h-89v-284h89q66 0 106.5 39.5t40.5 102.5zM619 469h163v29
h-198v-284h198v30h-163v100h153v30h-153v95zM1121 498h-33l-111 -136l-110 136h-32v-284h34v227l102 -124h14l102 124v-227h34v284zM1216 356q0 52 28 84.5t74 32.5t74.5 -33t28.5 -84t-28.5 -83.5t-74.5 -32.5t-74 32.5t-28 83.5zM489 356q0 -50 -29 -81t-78 -31h-58v225
h58q49 0 78 -31.5t29 -81.5z" />
    <glyph glyph-name="Ydieresis" unicode="&#x178;" 
d="M1627 0v700h-1527v-700h1527zM132 32v636h1463v-636h-1463zM1456 356q0 65 -38 106t-100 41t-100.5 -41t-38.5 -106q0 -64 38.5 -104.5t100.5 -40.5t100 40.5t38 104.5zM526 356q0 63 -40.5 102.5t-106.5 39.5h-89v-284h89q66 0 106.5 39.5t40.5 102.5zM619 469h163v29
h-198v-284h198v30h-163v100h153v30h-153v95zM1121 498h-33l-111 -136l-110 136h-32v-284h34v227l102 -124h14l102 124v-227h34v284zM1216 356q0 52 28 84.5t74 32.5t74.5 -33t28.5 -84t-28.5 -83.5t-74.5 -32.5t-74 32.5t-28 83.5zM489 356q0 -50 -29 -81t-78 -31h-58v225
h58q49 0 78 -31.5t29 -81.5z" />
    <glyph glyph-name="Zacute" unicode="&#x179;" 
d="M1627 0v700h-1527v-700h1527zM132 32v636h1463v-636h-1463zM1456 356q0 65 -38 106t-100 41t-100.5 -41t-38.5 -106q0 -64 38.5 -104.5t100.5 -40.5t100 40.5t38 104.5zM526 356q0 63 -40.5 102.5t-106.5 39.5h-89v-284h89q66 0 106.5 39.5t40.5 102.5zM619 469h163v29
h-198v-284h198v30h-163v100h153v30h-153v95zM1121 498h-33l-111 -136l-110 136h-32v-284h34v227l102 -124h14l102 124v-227h34v284zM1216 356q0 52 28 84.5t74 32.5t74.5 -33t28.5 -84t-28.5 -83.5t-74.5 -32.5t-74 32.5t-28 83.5zM489 356q0 -50 -29 -81t-78 -31h-58v225
h58q49 0 78 -31.5t29 -81.5z" />
    <glyph glyph-name="zacute" unicode="&#x17a;" 
d="M1627 0v700h-1527v-700h1527zM132 32v636h1463v-636h-1463zM1456 356q0 65 -38 106t-100 41t-100.5 -41t-38.5 -106q0 -64 38.5 -104.5t100.5 -40.5t100 40.5t38 104.5zM526 356q0 63 -40.5 102.5t-106.5 39.5h-89v-284h89q66 0 106.5 39.5t40.5 102.5zM619 469h163v29
h-198v-284h198v30h-163v100h153v30h-153v95zM1121 498h-33l-111 -136l-110 136h-32v-284h34v227l102 -124h14l102 124v-227h34v284zM1216 356q0 52 28 84.5t74 32.5t74.5 -33t28.5 -84t-28.5 -83.5t-74.5 -32.5t-74 32.5t-28 83.5zM489 356q0 -50 -29 -81t-78 -31h-58v225
h58q49 0 78 -31.5t29 -81.5z" />
    <glyph glyph-name="Zdotaccent" unicode="&#x17b;" 
d="M1627 0v700h-1527v-700h1527zM132 32v636h1463v-636h-1463zM1456 356q0 65 -38 106t-100 41t-100.5 -41t-38.5 -106q0 -64 38.5 -104.5t100.5 -40.5t100 40.5t38 104.5zM526 356q0 63 -40.5 102.5t-106.5 39.5h-89v-284h89q66 0 106.5 39.5t40.5 102.5zM619 469h163v29
h-198v-284h198v30h-163v100h153v30h-153v95zM1121 498h-33l-111 -136l-110 136h-32v-284h34v227l102 -124h14l102 124v-227h34v284zM1216 356q0 52 28 84.5t74 32.5t74.5 -33t28.5 -84t-28.5 -83.5t-74.5 -32.5t-74 32.5t-28 83.5zM489 356q0 -50 -29 -81t-78 -31h-58v225
h58q49 0 78 -31.5t29 -81.5z" />
    <glyph glyph-name="zdotaccent" unicode="&#x17c;" 
d="M1627 0v700h-1527v-700h1527zM132 32v636h1463v-636h-1463zM1456 356q0 65 -38 106t-100 41t-100.5 -41t-38.5 -106q0 -64 38.5 -104.5t100.5 -40.5t100 40.5t38 104.5zM526 356q0 63 -40.5 102.5t-106.5 39.5h-89v-284h89q66 0 106.5 39.5t40.5 102.5zM619 469h163v29
h-198v-284h198v30h-163v100h153v30h-153v95zM1121 498h-33l-111 -136l-110 136h-32v-284h34v227l102 -124h14l102 124v-227h34v284zM1216 356q0 52 28 84.5t74 32.5t74.5 -33t28.5 -84t-28.5 -83.5t-74.5 -32.5t-74 32.5t-28 83.5zM489 356q0 -50 -29 -81t-78 -31h-58v225
h58q49 0 78 -31.5t29 -81.5z" />
    <glyph glyph-name="Zcaron" unicode="&#x17d;" 
d="M1627 0v700h-1527v-700h1527zM132 32v636h1463v-636h-1463zM1456 356q0 65 -38 106t-100 41t-100.5 -41t-38.5 -106q0 -64 38.5 -104.5t100.5 -40.5t100 40.5t38 104.5zM526 356q0 63 -40.5 102.5t-106.5 39.5h-89v-284h89q66 0 106.5 39.5t40.5 102.5zM619 469h163v29
h-198v-284h198v30h-163v100h153v30h-153v95zM1121 498h-33l-111 -136l-110 136h-32v-284h34v227l102 -124h14l102 124v-227h34v284zM1216 356q0 52 28 84.5t74 32.5t74.5 -33t28.5 -84t-28.5 -83.5t-74.5 -32.5t-74 32.5t-28 83.5zM489 356q0 -50 -29 -81t-78 -31h-58v225
h58q49 0 78 -31.5t29 -81.5z" />
    <glyph glyph-name="zcaron" unicode="&#x17e;" 
d="M1627 0v700h-1527v-700h1527zM132 32v636h1463v-636h-1463zM1456 356q0 65 -38 106t-100 41t-100.5 -41t-38.5 -106q0 -64 38.5 -104.5t100.5 -40.5t100 40.5t38 104.5zM526 356q0 63 -40.5 102.5t-106.5 39.5h-89v-284h89q66 0 106.5 39.5t40.5 102.5zM619 469h163v29
h-198v-284h198v30h-163v100h153v30h-153v95zM1121 498h-33l-111 -136l-110 136h-32v-284h34v227l102 -124h14l102 124v-227h34v284zM1216 356q0 52 28 84.5t74 32.5t74.5 -33t28.5 -84t-28.5 -83.5t-74.5 -32.5t-74 32.5t-28 83.5zM489 356q0 -50 -29 -81t-78 -31h-58v225
h58q49 0 78 -31.5t29 -81.5z" />
    <glyph glyph-name="Scommaaccent" unicode="&#x218;" 
d="M1627 0v700h-1527v-700h1527zM132 32v636h1463v-636h-1463zM1456 356q0 65 -38 106t-100 41t-100.5 -41t-38.5 -106q0 -64 38.5 -104.5t100.5 -40.5t100 40.5t38 104.5zM526 356q0 63 -40.5 102.5t-106.5 39.5h-89v-284h89q66 0 106.5 39.5t40.5 102.5zM619 469h163v29
h-198v-284h198v30h-163v100h153v30h-153v95zM1121 498h-33l-111 -136l-110 136h-32v-284h34v227l102 -124h14l102 124v-227h34v284zM1216 356q0 52 28 84.5t74 32.5t74.5 -33t28.5 -84t-28.5 -83.5t-74.5 -32.5t-74 32.5t-28 83.5zM489 356q0 -50 -29 -81t-78 -31h-58v225
h58q49 0 78 -31.5t29 -81.5z" />
    <glyph glyph-name="scommaaccent" unicode="&#x219;" 
d="M1627 0v700h-1527v-700h1527zM132 32v636h1463v-636h-1463zM1456 356q0 65 -38 106t-100 41t-100.5 -41t-38.5 -106q0 -64 38.5 -104.5t100.5 -40.5t100 40.5t38 104.5zM526 356q0 63 -40.5 102.5t-106.5 39.5h-89v-284h89q66 0 106.5 39.5t40.5 102.5zM619 469h163v29
h-198v-284h198v30h-163v100h153v30h-153v95zM1121 498h-33l-111 -136l-110 136h-32v-284h34v227l102 -124h14l102 124v-227h34v284zM1216 356q0 52 28 84.5t74 32.5t74.5 -33t28.5 -84t-28.5 -83.5t-74.5 -32.5t-74 32.5t-28 83.5zM489 356q0 -50 -29 -81t-78 -31h-58v225
h58q49 0 78 -31.5t29 -81.5z" />
    <glyph glyph-name="uni021A" unicode="&#x21a;" 
d="M1627 0v700h-1527v-700h1527zM132 32v636h1463v-636h-1463zM1456 356q0 65 -38 106t-100 41t-100.5 -41t-38.5 -106q0 -64 38.5 -104.5t100.5 -40.5t100 40.5t38 104.5zM526 356q0 63 -40.5 102.5t-106.5 39.5h-89v-284h89q66 0 106.5 39.5t40.5 102.5zM619 469h163v29
h-198v-284h198v30h-163v100h153v30h-153v95zM1121 498h-33l-111 -136l-110 136h-32v-284h34v227l102 -124h14l102 124v-227h34v284zM1216 356q0 52 28 84.5t74 32.5t74.5 -33t28.5 -84t-28.5 -83.5t-74.5 -32.5t-74 32.5t-28 83.5zM489 356q0 -50 -29 -81t-78 -31h-58v225
h58q49 0 78 -31.5t29 -81.5z" />
    <glyph glyph-name="uni021B" unicode="&#x21b;" 
d="M1627 0v700h-1527v-700h1527zM132 32v636h1463v-636h-1463zM1456 356q0 65 -38 106t-100 41t-100.5 -41t-38.5 -106q0 -64 38.5 -104.5t100.5 -40.5t100 40.5t38 104.5zM526 356q0 63 -40.5 102.5t-106.5 39.5h-89v-284h89q66 0 106.5 39.5t40.5 102.5zM619 469h163v29
h-198v-284h198v30h-163v100h153v30h-153v95zM1121 498h-33l-111 -136l-110 136h-32v-284h34v227l102 -124h14l102 124v-227h34v284zM1216 356q0 52 28 84.5t74 32.5t74.5 -33t28.5 -84t-28.5 -83.5t-74.5 -32.5t-74 32.5t-28 83.5zM489 356q0 -50 -29 -81t-78 -31h-58v225
h58q49 0 78 -31.5t29 -81.5z" />
    <glyph glyph-name="circumflex" unicode="&#x2c6;" 
d="M1627 0v700h-1527v-700h1527zM132 32v636h1463v-636h-1463zM1456 356q0 65 -38 106t-100 41t-100.5 -41t-38.5 -106q0 -64 38.5 -104.5t100.5 -40.5t100 40.5t38 104.5zM526 356q0 63 -40.5 102.5t-106.5 39.5h-89v-284h89q66 0 106.5 39.5t40.5 102.5zM619 469h163v29
h-198v-284h198v30h-163v100h153v30h-153v95zM1121 498h-33l-111 -136l-110 136h-32v-284h34v227l102 -124h14l102 124v-227h34v284zM1216 356q0 52 28 84.5t74 32.5t74.5 -33t28.5 -84t-28.5 -83.5t-74.5 -32.5t-74 32.5t-28 83.5zM489 356q0 -50 -29 -81t-78 -31h-58v225
h58q49 0 78 -31.5t29 -81.5z" />
    <glyph glyph-name="caron" unicode="&#x2c7;" 
d="M1627 0v700h-1527v-700h1527zM132 32v636h1463v-636h-1463zM1456 356q0 65 -38 106t-100 41t-100.5 -41t-38.5 -106q0 -64 38.5 -104.5t100.5 -40.5t100 40.5t38 104.5zM526 356q0 63 -40.5 102.5t-106.5 39.5h-89v-284h89q66 0 106.5 39.5t40.5 102.5zM619 469h163v29
h-198v-284h198v30h-163v100h153v30h-153v95zM1121 498h-33l-111 -136l-110 136h-32v-284h34v227l102 -124h14l102 124v-227h34v284zM1216 356q0 52 28 84.5t74 32.5t74.5 -33t28.5 -84t-28.5 -83.5t-74.5 -32.5t-74 32.5t-28 83.5zM489 356q0 -50 -29 -81t-78 -31h-58v225
h58q49 0 78 -31.5t29 -81.5z" />
    <glyph glyph-name="breve" unicode="&#x2d8;" 
d="M1627 0v700h-1527v-700h1527zM132 32v636h1463v-636h-1463zM1456 356q0 65 -38 106t-100 41t-100.5 -41t-38.5 -106q0 -64 38.5 -104.5t100.5 -40.5t100 40.5t38 104.5zM526 356q0 63 -40.5 102.5t-106.5 39.5h-89v-284h89q66 0 106.5 39.5t40.5 102.5zM619 469h163v29
h-198v-284h198v30h-163v100h153v30h-153v95zM1121 498h-33l-111 -136l-110 136h-32v-284h34v227l102 -124h14l102 124v-227h34v284zM1216 356q0 52 28 84.5t74 32.5t74.5 -33t28.5 -84t-28.5 -83.5t-74.5 -32.5t-74 32.5t-28 83.5zM489 356q0 -50 -29 -81t-78 -31h-58v225
h58q49 0 78 -31.5t29 -81.5z" />
    <glyph glyph-name="dotaccent" unicode="&#x2d9;" 
d="M1627 0v700h-1527v-700h1527zM132 32v636h1463v-636h-1463zM1456 356q0 65 -38 106t-100 41t-100.5 -41t-38.5 -106q0 -64 38.5 -104.5t100.5 -40.5t100 40.5t38 104.5zM526 356q0 63 -40.5 102.5t-106.5 39.5h-89v-284h89q66 0 106.5 39.5t40.5 102.5zM619 469h163v29
h-198v-284h198v30h-163v100h153v30h-153v95zM1121 498h-33l-111 -136l-110 136h-32v-284h34v227l102 -124h14l102 124v-227h34v284zM1216 356q0 52 28 84.5t74 32.5t74.5 -33t28.5 -84t-28.5 -83.5t-74.5 -32.5t-74 32.5t-28 83.5zM489 356q0 -50 -29 -81t-78 -31h-58v225
h58q49 0 78 -31.5t29 -81.5z" />
    <glyph glyph-name="ring" unicode="&#x2da;" 
d="M1627 0v700h-1527v-700h1527zM132 32v636h1463v-636h-1463zM1456 356q0 65 -38 106t-100 41t-100.5 -41t-38.5 -106q0 -64 38.5 -104.5t100.5 -40.5t100 40.5t38 104.5zM526 356q0 63 -40.5 102.5t-106.5 39.5h-89v-284h89q66 0 106.5 39.5t40.5 102.5zM619 469h163v29
h-198v-284h198v30h-163v100h153v30h-153v95zM1121 498h-33l-111 -136l-110 136h-32v-284h34v227l102 -124h14l102 124v-227h34v284zM1216 356q0 52 28 84.5t74 32.5t74.5 -33t28.5 -84t-28.5 -83.5t-74.5 -32.5t-74 32.5t-28 83.5zM489 356q0 -50 -29 -81t-78 -31h-58v225
h58q49 0 78 -31.5t29 -81.5z" />
    <glyph glyph-name="ogonek" unicode="&#x2db;" 
d="M1627 0v700h-1527v-700h1527zM132 32v636h1463v-636h-1463zM1456 356q0 65 -38 106t-100 41t-100.5 -41t-38.5 -106q0 -64 38.5 -104.5t100.5 -40.5t100 40.5t38 104.5zM526 356q0 63 -40.5 102.5t-106.5 39.5h-89v-284h89q66 0 106.5 39.5t40.5 102.5zM619 469h163v29
h-198v-284h198v30h-163v100h153v30h-153v95zM1121 498h-33l-111 -136l-110 136h-32v-284h34v227l102 -124h14l102 124v-227h34v284zM1216 356q0 52 28 84.5t74 32.5t74.5 -33t28.5 -84t-28.5 -83.5t-74.5 -32.5t-74 32.5t-28 83.5zM489 356q0 -50 -29 -81t-78 -31h-58v225
h58q49 0 78 -31.5t29 -81.5z" />
    <glyph glyph-name="tilde" unicode="&#x2dc;" 
d="M1627 0v700h-1527v-700h1527zM132 32v636h1463v-636h-1463zM1456 356q0 65 -38 106t-100 41t-100.5 -41t-38.5 -106q0 -64 38.5 -104.5t100.5 -40.5t100 40.5t38 104.5zM526 356q0 63 -40.5 102.5t-106.5 39.5h-89v-284h89q66 0 106.5 39.5t40.5 102.5zM619 469h163v29
h-198v-284h198v30h-163v100h153v30h-153v95zM1121 498h-33l-111 -136l-110 136h-32v-284h34v227l102 -124h14l102 124v-227h34v284zM1216 356q0 52 28 84.5t74 32.5t74.5 -33t28.5 -84t-28.5 -83.5t-74.5 -32.5t-74 32.5t-28 83.5zM489 356q0 -50 -29 -81t-78 -31h-58v225
h58q49 0 78 -31.5t29 -81.5z" />
    <glyph glyph-name="hungarumlaut" unicode="&#x2dd;" 
d="M1627 0v700h-1527v-700h1527zM132 32v636h1463v-636h-1463zM1456 356q0 65 -38 106t-100 41t-100.5 -41t-38.5 -106q0 -64 38.5 -104.5t100.5 -40.5t100 40.5t38 104.5zM526 356q0 63 -40.5 102.5t-106.5 39.5h-89v-284h89q66 0 106.5 39.5t40.5 102.5zM619 469h163v29
h-198v-284h198v30h-163v100h153v30h-153v95zM1121 498h-33l-111 -136l-110 136h-32v-284h34v227l102 -124h14l102 124v-227h34v284zM1216 356q0 52 28 84.5t74 32.5t74.5 -33t28.5 -84t-28.5 -83.5t-74.5 -32.5t-74 32.5t-28 83.5zM489 356q0 -50 -29 -81t-78 -31h-58v225
h58q49 0 78 -31.5t29 -81.5z" />
    <glyph glyph-name="gravecomb" unicode="&#x300;" horiz-adv-x="0" 
d="M-100 0v700h-1527v-700h1527zM-1595 32v636h1463v-636h-1463zM-271 356q0 65 -38 106t-100 41t-100.5 -41t-38.5 -106q0 -64 38.5 -104.5t100.5 -40.5t100 40.5t38 104.5zM-1201 356q0 63 -40.5 102.5t-106.5 39.5h-89v-284h89q66 0 106.5 39.5t40.5 102.5zM-1108 469
h163v29h-198v-284h198v30h-163v100h153v30h-153v95zM-606 498h-33l-111 -136l-110 136h-32v-284h34v227l102 -124h14l102 124v-227h34v284zM-511 356q0 52 28 84.5t74 32.5t74.5 -33t28.5 -84t-28.5 -83.5t-74.5 -32.5t-74 32.5t-28 83.5zM-1238 356q0 -50 -29 -81t-78 -31
h-58v225h58q49 0 78 -31.5t29 -81.5z" />
    <glyph glyph-name="acutecomb" unicode="&#x301;" horiz-adv-x="0" 
d="M-100 0v700h-1527v-700h1527zM-1595 32v636h1463v-636h-1463zM-271 356q0 65 -38 106t-100 41t-100.5 -41t-38.5 -106q0 -64 38.5 -104.5t100.5 -40.5t100 40.5t38 104.5zM-1201 356q0 63 -40.5 102.5t-106.5 39.5h-89v-284h89q66 0 106.5 39.5t40.5 102.5zM-1108 469
h163v29h-198v-284h198v30h-163v100h153v30h-153v95zM-606 498h-33l-111 -136l-110 136h-32v-284h34v227l102 -124h14l102 124v-227h34v284zM-511 356q0 52 28 84.5t74 32.5t74.5 -33t28.5 -84t-28.5 -83.5t-74.5 -32.5t-74 32.5t-28 83.5zM-1238 356q0 -50 -29 -81t-78 -31
h-58v225h58q49 0 78 -31.5t29 -81.5z" />
    <glyph glyph-name="uni0302" unicode="&#x302;" horiz-adv-x="0" 
d="M-100 0v700h-1527v-700h1527zM-1595 32v636h1463v-636h-1463zM-271 356q0 65 -38 106t-100 41t-100.5 -41t-38.5 -106q0 -64 38.5 -104.5t100.5 -40.5t100 40.5t38 104.5zM-1201 356q0 63 -40.5 102.5t-106.5 39.5h-89v-284h89q66 0 106.5 39.5t40.5 102.5zM-1108 469
h163v29h-198v-284h198v30h-163v100h153v30h-153v95zM-606 498h-33l-111 -136l-110 136h-32v-284h34v227l102 -124h14l102 124v-227h34v284zM-511 356q0 52 28 84.5t74 32.5t74.5 -33t28.5 -84t-28.5 -83.5t-74.5 -32.5t-74 32.5t-28 83.5zM-1238 356q0 -50 -29 -81t-78 -31
h-58v225h58q49 0 78 -31.5t29 -81.5z" />
    <glyph glyph-name="tildecomb" unicode="&#x303;" horiz-adv-x="0" 
d="M-100 0v700h-1527v-700h1527zM-1595 32v636h1463v-636h-1463zM-271 356q0 65 -38 106t-100 41t-100.5 -41t-38.5 -106q0 -64 38.5 -104.5t100.5 -40.5t100 40.5t38 104.5zM-1201 356q0 63 -40.5 102.5t-106.5 39.5h-89v-284h89q66 0 106.5 39.5t40.5 102.5zM-1108 469
h163v29h-198v-284h198v30h-163v100h153v30h-153v95zM-606 498h-33l-111 -136l-110 136h-32v-284h34v227l102 -124h14l102 124v-227h34v284zM-511 356q0 52 28 84.5t74 32.5t74.5 -33t28.5 -84t-28.5 -83.5t-74.5 -32.5t-74 32.5t-28 83.5zM-1238 356q0 -50 -29 -81t-78 -31
h-58v225h58q49 0 78 -31.5t29 -81.5z" />
    <glyph glyph-name="uni0304" unicode="&#x304;" horiz-adv-x="0" 
d="M-100 0v700h-1527v-700h1527zM-1595 32v636h1463v-636h-1463zM-271 356q0 65 -38 106t-100 41t-100.5 -41t-38.5 -106q0 -64 38.5 -104.5t100.5 -40.5t100 40.5t38 104.5zM-1201 356q0 63 -40.5 102.5t-106.5 39.5h-89v-284h89q66 0 106.5 39.5t40.5 102.5zM-1108 469
h163v29h-198v-284h198v30h-163v100h153v30h-153v95zM-606 498h-33l-111 -136l-110 136h-32v-284h34v227l102 -124h14l102 124v-227h34v284zM-511 356q0 52 28 84.5t74 32.5t74.5 -33t28.5 -84t-28.5 -83.5t-74.5 -32.5t-74 32.5t-28 83.5zM-1238 356q0 -50 -29 -81t-78 -31
h-58v225h58q49 0 78 -31.5t29 -81.5z" />
    <glyph glyph-name="uni0306" unicode="&#x306;" horiz-adv-x="0" 
d="M-100 0v700h-1527v-700h1527zM-1595 32v636h1463v-636h-1463zM-271 356q0 65 -38 106t-100 41t-100.5 -41t-38.5 -106q0 -64 38.5 -104.5t100.5 -40.5t100 40.5t38 104.5zM-1201 356q0 63 -40.5 102.5t-106.5 39.5h-89v-284h89q66 0 106.5 39.5t40.5 102.5zM-1108 469
h163v29h-198v-284h198v30h-163v100h153v30h-153v95zM-606 498h-33l-111 -136l-110 136h-32v-284h34v227l102 -124h14l102 124v-227h34v284zM-511 356q0 52 28 84.5t74 32.5t74.5 -33t28.5 -84t-28.5 -83.5t-74.5 -32.5t-74 32.5t-28 83.5zM-1238 356q0 -50 -29 -81t-78 -31
h-58v225h58q49 0 78 -31.5t29 -81.5z" />
    <glyph glyph-name="uni0307" unicode="&#x307;" horiz-adv-x="0" 
d="M-100 0v700h-1527v-700h1527zM-1595 32v636h1463v-636h-1463zM-271 356q0 65 -38 106t-100 41t-100.5 -41t-38.5 -106q0 -64 38.5 -104.5t100.5 -40.5t100 40.5t38 104.5zM-1201 356q0 63 -40.5 102.5t-106.5 39.5h-89v-284h89q66 0 106.5 39.5t40.5 102.5zM-1108 469
h163v29h-198v-284h198v30h-163v100h153v30h-153v95zM-606 498h-33l-111 -136l-110 136h-32v-284h34v227l102 -124h14l102 124v-227h34v284zM-511 356q0 52 28 84.5t74 32.5t74.5 -33t28.5 -84t-28.5 -83.5t-74.5 -32.5t-74 32.5t-28 83.5zM-1238 356q0 -50 -29 -81t-78 -31
h-58v225h58q49 0 78 -31.5t29 -81.5z" />
    <glyph glyph-name="uni0308" unicode="&#x308;" horiz-adv-x="0" 
d="M-100 0v700h-1527v-700h1527zM-1595 32v636h1463v-636h-1463zM-271 356q0 65 -38 106t-100 41t-100.5 -41t-38.5 -106q0 -64 38.5 -104.5t100.5 -40.5t100 40.5t38 104.5zM-1201 356q0 63 -40.5 102.5t-106.5 39.5h-89v-284h89q66 0 106.5 39.5t40.5 102.5zM-1108 469
h163v29h-198v-284h198v30h-163v100h153v30h-153v95zM-606 498h-33l-111 -136l-110 136h-32v-284h34v227l102 -124h14l102 124v-227h34v284zM-511 356q0 52 28 84.5t74 32.5t74.5 -33t28.5 -84t-28.5 -83.5t-74.5 -32.5t-74 32.5t-28 83.5zM-1238 356q0 -50 -29 -81t-78 -31
h-58v225h58q49 0 78 -31.5t29 -81.5z" />
    <glyph glyph-name="uni030A" unicode="&#x30a;" horiz-adv-x="0" 
d="M-100 0v700h-1527v-700h1527zM-1595 32v636h1463v-636h-1463zM-271 356q0 65 -38 106t-100 41t-100.5 -41t-38.5 -106q0 -64 38.5 -104.5t100.5 -40.5t100 40.5t38 104.5zM-1201 356q0 63 -40.5 102.5t-106.5 39.5h-89v-284h89q66 0 106.5 39.5t40.5 102.5zM-1108 469
h163v29h-198v-284h198v30h-163v100h153v30h-153v95zM-606 498h-33l-111 -136l-110 136h-32v-284h34v227l102 -124h14l102 124v-227h34v284zM-511 356q0 52 28 84.5t74 32.5t74.5 -33t28.5 -84t-28.5 -83.5t-74.5 -32.5t-74 32.5t-28 83.5zM-1238 356q0 -50 -29 -81t-78 -31
h-58v225h58q49 0 78 -31.5t29 -81.5z" />
    <glyph glyph-name="uni030B" unicode="&#x30b;" horiz-adv-x="0" 
d="M-100 0v700h-1527v-700h1527zM-1595 32v636h1463v-636h-1463zM-271 356q0 65 -38 106t-100 41t-100.5 -41t-38.5 -106q0 -64 38.5 -104.5t100.5 -40.5t100 40.5t38 104.5zM-1201 356q0 63 -40.5 102.5t-106.5 39.5h-89v-284h89q66 0 106.5 39.5t40.5 102.5zM-1108 469
h163v29h-198v-284h198v30h-163v100h153v30h-153v95zM-606 498h-33l-111 -136l-110 136h-32v-284h34v227l102 -124h14l102 124v-227h34v284zM-511 356q0 52 28 84.5t74 32.5t74.5 -33t28.5 -84t-28.5 -83.5t-74.5 -32.5t-74 32.5t-28 83.5zM-1238 356q0 -50 -29 -81t-78 -31
h-58v225h58q49 0 78 -31.5t29 -81.5z" />
    <glyph glyph-name="uni030C" unicode="&#x30c;" horiz-adv-x="0" 
d="M-100 0v700h-1527v-700h1527zM-1595 32v636h1463v-636h-1463zM-271 356q0 65 -38 106t-100 41t-100.5 -41t-38.5 -106q0 -64 38.5 -104.5t100.5 -40.5t100 40.5t38 104.5zM-1201 356q0 63 -40.5 102.5t-106.5 39.5h-89v-284h89q66 0 106.5 39.5t40.5 102.5zM-1108 469
h163v29h-198v-284h198v30h-163v100h153v30h-153v95zM-606 498h-33l-111 -136l-110 136h-32v-284h34v227l102 -124h14l102 124v-227h34v284zM-511 356q0 52 28 84.5t74 32.5t74.5 -33t28.5 -84t-28.5 -83.5t-74.5 -32.5t-74 32.5t-28 83.5zM-1238 356q0 -50 -29 -81t-78 -31
h-58v225h58q49 0 78 -31.5t29 -81.5z" />
    <glyph glyph-name="uni0312" unicode="&#x312;" horiz-adv-x="0" 
d="M-100 0v700h-1527v-700h1527zM-1595 32v636h1463v-636h-1463zM-271 356q0 65 -38 106t-100 41t-100.5 -41t-38.5 -106q0 -64 38.5 -104.5t100.5 -40.5t100 40.5t38 104.5zM-1201 356q0 63 -40.5 102.5t-106.5 39.5h-89v-284h89q66 0 106.5 39.5t40.5 102.5zM-1108 469
h163v29h-198v-284h198v30h-163v100h153v30h-153v95zM-606 498h-33l-111 -136l-110 136h-32v-284h34v227l102 -124h14l102 124v-227h34v284zM-511 356q0 52 28 84.5t74 32.5t74.5 -33t28.5 -84t-28.5 -83.5t-74.5 -32.5t-74 32.5t-28 83.5zM-1238 356q0 -50 -29 -81t-78 -31
h-58v225h58q49 0 78 -31.5t29 -81.5z" />
    <glyph glyph-name="uni0326" unicode="&#x326;" horiz-adv-x="0" 
d="M-100 0v700h-1527v-700h1527zM-1595 32v636h1463v-636h-1463zM-271 356q0 65 -38 106t-100 41t-100.5 -41t-38.5 -106q0 -64 38.5 -104.5t100.5 -40.5t100 40.5t38 104.5zM-1201 356q0 63 -40.5 102.5t-106.5 39.5h-89v-284h89q66 0 106.5 39.5t40.5 102.5zM-1108 469
h163v29h-198v-284h198v30h-163v100h153v30h-153v95zM-606 498h-33l-111 -136l-110 136h-32v-284h34v227l102 -124h14l102 124v-227h34v284zM-511 356q0 52 28 84.5t74 32.5t74.5 -33t28.5 -84t-28.5 -83.5t-74.5 -32.5t-74 32.5t-28 83.5zM-1238 356q0 -50 -29 -81t-78 -31
h-58v225h58q49 0 78 -31.5t29 -81.5z" />
    <glyph glyph-name="uni0327" unicode="&#x327;" horiz-adv-x="0" 
d="M-100 0v700h-1527v-700h1527zM-1595 32v636h1463v-636h-1463zM-271 356q0 65 -38 106t-100 41t-100.5 -41t-38.5 -106q0 -64 38.5 -104.5t100.5 -40.5t100 40.5t38 104.5zM-1201 356q0 63 -40.5 102.5t-106.5 39.5h-89v-284h89q66 0 106.5 39.5t40.5 102.5zM-1108 469
h163v29h-198v-284h198v30h-163v100h153v30h-153v95zM-606 498h-33l-111 -136l-110 136h-32v-284h34v227l102 -124h14l102 124v-227h34v284zM-511 356q0 52 28 84.5t74 32.5t74.5 -33t28.5 -84t-28.5 -83.5t-74.5 -32.5t-74 32.5t-28 83.5zM-1238 356q0 -50 -29 -81t-78 -31
h-58v225h58q49 0 78 -31.5t29 -81.5z" />
    <glyph glyph-name="uni0328" unicode="&#x328;" horiz-adv-x="0" 
d="M-100 0v700h-1527v-700h1527zM-1595 32v636h1463v-636h-1463zM-271 356q0 65 -38 106t-100 41t-100.5 -41t-38.5 -106q0 -64 38.5 -104.5t100.5 -40.5t100 40.5t38 104.5zM-1201 356q0 63 -40.5 102.5t-106.5 39.5h-89v-284h89q66 0 106.5 39.5t40.5 102.5zM-1108 469
h163v29h-198v-284h198v30h-163v100h153v30h-153v95zM-606 498h-33l-111 -136l-110 136h-32v-284h34v227l102 -124h14l102 124v-227h34v284zM-511 356q0 52 28 84.5t74 32.5t74.5 -33t28.5 -84t-28.5 -83.5t-74.5 -32.5t-74 32.5t-28 83.5zM-1238 356q0 -50 -29 -81t-78 -31
h-58v225h58q49 0 78 -31.5t29 -81.5z" />
    <glyph glyph-name="uni0335" unicode="&#x335;" horiz-adv-x="0" 
d="M-100 0v700h-1527v-700h1527zM-1595 32v636h1463v-636h-1463zM-271 356q0 65 -38 106t-100 41t-100.5 -41t-38.5 -106q0 -64 38.5 -104.5t100.5 -40.5t100 40.5t38 104.5zM-1201 356q0 63 -40.5 102.5t-106.5 39.5h-89v-284h89q66 0 106.5 39.5t40.5 102.5zM-1108 469
h163v29h-198v-284h198v30h-163v100h153v30h-153v95zM-606 498h-33l-111 -136l-110 136h-32v-284h34v227l102 -124h14l102 124v-227h34v284zM-511 356q0 52 28 84.5t74 32.5t74.5 -33t28.5 -84t-28.5 -83.5t-74.5 -32.5t-74 32.5t-28 83.5zM-1238 356q0 -50 -29 -81t-78 -31
h-58v225h58q49 0 78 -31.5t29 -81.5z" />
    <glyph glyph-name="uni0336" unicode="&#x336;" horiz-adv-x="0" 
d="M-100 0v700h-1527v-700h1527zM-1595 32v636h1463v-636h-1463zM-271 356q0 65 -38 106t-100 41t-100.5 -41t-38.5 -106q0 -64 38.5 -104.5t100.5 -40.5t100 40.5t38 104.5zM-1201 356q0 63 -40.5 102.5t-106.5 39.5h-89v-284h89q66 0 106.5 39.5t40.5 102.5zM-1108 469
h163v29h-198v-284h198v30h-163v100h153v30h-153v95zM-606 498h-33l-111 -136l-110 136h-32v-284h34v227l102 -124h14l102 124v-227h34v284zM-511 356q0 52 28 84.5t74 32.5t74.5 -33t28.5 -84t-28.5 -83.5t-74.5 -32.5t-74 32.5t-28 83.5zM-1238 356q0 -50 -29 -81t-78 -31
h-58v225h58q49 0 78 -31.5t29 -81.5z" />
    <glyph glyph-name="uni0337" unicode="&#x337;" horiz-adv-x="0" 
d="M-100 0v700h-1527v-700h1527zM-1595 32v636h1463v-636h-1463zM-271 356q0 65 -38 106t-100 41t-100.5 -41t-38.5 -106q0 -64 38.5 -104.5t100.5 -40.5t100 40.5t38 104.5zM-1201 356q0 63 -40.5 102.5t-106.5 39.5h-89v-284h89q66 0 106.5 39.5t40.5 102.5zM-1108 469
h163v29h-198v-284h198v30h-163v100h153v30h-153v95zM-606 498h-33l-111 -136l-110 136h-32v-284h34v227l102 -124h14l102 124v-227h34v284zM-511 356q0 52 28 84.5t74 32.5t74.5 -33t28.5 -84t-28.5 -83.5t-74.5 -32.5t-74 32.5t-28 83.5zM-1238 356q0 -50 -29 -81t-78 -31
h-58v225h58q49 0 78 -31.5t29 -81.5z" />
    <glyph glyph-name="uni0338" unicode="&#x338;" horiz-adv-x="0" 
d="M-100 0v700h-1527v-700h1527zM-1595 32v636h1463v-636h-1463zM-271 356q0 65 -38 106t-100 41t-100.5 -41t-38.5 -106q0 -64 38.5 -104.5t100.5 -40.5t100 40.5t38 104.5zM-1201 356q0 63 -40.5 102.5t-106.5 39.5h-89v-284h89q66 0 106.5 39.5t40.5 102.5zM-1108 469
h163v29h-198v-284h198v30h-163v100h153v30h-153v95zM-606 498h-33l-111 -136l-110 136h-32v-284h34v227l102 -124h14l102 124v-227h34v284zM-511 356q0 52 28 84.5t74 32.5t74.5 -33t28.5 -84t-28.5 -83.5t-74.5 -32.5t-74 32.5t-28 83.5zM-1238 356q0 -50 -29 -81t-78 -31
h-58v225h58q49 0 78 -31.5t29 -81.5z" />
    <glyph glyph-name="uni03BC" unicode="&#x3bc;" 
d="M1627 0v700h-1527v-700h1527zM132 32v636h1463v-636h-1463zM1456 356q0 65 -38 106t-100 41t-100.5 -41t-38.5 -106q0 -64 38.5 -104.5t100.5 -40.5t100 40.5t38 104.5zM526 356q0 63 -40.5 102.5t-106.5 39.5h-89v-284h89q66 0 106.5 39.5t40.5 102.5zM619 469h163v29
h-198v-284h198v30h-163v100h153v30h-153v95zM1121 498h-33l-111 -136l-110 136h-32v-284h34v227l102 -124h14l102 124v-227h34v284zM1216 356q0 52 28 84.5t74 32.5t74.5 -33t28.5 -84t-28.5 -83.5t-74.5 -32.5t-74 32.5t-28 83.5zM489 356q0 -50 -29 -81t-78 -31h-58v225
h58q49 0 78 -31.5t29 -81.5z" />
    <glyph glyph-name="Wgrave" unicode="&#x1e80;" 
d="M1627 0v700h-1527v-700h1527zM132 32v636h1463v-636h-1463zM1456 356q0 65 -38 106t-100 41t-100.5 -41t-38.5 -106q0 -64 38.5 -104.5t100.5 -40.5t100 40.5t38 104.5zM526 356q0 63 -40.5 102.5t-106.5 39.5h-89v-284h89q66 0 106.5 39.5t40.5 102.5zM619 469h163v29
h-198v-284h198v30h-163v100h153v30h-153v95zM1121 498h-33l-111 -136l-110 136h-32v-284h34v227l102 -124h14l102 124v-227h34v284zM1216 356q0 52 28 84.5t74 32.5t74.5 -33t28.5 -84t-28.5 -83.5t-74.5 -32.5t-74 32.5t-28 83.5zM489 356q0 -50 -29 -81t-78 -31h-58v225
h58q49 0 78 -31.5t29 -81.5z" />
    <glyph glyph-name="wgrave" unicode="&#x1e81;" 
d="M1627 0v700h-1527v-700h1527zM132 32v636h1463v-636h-1463zM1456 356q0 65 -38 106t-100 41t-100.5 -41t-38.5 -106q0 -64 38.5 -104.5t100.5 -40.5t100 40.5t38 104.5zM526 356q0 63 -40.5 102.5t-106.5 39.5h-89v-284h89q66 0 106.5 39.5t40.5 102.5zM619 469h163v29
h-198v-284h198v30h-163v100h153v30h-153v95zM1121 498h-33l-111 -136l-110 136h-32v-284h34v227l102 -124h14l102 124v-227h34v284zM1216 356q0 52 28 84.5t74 32.5t74.5 -33t28.5 -84t-28.5 -83.5t-74.5 -32.5t-74 32.5t-28 83.5zM489 356q0 -50 -29 -81t-78 -31h-58v225
h58q49 0 78 -31.5t29 -81.5z" />
    <glyph glyph-name="Wacute" unicode="&#x1e82;" 
d="M1627 0v700h-1527v-700h1527zM132 32v636h1463v-636h-1463zM1456 356q0 65 -38 106t-100 41t-100.5 -41t-38.5 -106q0 -64 38.5 -104.5t100.5 -40.5t100 40.5t38 104.5zM526 356q0 63 -40.5 102.5t-106.5 39.5h-89v-284h89q66 0 106.5 39.5t40.5 102.5zM619 469h163v29
h-198v-284h198v30h-163v100h153v30h-153v95zM1121 498h-33l-111 -136l-110 136h-32v-284h34v227l102 -124h14l102 124v-227h34v284zM1216 356q0 52 28 84.5t74 32.5t74.5 -33t28.5 -84t-28.5 -83.5t-74.5 -32.5t-74 32.5t-28 83.5zM489 356q0 -50 -29 -81t-78 -31h-58v225
h58q49 0 78 -31.5t29 -81.5z" />
    <glyph glyph-name="wacute" unicode="&#x1e83;" 
d="M1627 0v700h-1527v-700h1527zM132 32v636h1463v-636h-1463zM1456 356q0 65 -38 106t-100 41t-100.5 -41t-38.5 -106q0 -64 38.5 -104.5t100.5 -40.5t100 40.5t38 104.5zM526 356q0 63 -40.5 102.5t-106.5 39.5h-89v-284h89q66 0 106.5 39.5t40.5 102.5zM619 469h163v29
h-198v-284h198v30h-163v100h153v30h-153v95zM1121 498h-33l-111 -136l-110 136h-32v-284h34v227l102 -124h14l102 124v-227h34v284zM1216 356q0 52 28 84.5t74 32.5t74.5 -33t28.5 -84t-28.5 -83.5t-74.5 -32.5t-74 32.5t-28 83.5zM489 356q0 -50 -29 -81t-78 -31h-58v225
h58q49 0 78 -31.5t29 -81.5z" />
    <glyph glyph-name="Wdieresis" unicode="&#x1e84;" 
d="M1627 0v700h-1527v-700h1527zM132 32v636h1463v-636h-1463zM1456 356q0 65 -38 106t-100 41t-100.5 -41t-38.5 -106q0 -64 38.5 -104.5t100.5 -40.5t100 40.5t38 104.5zM526 356q0 63 -40.5 102.5t-106.5 39.5h-89v-284h89q66 0 106.5 39.5t40.5 102.5zM619 469h163v29
h-198v-284h198v30h-163v100h153v30h-153v95zM1121 498h-33l-111 -136l-110 136h-32v-284h34v227l102 -124h14l102 124v-227h34v284zM1216 356q0 52 28 84.5t74 32.5t74.5 -33t28.5 -84t-28.5 -83.5t-74.5 -32.5t-74 32.5t-28 83.5zM489 356q0 -50 -29 -81t-78 -31h-58v225
h58q49 0 78 -31.5t29 -81.5z" />
    <glyph glyph-name="wdieresis" unicode="&#x1e85;" 
d="M1627 0v700h-1527v-700h1527zM132 32v636h1463v-636h-1463zM1456 356q0 65 -38 106t-100 41t-100.5 -41t-38.5 -106q0 -64 38.5 -104.5t100.5 -40.5t100 40.5t38 104.5zM526 356q0 63 -40.5 102.5t-106.5 39.5h-89v-284h89q66 0 106.5 39.5t40.5 102.5zM619 469h163v29
h-198v-284h198v30h-163v100h153v30h-153v95zM1121 498h-33l-111 -136l-110 136h-32v-284h34v227l102 -124h14l102 124v-227h34v284zM1216 356q0 52 28 84.5t74 32.5t74.5 -33t28.5 -84t-28.5 -83.5t-74.5 -32.5t-74 32.5t-28 83.5zM489 356q0 -50 -29 -81t-78 -31h-58v225
h58q49 0 78 -31.5t29 -81.5z" />
    <glyph glyph-name="Ygrave" unicode="&#x1ef2;" 
d="M1627 0v700h-1527v-700h1527zM132 32v636h1463v-636h-1463zM1456 356q0 65 -38 106t-100 41t-100.5 -41t-38.5 -106q0 -64 38.5 -104.5t100.5 -40.5t100 40.5t38 104.5zM526 356q0 63 -40.5 102.5t-106.5 39.5h-89v-284h89q66 0 106.5 39.5t40.5 102.5zM619 469h163v29
h-198v-284h198v30h-163v100h153v30h-153v95zM1121 498h-33l-111 -136l-110 136h-32v-284h34v227l102 -124h14l102 124v-227h34v284zM1216 356q0 52 28 84.5t74 32.5t74.5 -33t28.5 -84t-28.5 -83.5t-74.5 -32.5t-74 32.5t-28 83.5zM489 356q0 -50 -29 -81t-78 -31h-58v225
h58q49 0 78 -31.5t29 -81.5z" />
    <glyph glyph-name="ygrave" unicode="&#x1ef3;" 
d="M1627 0v700h-1527v-700h1527zM132 32v636h1463v-636h-1463zM1456 356q0 65 -38 106t-100 41t-100.5 -41t-38.5 -106q0 -64 38.5 -104.5t100.5 -40.5t100 40.5t38 104.5zM526 356q0 63 -40.5 102.5t-106.5 39.5h-89v-284h89q66 0 106.5 39.5t40.5 102.5zM619 469h163v29
h-198v-284h198v30h-163v100h153v30h-153v95zM1121 498h-33l-111 -136l-110 136h-32v-284h34v227l102 -124h14l102 124v-227h34v284zM1216 356q0 52 28 84.5t74 32.5t74.5 -33t28.5 -84t-28.5 -83.5t-74.5 -32.5t-74 32.5t-28 83.5zM489 356q0 -50 -29 -81t-78 -31h-58v225
h58q49 0 78 -31.5t29 -81.5z" />
    <glyph glyph-name="uni2009" unicode="&#x2009;" horiz-adv-x="98" 
 />
    <glyph glyph-name="endash" unicode="&#x2013;" horiz-adv-x="694" 
d="M54 344h586v-112h-586v112z" />
    <glyph glyph-name="emdash" unicode="&#x2014;" horiz-adv-x="1108" 
d="M54 344h1000v-112h-1000v112z" />
    <glyph glyph-name="quoteleft" unicode="&#x2018;" horiz-adv-x="295" 
d="M222 700l-12 -273h-178l92 273h98z" />
    <glyph glyph-name="quoteright" unicode="&#x2019;" horiz-adv-x="283" 
d="M71 427l12 273h178l-92 -273h-98z" />
    <glyph glyph-name="quotesinglbase" unicode="&#x201a;" horiz-adv-x="283" 
d="M67 -119l12 273h178l-92 -273h-98z" />
    <glyph glyph-name="quotedblleft" unicode="&#x201c;" horiz-adv-x="511" 
d="M222 700l-12 -273h-178l92 273h98zM438 700l-12 -273h-178l92 273h98z" />
    <glyph glyph-name="quotedblright" unicode="&#x201d;" horiz-adv-x="499" 
d="M71 427l12 273h178l-92 -273h-98zM287 427l12 273h178l-92 -273h-98z" />
    <glyph glyph-name="quotedblbase" unicode="&#x201e;" horiz-adv-x="499" 
d="M71 -119l12 273h178l-92 -273h-98zM287 -119l12 273h178l-92 -273h-98z" />
    <glyph glyph-name="dagger" unicode="&#x2020;" 
d="M1627 0v700h-1527v-700h1527zM132 32v636h1463v-636h-1463zM1456 356q0 65 -38 106t-100 41t-100.5 -41t-38.5 -106q0 -64 38.5 -104.5t100.5 -40.5t100 40.5t38 104.5zM526 356q0 63 -40.5 102.5t-106.5 39.5h-89v-284h89q66 0 106.5 39.5t40.5 102.5zM619 469h163v29
h-198v-284h198v30h-163v100h153v30h-153v95zM1121 498h-33l-111 -136l-110 136h-32v-284h34v227l102 -124h14l102 124v-227h34v284zM1216 356q0 52 28 84.5t74 32.5t74.5 -33t28.5 -84t-28.5 -83.5t-74.5 -32.5t-74 32.5t-28 83.5zM489 356q0 -50 -29 -81t-78 -31h-58v225
h58q49 0 78 -31.5t29 -81.5z" />
    <glyph glyph-name="daggerdbl" unicode="&#x2021;" 
d="M1627 0v700h-1527v-700h1527zM132 32v636h1463v-636h-1463zM1456 356q0 65 -38 106t-100 41t-100.5 -41t-38.5 -106q0 -64 38.5 -104.5t100.5 -40.5t100 40.5t38 104.5zM526 356q0 63 -40.5 102.5t-106.5 39.5h-89v-284h89q66 0 106.5 39.5t40.5 102.5zM619 469h163v29
h-198v-284h198v30h-163v100h153v30h-153v95zM1121 498h-33l-111 -136l-110 136h-32v-284h34v227l102 -124h14l102 124v-227h34v284zM1216 356q0 52 28 84.5t74 32.5t74.5 -33t28.5 -84t-28.5 -83.5t-74.5 -32.5t-74 32.5t-28 83.5zM489 356q0 -50 -29 -81t-78 -31h-58v225
h58q49 0 78 -31.5t29 -81.5z" />
    <glyph glyph-name="bullet" unicode="&#x2022;" horiz-adv-x="406" 
d="M203 161q-67 0 -114 47.5t-47 112.5v2q0 65 47 112.5t114 47.5q66 0 113.5 -47.5t47.5 -112.5v-2q0 -65 -47.5 -112.5t-113.5 -47.5z" />
    <glyph glyph-name="ellipsis" unicode="&#x2026;" horiz-adv-x="803" 
d="M55 0v154h158v-154h-158zM323 0v154h158v-154h-158zM591 0v154h158v-154h-158z" />
    <glyph glyph-name="perthousand" unicode="&#x2030;" 
d="M1627 0v700h-1527v-700h1527zM132 32v636h1463v-636h-1463zM1456 356q0 65 -38 106t-100 41t-100.5 -41t-38.5 -106q0 -64 38.5 -104.5t100.5 -40.5t100 40.5t38 104.5zM526 356q0 63 -40.5 102.5t-106.5 39.5h-89v-284h89q66 0 106.5 39.5t40.5 102.5zM619 469h163v29
h-198v-284h198v30h-163v100h153v30h-153v95zM1121 498h-33l-111 -136l-110 136h-32v-284h34v227l102 -124h14l102 124v-227h34v284zM1216 356q0 52 28 84.5t74 32.5t74.5 -33t28.5 -84t-28.5 -83.5t-74.5 -32.5t-74 32.5t-28 83.5zM489 356q0 -50 -29 -81t-78 -31h-58v225
h58q49 0 78 -31.5t29 -81.5z" />
    <glyph glyph-name="guilsinglleft" unicode="&#x2039;" horiz-adv-x="374" 
d="M185 261l151 -183h-153l-141 183l141 183h153z" />
    <glyph glyph-name="guilsinglright" unicode="&#x203a;" horiz-adv-x="374" 
d="M189 261l-151 183h153l141 -183l-141 -183h-153z" />
    <glyph glyph-name="fraction" unicode="&#x2044;" 
d="M1627 0v700h-1527v-700h1527zM132 32v636h1463v-636h-1463zM1456 356q0 65 -38 106t-100 41t-100.5 -41t-38.5 -106q0 -64 38.5 -104.5t100.5 -40.5t100 40.5t38 104.5zM526 356q0 63 -40.5 102.5t-106.5 39.5h-89v-284h89q66 0 106.5 39.5t40.5 102.5zM619 469h163v29
h-198v-284h198v30h-163v100h153v30h-153v95zM1121 498h-33l-111 -136l-110 136h-32v-284h34v227l102 -124h14l102 124v-227h34v284zM1216 356q0 52 28 84.5t74 32.5t74.5 -33t28.5 -84t-28.5 -83.5t-74.5 -32.5t-74 32.5t-28 83.5zM489 356q0 -50 -29 -81t-78 -31h-58v225
h58q49 0 78 -31.5t29 -81.5z" />
    <glyph glyph-name="uni2070" unicode="&#x2070;" 
d="M1627 0v700h-1527v-700h1527zM132 32v636h1463v-636h-1463zM1456 356q0 65 -38 106t-100 41t-100.5 -41t-38.5 -106q0 -64 38.5 -104.5t100.5 -40.5t100 40.5t38 104.5zM526 356q0 63 -40.5 102.5t-106.5 39.5h-89v-284h89q66 0 106.5 39.5t40.5 102.5zM619 469h163v29
h-198v-284h198v30h-163v100h153v30h-153v95zM1121 498h-33l-111 -136l-110 136h-32v-284h34v227l102 -124h14l102 124v-227h34v284zM1216 356q0 52 28 84.5t74 32.5t74.5 -33t28.5 -84t-28.5 -83.5t-74.5 -32.5t-74 32.5t-28 83.5zM489 356q0 -50 -29 -81t-78 -31h-58v225
h58q49 0 78 -31.5t29 -81.5z" />
    <glyph glyph-name="uni2074" unicode="&#x2074;" 
d="M1627 0v700h-1527v-700h1527zM132 32v636h1463v-636h-1463zM1456 356q0 65 -38 106t-100 41t-100.5 -41t-38.5 -106q0 -64 38.5 -104.5t100.5 -40.5t100 40.5t38 104.5zM526 356q0 63 -40.5 102.5t-106.5 39.5h-89v-284h89q66 0 106.5 39.5t40.5 102.5zM619 469h163v29
h-198v-284h198v30h-163v100h153v30h-153v95zM1121 498h-33l-111 -136l-110 136h-32v-284h34v227l102 -124h14l102 124v-227h34v284zM1216 356q0 52 28 84.5t74 32.5t74.5 -33t28.5 -84t-28.5 -83.5t-74.5 -32.5t-74 32.5t-28 83.5zM489 356q0 -50 -29 -81t-78 -31h-58v225
h58q49 0 78 -31.5t29 -81.5z" />
    <glyph glyph-name="uni2075" unicode="&#x2075;" 
d="M1627 0v700h-1527v-700h1527zM132 32v636h1463v-636h-1463zM1456 356q0 65 -38 106t-100 41t-100.5 -41t-38.5 -106q0 -64 38.5 -104.5t100.5 -40.5t100 40.5t38 104.5zM526 356q0 63 -40.5 102.5t-106.5 39.5h-89v-284h89q66 0 106.5 39.5t40.5 102.5zM619 469h163v29
h-198v-284h198v30h-163v100h153v30h-153v95zM1121 498h-33l-111 -136l-110 136h-32v-284h34v227l102 -124h14l102 124v-227h34v284zM1216 356q0 52 28 84.5t74 32.5t74.5 -33t28.5 -84t-28.5 -83.5t-74.5 -32.5t-74 32.5t-28 83.5zM489 356q0 -50 -29 -81t-78 -31h-58v225
h58q49 0 78 -31.5t29 -81.5z" />
    <glyph glyph-name="uni2076" unicode="&#x2076;" 
d="M1627 0v700h-1527v-700h1527zM132 32v636h1463v-636h-1463zM1456 356q0 65 -38 106t-100 41t-100.5 -41t-38.5 -106q0 -64 38.5 -104.5t100.5 -40.5t100 40.5t38 104.5zM526 356q0 63 -40.5 102.5t-106.5 39.5h-89v-284h89q66 0 106.5 39.5t40.5 102.5zM619 469h163v29
h-198v-284h198v30h-163v100h153v30h-153v95zM1121 498h-33l-111 -136l-110 136h-32v-284h34v227l102 -124h14l102 124v-227h34v284zM1216 356q0 52 28 84.5t74 32.5t74.5 -33t28.5 -84t-28.5 -83.5t-74.5 -32.5t-74 32.5t-28 83.5zM489 356q0 -50 -29 -81t-78 -31h-58v225
h58q49 0 78 -31.5t29 -81.5z" />
    <glyph glyph-name="uni2077" unicode="&#x2077;" 
d="M1627 0v700h-1527v-700h1527zM132 32v636h1463v-636h-1463zM1456 356q0 65 -38 106t-100 41t-100.5 -41t-38.5 -106q0 -64 38.5 -104.5t100.5 -40.5t100 40.5t38 104.5zM526 356q0 63 -40.5 102.5t-106.5 39.5h-89v-284h89q66 0 106.5 39.5t40.5 102.5zM619 469h163v29
h-198v-284h198v30h-163v100h153v30h-153v95zM1121 498h-33l-111 -136l-110 136h-32v-284h34v227l102 -124h14l102 124v-227h34v284zM1216 356q0 52 28 84.5t74 32.5t74.5 -33t28.5 -84t-28.5 -83.5t-74.5 -32.5t-74 32.5t-28 83.5zM489 356q0 -50 -29 -81t-78 -31h-58v225
h58q49 0 78 -31.5t29 -81.5z" />
    <glyph glyph-name="uni2078" unicode="&#x2078;" 
d="M1627 0v700h-1527v-700h1527zM132 32v636h1463v-636h-1463zM1456 356q0 65 -38 106t-100 41t-100.5 -41t-38.5 -106q0 -64 38.5 -104.5t100.5 -40.5t100 40.5t38 104.5zM526 356q0 63 -40.5 102.5t-106.5 39.5h-89v-284h89q66 0 106.5 39.5t40.5 102.5zM619 469h163v29
h-198v-284h198v30h-163v100h153v30h-153v95zM1121 498h-33l-111 -136l-110 136h-32v-284h34v227l102 -124h14l102 124v-227h34v284zM1216 356q0 52 28 84.5t74 32.5t74.5 -33t28.5 -84t-28.5 -83.5t-74.5 -32.5t-74 32.5t-28 83.5zM489 356q0 -50 -29 -81t-78 -31h-58v225
h58q49 0 78 -31.5t29 -81.5z" />
    <glyph glyph-name="uni2079" unicode="&#x2079;" 
d="M1627 0v700h-1527v-700h1527zM132 32v636h1463v-636h-1463zM1456 356q0 65 -38 106t-100 41t-100.5 -41t-38.5 -106q0 -64 38.5 -104.5t100.5 -40.5t100 40.5t38 104.5zM526 356q0 63 -40.5 102.5t-106.5 39.5h-89v-284h89q66 0 106.5 39.5t40.5 102.5zM619 469h163v29
h-198v-284h198v30h-163v100h153v30h-153v95zM1121 498h-33l-111 -136l-110 136h-32v-284h34v227l102 -124h14l102 124v-227h34v284zM1216 356q0 52 28 84.5t74 32.5t74.5 -33t28.5 -84t-28.5 -83.5t-74.5 -32.5t-74 32.5t-28 83.5zM489 356q0 -50 -29 -81t-78 -31h-58v225
h58q49 0 78 -31.5t29 -81.5z" />
    <glyph glyph-name="uni2080" unicode="&#x2080;" 
d="M1627 0v700h-1527v-700h1527zM132 32v636h1463v-636h-1463zM1456 356q0 65 -38 106t-100 41t-100.5 -41t-38.5 -106q0 -64 38.5 -104.5t100.5 -40.5t100 40.5t38 104.5zM526 356q0 63 -40.5 102.5t-106.5 39.5h-89v-284h89q66 0 106.5 39.5t40.5 102.5zM619 469h163v29
h-198v-284h198v30h-163v100h153v30h-153v95zM1121 498h-33l-111 -136l-110 136h-32v-284h34v227l102 -124h14l102 124v-227h34v284zM1216 356q0 52 28 84.5t74 32.5t74.5 -33t28.5 -84t-28.5 -83.5t-74.5 -32.5t-74 32.5t-28 83.5zM489 356q0 -50 -29 -81t-78 -31h-58v225
h58q49 0 78 -31.5t29 -81.5z" />
    <glyph glyph-name="uni2081" unicode="&#x2081;" 
d="M1627 0v700h-1527v-700h1527zM132 32v636h1463v-636h-1463zM1456 356q0 65 -38 106t-100 41t-100.5 -41t-38.5 -106q0 -64 38.5 -104.5t100.5 -40.5t100 40.5t38 104.5zM526 356q0 63 -40.5 102.5t-106.5 39.5h-89v-284h89q66 0 106.5 39.5t40.5 102.5zM619 469h163v29
h-198v-284h198v30h-163v100h153v30h-153v95zM1121 498h-33l-111 -136l-110 136h-32v-284h34v227l102 -124h14l102 124v-227h34v284zM1216 356q0 52 28 84.5t74 32.5t74.5 -33t28.5 -84t-28.5 -83.5t-74.5 -32.5t-74 32.5t-28 83.5zM489 356q0 -50 -29 -81t-78 -31h-58v225
h58q49 0 78 -31.5t29 -81.5z" />
    <glyph glyph-name="uni2082" unicode="&#x2082;" 
d="M1627 0v700h-1527v-700h1527zM132 32v636h1463v-636h-1463zM1456 356q0 65 -38 106t-100 41t-100.5 -41t-38.5 -106q0 -64 38.5 -104.5t100.5 -40.5t100 40.5t38 104.5zM526 356q0 63 -40.5 102.5t-106.5 39.5h-89v-284h89q66 0 106.5 39.5t40.5 102.5zM619 469h163v29
h-198v-284h198v30h-163v100h153v30h-153v95zM1121 498h-33l-111 -136l-110 136h-32v-284h34v227l102 -124h14l102 124v-227h34v284zM1216 356q0 52 28 84.5t74 32.5t74.5 -33t28.5 -84t-28.5 -83.5t-74.5 -32.5t-74 32.5t-28 83.5zM489 356q0 -50 -29 -81t-78 -31h-58v225
h58q49 0 78 -31.5t29 -81.5z" />
    <glyph glyph-name="uni2083" unicode="&#x2083;" 
d="M1627 0v700h-1527v-700h1527zM132 32v636h1463v-636h-1463zM1456 356q0 65 -38 106t-100 41t-100.5 -41t-38.5 -106q0 -64 38.5 -104.5t100.5 -40.5t100 40.5t38 104.5zM526 356q0 63 -40.5 102.5t-106.5 39.5h-89v-284h89q66 0 106.5 39.5t40.5 102.5zM619 469h163v29
h-198v-284h198v30h-163v100h153v30h-153v95zM1121 498h-33l-111 -136l-110 136h-32v-284h34v227l102 -124h14l102 124v-227h34v284zM1216 356q0 52 28 84.5t74 32.5t74.5 -33t28.5 -84t-28.5 -83.5t-74.5 -32.5t-74 32.5t-28 83.5zM489 356q0 -50 -29 -81t-78 -31h-58v225
h58q49 0 78 -31.5t29 -81.5z" />
    <glyph glyph-name="uni2084" unicode="&#x2084;" 
d="M1627 0v700h-1527v-700h1527zM132 32v636h1463v-636h-1463zM1456 356q0 65 -38 106t-100 41t-100.5 -41t-38.5 -106q0 -64 38.5 -104.5t100.5 -40.5t100 40.5t38 104.5zM526 356q0 63 -40.5 102.5t-106.5 39.5h-89v-284h89q66 0 106.5 39.5t40.5 102.5zM619 469h163v29
h-198v-284h198v30h-163v100h153v30h-153v95zM1121 498h-33l-111 -136l-110 136h-32v-284h34v227l102 -124h14l102 124v-227h34v284zM1216 356q0 52 28 84.5t74 32.5t74.5 -33t28.5 -84t-28.5 -83.5t-74.5 -32.5t-74 32.5t-28 83.5zM489 356q0 -50 -29 -81t-78 -31h-58v225
h58q49 0 78 -31.5t29 -81.5z" />
    <glyph glyph-name="uni2085" unicode="&#x2085;" 
d="M1627 0v700h-1527v-700h1527zM132 32v636h1463v-636h-1463zM1456 356q0 65 -38 106t-100 41t-100.5 -41t-38.5 -106q0 -64 38.5 -104.5t100.5 -40.5t100 40.5t38 104.5zM526 356q0 63 -40.5 102.5t-106.5 39.5h-89v-284h89q66 0 106.5 39.5t40.5 102.5zM619 469h163v29
h-198v-284h198v30h-163v100h153v30h-153v95zM1121 498h-33l-111 -136l-110 136h-32v-284h34v227l102 -124h14l102 124v-227h34v284zM1216 356q0 52 28 84.5t74 32.5t74.5 -33t28.5 -84t-28.5 -83.5t-74.5 -32.5t-74 32.5t-28 83.5zM489 356q0 -50 -29 -81t-78 -31h-58v225
h58q49 0 78 -31.5t29 -81.5z" />
    <glyph glyph-name="uni2086" unicode="&#x2086;" 
d="M1627 0v700h-1527v-700h1527zM132 32v636h1463v-636h-1463zM1456 356q0 65 -38 106t-100 41t-100.5 -41t-38.5 -106q0 -64 38.5 -104.5t100.5 -40.5t100 40.5t38 104.5zM526 356q0 63 -40.5 102.5t-106.5 39.5h-89v-284h89q66 0 106.5 39.5t40.5 102.5zM619 469h163v29
h-198v-284h198v30h-163v100h153v30h-153v95zM1121 498h-33l-111 -136l-110 136h-32v-284h34v227l102 -124h14l102 124v-227h34v284zM1216 356q0 52 28 84.5t74 32.5t74.5 -33t28.5 -84t-28.5 -83.5t-74.5 -32.5t-74 32.5t-28 83.5zM489 356q0 -50 -29 -81t-78 -31h-58v225
h58q49 0 78 -31.5t29 -81.5z" />
    <glyph glyph-name="uni2087" unicode="&#x2087;" 
d="M1627 0v700h-1527v-700h1527zM132 32v636h1463v-636h-1463zM1456 356q0 65 -38 106t-100 41t-100.5 -41t-38.5 -106q0 -64 38.5 -104.5t100.5 -40.5t100 40.5t38 104.5zM526 356q0 63 -40.5 102.5t-106.5 39.5h-89v-284h89q66 0 106.5 39.5t40.5 102.5zM619 469h163v29
h-198v-284h198v30h-163v100h153v30h-153v95zM1121 498h-33l-111 -136l-110 136h-32v-284h34v227l102 -124h14l102 124v-227h34v284zM1216 356q0 52 28 84.5t74 32.5t74.5 -33t28.5 -84t-28.5 -83.5t-74.5 -32.5t-74 32.5t-28 83.5zM489 356q0 -50 -29 -81t-78 -31h-58v225
h58q49 0 78 -31.5t29 -81.5z" />
    <glyph glyph-name="uni2088" unicode="&#x2088;" 
d="M1627 0v700h-1527v-700h1527zM132 32v636h1463v-636h-1463zM1456 356q0 65 -38 106t-100 41t-100.5 -41t-38.5 -106q0 -64 38.5 -104.5t100.5 -40.5t100 40.5t38 104.5zM526 356q0 63 -40.5 102.5t-106.5 39.5h-89v-284h89q66 0 106.5 39.5t40.5 102.5zM619 469h163v29
h-198v-284h198v30h-163v100h153v30h-153v95zM1121 498h-33l-111 -136l-110 136h-32v-284h34v227l102 -124h14l102 124v-227h34v284zM1216 356q0 52 28 84.5t74 32.5t74.5 -33t28.5 -84t-28.5 -83.5t-74.5 -32.5t-74 32.5t-28 83.5zM489 356q0 -50 -29 -81t-78 -31h-58v225
h58q49 0 78 -31.5t29 -81.5z" />
    <glyph glyph-name="uni2089" unicode="&#x2089;" 
d="M1627 0v700h-1527v-700h1527zM132 32v636h1463v-636h-1463zM1456 356q0 65 -38 106t-100 41t-100.5 -41t-38.5 -106q0 -64 38.5 -104.5t100.5 -40.5t100 40.5t38 104.5zM526 356q0 63 -40.5 102.5t-106.5 39.5h-89v-284h89q66 0 106.5 39.5t40.5 102.5zM619 469h163v29
h-198v-284h198v30h-163v100h153v30h-153v95zM1121 498h-33l-111 -136l-110 136h-32v-284h34v227l102 -124h14l102 124v-227h34v284zM1216 356q0 52 28 84.5t74 32.5t74.5 -33t28.5 -84t-28.5 -83.5t-74.5 -32.5t-74 32.5t-28 83.5zM489 356q0 -50 -29 -81t-78 -31h-58v225
h58q49 0 78 -31.5t29 -81.5z" />
    <glyph glyph-name="Euro" unicode="&#x20ac;" horiz-adv-x="762" 
d="M412 103q52 0 88.5 37.5t51.5 105.5h155q-23 -120 -103 -189.5t-192 -69.5q-119 0 -199 67t-107 184h-96v78h85q-1 11 -1 33q0 25 1 37h-85v78h96q27 117 107.5 183t198.5 66q112 0 191 -68.5t104 -188.5h-156q-14 67 -50.5 104t-88.5 37q-116 0 -152 -133h213v-78h-225
q-1 -12 -1 -37q0 -22 1 -33h225v-78h-213q35 -135 152 -135z" />
    <glyph glyph-name="uni2116" unicode="&#x2116;" 
d="M1627 0v700h-1527v-700h1527zM132 32v636h1463v-636h-1463zM1456 356q0 65 -38 106t-100 41t-100.5 -41t-38.5 -106q0 -64 38.5 -104.5t100.5 -40.5t100 40.5t38 104.5zM526 356q0 63 -40.5 102.5t-106.5 39.5h-89v-284h89q66 0 106.5 39.5t40.5 102.5zM619 469h163v29
h-198v-284h198v30h-163v100h153v30h-153v95zM1121 498h-33l-111 -136l-110 136h-32v-284h34v227l102 -124h14l102 124v-227h34v284zM1216 356q0 52 28 84.5t74 32.5t74.5 -33t28.5 -84t-28.5 -83.5t-74.5 -32.5t-74 32.5t-28 83.5zM489 356q0 -50 -29 -81t-78 -31h-58v225
h58q49 0 78 -31.5t29 -81.5z" />
    <glyph glyph-name="uni2117" unicode="&#x2117;" 
d="M1627 0v700h-1527v-700h1527zM132 32v636h1463v-636h-1463zM1456 356q0 65 -38 106t-100 41t-100.5 -41t-38.5 -106q0 -64 38.5 -104.5t100.5 -40.5t100 40.5t38 104.5zM526 356q0 63 -40.5 102.5t-106.5 39.5h-89v-284h89q66 0 106.5 39.5t40.5 102.5zM619 469h163v29
h-198v-284h198v30h-163v100h153v30h-153v95zM1121 498h-33l-111 -136l-110 136h-32v-284h34v227l102 -124h14l102 124v-227h34v284zM1216 356q0 52 28 84.5t74 32.5t74.5 -33t28.5 -84t-28.5 -83.5t-74.5 -32.5t-74 32.5t-28 83.5zM489 356q0 -50 -29 -81t-78 -31h-58v225
h58q49 0 78 -31.5t29 -81.5z" />
    <glyph glyph-name="uni2120" unicode="&#x2120;" 
d="M1627 0v700h-1527v-700h1527zM132 32v636h1463v-636h-1463zM1456 356q0 65 -38 106t-100 41t-100.5 -41t-38.5 -106q0 -64 38.5 -104.5t100.5 -40.5t100 40.5t38 104.5zM526 356q0 63 -40.5 102.5t-106.5 39.5h-89v-284h89q66 0 106.5 39.5t40.5 102.5zM619 469h163v29
h-198v-284h198v30h-163v100h153v30h-153v95zM1121 498h-33l-111 -136l-110 136h-32v-284h34v227l102 -124h14l102 124v-227h34v284zM1216 356q0 52 28 84.5t74 32.5t74.5 -33t28.5 -84t-28.5 -83.5t-74.5 -32.5t-74 32.5t-28 83.5zM489 356q0 -50 -29 -81t-78 -31h-58v225
h58q49 0 78 -31.5t29 -81.5z" />
    <glyph glyph-name="trademark" unicode="&#x2122;" 
d="M1627 0v700h-1527v-700h1527zM132 32v636h1463v-636h-1463zM1456 356q0 65 -38 106t-100 41t-100.5 -41t-38.5 -106q0 -64 38.5 -104.5t100.5 -40.5t100 40.5t38 104.5zM526 356q0 63 -40.5 102.5t-106.5 39.5h-89v-284h89q66 0 106.5 39.5t40.5 102.5zM619 469h163v29
h-198v-284h198v30h-163v100h153v30h-153v95zM1121 498h-33l-111 -136l-110 136h-32v-284h34v227l102 -124h14l102 124v-227h34v284zM1216 356q0 52 28 84.5t74 32.5t74.5 -33t28.5 -84t-28.5 -83.5t-74.5 -32.5t-74 32.5t-28 83.5zM489 356q0 -50 -29 -81t-78 -31h-58v225
h58q49 0 78 -31.5t29 -81.5z" />
    <glyph glyph-name="uni2150" unicode="&#x2150;" 
d="M1627 0v700h-1527v-700h1527zM132 32v636h1463v-636h-1463zM1456 356q0 65 -38 106t-100 41t-100.5 -41t-38.5 -106q0 -64 38.5 -104.5t100.5 -40.5t100 40.5t38 104.5zM526 356q0 63 -40.5 102.5t-106.5 39.5h-89v-284h89q66 0 106.5 39.5t40.5 102.5zM619 469h163v29
h-198v-284h198v30h-163v100h153v30h-153v95zM1121 498h-33l-111 -136l-110 136h-32v-284h34v227l102 -124h14l102 124v-227h34v284zM1216 356q0 52 28 84.5t74 32.5t74.5 -33t28.5 -84t-28.5 -83.5t-74.5 -32.5t-74 32.5t-28 83.5zM489 356q0 -50 -29 -81t-78 -31h-58v225
h58q49 0 78 -31.5t29 -81.5z" />
    <glyph glyph-name="uni2151" unicode="&#x2151;" 
d="M1627 0v700h-1527v-700h1527zM132 32v636h1463v-636h-1463zM1456 356q0 65 -38 106t-100 41t-100.5 -41t-38.5 -106q0 -64 38.5 -104.5t100.5 -40.5t100 40.5t38 104.5zM526 356q0 63 -40.5 102.5t-106.5 39.5h-89v-284h89q66 0 106.5 39.5t40.5 102.5zM619 469h163v29
h-198v-284h198v30h-163v100h153v30h-153v95zM1121 498h-33l-111 -136l-110 136h-32v-284h34v227l102 -124h14l102 124v-227h34v284zM1216 356q0 52 28 84.5t74 32.5t74.5 -33t28.5 -84t-28.5 -83.5t-74.5 -32.5t-74 32.5t-28 83.5zM489 356q0 -50 -29 -81t-78 -31h-58v225
h58q49 0 78 -31.5t29 -81.5z" />
    <glyph glyph-name="uni2152" unicode="&#x2152;" 
d="M1627 0v700h-1527v-700h1527zM132 32v636h1463v-636h-1463zM1456 356q0 65 -38 106t-100 41t-100.5 -41t-38.5 -106q0 -64 38.5 -104.5t100.5 -40.5t100 40.5t38 104.5zM526 356q0 63 -40.5 102.5t-106.5 39.5h-89v-284h89q66 0 106.5 39.5t40.5 102.5zM619 469h163v29
h-198v-284h198v30h-163v100h153v30h-153v95zM1121 498h-33l-111 -136l-110 136h-32v-284h34v227l102 -124h14l102 124v-227h34v284zM1216 356q0 52 28 84.5t74 32.5t74.5 -33t28.5 -84t-28.5 -83.5t-74.5 -32.5t-74 32.5t-28 83.5zM489 356q0 -50 -29 -81t-78 -31h-58v225
h58q49 0 78 -31.5t29 -81.5z" />
    <glyph glyph-name="uni2153" unicode="&#x2153;" 
d="M1627 0v700h-1527v-700h1527zM132 32v636h1463v-636h-1463zM1456 356q0 65 -38 106t-100 41t-100.5 -41t-38.5 -106q0 -64 38.5 -104.5t100.5 -40.5t100 40.5t38 104.5zM526 356q0 63 -40.5 102.5t-106.5 39.5h-89v-284h89q66 0 106.5 39.5t40.5 102.5zM619 469h163v29
h-198v-284h198v30h-163v100h153v30h-153v95zM1121 498h-33l-111 -136l-110 136h-32v-284h34v227l102 -124h14l102 124v-227h34v284zM1216 356q0 52 28 84.5t74 32.5t74.5 -33t28.5 -84t-28.5 -83.5t-74.5 -32.5t-74 32.5t-28 83.5zM489 356q0 -50 -29 -81t-78 -31h-58v225
h58q49 0 78 -31.5t29 -81.5z" />
    <glyph glyph-name="uni2154" unicode="&#x2154;" 
d="M1627 0v700h-1527v-700h1527zM132 32v636h1463v-636h-1463zM1456 356q0 65 -38 106t-100 41t-100.5 -41t-38.5 -106q0 -64 38.5 -104.5t100.5 -40.5t100 40.5t38 104.5zM526 356q0 63 -40.5 102.5t-106.5 39.5h-89v-284h89q66 0 106.5 39.5t40.5 102.5zM619 469h163v29
h-198v-284h198v30h-163v100h153v30h-153v95zM1121 498h-33l-111 -136l-110 136h-32v-284h34v227l102 -124h14l102 124v-227h34v284zM1216 356q0 52 28 84.5t74 32.5t74.5 -33t28.5 -84t-28.5 -83.5t-74.5 -32.5t-74 32.5t-28 83.5zM489 356q0 -50 -29 -81t-78 -31h-58v225
h58q49 0 78 -31.5t29 -81.5z" />
    <glyph glyph-name="uni2155" unicode="&#x2155;" 
d="M1627 0v700h-1527v-700h1527zM132 32v636h1463v-636h-1463zM1456 356q0 65 -38 106t-100 41t-100.5 -41t-38.5 -106q0 -64 38.5 -104.5t100.5 -40.5t100 40.5t38 104.5zM526 356q0 63 -40.5 102.5t-106.5 39.5h-89v-284h89q66 0 106.5 39.5t40.5 102.5zM619 469h163v29
h-198v-284h198v30h-163v100h153v30h-153v95zM1121 498h-33l-111 -136l-110 136h-32v-284h34v227l102 -124h14l102 124v-227h34v284zM1216 356q0 52 28 84.5t74 32.5t74.5 -33t28.5 -84t-28.5 -83.5t-74.5 -32.5t-74 32.5t-28 83.5zM489 356q0 -50 -29 -81t-78 -31h-58v225
h58q49 0 78 -31.5t29 -81.5z" />
    <glyph glyph-name="uni2156" unicode="&#x2156;" 
d="M1627 0v700h-1527v-700h1527zM132 32v636h1463v-636h-1463zM1456 356q0 65 -38 106t-100 41t-100.5 -41t-38.5 -106q0 -64 38.5 -104.5t100.5 -40.5t100 40.5t38 104.5zM526 356q0 63 -40.5 102.5t-106.5 39.5h-89v-284h89q66 0 106.5 39.5t40.5 102.5zM619 469h163v29
h-198v-284h198v30h-163v100h153v30h-153v95zM1121 498h-33l-111 -136l-110 136h-32v-284h34v227l102 -124h14l102 124v-227h34v284zM1216 356q0 52 28 84.5t74 32.5t74.5 -33t28.5 -84t-28.5 -83.5t-74.5 -32.5t-74 32.5t-28 83.5zM489 356q0 -50 -29 -81t-78 -31h-58v225
h58q49 0 78 -31.5t29 -81.5z" />
    <glyph glyph-name="uni2157" unicode="&#x2157;" 
d="M1627 0v700h-1527v-700h1527zM132 32v636h1463v-636h-1463zM1456 356q0 65 -38 106t-100 41t-100.5 -41t-38.5 -106q0 -64 38.5 -104.5t100.5 -40.5t100 40.5t38 104.5zM526 356q0 63 -40.5 102.5t-106.5 39.5h-89v-284h89q66 0 106.5 39.5t40.5 102.5zM619 469h163v29
h-198v-284h198v30h-163v100h153v30h-153v95zM1121 498h-33l-111 -136l-110 136h-32v-284h34v227l102 -124h14l102 124v-227h34v284zM1216 356q0 52 28 84.5t74 32.5t74.5 -33t28.5 -84t-28.5 -83.5t-74.5 -32.5t-74 32.5t-28 83.5zM489 356q0 -50 -29 -81t-78 -31h-58v225
h58q49 0 78 -31.5t29 -81.5z" />
    <glyph glyph-name="uni2158" unicode="&#x2158;" 
d="M1627 0v700h-1527v-700h1527zM132 32v636h1463v-636h-1463zM1456 356q0 65 -38 106t-100 41t-100.5 -41t-38.5 -106q0 -64 38.5 -104.5t100.5 -40.5t100 40.5t38 104.5zM526 356q0 63 -40.5 102.5t-106.5 39.5h-89v-284h89q66 0 106.5 39.5t40.5 102.5zM619 469h163v29
h-198v-284h198v30h-163v100h153v30h-153v95zM1121 498h-33l-111 -136l-110 136h-32v-284h34v227l102 -124h14l102 124v-227h34v284zM1216 356q0 52 28 84.5t74 32.5t74.5 -33t28.5 -84t-28.5 -83.5t-74.5 -32.5t-74 32.5t-28 83.5zM489 356q0 -50 -29 -81t-78 -31h-58v225
h58q49 0 78 -31.5t29 -81.5z" />
    <glyph glyph-name="uni2159" unicode="&#x2159;" 
d="M1627 0v700h-1527v-700h1527zM132 32v636h1463v-636h-1463zM1456 356q0 65 -38 106t-100 41t-100.5 -41t-38.5 -106q0 -64 38.5 -104.5t100.5 -40.5t100 40.5t38 104.5zM526 356q0 63 -40.5 102.5t-106.5 39.5h-89v-284h89q66 0 106.5 39.5t40.5 102.5zM619 469h163v29
h-198v-284h198v30h-163v100h153v30h-153v95zM1121 498h-33l-111 -136l-110 136h-32v-284h34v227l102 -124h14l102 124v-227h34v284zM1216 356q0 52 28 84.5t74 32.5t74.5 -33t28.5 -84t-28.5 -83.5t-74.5 -32.5t-74 32.5t-28 83.5zM489 356q0 -50 -29 -81t-78 -31h-58v225
h58q49 0 78 -31.5t29 -81.5z" />
    <glyph glyph-name="uni215A" unicode="&#x215a;" 
d="M1627 0v700h-1527v-700h1527zM132 32v636h1463v-636h-1463zM1456 356q0 65 -38 106t-100 41t-100.5 -41t-38.5 -106q0 -64 38.5 -104.5t100.5 -40.5t100 40.5t38 104.5zM526 356q0 63 -40.5 102.5t-106.5 39.5h-89v-284h89q66 0 106.5 39.5t40.5 102.5zM619 469h163v29
h-198v-284h198v30h-163v100h153v30h-153v95zM1121 498h-33l-111 -136l-110 136h-32v-284h34v227l102 -124h14l102 124v-227h34v284zM1216 356q0 52 28 84.5t74 32.5t74.5 -33t28.5 -84t-28.5 -83.5t-74.5 -32.5t-74 32.5t-28 83.5zM489 356q0 -50 -29 -81t-78 -31h-58v225
h58q49 0 78 -31.5t29 -81.5z" />
    <glyph glyph-name="oneeighth" unicode="&#x215b;" 
d="M1627 0v700h-1527v-700h1527zM132 32v636h1463v-636h-1463zM1456 356q0 65 -38 106t-100 41t-100.5 -41t-38.5 -106q0 -64 38.5 -104.5t100.5 -40.5t100 40.5t38 104.5zM526 356q0 63 -40.5 102.5t-106.5 39.5h-89v-284h89q66 0 106.5 39.5t40.5 102.5zM619 469h163v29
h-198v-284h198v30h-163v100h153v30h-153v95zM1121 498h-33l-111 -136l-110 136h-32v-284h34v227l102 -124h14l102 124v-227h34v284zM1216 356q0 52 28 84.5t74 32.5t74.5 -33t28.5 -84t-28.5 -83.5t-74.5 -32.5t-74 32.5t-28 83.5zM489 356q0 -50 -29 -81t-78 -31h-58v225
h58q49 0 78 -31.5t29 -81.5z" />
    <glyph glyph-name="threeeighths" unicode="&#x215c;" 
d="M1627 0v700h-1527v-700h1527zM132 32v636h1463v-636h-1463zM1456 356q0 65 -38 106t-100 41t-100.5 -41t-38.5 -106q0 -64 38.5 -104.5t100.5 -40.5t100 40.5t38 104.5zM526 356q0 63 -40.5 102.5t-106.5 39.5h-89v-284h89q66 0 106.5 39.5t40.5 102.5zM619 469h163v29
h-198v-284h198v30h-163v100h153v30h-153v95zM1121 498h-33l-111 -136l-110 136h-32v-284h34v227l102 -124h14l102 124v-227h34v284zM1216 356q0 52 28 84.5t74 32.5t74.5 -33t28.5 -84t-28.5 -83.5t-74.5 -32.5t-74 32.5t-28 83.5zM489 356q0 -50 -29 -81t-78 -31h-58v225
h58q49 0 78 -31.5t29 -81.5z" />
    <glyph glyph-name="fiveeighths" unicode="&#x215d;" 
d="M1627 0v700h-1527v-700h1527zM132 32v636h1463v-636h-1463zM1456 356q0 65 -38 106t-100 41t-100.5 -41t-38.5 -106q0 -64 38.5 -104.5t100.5 -40.5t100 40.5t38 104.5zM526 356q0 63 -40.5 102.5t-106.5 39.5h-89v-284h89q66 0 106.5 39.5t40.5 102.5zM619 469h163v29
h-198v-284h198v30h-163v100h153v30h-153v95zM1121 498h-33l-111 -136l-110 136h-32v-284h34v227l102 -124h14l102 124v-227h34v284zM1216 356q0 52 28 84.5t74 32.5t74.5 -33t28.5 -84t-28.5 -83.5t-74.5 -32.5t-74 32.5t-28 83.5zM489 356q0 -50 -29 -81t-78 -31h-58v225
h58q49 0 78 -31.5t29 -81.5z" />
    <glyph glyph-name="seveneighths" unicode="&#x215e;" 
d="M1627 0v700h-1527v-700h1527zM132 32v636h1463v-636h-1463zM1456 356q0 65 -38 106t-100 41t-100.5 -41t-38.5 -106q0 -64 38.5 -104.5t100.5 -40.5t100 40.5t38 104.5zM526 356q0 63 -40.5 102.5t-106.5 39.5h-89v-284h89q66 0 106.5 39.5t40.5 102.5zM619 469h163v29
h-198v-284h198v30h-163v100h153v30h-153v95zM1121 498h-33l-111 -136l-110 136h-32v-284h34v227l102 -124h14l102 124v-227h34v284zM1216 356q0 52 28 84.5t74 32.5t74.5 -33t28.5 -84t-28.5 -83.5t-74.5 -32.5t-74 32.5t-28 83.5zM489 356q0 -50 -29 -81t-78 -31h-58v225
h58q49 0 78 -31.5t29 -81.5z" />
    <glyph glyph-name="uni2189" unicode="&#x2189;" 
d="M1627 0v700h-1527v-700h1527zM132 32v636h1463v-636h-1463zM1456 356q0 65 -38 106t-100 41t-100.5 -41t-38.5 -106q0 -64 38.5 -104.5t100.5 -40.5t100 40.5t38 104.5zM526 356q0 63 -40.5 102.5t-106.5 39.5h-89v-284h89q66 0 106.5 39.5t40.5 102.5zM619 469h163v29
h-198v-284h198v30h-163v100h153v30h-153v95zM1121 498h-33l-111 -136l-110 136h-32v-284h34v227l102 -124h14l102 124v-227h34v284zM1216 356q0 52 28 84.5t74 32.5t74.5 -33t28.5 -84t-28.5 -83.5t-74.5 -32.5t-74 32.5t-28 83.5zM489 356q0 -50 -29 -81t-78 -31h-58v225
h58q49 0 78 -31.5t29 -81.5z" />
    <glyph glyph-name="arrowleft" unicode="&#x2190;" 
d="M1627 0v700h-1527v-700h1527zM132 32v636h1463v-636h-1463zM1456 356q0 65 -38 106t-100 41t-100.5 -41t-38.5 -106q0 -64 38.5 -104.5t100.5 -40.5t100 40.5t38 104.5zM526 356q0 63 -40.5 102.5t-106.5 39.5h-89v-284h89q66 0 106.5 39.5t40.5 102.5zM619 469h163v29
h-198v-284h198v30h-163v100h153v30h-153v95zM1121 498h-33l-111 -136l-110 136h-32v-284h34v227l102 -124h14l102 124v-227h34v284zM1216 356q0 52 28 84.5t74 32.5t74.5 -33t28.5 -84t-28.5 -83.5t-74.5 -32.5t-74 32.5t-28 83.5zM489 356q0 -50 -29 -81t-78 -31h-58v225
h58q49 0 78 -31.5t29 -81.5z" />
    <glyph glyph-name="arrowup" unicode="&#x2191;" 
d="M1627 0v700h-1527v-700h1527zM132 32v636h1463v-636h-1463zM1456 356q0 65 -38 106t-100 41t-100.5 -41t-38.5 -106q0 -64 38.5 -104.5t100.5 -40.5t100 40.5t38 104.5zM526 356q0 63 -40.5 102.5t-106.5 39.5h-89v-284h89q66 0 106.5 39.5t40.5 102.5zM619 469h163v29
h-198v-284h198v30h-163v100h153v30h-153v95zM1121 498h-33l-111 -136l-110 136h-32v-284h34v227l102 -124h14l102 124v-227h34v284zM1216 356q0 52 28 84.5t74 32.5t74.5 -33t28.5 -84t-28.5 -83.5t-74.5 -32.5t-74 32.5t-28 83.5zM489 356q0 -50 -29 -81t-78 -31h-58v225
h58q49 0 78 -31.5t29 -81.5z" />
    <glyph glyph-name="arrowright" unicode="&#x2192;" 
d="M1627 0v700h-1527v-700h1527zM132 32v636h1463v-636h-1463zM1456 356q0 65 -38 106t-100 41t-100.5 -41t-38.5 -106q0 -64 38.5 -104.5t100.5 -40.5t100 40.5t38 104.5zM526 356q0 63 -40.5 102.5t-106.5 39.5h-89v-284h89q66 0 106.5 39.5t40.5 102.5zM619 469h163v29
h-198v-284h198v30h-163v100h153v30h-153v95zM1121 498h-33l-111 -136l-110 136h-32v-284h34v227l102 -124h14l102 124v-227h34v284zM1216 356q0 52 28 84.5t74 32.5t74.5 -33t28.5 -84t-28.5 -83.5t-74.5 -32.5t-74 32.5t-28 83.5zM489 356q0 -50 -29 -81t-78 -31h-58v225
h58q49 0 78 -31.5t29 -81.5z" />
    <glyph glyph-name="arrowdown" unicode="&#x2193;" 
d="M1627 0v700h-1527v-700h1527zM132 32v636h1463v-636h-1463zM1456 356q0 65 -38 106t-100 41t-100.5 -41t-38.5 -106q0 -64 38.5 -104.5t100.5 -40.5t100 40.5t38 104.5zM526 356q0 63 -40.5 102.5t-106.5 39.5h-89v-284h89q66 0 106.5 39.5t40.5 102.5zM619 469h163v29
h-198v-284h198v30h-163v100h153v30h-153v95zM1121 498h-33l-111 -136l-110 136h-32v-284h34v227l102 -124h14l102 124v-227h34v284zM1216 356q0 52 28 84.5t74 32.5t74.5 -33t28.5 -84t-28.5 -83.5t-74.5 -32.5t-74 32.5t-28 83.5zM489 356q0 -50 -29 -81t-78 -31h-58v225
h58q49 0 78 -31.5t29 -81.5z" />
    <glyph glyph-name="uni2196" unicode="&#x2196;" 
d="M1627 0v700h-1527v-700h1527zM132 32v636h1463v-636h-1463zM1456 356q0 65 -38 106t-100 41t-100.5 -41t-38.5 -106q0 -64 38.5 -104.5t100.5 -40.5t100 40.5t38 104.5zM526 356q0 63 -40.5 102.5t-106.5 39.5h-89v-284h89q66 0 106.5 39.5t40.5 102.5zM619 469h163v29
h-198v-284h198v30h-163v100h153v30h-153v95zM1121 498h-33l-111 -136l-110 136h-32v-284h34v227l102 -124h14l102 124v-227h34v284zM1216 356q0 52 28 84.5t74 32.5t74.5 -33t28.5 -84t-28.5 -83.5t-74.5 -32.5t-74 32.5t-28 83.5zM489 356q0 -50 -29 -81t-78 -31h-58v225
h58q49 0 78 -31.5t29 -81.5z" />
    <glyph glyph-name="uni2197" unicode="&#x2197;" 
d="M1627 0v700h-1527v-700h1527zM132 32v636h1463v-636h-1463zM1456 356q0 65 -38 106t-100 41t-100.5 -41t-38.5 -106q0 -64 38.5 -104.5t100.5 -40.5t100 40.5t38 104.5zM526 356q0 63 -40.5 102.5t-106.5 39.5h-89v-284h89q66 0 106.5 39.5t40.5 102.5zM619 469h163v29
h-198v-284h198v30h-163v100h153v30h-153v95zM1121 498h-33l-111 -136l-110 136h-32v-284h34v227l102 -124h14l102 124v-227h34v284zM1216 356q0 52 28 84.5t74 32.5t74.5 -33t28.5 -84t-28.5 -83.5t-74.5 -32.5t-74 32.5t-28 83.5zM489 356q0 -50 -29 -81t-78 -31h-58v225
h58q49 0 78 -31.5t29 -81.5z" />
    <glyph glyph-name="uni2198" unicode="&#x2198;" 
d="M1627 0v700h-1527v-700h1527zM132 32v636h1463v-636h-1463zM1456 356q0 65 -38 106t-100 41t-100.5 -41t-38.5 -106q0 -64 38.5 -104.5t100.5 -40.5t100 40.5t38 104.5zM526 356q0 63 -40.5 102.5t-106.5 39.5h-89v-284h89q66 0 106.5 39.5t40.5 102.5zM619 469h163v29
h-198v-284h198v30h-163v100h153v30h-153v95zM1121 498h-33l-111 -136l-110 136h-32v-284h34v227l102 -124h14l102 124v-227h34v284zM1216 356q0 52 28 84.5t74 32.5t74.5 -33t28.5 -84t-28.5 -83.5t-74.5 -32.5t-74 32.5t-28 83.5zM489 356q0 -50 -29 -81t-78 -31h-58v225
h58q49 0 78 -31.5t29 -81.5z" />
    <glyph glyph-name="uni2199" unicode="&#x2199;" 
d="M1627 0v700h-1527v-700h1527zM132 32v636h1463v-636h-1463zM1456 356q0 65 -38 106t-100 41t-100.5 -41t-38.5 -106q0 -64 38.5 -104.5t100.5 -40.5t100 40.5t38 104.5zM526 356q0 63 -40.5 102.5t-106.5 39.5h-89v-284h89q66 0 106.5 39.5t40.5 102.5zM619 469h163v29
h-198v-284h198v30h-163v100h153v30h-153v95zM1121 498h-33l-111 -136l-110 136h-32v-284h34v227l102 -124h14l102 124v-227h34v284zM1216 356q0 52 28 84.5t74 32.5t74.5 -33t28.5 -84t-28.5 -83.5t-74.5 -32.5t-74 32.5t-28 83.5zM489 356q0 -50 -29 -81t-78 -31h-58v225
h58q49 0 78 -31.5t29 -81.5z" />
    <glyph glyph-name="emptyset" unicode="&#x2205;" 
d="M1627 0v700h-1527v-700h1527zM132 32v636h1463v-636h-1463zM1456 356q0 65 -38 106t-100 41t-100.5 -41t-38.5 -106q0 -64 38.5 -104.5t100.5 -40.5t100 40.5t38 104.5zM526 356q0 63 -40.5 102.5t-106.5 39.5h-89v-284h89q66 0 106.5 39.5t40.5 102.5zM619 469h163v29
h-198v-284h198v30h-163v100h153v30h-153v95zM1121 498h-33l-111 -136l-110 136h-32v-284h34v227l102 -124h14l102 124v-227h34v284zM1216 356q0 52 28 84.5t74 32.5t74.5 -33t28.5 -84t-28.5 -83.5t-74.5 -32.5t-74 32.5t-28 83.5zM489 356q0 -50 -29 -81t-78 -31h-58v225
h58q49 0 78 -31.5t29 -81.5z" />
    <glyph glyph-name="minus" unicode="&#x2212;" horiz-adv-x="631" 
d="M62 398h507v-115h-507v115z" />
    <glyph glyph-name="infinity" unicode="&#x221e;" 
d="M1627 0v700h-1527v-700h1527zM132 32v636h1463v-636h-1463zM1456 356q0 65 -38 106t-100 41t-100.5 -41t-38.5 -106q0 -64 38.5 -104.5t100.5 -40.5t100 40.5t38 104.5zM526 356q0 63 -40.5 102.5t-106.5 39.5h-89v-284h89q66 0 106.5 39.5t40.5 102.5zM619 469h163v29
h-198v-284h198v30h-163v100h153v30h-153v95zM1121 498h-33l-111 -136l-110 136h-32v-284h34v227l102 -124h14l102 124v-227h34v284zM1216 356q0 52 28 84.5t74 32.5t74.5 -33t28.5 -84t-28.5 -83.5t-74.5 -32.5t-74 32.5t-28 83.5zM489 356q0 -50 -29 -81t-78 -31h-58v225
h58q49 0 78 -31.5t29 -81.5z" />
    <glyph glyph-name="integral" unicode="&#x222b;" 
d="M1627 0v700h-1527v-700h1527zM132 32v636h1463v-636h-1463zM1456 356q0 65 -38 106t-100 41t-100.5 -41t-38.5 -106q0 -64 38.5 -104.5t100.5 -40.5t100 40.5t38 104.5zM526 356q0 63 -40.5 102.5t-106.5 39.5h-89v-284h89q66 0 106.5 39.5t40.5 102.5zM619 469h163v29
h-198v-284h198v30h-163v100h153v30h-153v95zM1121 498h-33l-111 -136l-110 136h-32v-284h34v227l102 -124h14l102 124v-227h34v284zM1216 356q0 52 28 84.5t74 32.5t74.5 -33t28.5 -84t-28.5 -83.5t-74.5 -32.5t-74 32.5t-28 83.5zM489 356q0 -50 -29 -81t-78 -31h-58v225
h58q49 0 78 -31.5t29 -81.5z" />
    <glyph glyph-name="approxequal" unicode="&#x2248;" 
d="M1627 0v700h-1527v-700h1527zM132 32v636h1463v-636h-1463zM1456 356q0 65 -38 106t-100 41t-100.5 -41t-38.5 -106q0 -64 38.5 -104.5t100.5 -40.5t100 40.5t38 104.5zM526 356q0 63 -40.5 102.5t-106.5 39.5h-89v-284h89q66 0 106.5 39.5t40.5 102.5zM619 469h163v29
h-198v-284h198v30h-163v100h153v30h-153v95zM1121 498h-33l-111 -136l-110 136h-32v-284h34v227l102 -124h14l102 124v-227h34v284zM1216 356q0 52 28 84.5t74 32.5t74.5 -33t28.5 -84t-28.5 -83.5t-74.5 -32.5t-74 32.5t-28 83.5zM489 356q0 -50 -29 -81t-78 -31h-58v225
h58q49 0 78 -31.5t29 -81.5z" />
    <glyph glyph-name="notequal" unicode="&#x2260;" 
d="M1627 0v700h-1527v-700h1527zM132 32v636h1463v-636h-1463zM1456 356q0 65 -38 106t-100 41t-100.5 -41t-38.5 -106q0 -64 38.5 -104.5t100.5 -40.5t100 40.5t38 104.5zM526 356q0 63 -40.5 102.5t-106.5 39.5h-89v-284h89q66 0 106.5 39.5t40.5 102.5zM619 469h163v29
h-198v-284h198v30h-163v100h153v30h-153v95zM1121 498h-33l-111 -136l-110 136h-32v-284h34v227l102 -124h14l102 124v-227h34v284zM1216 356q0 52 28 84.5t74 32.5t74.5 -33t28.5 -84t-28.5 -83.5t-74.5 -32.5t-74 32.5t-28 83.5zM489 356q0 -50 -29 -81t-78 -31h-58v225
h58q49 0 78 -31.5t29 -81.5z" />
    <glyph glyph-name="lessequal" unicode="&#x2264;" 
d="M1627 0v700h-1527v-700h1527zM132 32v636h1463v-636h-1463zM1456 356q0 65 -38 106t-100 41t-100.5 -41t-38.5 -106q0 -64 38.5 -104.5t100.5 -40.5t100 40.5t38 104.5zM526 356q0 63 -40.5 102.5t-106.5 39.5h-89v-284h89q66 0 106.5 39.5t40.5 102.5zM619 469h163v29
h-198v-284h198v30h-163v100h153v30h-153v95zM1121 498h-33l-111 -136l-110 136h-32v-284h34v227l102 -124h14l102 124v-227h34v284zM1216 356q0 52 28 84.5t74 32.5t74.5 -33t28.5 -84t-28.5 -83.5t-74.5 -32.5t-74 32.5t-28 83.5zM489 356q0 -50 -29 -81t-78 -31h-58v225
h58q49 0 78 -31.5t29 -81.5z" />
    <glyph glyph-name="greaterequal" unicode="&#x2265;" 
d="M1627 0v700h-1527v-700h1527zM132 32v636h1463v-636h-1463zM1456 356q0 65 -38 106t-100 41t-100.5 -41t-38.5 -106q0 -64 38.5 -104.5t100.5 -40.5t100 40.5t38 104.5zM526 356q0 63 -40.5 102.5t-106.5 39.5h-89v-284h89q66 0 106.5 39.5t40.5 102.5zM619 469h163v29
h-198v-284h198v30h-163v100h153v30h-153v95zM1121 498h-33l-111 -136l-110 136h-32v-284h34v227l102 -124h14l102 124v-227h34v284zM1216 356q0 52 28 84.5t74 32.5t74.5 -33t28.5 -84t-28.5 -83.5t-74.5 -32.5t-74 32.5t-28 83.5zM489 356q0 -50 -29 -81t-78 -31h-58v225
h58q49 0 78 -31.5t29 -81.5z" />
    <glyph glyph-name="uni2460" unicode="&#x2460;" 
d="M1627 0v700h-1527v-700h1527zM132 32v636h1463v-636h-1463zM1456 356q0 65 -38 106t-100 41t-100.5 -41t-38.5 -106q0 -64 38.5 -104.5t100.5 -40.5t100 40.5t38 104.5zM526 356q0 63 -40.5 102.5t-106.5 39.5h-89v-284h89q66 0 106.5 39.5t40.5 102.5zM619 469h163v29
h-198v-284h198v30h-163v100h153v30h-153v95zM1121 498h-33l-111 -136l-110 136h-32v-284h34v227l102 -124h14l102 124v-227h34v284zM1216 356q0 52 28 84.5t74 32.5t74.5 -33t28.5 -84t-28.5 -83.5t-74.5 -32.5t-74 32.5t-28 83.5zM489 356q0 -50 -29 -81t-78 -31h-58v225
h58q49 0 78 -31.5t29 -81.5z" />
    <glyph glyph-name="uni2461" unicode="&#x2461;" 
d="M1627 0v700h-1527v-700h1527zM132 32v636h1463v-636h-1463zM1456 356q0 65 -38 106t-100 41t-100.5 -41t-38.5 -106q0 -64 38.5 -104.5t100.5 -40.5t100 40.5t38 104.5zM526 356q0 63 -40.5 102.5t-106.5 39.5h-89v-284h89q66 0 106.5 39.5t40.5 102.5zM619 469h163v29
h-198v-284h198v30h-163v100h153v30h-153v95zM1121 498h-33l-111 -136l-110 136h-32v-284h34v227l102 -124h14l102 124v-227h34v284zM1216 356q0 52 28 84.5t74 32.5t74.5 -33t28.5 -84t-28.5 -83.5t-74.5 -32.5t-74 32.5t-28 83.5zM489 356q0 -50 -29 -81t-78 -31h-58v225
h58q49 0 78 -31.5t29 -81.5z" />
    <glyph glyph-name="uni2462" unicode="&#x2462;" 
d="M1627 0v700h-1527v-700h1527zM132 32v636h1463v-636h-1463zM1456 356q0 65 -38 106t-100 41t-100.5 -41t-38.5 -106q0 -64 38.5 -104.5t100.5 -40.5t100 40.5t38 104.5zM526 356q0 63 -40.5 102.5t-106.5 39.5h-89v-284h89q66 0 106.5 39.5t40.5 102.5zM619 469h163v29
h-198v-284h198v30h-163v100h153v30h-153v95zM1121 498h-33l-111 -136l-110 136h-32v-284h34v227l102 -124h14l102 124v-227h34v284zM1216 356q0 52 28 84.5t74 32.5t74.5 -33t28.5 -84t-28.5 -83.5t-74.5 -32.5t-74 32.5t-28 83.5zM489 356q0 -50 -29 -81t-78 -31h-58v225
h58q49 0 78 -31.5t29 -81.5z" />
    <glyph glyph-name="uni2463" unicode="&#x2463;" 
d="M1627 0v700h-1527v-700h1527zM132 32v636h1463v-636h-1463zM1456 356q0 65 -38 106t-100 41t-100.5 -41t-38.5 -106q0 -64 38.5 -104.5t100.5 -40.5t100 40.5t38 104.5zM526 356q0 63 -40.5 102.5t-106.5 39.5h-89v-284h89q66 0 106.5 39.5t40.5 102.5zM619 469h163v29
h-198v-284h198v30h-163v100h153v30h-153v95zM1121 498h-33l-111 -136l-110 136h-32v-284h34v227l102 -124h14l102 124v-227h34v284zM1216 356q0 52 28 84.5t74 32.5t74.5 -33t28.5 -84t-28.5 -83.5t-74.5 -32.5t-74 32.5t-28 83.5zM489 356q0 -50 -29 -81t-78 -31h-58v225
h58q49 0 78 -31.5t29 -81.5z" />
    <glyph glyph-name="uni2464" unicode="&#x2464;" 
d="M1627 0v700h-1527v-700h1527zM132 32v636h1463v-636h-1463zM1456 356q0 65 -38 106t-100 41t-100.5 -41t-38.5 -106q0 -64 38.5 -104.5t100.5 -40.5t100 40.5t38 104.5zM526 356q0 63 -40.5 102.5t-106.5 39.5h-89v-284h89q66 0 106.5 39.5t40.5 102.5zM619 469h163v29
h-198v-284h198v30h-163v100h153v30h-153v95zM1121 498h-33l-111 -136l-110 136h-32v-284h34v227l102 -124h14l102 124v-227h34v284zM1216 356q0 52 28 84.5t74 32.5t74.5 -33t28.5 -84t-28.5 -83.5t-74.5 -32.5t-74 32.5t-28 83.5zM489 356q0 -50 -29 -81t-78 -31h-58v225
h58q49 0 78 -31.5t29 -81.5z" />
    <glyph glyph-name="uni2465" unicode="&#x2465;" 
d="M1627 0v700h-1527v-700h1527zM132 32v636h1463v-636h-1463zM1456 356q0 65 -38 106t-100 41t-100.5 -41t-38.5 -106q0 -64 38.5 -104.5t100.5 -40.5t100 40.5t38 104.5zM526 356q0 63 -40.5 102.5t-106.5 39.5h-89v-284h89q66 0 106.5 39.5t40.5 102.5zM619 469h163v29
h-198v-284h198v30h-163v100h153v30h-153v95zM1121 498h-33l-111 -136l-110 136h-32v-284h34v227l102 -124h14l102 124v-227h34v284zM1216 356q0 52 28 84.5t74 32.5t74.5 -33t28.5 -84t-28.5 -83.5t-74.5 -32.5t-74 32.5t-28 83.5zM489 356q0 -50 -29 -81t-78 -31h-58v225
h58q49 0 78 -31.5t29 -81.5z" />
    <glyph glyph-name="uni2466" unicode="&#x2466;" 
d="M1627 0v700h-1527v-700h1527zM132 32v636h1463v-636h-1463zM1456 356q0 65 -38 106t-100 41t-100.5 -41t-38.5 -106q0 -64 38.5 -104.5t100.5 -40.5t100 40.5t38 104.5zM526 356q0 63 -40.5 102.5t-106.5 39.5h-89v-284h89q66 0 106.5 39.5t40.5 102.5zM619 469h163v29
h-198v-284h198v30h-163v100h153v30h-153v95zM1121 498h-33l-111 -136l-110 136h-32v-284h34v227l102 -124h14l102 124v-227h34v284zM1216 356q0 52 28 84.5t74 32.5t74.5 -33t28.5 -84t-28.5 -83.5t-74.5 -32.5t-74 32.5t-28 83.5zM489 356q0 -50 -29 -81t-78 -31h-58v225
h58q49 0 78 -31.5t29 -81.5z" />
    <glyph glyph-name="uni2467" unicode="&#x2467;" 
d="M1627 0v700h-1527v-700h1527zM132 32v636h1463v-636h-1463zM1456 356q0 65 -38 106t-100 41t-100.5 -41t-38.5 -106q0 -64 38.5 -104.5t100.5 -40.5t100 40.5t38 104.5zM526 356q0 63 -40.5 102.5t-106.5 39.5h-89v-284h89q66 0 106.5 39.5t40.5 102.5zM619 469h163v29
h-198v-284h198v30h-163v100h153v30h-153v95zM1121 498h-33l-111 -136l-110 136h-32v-284h34v227l102 -124h14l102 124v-227h34v284zM1216 356q0 52 28 84.5t74 32.5t74.5 -33t28.5 -84t-28.5 -83.5t-74.5 -32.5t-74 32.5t-28 83.5zM489 356q0 -50 -29 -81t-78 -31h-58v225
h58q49 0 78 -31.5t29 -81.5z" />
    <glyph glyph-name="uni2468" unicode="&#x2468;" 
d="M1627 0v700h-1527v-700h1527zM132 32v636h1463v-636h-1463zM1456 356q0 65 -38 106t-100 41t-100.5 -41t-38.5 -106q0 -64 38.5 -104.5t100.5 -40.5t100 40.5t38 104.5zM526 356q0 63 -40.5 102.5t-106.5 39.5h-89v-284h89q66 0 106.5 39.5t40.5 102.5zM619 469h163v29
h-198v-284h198v30h-163v100h153v30h-153v95zM1121 498h-33l-111 -136l-110 136h-32v-284h34v227l102 -124h14l102 124v-227h34v284zM1216 356q0 52 28 84.5t74 32.5t74.5 -33t28.5 -84t-28.5 -83.5t-74.5 -32.5t-74 32.5t-28 83.5zM489 356q0 -50 -29 -81t-78 -31h-58v225
h58q49 0 78 -31.5t29 -81.5z" />
    <glyph glyph-name="uni24EA" unicode="&#x24ea;" 
d="M1627 0v700h-1527v-700h1527zM132 32v636h1463v-636h-1463zM1456 356q0 65 -38 106t-100 41t-100.5 -41t-38.5 -106q0 -64 38.5 -104.5t100.5 -40.5t100 40.5t38 104.5zM526 356q0 63 -40.5 102.5t-106.5 39.5h-89v-284h89q66 0 106.5 39.5t40.5 102.5zM619 469h163v29
h-198v-284h198v30h-163v100h153v30h-153v95zM1121 498h-33l-111 -136l-110 136h-32v-284h34v227l102 -124h14l102 124v-227h34v284zM1216 356q0 52 28 84.5t74 32.5t74.5 -33t28.5 -84t-28.5 -83.5t-74.5 -32.5t-74 32.5t-28 83.5zM489 356q0 -50 -29 -81t-78 -31h-58v225
h58q49 0 78 -31.5t29 -81.5z" />
    <glyph glyph-name="uni24FF" unicode="&#x24ff;" 
d="M1627 0v700h-1527v-700h1527zM132 32v636h1463v-636h-1463zM1456 356q0 65 -38 106t-100 41t-100.5 -41t-38.5 -106q0 -64 38.5 -104.5t100.5 -40.5t100 40.5t38 104.5zM526 356q0 63 -40.5 102.5t-106.5 39.5h-89v-284h89q66 0 106.5 39.5t40.5 102.5zM619 469h163v29
h-198v-284h198v30h-163v100h153v30h-153v95zM1121 498h-33l-111 -136l-110 136h-32v-284h34v227l102 -124h14l102 124v-227h34v284zM1216 356q0 52 28 84.5t74 32.5t74.5 -33t28.5 -84t-28.5 -83.5t-74.5 -32.5t-74 32.5t-28 83.5zM489 356q0 -50 -29 -81t-78 -31h-58v225
h58q49 0 78 -31.5t29 -81.5z" />
    <glyph glyph-name="filledbox" unicode="&#x25a0;" 
d="M1627 0v700h-1527v-700h1527zM132 32v636h1463v-636h-1463zM1456 356q0 65 -38 106t-100 41t-100.5 -41t-38.5 -106q0 -64 38.5 -104.5t100.5 -40.5t100 40.5t38 104.5zM526 356q0 63 -40.5 102.5t-106.5 39.5h-89v-284h89q66 0 106.5 39.5t40.5 102.5zM619 469h163v29
h-198v-284h198v30h-163v100h153v30h-153v95zM1121 498h-33l-111 -136l-110 136h-32v-284h34v227l102 -124h14l102 124v-227h34v284zM1216 356q0 52 28 84.5t74 32.5t74.5 -33t28.5 -84t-28.5 -83.5t-74.5 -32.5t-74 32.5t-28 83.5zM489 356q0 -50 -29 -81t-78 -31h-58v225
h58q49 0 78 -31.5t29 -81.5z" />
    </font>
</defs>
</svg>
