<?xml version="1.0" encoding="utf-8"?>
<!-- Generator: Adobe Illustrator 24.1.0, SVG Export Plug-In . SVG Version: 6.00 Build 0)  -->
<svg version="1.1" id="Layer_1" xmlns="http://www.w3.org/2000/svg" xmlns:xlink="http://www.w3.org/1999/xlink" x="0px" y="0px"
	 viewBox="0 0 512 512" style="enable-background:new 0 0 512 512;" xml:space="preserve">
<style type="text/css">
	.st0{fill:#FECF0A;}
	.st1{fill:#D2332B;}
	.st2{fill:#FFDA44;}
</style>
<circle class="st0" cx="256" cy="256" r="256"/>
<g>
	<path class="st1" d="M294.9,509.1c41.6-6.4,80-22.7,112.5-46.6L256,256L294.9,509.1z"/>
	<path class="st1" d="M217.1,2.9c-41.6,6.4-80,22.7-112.5,46.6L256,256L217.1,2.9z"/>
	<path class="st1" d="M104.6,462.4c32.5,23.9,70.8,40.3,112.5,46.6L256,256L104.6,462.4z"/>
	<path class="st1" d="M49.6,104.6C25.7,137.1,9.3,175.4,2.9,217.1L256,256L49.6,104.6z"/>
	<path class="st1" d="M2.9,294.9c6.4,41.6,22.7,80,46.6,112.5L256,256L2.9,294.9z"/>
	<path class="st1" d="M509.1,217.1c-6.4-41.6-22.7-80-46.6-112.5L256,256L509.1,217.1z"/>
	<path class="st1" d="M407.4,49.6C374.9,25.7,336.6,9.3,294.9,2.9L256,256L407.4,49.6z"/>
	<path class="st1" d="M462.4,407.4c23.9-32.5,40.3-70.8,46.6-112.5L256,256L462.4,407.4z"/>
	<circle class="st1" cx="256" cy="256" r="89"/>
</g>
<circle class="st2" cx="256" cy="256" r="66.8"/>
</svg>
