<?xml version="1.0" encoding="utf-8"?>
<!-- Generator: Adobe Illustrator 24.1.0, SVG Export Plug-In . SVG Version: 6.00 Build 0)  -->
<svg version="1.1" id="Layer_1" xmlns="http://www.w3.org/2000/svg" xmlns:xlink="http://www.w3.org/1999/xlink" x="0px" y="0px"
	 viewBox="0 0 512 512" style="enable-background:new 0 0 512 512;" xml:space="preserve">
<style type="text/css">
	.st0{fill:#FECF0A;}
	.st1{fill:#0C8DB0;}
	.st2{fill:#76923B;}
</style>
<path class="st0" d="M0,256c0,44.4,11.3,86.1,31.1,122.4L256,400.7l224.9-22.3C500.7,342.1,512,300.4,512,256l-256-22.3L0,256z"/>
<path class="st1" d="M480.9,133.6C437.5,54,353,0,256,0S74.5,54,31.1,133.6C11.3,169.9,0,211.6,0,256h512
	C512,211.6,500.7,169.9,480.9,133.6z"/>
<path class="st2" d="M256,512c97,0,181.5-54,224.9-133.6H31.1C74.5,458,159,512,256,512z"/>
<polygon class="st0" points="289.4,149.8 320.7,164.5 304,194.8 338,188.3 342.3,222.6 365.9,197.4 389.6,222.6 393.9,188.3 
	427.8,194.8 411.2,164.5 442.4,149.8 411.2,135.1 427.8,104.8 393.9,111.3 389.6,77 365.9,102.3 342.3,77 338,111.3 304,104.8 
	320.7,135.1 "/>
</svg>
