<?xml version="1.0" encoding="utf-8"?>
<!-- Generator: Adobe Illustrator 24.1.0, SVG Export Plug-In . SVG Version: 6.00 Build 0)  -->
<svg version="1.1" id="Layer_1" xmlns="http://www.w3.org/2000/svg" xmlns:xlink="http://www.w3.org/1999/xlink" x="0px" y="0px"
	 viewBox="0 0 512 512" style="enable-background:new 0 0 512 512;" xml:space="preserve">
<style type="text/css">
	.st0{fill:#F7F7F7;}
	.st1{fill:#D2332B;}
	.st2{fill:#006289;}
	.st3{fill:#FECF0A;}
</style>
<circle class="st0" cx="256" cy="256" r="256"/>
<g>
	<path class="st1" d="M256,0C255.8-0.2-0.1,255.9,0,256C0,114.6,114.6,0,256,0z"/>
	<path class="st1" d="M256,0c0.2-0.2,256.1,255.9,256,256C512,114.6,397.4,0,256,0z"/>
</g>
<g>
	<path class="st2" d="M256,512C255.8,512.2-0.1,256.1,0,256C0,397.4,114.6,512,256,512z"/>
	<path class="st2" d="M256,512c0.2,0.2,256.1-255.9,256-256C512,397.4,397.4,512,256,512z"/>
</g>
<polygon class="st3" points="256,133.6 283.6,218.6 373,218.6 300.7,271.1 328.3,356.2 256,303.6 183.7,356.2 211.3,271.1 
	139,218.6 228.4,218.6 "/>
</svg>
