<?xml version="1.0" encoding="utf-8"?>
<!-- Generator: Adobe Illustrator 24.1.0, SVG Export Plug-In . SVG Version: 6.00 Build 0)  -->
<svg version="1.1" id="Layer_1" xmlns="http://www.w3.org/2000/svg" xmlns:xlink="http://www.w3.org/1999/xlink" x="0px" y="0px"
	 viewBox="0 0 512 512" style="enable-background:new 0 0 512 512;" xml:space="preserve">
<style type="text/css">
	.st0{fill:#D2332B;}
	.st1{fill:#006289;}
	.st2{fill:#F7F7F7;}
</style>
<path class="st0" d="M512,256c0,141.4-114.6,256-256,256S0,397.4,0,256C87.9,168.1,162.5,93.5,256,0C397.4,0,512,114.6,512,256z"/>
<path class="st1" d="M256,256c0-141.4,0-158.1,0-256C114.6,0,0,114.6,0,256H256z"/>
<g>
	<polygon class="st2" points="205.1,167 209.2,179.7 222.6,179.7 211.8,187.6 215.9,200.3 205.1,192.5 194.2,200.3 198.3,187.6 
		187.5,179.7 200.9,179.7 	"/>
	<polygon class="st2" points="137.7,66.8 144.6,88 167,88 148.9,101.2 155.8,122.4 137.7,109.3 119.6,122.4 126.5,101.2 108.4,88 
		130.8,88 	"/>
	<polygon class="st2" points="204.5,89 211.4,110.3 233.7,110.3 215.7,123.4 222.6,144.7 204.5,131.6 186.4,144.7 193.3,123.4 
		175.2,110.3 197.6,110.3 	"/>
	<polygon class="st2" points="151.7,178.1 158.6,199.3 181,199.3 162.9,212.5 169.8,233.7 151.7,220.6 133.6,233.7 140.5,212.5 
		122.4,199.3 144.8,199.3 	"/>
	<polygon class="st2" points="93.2,122.4 100.1,143.7 122.4,143.7 104.4,156.8 111.3,178.1 93.2,164.9 75.1,178.1 82,156.8 
		63.9,143.7 86.3,143.7 	"/>
</g>
</svg>
