<?xml version="1.0" encoding="utf-8"?>
<!-- Generator: Adobe Illustrator 24.1.0, SVG Export Plug-In . SVG Version: 6.00 Build 0)  -->
<svg version="1.1" id="Layer_1" xmlns="http://www.w3.org/2000/svg" xmlns:xlink="http://www.w3.org/1999/xlink" x="0px" y="0px"
	 viewBox="0 0 512 512" style="enable-background:new 0 0 512 512;" xml:space="preserve">
<style type="text/css">
	.st0{fill:#FECF0A;}
	.st1{fill:#76923B;}
	.st2{fill:#D2332B;}
	.st3{fill:#1E2834;}
</style>
<circle class="st0" cx="256" cy="256" r="256"/>
<g>
	<path class="st1" d="M155.8,167h340.2C459.9,69.5,366.1,0,256,0C185.3,0,121.3,28.7,75,75L155.8,167z"/>
	<path class="st1" d="M155.8,345h340.2c-36.2,97.5-130,167-240.1,167c-70.7,0-134.7-28.7-181-75L155.8,345z"/>
</g>
<path class="st2" d="M75,75C-25,175-25,337,75,437c41.3-41.3,81-81,181-181L75,75z"/>
<polygon class="st3" points="325.1,211.5 336.1,245.5 371.9,245.5 343,266.5 354,300.5 325.1,279.5 296.1,300.5 307.2,266.5 
	278.3,245.5 314,245.5 "/>
<polygon class="st3" points="436.4,211.5 447.4,245.5 483.2,245.5 454.3,266.5 465.3,300.5 436.4,279.5 407.4,300.5 418.5,266.5 
	389.6,245.5 425.3,245.5 "/>
</svg>
