<?xml version="1.0" encoding="utf-8"?>
<!-- Generator: Adobe Illustrator 24.1.0, SVG Export Plug-In . SVG Version: 6.00 Build 0)  -->
<svg version="1.1" id="Layer_1" xmlns="http://www.w3.org/2000/svg" xmlns:xlink="http://www.w3.org/1999/xlink" x="0px" y="0px"
	 viewBox="0 0 512 512" style="enable-background:new 0 0 512 512;" xml:space="preserve">
<style type="text/css">
	.st0{fill:#F7F7F7;}
	.st1{fill:#D2332B;}
	.st2{fill:#1E2834;}
	.st3{fill:#ACABB1;}
</style>
<circle class="st0" cx="256" cy="256" r="256"/>
<path class="st1" d="M509.8,222.6H289.4h0V2.2C278.5,0.7,267.3,0,256,0s-22.5,0.7-33.4,2.2v220.4v0H2.2C0.7,233.5,0,244.7,0,256
	c0,11.3,0.7,22.5,2.2,33.4h220.4h0v220.4c10.9,1.4,22.1,2.2,33.4,2.2c11.3,0,22.5-0.7,33.4-2.2V289.4v0h220.4
	c1.4-10.9,2.2-22.1,2.2-33.4S511.3,233.5,509.8,222.6z"/>
<path class="st2" d="M378.4,89c-20.7,0-38.2,14.2-43.1,33.4l43.1,11.1l43.1-11.1C416.6,103.2,399.2,89,378.4,89z"/>
<path class="st2" d="M333.9,189.2l55.7,11.1v-23.7c15.6-4,28-16.3,32-32l-43.1-11.1h-55.7l11.1,33.4V189.2z"/>
<path class="st3" d="M421.6,122.4h-98.8v22.3V167h11.1v-22.3h87.6c0.9-3.6,1.4-7.3,1.4-11.1C423,129.7,422.5,126,421.6,122.4z"/>
<path class="st2" d="M144.7,89c-20.7,0-38.2,14.2-43.1,33.4l43.1,11.1l43.1-11.1C182.9,103.2,165.4,89,144.7,89z"/>
<path class="st2" d="M100.2,189.2l55.7,11.1v-23.7c15.6-4,28-16.3,32-32l-43.1-11.1H89l11.1,33.4L100.2,189.2L100.2,189.2z"/>
<path class="st3" d="M187.8,122.4H89v22.3V167h11.1v-22.3h87.6c0.9-3.6,1.4-7.3,1.4-11.1C189.2,129.7,188.7,126,187.8,122.4z"/>
<path class="st2" d="M378.4,311.7c-20.7,0-38.2,14.2-43.1,33.4l43.1,11.1l43.1-11.1C416.6,325.8,399.2,311.7,378.4,311.7z"/>
<path class="st2" d="M333.9,411.8l55.7,11.1v-23.7c15.6-4,28-16.3,32-32l-43.1-11.1h-55.7l11.1,33.4V411.8z"/>
<path class="st3" d="M421.6,345h-98.8v22.3v22.3h11.1v-22.3h87.6c0.9-3.6,1.4-7.3,1.4-11.1C423,352.3,422.5,348.6,421.6,345z"/>
<path class="st2" d="M144.7,311.7c-20.7,0-38.2,14.2-43.1,33.4l43.1,11.1l43.1-11.1C182.9,325.8,165.4,311.7,144.7,311.7z"/>
<path class="st2" d="M100.2,411.8l55.7,11.1v-23.7c15.6-4,28-16.3,32-32l-43.1-11.1H89l11.1,33.4L100.2,411.8L100.2,411.8z"/>
<path class="st3" d="M187.8,345H89v22.3v22.3h11.1v-22.3h87.6c0.9-3.6,1.4-7.3,1.4-11.1C189.2,352.3,188.7,348.6,187.8,345z"/>
</svg>
