<?xml version="1.0" encoding="utf-8"?>
<!-- Generator: Adobe Illustrator 24.1.0, SVG Export Plug-In . SVG Version: 6.00 Build 0)  -->
<svg version="1.1" id="Layer_1" xmlns="http://www.w3.org/2000/svg" xmlns:xlink="http://www.w3.org/1999/xlink" x="0px" y="0px"
	 viewBox="0 0 512 512" style="enable-background:new 0 0 512 512;" xml:space="preserve">
<style type="text/css">
	.st0{fill:#76923B;}
	.st1{fill:#F7F7F7;}
</style>
<circle class="st0" cx="256" cy="256" r="256"/>
<g>
	<path class="st1" d="M144.7,306.1c0,18.4,14.9,33.4,33.4,33.4h100.2c0,15.4,12.5,27.8,27.8,27.8h33.4c15.4,0,27.8-12.5,27.8-27.8
		v-33.4H144.7z"/>
	<path class="st1" d="M370.1,144.7v77.9c0,12.3-10,22.3-22.3,22.3v33.4c30.7,0,55.7-25,55.7-55.7v-77.9L370.1,144.7L370.1,144.7z"/>
	<path class="st1" d="M130.8,222.6c0,12.3-10,22.3-22.3,22.3v33.4c30.7,0,55.7-25,55.7-55.7v-77.9h-33.4L130.8,222.6L130.8,222.6z"
		/>
	<rect x="320" y="144.7" class="st1" width="33.4" height="77.9"/>
	<path class="st1" d="M269.9,189.2c0,3.1-2.5,5.6-5.6,5.6s-5.6-2.5-5.6-5.6v-44.5h-33.4v44.5c0,3.1-2.5,5.6-5.6,5.6
		s-5.6-2.5-5.6-5.6v-44.5h-33.4v44.5c0,21.5,17.5,39,39,39c8.3,0,15.9-2.6,22.3-7c6.3,4.4,14,7,22.3,7c1.7,0,3.3-0.1,4.9-0.3
		c-2.4,9.7-11.1,17-21.6,17v33.4c30.7,0,55.7-25,55.7-55.7v-33.4v-44.5h-33.4L269.9,189.2L269.9,189.2z"/>
	<rect x="180.9" y="244.9" class="st1" width="50.1" height="33.4"/>
</g>
</svg>
