<?xml version="1.0" encoding="utf-8"?>
<!-- Generator: Adobe Illustrator 24.1.0, SVG Export Plug-In . SVG Version: 6.00 Build 0)  -->
<svg version="1.1" id="Layer_1" xmlns="http://www.w3.org/2000/svg" xmlns:xlink="http://www.w3.org/1999/xlink" x="0px" y="0px"
	 viewBox="0 0 512 512" style="enable-background:new 0 0 512 512;" xml:space="preserve">
<style type="text/css">
	.st0{fill:#F7F7F7;}
	.st1{fill:#006289;}
	.st2{fill:#D2332B;}
	.st3{fill:#FECF0A;}
</style>
<circle class="st0" cx="256" cy="256" r="256"/>
<path class="st1" d="M256,0C114.6,0,0,114.6,0,256c0,31.3,5.6,61.3,15.9,89h480.2c10.3-27.7,15.9-57.7,15.9-89
	C512,114.6,397.4,0,256,0z"/>
<g>
	<path class="st2" d="M256,0C145.9,0,52.1,69.5,15.9,167h480.2C459.9,69.5,366.1,0,256,0z"/>
	<path class="st2" d="M66.2,144.7v127.7c0,72.6,94.9,94.9,94.9,94.9S256,345,256,272.4V144.7H66.2z"/>
</g>
<g>
	<polygon class="st3" points="105.4,167 216.8,167 216.8,122.4 194.5,133.6 161.1,100.2 127.7,133.6 105.4,122.4 	"/>
	<polygon class="st3" points="233.7,290.2 161.4,217.8 89,290.2 112.7,313.8 161.4,265.1 210.1,313.8 	"/>
</g>
<path class="st0" d="M233.7,222.6H200c1.9-3.3,3-7.1,3-11.1c0-12.3-10-22.3-22.3-22.3c-8.5,0-15.9,4.8-19.6,11.8
	c-3.8-7-11.1-11.8-19.6-11.8c-12.3,0-22.3,10-22.3,22.3c0,4.1,1.1,7.9,3,11.1H89c0,12.3,10.7,22.3,23,22.3h-0.7
	c0,12.3,10,22.3,22.3,22.3c0,10.9,7.8,19.9,18.1,21.9l-17.5,39.6c8.4,3.4,17.6,5.3,27.2,5.3s18.8-1.9,27.2-5.3L171.1,289
	c10.3-1.9,18.1-11,18.1-21.9c12.3,0,22.3-10,22.3-22.3h-0.7C223,244.9,233.7,234.9,233.7,222.6z"/>
</svg>
