<?xml version="1.0" encoding="utf-8"?>
<!-- Generator: Adobe Illustrator 24.1.0, SVG Export Plug-In . SVG Version: 6.00 Build 0)  -->
<svg version="1.1" id="Layer_1" xmlns="http://www.w3.org/2000/svg" xmlns:xlink="http://www.w3.org/1999/xlink" x="0px" y="0px"
	 viewBox="0 0 512 512" style="enable-background:new 0 0 512 512;" xml:space="preserve">
<style type="text/css">
	.st0{fill:#F7F7F7;}
	.st1{fill:#FECF0A;}
	.st2{fill:#76923B;}
	.st3{fill:#D2332B;}
	.st4{fill:#006289;}
</style>
<circle class="st0" cx="256" cy="256" r="256"/>
<path class="st1" d="M428.8,67.1C383.3,25.4,322.6,0,256,0c-10.9,0-21.6,0.7-32.2,2L100.2,144.7L8.1,320.1
	c5.9,23.1,15,44.9,26.8,64.9L256,256L428.8,67.1z"/>
<path class="st2" d="M469.1,397.8L111,467c41.2,28.4,91.2,45,145,45C344.9,512,423.2,466.7,469.1,397.8z"/>
<path class="st3" d="M428.8,67.2L35,385.3c10.3,17.6,22.6,33.8,36.7,48.4L512,256C512,181.2,479.9,114,428.8,67.2z"/>
<path class="st4" d="M0,256c0,22.1,2.8,43.6,8.1,64.1L223.8,2C97.6,17.8,0,125.5,0,256z"/>
</svg>
