<?xml version="1.0" encoding="utf-8"?>
<!-- Generator: Adobe Illustrator 24.1.0, SVG Export Plug-In . SVG Version: 6.00 Build 0)  -->
<svg version="1.1" id="Layer_1" xmlns="http://www.w3.org/2000/svg" xmlns:xlink="http://www.w3.org/1999/xlink" x="0px" y="0px"
	 viewBox="0 0 512 512" style="enable-background:new 0 0 512 512;" xml:space="preserve">
<style type="text/css">
	.st0{fill:#F7F7F7;}
	.st1{fill:#D2332B;}
</style>
<circle class="st0" cx="256" cy="256" r="256"/>
<path class="st1" d="M256,0C114.6,0,0,114.6,0,256h512C512,114.6,397.4,0,256,0z M227.1,139.1l-14.5-10.5l-14.5,10.5l5.5-17
	l-14.5-10.5h17.9l5.5-17l5.5,17H236l-14.5,10.5L227.1,139.1z M200.3,211.5c-43,0-77.9-34.9-77.9-77.9s34.9-77.9,77.9-77.9
	c5.7,0,11.3,0.6,16.7,1.8c-35,7.6-61.2,38.8-61.2,76.1c0,37.3,26.2,68.5,61.2,76.1C211.7,210.8,206.1,211.5,200.3,211.5z
	 M243.8,189.2l-14.5-10.5l-14.5,10.5l5.5-17l-14.5-10.5h17.9l5.5-17l5.5,17h17.9l-14.5,10.5L243.8,189.2z M241.5,105.7l5.5-17
	l-14.5-10.5h17.9l5.5-17l5.5,17h17.9l-14.5,10.5l5.5,17L256,95.2L241.5,105.7z M297.1,189.2l-14.5-10.5l-14.5,10.5l5.5-17
	l-14.5-10.5h17.9l5.5-17l5.5,17h17.9l-14.5,10.5L297.1,189.2z M313.8,139.1l-14.5-10.5l-14.5,10.5l5.5-17L276,111.6h17.9l5.5-17
	l5.5,17h17.9l-14.5,10.5L313.8,139.1z"/>
</svg>
