<?xml version="1.0" encoding="utf-8"?>
<!-- Generator: Adobe Illustrator 24.1.0, SVG Export Plug-In . SVG Version: 6.00 Build 0)  -->
<svg version="1.1" id="Layer_1" xmlns="http://www.w3.org/2000/svg" xmlns:xlink="http://www.w3.org/1999/xlink" x="0px" y="0px"
	 viewBox="0 0 512 512" style="enable-background:new 0 0 512 512;" xml:space="preserve">
<style type="text/css">
	.st0{fill:#D2332B;}
	.st1{fill:#006289;}
	.st2{fill:#F7F7F7;}
	.st3{fill:#FECF0A;}
	.st4{fill:#338AF3;}
	.st5{fill:#F3F3F3;}
</style>
<path class="st0" d="M233.7,278.3c0,0-158.6-203.3-158.8-203.3C121.3,28.7,185.3,0,256,0c141.4,0,256,114.6,256,256L233.7,278.3z"/>
<path class="st1" d="M233.7,256c0,0-158.6,181.1-158.8,181c46.3,46.3,110.3,75,181,75c141.4,0,256-114.6,256-256H233.7z"/>
<path class="st2" d="M75,75C-25,175-25,337,75,437c41.3-41.3,81-81,181-181L75,75z"/>
<g>
	<path class="st3" d="M28.1,256c-0.1,1.8-0.2,3.7-0.2,5.6c0,40,32.4,72.3,72.3,72.3s72.3-32.4,72.3-72.3c0-1.9-0.1-3.7-0.2-5.6H28.1
		z"/>
	<circle class="st3" cx="100.2" cy="200.3" r="22.3"/>
</g>
<path class="st0" d="M50.1,194.8v72.3c0,38.3,50.1,50.1,50.1,50.1s50.1-11.7,50.1-50.1v-72.3L50.1,194.8L50.1,194.8z"/>
<path class="st4" d="M100.2,293.9c-9.3-3.3-27.9-11.9-27.9-26.8V217H128v50.1C128,282.1,109.4,290.6,100.2,293.9z"/>
<polygon class="st5" points="111.3,244.9 111.3,233.7 100.2,228.2 89,233.7 89,244.9 83.5,250.4 83.5,272.7 116.9,272.7 
	116.9,250.4 "/>
</svg>
