<?xml version="1.0" encoding="utf-8"?>
<!-- Generator: Adobe Illustrator 24.1.0, SVG Export Plug-In . SVG Version: 6.00 Build 0)  -->
<svg version="1.1" id="Layer_1" xmlns="http://www.w3.org/2000/svg" xmlns:xlink="http://www.w3.org/1999/xlink" x="0px" y="0px"
	 viewBox="0 0 512 512" style="enable-background:new 0 0 512 512;" xml:space="preserve">
<style type="text/css">
	.st0{fill:#D80027;}
	.st1{fill:#D2332B;}
	.st2{fill:#006289;}
	.st3{fill:#F7F7F7;}
	.st4{fill:#76923B;}
	.st5{fill:#FECF0A;}
</style>
<path id="SVGCleanerId_0" class="st0" d="M111.7,467.5C152.8,495.6,202.5,512,256,512s103.2-16.4,144.3-44.5L256,445.2L111.7,467.5z
	"/>
<path id="SVGCleanerId_1" class="st0" d="M400.3,44.5C359.2,16.4,309.5,0,256,0S152.8,16.4,111.7,44.5L256,66.8L400.3,44.5z"/>
<g>
	<path id="SVGCleanerId_0_1_" class="st1" d="M111.7,467.5C152.8,495.6,202.5,512,256,512s103.2-16.4,144.3-44.5L256,445.2
		L111.7,467.5z"/>
</g>
<g>
	<path id="SVGCleanerId_1_1_" class="st1" d="M400.3,44.5C359.2,16.4,309.5,0,256,0S152.8,16.4,111.7,44.5L256,66.8L400.3,44.5z"/>
</g>
<g>
	<path class="st2" d="M511.3,239.3c-6.1-79-54.1-155.8-111.1-194.8H111.7C48.6,87.7,5.8,158.4,0.5,239.3L256,256L511.3,239.3z"/>
	<path class="st2" d="M0.5,272.7c5.2,80.9,48,151.6,111.2,194.8h288.6c63.1-43.2,106-113.8,111.2-194.8L256,256L0.5,272.7z"/>
</g>
<path class="st1" d="M511.3,239.3H272.7V33.4h-33.4v205.9H0.5C0.2,244.8,0,250.4,0,256c0,5.6,0.2,11.2,0.5,16.7h238.8v205.9h33.4
	V272.7h238.8c0.4-5.5,0.5-11.1,0.5-16.7C512,250.4,511.8,244.9,511.3,239.3z"/>
<polygon class="st3" points="100.2,256 256,158.1 411.8,256 256,353.9 "/>
<polygon class="st4" points="167,300.5 367.3,300.5 322.8,233.7 300.5,256 278.3,244.9 256,278.3 211.5,278.3 189.2,256 "/>
<polygon class="st5" points="256,189.2 261.5,206.2 279.4,206.2 264.9,216.7 270.5,233.7 256,223.2 241.5,233.7 247.1,216.7 
	232.6,206.2 250.5,206.2 "/>
<path class="st1" d="M256,130.1L55.7,256L256,381.9L456.3,256L256,130.1z M118.4,256L256,169.5L393.6,256L256,342.5L118.4,256z"/>
</svg>
