<?xml version="1.0" encoding="utf-8"?>
<!-- Generator: Adobe Illustrator 24.1.0, SVG Export Plug-In . SVG Version: 6.00 Build 0)  -->
<svg version="1.1" id="Layer_1" xmlns="http://www.w3.org/2000/svg" xmlns:xlink="http://www.w3.org/1999/xlink" x="0px" y="0px"
	 viewBox="0 0 512 512" style="enable-background:new 0 0 512 512;" xml:space="preserve">
<style type="text/css">
	.st0{fill:#F7F7F7;}
	.st1{fill:#006289;}
	.st2{fill:#D2332B;}
	.st3{fill:#F0F0F0;}
</style>
<circle class="st0" cx="256" cy="256" r="256"/>
<path class="st1" d="M256,512c141.4,0,256-114.6,256-256c0-31.3-5.6-61.3-15.9-89H15.9C5.6,194.7,0,224.7,0,256
	C0,397.4,114.6,512,256,512z"/>
<path class="st2" d="M256,512c110.1,0,203.9-69.5,240.1-167H15.9C52.1,442.5,145.9,512,256,512z"/>
<path class="st0" d="M66.2,144.7v127.7c0,72.6,94.9,94.9,94.9,94.9S256,345,256,272.4V144.7H66.2z"/>
<path class="st2" d="M88.5,144.7v127.7c0,8.5,1.9,16.6,5.6,24.1c37.2,0,92.9,0,134,0c3.8-7.5,5.6-15.6,5.6-24.1V144.7H88.5z"/>
<polygon class="st3" points="205.6,233.7 172.2,233.7 172.2,211.5 194.5,211.5 194.5,189.2 172.2,189.2 172.2,167 150,167 
	150,189.2 127.7,189.2 127.7,211.5 150,211.5 150,233.7 116.6,233.7 116.6,256 150,256 150,278.3 172.2,278.3 172.2,256 205.6,256 
	"/>
<path class="st1" d="M124.5,327.6c14.3,9,29.1,14.2,36.6,16.6c7.5-2.3,22.3-7.6,36.6-16.6c14.5-9.1,24.6-19.5,30.4-31.1
	c-6.4-4.5-14.1-7.1-22.5-7.1c-3,0-6,0.4-8.9,1c-6-13.7-19.7-23.3-35.7-23.3s-29.6,9.6-35.7,23.3c-2.8-0.7-5.8-1-8.9-1
	c-8.4,0-16.1,2.6-22.5,7.1C99.9,308.1,110,318.5,124.5,327.6z"/>
</svg>
