<?xml version="1.0" encoding="utf-8"?>
<!-- Generator: Adobe Illustrator 24.1.0, SVG Export Plug-In . SVG Version: 6.00 Build 0)  -->
<svg version="1.1" id="Layer_1" xmlns="http://www.w3.org/2000/svg" xmlns:xlink="http://www.w3.org/1999/xlink" x="0px" y="0px"
	 viewBox="0 0 512 512" style="enable-background:new 0 0 512 512;" xml:space="preserve">
<style type="text/css">
	.st0{fill:#F7F7F7;}
	.st1{fill:#006289;}
	.st2{fill:#D2332B;}
</style>
<circle class="st0" cx="256" cy="256" r="256"/>
<path class="st1" d="M496.1,167H222.6v-66.8H89V167H15.9C5.6,194.7,0,224.7,0,256s5.6,61.3,15.9,89L256,367.3L496.1,345
	c10.3-27.7,15.9-57.7,15.9-89S506.4,194.7,496.1,167z"/>
<path class="st2" d="M256,512c110.1,0,203.9-69.5,240.1-167H15.9C52.1,442.5,145.9,512,256,512z"/>
<path class="st0" d="M89,167v22.3c0,51.1,66.8,66.8,66.8,66.8s66.8-15.7,66.8-66.8V167l-22.3,22.3l-44.5-33.4l-44.5,33.4L89,167z"/>
</svg>
