<?xml version="1.0" encoding="utf-8"?>
<!-- Generator: Adobe Illustrator 24.1.0, SVG Export Plug-In . SVG Version: 6.00 Build 0)  -->
<svg version="1.1" id="Layer_1" xmlns="http://www.w3.org/2000/svg" xmlns:xlink="http://www.w3.org/1999/xlink" x="0px" y="0px"
	 viewBox="0 0 512 512" style="enable-background:new 0 0 512 512;" xml:space="preserve">
<style type="text/css">
	.st0{fill:#76923B;}
	.st1{fill:#006289;}
	.st2{fill:#FECF0A;}
	.st3{fill:#F0F0F0;}
</style>
<path class="st0" d="M437,437c96-96,99.8-249.3,11.4-349.9L256,256L87.2,448.4C187.7,536.8,341,533,437,437z"/>
<path class="st1" d="M75,75c96-96,249.3-99.8,349.9-11.4L256,256L63.6,424.8C-24.8,324.3-21,171,75,75z"/>
<path class="st2" d="M424.8,63.6L63.6,424.8C67.2,429,71,433.1,75,437c4,4,8,7.8,12.2,11.4L448.4,87.2C444.8,83,441,78.9,437,75
	C433.1,71,429,67.2,424.8,63.6z"/>
<g>
	<polygon class="st3" points="107.9,89 113.4,106 131.3,106 116.8,116.6 122.3,133.6 107.9,123 93.4,133.6 98.9,116.6 84.5,106 
		102.3,106 	"/>
	<polygon class="st3" points="199.2,89 204.7,106 222.6,106 208.1,116.6 213.7,133.6 199.2,123 184.7,133.6 190.3,116.6 175.8,106 
		193.7,106 	"/>
	<polygon class="st3" points="107.9,178.1 113.4,195.1 131.3,195.1 116.8,205.6 122.3,222.6 107.9,212.1 93.4,222.6 98.9,205.6 
		84.5,195.1 102.3,195.1 	"/>
	<polygon class="st3" points="199.2,178.1 204.7,195.1 222.6,195.1 208.1,205.6 213.7,222.6 199.2,212.1 184.7,222.6 190.3,205.6 
		175.8,195.1 193.7,195.1 	"/>
	<polygon class="st3" points="153.5,133.6 159.1,150.6 176.9,150.6 162.5,161.1 168,178.1 153.5,167.6 139.1,178.1 144.6,161.1 
		130.1,150.6 148,150.6 	"/>
</g>
</svg>
