<?xml version="1.0" encoding="utf-8"?>
<!-- Generator: Adobe Illustrator 24.1.0, SVG Export Plug-In . SVG Version: 6.00 Build 0)  -->
<svg version="1.1" id="Layer_1" xmlns="http://www.w3.org/2000/svg" xmlns:xlink="http://www.w3.org/1999/xlink" x="0px" y="0px"
	 viewBox="0 0 512 512" style="enable-background:new 0 0 512 512;" xml:space="preserve">
<style type="text/css">
	.st0{fill:#F7F7F7;}
	.st1{fill:#D2332B;}
	.st2{fill:#76923B;}
	.st3{fill:#1E2834;}
</style>
<path class="st0" d="M496.1,345c10.3-27.7,15.9-57.7,15.9-89s-5.6-61.3-15.9-89L256,144.7L15.9,167C5.6,194.7,0,224.7,0,256
	s5.6,61.3,15.9,89L256,367.3L496.1,345z"/>
<path class="st1" d="M256,512c110.1,0,203.9-69.5,240.1-167H15.9C52.1,442.5,145.9,512,256,512z"/>
<path class="st2" d="M256,0C145.9,0,52.1,69.5,15.9,167h480.2C459.9,69.5,366.1,0,256,0z"/>
<polygon class="st3" points="256,200.3 269.8,242.9 314.5,242.9 278.4,269.1 292.2,311.7 256,285.4 219.8,311.7 233.6,269.1 
	197.5,242.9 242.2,242.9 "/>
<g>
	<path class="st0" d="M332.1,50.1V102c0,8.2-6.7,14.8-14.8,14.8v22.3c20.5,0,37.1-16.6,37.1-37.1V50.1H332.1z"/>
	<path class="st0" d="M172.5,102c0,8.2-6.7,14.8-14.8,14.8v22.3c20.5,0,37.1-16.6,37.1-37.1V50.1h-22.3L172.5,102L172.5,102z"/>
	<rect x="298.7" y="50.1" class="st0" width="22.3" height="51.9"/>
	<path class="st0" d="M265.3,79.8c0,2-1.7,3.7-3.7,3.7s-3.7-1.7-3.7-3.7V50.1h-22.3v29.7c0,2-1.7,3.7-3.7,3.7s-3.7-1.7-3.7-3.7V50.1
		h-22.3v29.7c0,14.3,11.6,26,26,26c5.5,0,10.6-1.7,14.8-4.7c4.2,2.9,9.3,4.7,14.8,4.7c1.1,0,2.2-0.1,3.3-0.2
		c-1.6,6.5-7.4,11.3-14.4,11.3v22.3c20.5,0,37.1-16.6,37.1-37.1V79.8V50.1h-22.3L265.3,79.8L265.3,79.8z"/>
	<rect x="205.9" y="116.9" class="st0" width="33.4" height="22.3"/>
</g>
</svg>
