<?xml version="1.0" encoding="utf-8"?>
<!-- Generator: Adobe Illustrator 24.1.0, SVG Export Plug-In . SVG Version: 6.00 Build 0)  -->
<svg version="1.1" id="Layer_1" xmlns="http://www.w3.org/2000/svg" xmlns:xlink="http://www.w3.org/1999/xlink" x="0px" y="0px"
	 viewBox="0 0 512 512" style="enable-background:new 0 0 512 512;" xml:space="preserve">
<style type="text/css">
	.st0{fill:#F7F7F7;}
	.st1{fill:#1E2834;}
	.st2{fill:#76923B;}
	.st3{fill:#D2332B;}
	.st4{fill:#006289;}
	.st5{fill:#FECF0A;}
</style>
<circle class="st0" cx="256" cy="256" r="256"/>
<path class="st1" d="M492,156.8C453.3,64.7,362.2,0,256,0C185.3,0,121.3,28.7,75,75l64.1,81.8H492L492,156.8z"/>
<path class="st2" d="M139.8,354.3L75,437c46.3,46.3,110.3,75,181,75c106.5,0,197.9-65.1,236.4-157.7H139.8L139.8,354.3z"/>
<path class="st3" d="M55.7,188.3v134.5h447.5c5.7-21.3,8.8-43.7,8.8-66.8c0-23.4-3.2-46.1-9.1-67.7L55.7,188.3L55.7,188.3z"/>
<path class="st4" d="M75,75C-25,175-25,337,75,437c41.3-41.3,81-81,181-181L75,75z"/>
<polygon class="st5" points="83.4,192.4 114.6,236 165.8,219.7 133.9,262.9 165.2,306.5 114.3,289.6 82.5,332.8 82.8,279.1 
	31.9,262.2 83,246 "/>
</svg>
