<?xml version="1.0" encoding="utf-8"?>
<!-- Generator: Adobe Illustrator 24.1.0, SVG Export Plug-In . SVG Version: 6.00 Build 0)  -->
<svg version="1.1" id="Layer_1" xmlns="http://www.w3.org/2000/svg" xmlns:xlink="http://www.w3.org/1999/xlink" x="0px" y="0px"
	 viewBox="0 0 512 512" style="enable-background:new 0 0 512 512;" xml:space="preserve">
<style type="text/css">
	.st0{fill:#F7F7F7;}
	.st1{fill:#1E2834;}
	.st2{fill:#FECF0A;}
	.st3{fill:#76923B;}
	.st4{fill:#006289;}
	.st5{fill:#D2332B;}
</style>
<circle class="st0" cx="256" cy="256" r="256"/>
<path class="st1" d="M75,437C-25,337-25,175,75,75l147.6,181L75,437z"/>
<path class="st2" d="M222.6,256L34,128.5c-5.8,10.2-11,20.8-15.4,31.8L114,256l-95.5,95.7c4.4,11,9.6,21.6,15.4,31.7L222.6,256z"/>
<path class="st3" d="M509.8,222.6H222.6L75,75c-15.9,15.9-29.7,33.9-41,53.5L161.2,256L33.9,383.5c11.3,19.6,25.1,37.6,41,53.5
	l147.6-147.6h287.2c1.4-10.9,2.2-22.1,2.2-33.4C512,244.7,511.3,233.5,509.8,222.6z"/>
<path class="st4" d="M100.1,459.1C143.3,492.3,197.3,512,256,512c118.3,0,217.8-80.2,247.2-189.2H236.4L100.1,459.1z"/>
<path class="st5" d="M503.2,189.2C473.8,80.2,374.3,0,256,0c-58.7,0-112.7,19.7-155.9,52.9l136.3,136.3L503.2,189.2L503.2,189.2z"/>
</svg>
