<?xml version="1.0" encoding="utf-8"?>
<!-- Generator: Adobe Illustrator 24.1.0, SVG Export Plug-In . SVG Version: 6.00 Build 0)  -->
<svg version="1.1" id="Layer_1" xmlns="http://www.w3.org/2000/svg" xmlns:xlink="http://www.w3.org/1999/xlink" x="0px" y="0px"
	 viewBox="0 0 512 512" style="enable-background:new 0 0 512 512;" xml:space="preserve">
<style type="text/css">
	.st0{fill:#F7F7F7;}
	.st1{fill:#D2332B;}
	.st2{fill:#006289;}
	.st3{fill:#1E2834;}
</style>
<circle class="st0" cx="256" cy="256" r="256"/>
<path class="st1" d="M345,256c0,22.3-39.9,77.9-89,77.9s-89-55.7-89-77.9c0-49.2,39.9-89,89-89S345,206.8,345,256z"/>
<path class="st2" d="M345,256c0,49.2-39.9,89-89,89s-89-39.9-89-89"/>
<rect x="353.4" y="319.6" transform="matrix(0.7071 -0.7071 0.7071 0.7071 -125.4929 358.5704)" class="st3" width="33.4" height="22.3"/>
<rect x="314.1" y="359" transform="matrix(0.7071 -0.7071 0.7071 0.7071 -164.8207 342.3163)" class="st3" width="33.4" height="22.3"/>
<rect x="400.7" y="366.8" transform="matrix(0.7071 -0.7071 0.7071 0.7071 -145.0194 405.8766)" class="st3" width="33.4" height="22.3"/>
<rect x="361.3" y="406.2" transform="matrix(0.7071 -0.7071 0.7071 0.7071 -184.3916 389.5198)" class="st3" width="33.4" height="22.3"/>
<rect x="377" y="343.2" transform="matrix(0.7071 -0.7071 0.7071 0.7071 -135.2771 382.1722)" class="st3" width="33.4" height="22.3"/>
<rect x="337.7" y="382.6" transform="matrix(0.7071 -0.7071 0.7071 0.7071 -174.6094 365.9226)" class="st3" width="33.4" height="22.3"/>
<rect x="362.9" y="93.4" transform="matrix(0.7071 -0.7071 0.7071 0.7071 12.0218 304.8726)" class="st3" width="22.3" height="89"/>
<rect x="319.6" y="125.2" transform="matrix(0.7071 -0.7071 0.7071 0.7071 -3.4704 275.4539)" class="st3" width="22.3" height="33.4"/>
<rect x="359" y="164.5" transform="matrix(0.7071 -0.7071 0.7071 0.7071 -19.7178 314.7821)" class="st3" width="22.3" height="33.4"/>
<rect x="366.8" y="78" transform="matrix(0.7071 -0.7071 0.7071 0.7071 43.7379 295.0153)" class="st3" width="22.3" height="33.4"/>
<rect x="406.2" y="117.3" transform="matrix(0.7071 -0.7071 0.7071 0.7071 27.4798 334.3504)" class="st3" width="22.3" height="33.4"/>
<rect x="103.1" y="353.1" transform="matrix(0.7071 -0.7071 0.7071 0.7071 -247.6748 197.2734)" class="st3" width="22.3" height="89"/>
<rect x="146.5" y="377" transform="matrix(0.7071 -0.7071 0.7071 0.7071 -232.2099 226.7593)" class="st3" width="22.3" height="33.4"/>
<rect x="107.1" y="337.7" transform="matrix(0.7071 -0.7071 0.7071 0.7071 -215.9616 187.4291)" class="st3" width="22.3" height="33.4"/>
<rect x="150.4" y="305.9" transform="matrix(0.7071 -0.7071 0.7071 0.7071 -200.4727 216.8438)" class="st3" width="22.3" height="89"/>
<rect x="69.8" y="103.2" transform="matrix(0.7071 -0.7071 0.7071 0.7071 -47.3858 114.3346)" class="st3" width="89" height="22.3"/>
<rect x="93.4" y="126.8" transform="matrix(0.7071 -0.7071 0.7071 0.7071 -57.1648 137.9336)" class="st3" width="89" height="22.3"/>
<rect x="117" y="150.4" transform="matrix(0.7071 -0.7071 0.7071 0.7071 -66.9601 161.535)" class="st3" width="89" height="22.3"/>
</svg>
