<?xml version="1.0" encoding="utf-8"?>
<!-- Generator: Adobe Illustrator 24.1.0, SVG Export Plug-In . SVG Version: 6.00 Build 0)  -->
<svg version="1.1" id="Layer_1" xmlns="http://www.w3.org/2000/svg" xmlns:xlink="http://www.w3.org/1999/xlink" x="0px" y="0px"
	 viewBox="0 0 512 512" style="enable-background:new 0 0 512 512;" xml:space="preserve">
<style type="text/css">
	.st0{fill:#FF9811;}
	.st1{fill:#FECF0A;}
	.st2{fill:#F89341;}
	.st3{fill:#9EB962;}
	.st4{fill:#FFDA44;}
	.st5{fill:#AC2D2A;}
</style>
<polygon class="st0" points="0,44.5 0,44.5 0,467.5 0,467.5 0,256 "/>
<circle class="st1" cx="256" cy="256" r="256"/>
<path class="st2" d="M200.3,44.5h-88.6c-3.9,2.7-7.8,5.5-11.5,8.4L77.9,256l22.3,203.1c3.8,2.9,7.6,5.7,11.5,8.4h88.6V44.5z"/>
<path class="st3" d="M0,256c0,82.7,39.3,156.3,100.2,203.1V52.9C39.3,99.7,0,173.3,0,256z"/>
<polygon class="st4" points="411.8,156.1 411.8,162.5 412.1,162.5 "/>
<path class="st5" d="M491.6,322.8h-48.2L423,345v44.5h-44.5v-22.3h22.3v-44.5H300.5v27.8h-22.3v-53c-6.8-6.1-11.1-15-11.1-24.9V128
	c0-18.4,15-33.4,33.4-33.4v205.9H345l15.3-12.7c-2.7-6.4-4.1-13.3-4.1-20.7v-33.4h-33.4V167h66.8c0-11.1,16.7-22.3,16.7-22.3
	S423,155.8,423,167v16.7v50.1c12.4,0.1,32.1-0.2,53.3,0c-5.6-9.8-8.8-21.3-8.8-33.4c0-19.6,8.5-37.3,22-49.5
	C470,107.7,439,71,400.3,44.5H233.7v423h166.5c47-32.1,82.8-79.6,100.1-135.1L491.6,322.8z"/>
</svg>
