<?xml version="1.0" encoding="utf-8"?>
<!-- Generator: Adobe Illustrator 24.1.0, SVG Export Plug-In . SVG Version: 6.00 Build 0)  -->
<svg version="1.1" id="Layer_1" xmlns="http://www.w3.org/2000/svg" xmlns:xlink="http://www.w3.org/1999/xlink" x="0px" y="0px"
	 viewBox="0 0 511.6 511.6" style="enable-background:new 0 0 511.6 511.6;" xml:space="preserve">
<style type="text/css">
	.st0{fill:#F7F7F7;}
	.st1{fill:#ACABB1;}
	.st2{fill:#FECF0A;}
	.st3{fill:#006289;}
	.st4{fill:#D2332B;}
</style>
<circle class="st0" cx="255.8" cy="255.8" r="255.8"/>
<g>
	<path class="st1" d="M456.7,205.7h-84.2c0-15.4-12.4-27.8-27.8-27.8l-22.2,44.5c0,0,23.7,66.7,23,66.7h27.8
		c15.4,0,27.8-12.4,27.8-27.8c15.4,0,27.8-12.4,27.8-27.8H428C443.3,233.5,456.7,221.1,456.7,205.7z"/>
	<path class="st1" d="M54.9,205.7H139c0-15.4,12.4-27.8,27.8-27.8l22.2,44.5c0,0-23.7,66.7-23,66.7h-27.8
		c-15.4,0-27.8-12.4-27.8-27.8c-15.4,0-27.8-12.4-27.8-27.8h0.9C68.2,233.5,54.9,221.1,54.9,205.7z"/>
</g>
<polygon class="st2" points="344.8,355.9 344.8,367 166.8,367 166.8,355.9 122.3,355.9 122.3,400.4 166.8,400.4 166.8,411.5 
	344.8,411.5 344.8,400.4 389.2,400.4 389.2,355.9 "/>
<path class="st3" d="M166.8,177.9v111.2c0,68.1,89,89,89,89s89-20.9,89-89V177.9l-89-11.1L166.8,177.9z"/>
<rect x="166.8" y="222.4" class="st4" width="177.9" height="66.7"/>
<polygon class="st2" points="300.3,122.3 300.3,139 289.2,144.6 278,133.5 278,100.1 233.5,100.1 233.5,133.5 222.4,144.6 
	211.3,139 211.3,122.3 166.8,122.3 166.8,177.9 344.8,177.9 344.8,122.3 "/>
</svg>
