<?xml version="1.0" encoding="utf-8"?>
<!-- Generator: Adobe Illustrator 24.1.0, SVG Export Plug-In . SVG Version: 6.00 Build 0)  -->
<svg version="1.1" id="Layer_1" xmlns="http://www.w3.org/2000/svg" xmlns:xlink="http://www.w3.org/1999/xlink" x="0px" y="0px"
	 viewBox="0 0 512 512" style="enable-background:new 0 0 512 512;" xml:space="preserve">
<style type="text/css">
	.st0{fill:#FECF0A;}
	.st1{fill:#12B2D9;}
	.st2{fill:#9EB962;}
</style>
<path class="st0" d="M378.4,31.1C342.1,11.3,300.4,0,256,0s-86.1,11.3-122.4,31.1L111.3,256l22.3,224.9
	C169.9,500.7,211.6,512,256,512s86.1-11.3,122.4-31.1L400.7,256L378.4,31.1z"/>
<path class="st1" d="M133.6,480.9V31.1C54,74.5,0,159,0,256S54,437.5,133.6,480.9z"/>
<g>
	<path class="st2" d="M512,256c0-97-54-181.5-133.6-224.9v449.7C458,437.5,512,353,512,256z"/>
	<polygon class="st2" points="200.3,322.8 155.8,256 200.3,189.2 244.9,256 	"/>
	<polygon class="st2" points="311.7,322.8 267.1,256 311.7,189.2 356.2,256 	"/>
	<polygon class="st2" points="256,411.8 211.5,345 256,278.3 300.5,345 	"/>
</g>
</svg>
