<svg width="88" height="18" viewBox="0 0 88 18" fill="none" xmlns="http://www.w3.org/2000/svg">
<path fill-rule="evenodd" clip-rule="evenodd" d="M9.00247 13.5L3.71095 16.2812L4.72154 10.3906L0.440612 6.21885L6.35671 5.35942L9.00247 0L11.6482 5.35942L17.5643 6.21885L13.2834 10.3906L14.294 16.2812L9.00247 13.5Z" fill="#FFAD31"/>
<path fill-rule="evenodd" clip-rule="evenodd" d="M26.0025 13.5L20.711 16.2812L21.7215 10.3906L17.4406 6.21885L23.3567 5.35942L26.0025 0L28.6482 5.35942L34.5643 6.21885L30.2834 10.3906L31.294 16.2812L26.0025 13.5Z" fill="#FFAD31"/>
<path fill-rule="evenodd" clip-rule="evenodd" d="M43.0025 13.5L37.711 16.2812L38.7215 10.3906L34.4406 6.21885L40.3567 5.35942L43.0025 0L45.6482 5.35942L51.5643 6.21885L47.2834 10.3906L48.294 16.2812L43.0025 13.5Z" fill="#FFAD31"/>
<path fill-rule="evenodd" clip-rule="evenodd" d="M61.0025 13.5L55.711 16.2812L56.7215 10.3906L52.4406 6.21885L58.3567 5.35942L61.0025 0L63.6482 5.35942L69.5643 6.21885L65.2834 10.3906L66.294 16.2812L61.0025 13.5Z" fill="#FFAD31"/>
<path fill-rule="evenodd" clip-rule="evenodd" d="M78.8323 13.5L73.5408 16.2812L74.5514 10.3906L70.2704 6.21885L76.1865 5.35942L78.8323 0L81.4781 5.35942L87.3942 6.21885L83.1132 10.3906L84.1238 16.2812L78.8323 13.5Z" fill="#FFAD31"/>
</svg>
