<?xml version="1.0" encoding="utf-8"?>
<!-- Generator: Adobe Illustrator 24.1.0, SVG Export Plug-In . SVG Version: 6.00 Build 0)  -->
<svg version="1.1" id="Layer_1" xmlns="http://www.w3.org/2000/svg" xmlns:xlink="http://www.w3.org/1999/xlink" x="0px" y="0px"
	 viewBox="0 0 512 512" style="enable-background:new 0 0 512 512;" xml:space="preserve">
<style type="text/css">
	.st0{fill:#F7F7F7;}
	.st1{fill:#D2332B;}
	.st2{fill:#76923B;}
	.st3{fill:#FECF0A;}
</style>
<circle class="st0" cx="256" cy="256" r="256"/>
<path class="st1" d="M496.1,167H15.9C5.6,194.7,0,224.7,0,256s5.6,61.3,15.9,89h480.2c10.3-27.7,15.9-57.7,15.9-89
	S506.4,194.7,496.1,167z"/>
<g>
	<path class="st2" d="M256.7,512c87.7,0,165.1-44.1,211.2-111.3H45.5C91.7,467.9,169.1,512,256.7,512z"/>
	<path class="st2" d="M256.7,0c87.7,0,165.1,44.1,211.2,111.3H45.5C91.7,44.1,169.1,0,256.7,0z"/>
</g>
<polygon class="st3" points="256,167 278.1,235 349.6,235 291.8,277 313.9,345 256,303 198.1,345 220.2,277 162.4,235 233.9,235 "/>
</svg>
