<?xml version="1.0" encoding="utf-8"?>
<!-- Generator: Adobe Illustrator 24.1.0, SVG Export Plug-In . SVG Version: 6.00 Build 0)  -->
<svg version="1.1" id="Layer_1" xmlns="http://www.w3.org/2000/svg" xmlns:xlink="http://www.w3.org/1999/xlink" x="0px" y="0px"
	 viewBox="0 0 512 512" style="enable-background:new 0 0 512 512;" xml:space="preserve">
<style type="text/css">
	.st0{fill:#FECF0A;}
	.st1{fill:#1E2834;}
	.st2{fill:#006289;}
	.st3{fill:#D2332B;}
	.st4{fill:#F7F7F7;}
	.st5{fill:#F0F0F0;}
</style>
<path class="st0" d="M486.6,367.3C502.9,333.6,512,295.9,512,256s-9.1-77.6-25.4-111.3L256,133.6L25.4,144.7
	C9.1,178.4,0,216.1,0,256s9.1,77.6,25.4,111.3L256,378.4L486.6,367.3z"/>
<path class="st1" d="M256,0C154.5,0,66.8,59.1,25.4,144.7h461.2C445.2,59.1,357.5,0,256,0z"/>
<path class="st2" d="M256,512c-101.5,0-189.2-59.1-230.6-144.7h461.2C445.2,452.9,357.5,512,256,512z"/>
<path class="st3" d="M499.9,178.1H12.1C4.2,202.7,0,228.8,0,256s4.2,53.3,12.1,77.9h487.8c7.8-24.6,12.1-50.7,12.1-77.9
	S507.8,202.7,499.9,178.1z"/>
<g>
	<rect x="89" y="244.9" class="st0" width="333.9" height="22.3"/>
	<rect x="133.6" y="200.3" class="st0" width="244.9" height="22.3"/>
</g>
<path class="st4" d="M380,256c0,0-57.2,66.8-124,66.8S189.2,256,189.2,256s0-66.8,66.8-66.8S380,256,380,256z"/>
<path class="st1" d="M256,322.8c-66.8,0-124-66.8-124-66.8s57.2-66.8,124-66.8"/>
<rect x="211.5" y="233.7" class="st5" width="22.3" height="44.5"/>
<rect x="278.3" y="233.7" class="st1" width="22.3" height="44.5"/>
<g>
	<circle class="st2" cx="89" cy="256" r="22.3"/>
	<circle class="st2" cx="423" cy="256" r="22.3"/>
</g>
</svg>
