<?xml version="1.0" encoding="utf-8"?>
<!-- Generator: Adobe Illustrator 24.1.0, SVG Export Plug-In . SVG Version: 6.00 Build 0)  -->
<svg version="1.1" id="Layer_1" xmlns="http://www.w3.org/2000/svg" xmlns:xlink="http://www.w3.org/1999/xlink" x="0px" y="0px"
	 viewBox="0 0 512 512" style="enable-background:new 0 0 512 512;" xml:space="preserve">
<style type="text/css">
	.st0{fill:#FECF0A;}
	.st1{fill:#006289;}
</style>
<circle class="st0" cx="256" cy="256" r="256"/>
<g>
	<path class="st1" d="M200.3,222.6h309.5C493.5,97,386.1,0,256,0c-19.1,0-37.7,2.1-55.7,6.1L200.3,222.6L200.3,222.6L200.3,222.6z"
		/>
	<path class="st1" d="M133.6,222.6V31.1C63.3,69.5,12.9,139.8,2.2,222.6L133.6,222.6L133.6,222.6z"/>
	<path class="st1" d="M133.6,289.4H2.2c10.8,82.8,61.1,153.1,131.4,191.5L133.6,289.4L133.6,289.4z"/>
	<path class="st1" d="M200.3,289.4v216.5c17.9,4,36.5,6.1,55.7,6.1c130.1,0,237.5-97,253.8-222.6L200.3,289.4L200.3,289.4z"/>
</g>
</svg>
