<?xml version="1.0" encoding="utf-8"?>
<!-- Generator: Adobe Illustrator 24.1.0, SVG Export Plug-In . SVG Version: 6.00 Build 0)  -->
<svg version="1.1" id="Layer_1" xmlns="http://www.w3.org/2000/svg" xmlns:xlink="http://www.w3.org/1999/xlink" x="0px" y="0px"
	 viewBox="0 0 512 512" style="enable-background:new 0 0 512 512;" xml:space="preserve">
<style type="text/css">
	.st0{fill:#F7F7F7;}
	.st1{fill:#D2332B;}
	.st2{fill:#1E2834;}
	.st3{fill:#76923B;}
</style>
<circle class="st0" cx="256" cy="256" r="256"/>
<path class="st1" d="M256,0C145.9,0,52.1,69.5,15.9,167h480.2C459.9,69.5,366.1,0,256,0z"/>
<path class="st2" d="M256,512c110.1,0,203.9-69.5,240.1-167H15.9C52.1,442.5,145.9,512,256,512z"/>
<g>
	<polygon class="st3" points="153,194.8 166.8,237.3 211.5,237.3 175.3,263.6 189.1,306.1 153,279.8 116.8,306.1 130.6,263.6 
		94.4,237.3 139.1,237.3 	"/>
	<polygon class="st3" points="359,194.8 372.9,237.3 417.6,237.3 381.4,263.6 395.2,306.1 359,279.8 322.9,306.1 336.7,263.6 
		300.5,237.3 345.2,237.3 	"/>
</g>
</svg>
