<?xml version="1.0" encoding="utf-8"?>
<!-- Generator: Adobe Illustrator 24.1.0, SVG Export Plug-In . SVG Version: 6.00 Build 0)  -->
<svg version="1.1" id="Layer_1" xmlns="http://www.w3.org/2000/svg" xmlns:xlink="http://www.w3.org/1999/xlink" x="0px" y="0px"
	 viewBox="0 0 512 512" style="enable-background:new 0 0 512 512;" xml:space="preserve">
<style type="text/css">
	.st0{fill:#F7F7F7;}
	.st1{fill:#76923B;}
	.st2{fill:#D2332B;}
	.st3{fill:#FFDA44;}
</style>
<path class="st0" d="M25.4,144.7C9.1,178.4,0,216.1,0,256s9.1,77.6,25.4,111.3L256,389.6l230.6-22.3C502.9,333.6,512,295.9,512,256
	s-9.1-77.6-25.4-111.3L256,122.4L25.4,144.7z"/>
<path class="st1" d="M25.4,367.3C66.8,452.9,154.5,512,256,512s189.2-59.1,230.6-144.7L25.4,367.3L25.4,367.3z"/>
<path class="st2" d="M25.4,144.7h461.2C445.2,59.1,357.5,0,256,0S66.8,59.1,25.4,144.7z"/>
<g>
	<polygon class="st3" points="211.5,322.8 300.5,322.8 300.5,284.9 282.7,293.8 256,267.1 229.3,293.8 211.5,284.9 	"/>
	<polygon class="st3" points="160.5,278.3 164.7,291 178.1,291 167.2,298.9 171.4,311.7 160.5,303.8 149.7,311.7 153.8,298.9 
		143,291 156.4,291 	"/>
	<polygon class="st3" points="173.4,233.7 177.5,246.5 190.9,246.5 180.1,254.4 184.2,267.1 173.4,259.2 162.5,267.1 166.7,254.4 
		155.8,246.5 169.2,246.5 	"/>
	<polygon class="st3" points="210.1,200.3 214.3,213.1 227.7,213.1 216.8,221 221,233.7 210.1,225.9 199.3,233.7 203.4,221 
		192.6,213.1 206,213.1 	"/>
	<polygon class="st3" points="351.5,278.3 347.3,291 333.9,291 344.8,298.9 340.6,311.7 351.5,303.8 362.3,311.7 358.2,298.9 
		369,291 355.6,291 	"/>
	<polygon class="st3" points="338.6,233.7 334.5,246.5 321.1,246.5 331.9,254.4 327.8,267.1 338.6,259.2 349.5,267.1 345.3,254.4 
		356.2,246.5 342.8,246.5 	"/>
	<polygon class="st3" points="301.9,200.3 297.7,213.1 284.3,213.1 295.2,221 291,233.7 301.9,225.9 312.7,233.7 308.6,221 
		319.4,213.1 306,213.1 	"/>
	<polygon class="st3" points="256,183.7 260.1,196.4 273.6,196.4 262.7,204.3 266.9,217 256,209.2 245.1,217 249.3,204.3 
		238.4,196.4 251.9,196.4 	"/>
</g>
</svg>
