<?xml version="1.0" encoding="utf-8"?>
<!-- Generator: Adobe Illustrator 24.1.0, SVG Export Plug-In . SVG Version: 6.00 Build 0)  -->
<svg version="1.1" id="Layer_1" xmlns="http://www.w3.org/2000/svg" xmlns:xlink="http://www.w3.org/1999/xlink" x="0px" y="0px"
	 viewBox="0 0 512 512" style="enable-background:new 0 0 512 512;" xml:space="preserve">
<style type="text/css">
	.st0{fill:#F7F7F7;}
	.st1{fill:#FECF0A;}
	.st2{fill:#F2442F;}
	.st3{fill:#006289;}
</style>
<circle class="st0" cx="256" cy="256" r="256"/>
<path class="st1" d="M111.7,44.5C152.8,16.4,202.5,0,256,0s103.2,16.4,144.3,44.5L256,55.7L111.7,44.5z"/>
<path class="st2" d="M75,437l118-118l63-107.5L319,319l118,118c46.3-46.3,75-110.3,75-181c0-87.9-44.3-165.4-111.7-211.5H111.7
	C44.3,90.6,0,168.1,0,256C0,326.7,28.7,390.7,75,437z"/>
<g>
	<path class="st3" d="M492.6,354l-187.2-77.6l13.6,42.5L437,437C460.6,413.4,479.6,385.3,492.6,354z"/>
	<path class="st3" d="M512,256c0-34.7-6.9-67.8-19.4-98L256,256H512z"/>
	<path class="st3" d="M437,75c-11.3-11.2-23.5-21.5-36.7-30.5h-56.7L256,256L437,75z"/>
	<polygon class="st3" points="256,44.5 168.4,44.5 256,256 	"/>
	<path class="st3" d="M75,75c-23.6,23.6-42.6,51.7-55.5,83L256,256L75,75z"/>
	<path class="st3" d="M0,256c0,34.7,6.9,67.8,19.4,98L256,256H0z"/>
</g>
<g>
	<path class="st1" d="M111.7,467.5C152.8,495.6,202.5,512,256,512s103.2-16.4,144.3-44.5H111.7z"/>
	<path class="st1" d="M256,256l63,63c16.1-16.1,26.1-38.4,26.1-63c0-49.2-39.9-89-89-89s-89,39.9-89,89c0,24.6,10,46.8,26.1,63
		L256,256z"/>
	<path class="st1" d="M295,384c0,21.5-17.4,27.8-39,27.8s-39-6.3-39-27.8c0-21.5,17.4-39,39-39S295,362.5,295,384z"/>
</g>
<path class="st3" d="M295,384c0,21.5-17.4,39-39,39s-39-17.4-39-39"/>
</svg>
