<?xml version="1.0" encoding="utf-8"?>
<!-- Generator: Adobe Illustrator 24.1.0, SVG Export Plug-In . SVG Version: 6.00 Build 0)  -->
<svg version="1.1" id="Layer_1" xmlns="http://www.w3.org/2000/svg" xmlns:xlink="http://www.w3.org/1999/xlink" x="0px" y="0px"
	 viewBox="0 0 512 512" style="enable-background:new 0 0 512 512;" xml:space="preserve">
<style type="text/css">
	.st0{fill:#FFDA44;}
	.st1{fill:#76923B;}
	.st2{fill:#D2332B;}
	.st3{fill:#F7F7F7;}
</style>
<circle class="st0" cx="256" cy="256" r="256"/>
<g>
	<path class="st1" d="M256,0c-0.2,0-11.1,102.4-11.1,102.4h215.9C414.1,40.2,339.8,0,256,0z"/>
	<path class="st1" d="M256,512c83.8,0,158.1-40.2,204.8-102.4H51.2C97.9,471.8,172.2,512,256,512z"/>
	<path class="st1" d="M506.9,204.8h-262L256,307.2h250.9c3.4-16.5,5.1-33.7,5.1-51.2S510.2,221.3,506.9,204.8z"/>
</g>
<path class="st2" d="M256,307.2c0-53.4,0-247.1,0-307.2C114.6,0,0,114.6,0,256c0,17.5,1.8,34.7,5.1,51.2H256z"/>
<polygon class="st3" points="141.3,122.4 157.8,173.4 211.5,173.4 168.1,205 184.7,256 141.3,224.5 97.9,256 114.4,205 71,173.4 
	124.7,173.4 "/>
</svg>
