<?xml version="1.0" encoding="utf-8"?>
<!-- Generator: Adobe Illustrator 24.1.0, SVG Export Plug-In . SVG Version: 6.00 Build 0)  -->
<svg version="1.1" id="Layer_1" xmlns="http://www.w3.org/2000/svg" xmlns:xlink="http://www.w3.org/1999/xlink" x="0px" y="0px"
	 viewBox="0 0 512 512" style="enable-background:new 0 0 512 512;" xml:space="preserve">
<style type="text/css">
	.st0{fill:#FECF0A;}
	.st1{fill:#006289;}
	.st2{fill:#F0F0F0;}
</style>
<circle class="st0" cx="256" cy="256" r="256"/>
<path class="st1" d="M411.8,122.4c-2.3,11-3.3,22.8-3.3,34.5c0,67.5,40.3,126,98,152.3c3.6-17.2,5.6-35,5.6-53.2
	C512,114.6,397.4,0,256,0S0,114.6,0,256s114.6,256,256,256c87.7,0,165.1-44.1,211.2-111.3H144.7v-33.4h341.9
	c3.5-7.2,6.7-14.7,9.5-22.3H144.7L411.8,122.4z"/>
<g>
	<polygon class="st2" points="188.1,133.6 193.6,150.6 211.5,150.6 197,161.1 202.5,178.1 188.1,167.6 173.6,178.1 179.1,161.1 
		164.7,150.6 182.5,150.6 	"/>
	<polygon class="st2" points="115.4,256 122.3,277.3 144.7,277.3 126.6,290.4 133.5,311.7 115.4,298.5 97.4,311.7 104.3,290.4 
		86.2,277.3 108.5,277.3 	"/>
	<polygon class="st2" points="115.4,77.9 122.3,99.2 144.7,99.2 126.6,112.3 133.5,133.6 115.4,120.4 97.4,133.6 104.3,112.3 
		86.2,99.2 108.5,99.2 	"/>
	<polygon class="st2" points="59.8,178.1 66.7,199.3 89,199.3 71,212.5 77.9,233.7 59.8,220.6 41.7,233.7 48.6,212.5 30.5,199.3 
		52.9,199.3 	"/>
</g>
</svg>
