<?xml version="1.0" encoding="utf-8"?>
<!-- Generator: Adobe Illustrator 24.1.0, SVG Export Plug-In . SVG Version: 6.00 Build 0)  -->
<svg version="1.1" id="Layer_1" xmlns="http://www.w3.org/2000/svg" xmlns:xlink="http://www.w3.org/1999/xlink" x="0px" y="0px"
	 viewBox="0 0 512 512" style="enable-background:new 0 0 512 512;" xml:space="preserve">
<style type="text/css">
	.st0{fill:#D2332B;}
	.st1{fill:#F0F0F0;}
</style>
<circle class="st0" cx="256" cy="256" r="256"/>
<circle class="st1" cx="256" cy="256" r="122.4"/>
<g>
	<polygon class="st0" points="271.1,209.2 292.1,238.1 326.1,227.1 305.1,256 326.1,285 292.1,273.9 271,302.8 271,267.1 237,256 
		271.1,244.9 	"/>
	<path class="st0" d="M283.8,328.3c-40,0-72.3-32.4-72.3-72.3s32.4-72.3,72.3-72.3c12.5,0,24.2,3.1,34.4,8.7
		c-16.1-15.7-38-25.4-62.2-25.4c-49.2,0-89,39.9-89,89s39.9,89,89,89c24.2,0,46.2-9.7,62.2-25.4C308,325.2,296.3,328.3,283.8,328.3z
		"/>
</g>
</svg>
