<?xml version="1.0" encoding="utf-8"?>
<!-- Generator: Adobe Illustrator 24.1.0, SVG Export Plug-In . SVG Version: 6.00 Build 0)  -->
<svg version="1.1" id="Layer_1" xmlns="http://www.w3.org/2000/svg" xmlns:xlink="http://www.w3.org/1999/xlink" x="0px" y="0px"
	 viewBox="0 0 512 512" style="enable-background:new 0 0 512 512;" xml:space="preserve">
<style type="text/css">
	.st0{fill:#76923B;}
	.st1{fill:#F0F0F0;}
	.st2{fill:#D2332B;}
	.st3{fill:#F89341;}
	.st4{fill:#D80027;}
</style>
<g>
	<path class="st0" d="M256,0c-19.1,0-37.7,2.1-55.7,6.1L189.2,256l11.1,249.9c17.9,4,36.5,6.1,55.7,6.1c141.4,0,256-114.6,256-256
		C512,114.6,397.4,0,256,0z"/>
	<path class="st0" d="M66.8,83.6C25.3,129.1,0,189.6,0,256s25.3,126.9,66.8,172.4L77.9,256L66.8,83.6z"/>
</g>
<g>
	<path class="st1" d="M374.4,193.1c12.6-35.1-1.6-73.3-31.9-92.3c5.5,0.7,10.9,2,16.3,3.9c40.5,14.5,61.6,59.1,47,99.6
		c-14.5,40.5-59.1,61.6-99.6,47c-5.4-1.9-10.4-4.4-15.1-7.3C326.6,248.7,361.8,228.2,374.4,193.1z"/>
	<polygon class="st1" points="304.6,91.2 293.6,105.3 276.8,99.3 286.9,114.1 275.9,128.2 293.1,123.2 303.1,138 303.7,120.1 
		320.9,115.1 304,109 	"/>
	<polygon class="st1" points="334.1,137.3 323.2,151.4 306.3,145.4 316.4,160.1 305.5,174.3 322.6,169.3 332.7,184 333.2,166.2 
		350.4,161.2 333.6,155.1 	"/>
	<polygon class="st1" points="252.5,108 241.5,122.1 224.7,116.1 234.8,130.8 223.8,145 241,140 251,154.7 251.6,136.9 268.7,131.9 
		251.9,125.8 	"/>
	<polygon class="st1" points="251.3,160.7 240.3,174.9 223.5,168.8 233.6,183.6 222.6,197.8 239.8,192.8 249.8,207.5 250.4,189.7 
		267.5,184.6 250.7,178.6 	"/>
	<polygon class="st1" points="301.5,178.8 290.5,192.9 273.7,186.9 283.8,201.6 272.8,215.8 290,210.8 300.1,225.5 300.6,207.7 
		317.8,202.7 300.9,196.6 	"/>
</g>
<path class="st2" d="M66.8,83.6v344.9c34.9,38.3,81.2,65.9,133.6,77.5V6.1C148,17.7,101.7,45.3,66.8,83.6z"/>
<polygon class="st1" points="117.8,134.8 95.4,118.1 95.4,94.6 117.8,77.9 149.4,77.9 171.7,94.6 171.7,118.1 149.4,134.8 "/>
<g>
	<polygon class="st3" points="133.6,77.9 117.8,77.9 95.4,94.6 95.4,106.1 133.6,106.1 	"/>
	<polygon class="st3" points="133.6,134.8 149.4,134.8 171.7,118.1 171.7,106.1 133.6,106.1 	"/>
</g>
<polygon class="st1" points="117.8,434.1 95.4,417.4 95.4,393.9 117.8,377.2 149.4,377.2 171.7,393.9 171.7,417.4 149.4,434.1 "/>
<g>
	<polygon class="st3" points="133.6,377.2 117.8,377.2 95.4,393.9 95.4,405.4 133.6,405.4 	"/>
	<polygon class="st3" points="133.6,434.1 149.4,434.1 171.7,417.4 171.7,405.4 133.6,405.4 	"/>
</g>
<g>
	<polygon class="st0" points="117.8,284.4 95.4,267.8 95.4,244.2 117.8,227.6 149.4,227.6 171.7,244.2 171.7,267.8 149.4,284.4 	"/>
	<polygon class="st0" points="172.5,321.1 162.8,321.1 162.8,311.3 145.7,311.3 133.6,299.2 121.5,311.3 104.3,311.3 104.3,321.1 
		94.6,321.1 94.6,340.6 104.3,340.6 104.3,350.3 121.5,350.3 133.6,362.4 145.7,350.3 162.8,350.3 162.8,340.6 172.5,340.6 	"/>
	<polygon class="st0" points="172.5,171.4 162.8,171.4 162.8,161.7 145.7,161.7 133.6,149.6 121.5,161.7 104.3,161.7 104.3,171.4 
		94.6,171.4 94.6,190.9 104.3,190.9 104.3,200.7 121.5,200.7 133.6,212.8 145.7,200.7 162.8,200.7 162.8,190.9 172.5,190.9 	"/>
</g>
<g>
	<rect x="122.4" y="244.9" class="st4" width="22.3" height="22.3"/>
	<circle class="st4" cx="133.6" cy="181.2" r="11.1"/>
	<circle class="st4" cx="133.6" cy="330.8" r="11.1"/>
</g>
</svg>
