<?xml version="1.0" encoding="utf-8"?>
<!-- Generator: Adobe Illustrator 24.1.0, SVG Export Plug-In . SVG Version: 6.00 Build 0)  -->
<svg version="1.1" id="Layer_1" xmlns="http://www.w3.org/2000/svg" xmlns:xlink="http://www.w3.org/1999/xlink" x="0px" y="0px"
	 viewBox="0 0 512 512" style="enable-background:new 0 0 512 512;" xml:space="preserve">
<style type="text/css">
	.st0{fill:#006289;}
	.st1{fill:#F0F0F0;}
	.st2{fill:#F7F7F7;}
	.st3{fill:#D2332B;}
	.st4{fill:#FECF0A;}
	.st5{fill:#F58220;}
	.st6{fill:#AC2D2A;}
	.st7{fill:#76923B;}
</style>
<path class="st0" d="M512,256c0,141.4-114.6,256-256,256S0,397.4,0,256C0,256.1,256,0,256,0C397.4,0,512,114.6,512,256z"/>
<g>
	<path class="st1" d="M256,0C256,0,256,0,256,0L256,0L256,0z"/>
	<path class="st1" d="M255.3,256h0.7c0-0.2,0-0.5,0-0.7C255.8,255.5,255.5,255.8,255.3,256z"/>
	<path class="st2" d="M256,133.6c0-45,0-74.6,0-133.6h0C114.6,0,0,114.6,0,256h133.6v-75.2l75.2,75.2h46.5c0.2-0.2,0.5-0.5,0.7-0.7
		c0-17.2,0-32.6,0-46.5l-75.2-75.2H256z"/>
</g>
<g>
	<path class="st3" d="M129.5,33.4c-40,22.8-73.3,56.1-96.1,96.1V256h66.8V100.2v0H256c0-21.1,0-41.1,0-66.8
		C256,33.4,129.5,33.4,129.5,33.4z"/>
	<path class="st3" d="M256,224.5l-91-91h-31.5v0L256,256h0C256,256,256,234.3,256,224.5z"/>
</g>
<path class="st4" d="M289.4,133.6V256c0,59.6,77.9,77.9,77.9,77.9s77.9-18.3,77.9-77.9V133.6H289.4z"/>
<path class="st5" d="M356.2,178.1c0,12.3-10,44.5-22.3,44.5s-22.3-32.2-22.3-44.5s22.3-22.3,22.3-22.3S356.2,165.8,356.2,178.1z"/>
<path class="st6" d="M415.2,202.3c3.6-8.8,6.4-21.6,6.4-28c0-10.2-13.4-18.6-13.4-18.6s-13.4,8.3-13.4,18.6c0,6.4,2.8,19.2,6.4,28
	l-7.7,17.4c4.5,1.8,9.5,2.9,14.7,2.9s10.1-1,14.7-2.9L415.2,202.3z"/>
<path class="st7" d="M350.6,256c0,0-11.1,22.3-11.1,44.5c0,0,33.4,0,55.7,0c0-22.3-11.1-44.5-11.1-44.5l-16.7-11.1L350.6,256z"/>
<path class="st3" d="M384,256v-5.6c0-9.2-7.5-16.7-16.7-16.7c-9.2,0-16.7,7.5-16.7,16.7v5.6H384z"/>
</svg>
