<?xml version="1.0" encoding="utf-8"?>
<!-- Generator: Adobe Illustrator 24.1.0, SVG Export Plug-In . SVG Version: 6.00 Build 0)  -->
<svg version="1.1" id="Layer_1" xmlns="http://www.w3.org/2000/svg" xmlns:xlink="http://www.w3.org/1999/xlink" x="0px" y="0px"
	 viewBox="0 0 512 512" style="enable-background:new 0 0 512 512;" xml:space="preserve">
<style type="text/css">
	.st0{fill:#0C8DB0;}
	.st1{fill:#006289;}
	.st2{fill:#F0F0F0;}
	.st3{fill:#FFF8F3;}
	.st4{fill:#D2332B;}
	.st5{fill:#FECF0A;}
</style>
<path class="st0" d="M512,256c0,141.4-114.6,256-256,256C114.6,512,0,397.4,0,256C0,256.1,256,0,256,0C397.4,0,512,114.6,512,256z"
	/>
<g>
	<polygon class="st1" points="122.4,256 208.8,256 133.6,167 122.4,200.3 	"/>
	<polygon class="st1" points="256,208.8 167,122.4 256,122.4 	"/>
</g>
<g>
	<path class="st2" d="M256,0C256,0,256,0,256,0L256,0L256,0z"/>
	<path class="st2" d="M255.3,256h0.7c0-0.2,0-0.5,0-0.7C255.8,255.5,255.5,255.8,255.3,256z"/>
	<path class="st3" d="M256,133.6c0-45,0-74.6,0-133.6h0C114.6,0,0,114.6,0,256h133.6v-75.2l75.2,75.2h46.5c0.2-0.2,0.5-0.5,0.7-0.7
		c0-17.2,0-32.6,0-46.5l-75.2-75.2H256z"/>
</g>
<g>
	<path class="st4" d="M129.5,33.4c-40,22.8-73.3,56.1-96.1,96.1V256h66.8V100.2v0H256c0-21.1,0-41.1,0-66.8
		C256,33.4,129.5,33.4,129.5,33.4z"/>
	<path class="st4" d="M256,224.5l-91-91h-31.5v0L256,256h0C256,256,256,234.3,256,224.5z"/>
</g>
<g>
	<polygon class="st5" points="279.4,423 284.9,440 302.8,440 288.3,450.5 293.9,467.5 279.4,457 264.9,467.5 270.5,450.5 256,440 
		273.9,440 	"/>
	<polygon class="st5" points="421.8,311.7 427.3,328.7 445.2,328.7 430.8,339.2 436.3,356.2 421.8,345.7 407.3,356.2 412.9,339.2 
		398.4,328.7 416.3,328.7 	"/>
	<polygon class="st5" points="457.5,144.7 463,161.7 480.9,161.7 466.4,172.2 472,189.2 457.5,178.7 443,189.2 448.6,172.2 
		434.1,161.7 452,161.7 	"/>
	<polygon class="st5" points="466.3,267.1 471.9,284.1 489.7,284.1 475.3,294.6 480.8,311.7 466.3,301.1 451.9,311.7 457.4,294.6 
		442.9,284.1 460.8,284.1 	"/>
	<polygon class="st5" points="305,383 321,391.1 333.6,378.4 330.8,396.1 346.8,404.2 329.1,407 326.3,424.7 318.2,408.7 
		300.5,411.5 313.2,398.9 	"/>
	<polygon class="st5" points="305,316.2 321,324.3 333.6,311.7 330.8,329.3 346.8,337.4 329.1,340.2 326.3,357.9 318.2,342 
		300.5,344.8 313.2,332.1 	"/>
	<polygon class="st5" points="360.7,359 376.6,367.1 389.3,354.5 386.5,372.1 402.4,380.2 384.7,383 382,400.7 373.8,384.8 
		356.2,387.6 368.8,374.9 	"/>
	<polygon class="st5" points="360.7,216 376.6,224.1 389.3,211.5 386.5,229.1 402.4,237.3 384.7,240.1 382,257.7 373.8,241.8 
		356.2,244.6 368.8,231.9 	"/>
	<polygon class="st5" points="414.6,214.3 430.6,222.4 443.2,209.8 440.4,227.4 456.3,235.5 438.7,238.3 435.9,256 427.8,240.1 
		410.1,242.9 422.8,230.2 	"/>
</g>
</svg>
