<?xml version="1.0" encoding="utf-8"?>
<!-- Generator: Adobe Illustrator 24.1.0, SVG Export Plug-In . SVG Version: 6.00 Build 0)  -->
<svg version="1.1" id="Layer_1" xmlns="http://www.w3.org/2000/svg" xmlns:xlink="http://www.w3.org/1999/xlink" x="0px" y="0px"
	 viewBox="0 0 512 512" style="enable-background:new 0 0 512 512;" xml:space="preserve">
<style type="text/css">
	.st0{fill:#FECF0A;}
	.st1{fill:#1E2834;}
	.st2{fill:#D2332B;}
	.st3{fill:#FFF8F3;}
</style>
<path class="st0" d="M446.8,426.7C487.3,381.4,512,321.6,512,256s-24.7-125.4-65.2-170.7L256,66.8L65.2,85.3
	C24.7,130.6,0,190.4,0,256s24.7,125.4,65.2,170.7L256,445.2L446.8,426.7z"/>
<path class="st1" d="M65.2,85.3h381.6C399.9,33,331.8,0,256,0S112.1,33,65.2,85.3z"/>
<path class="st2" d="M0,256l256,22.3L512,256c0-29.9-5.2-58.6-14.6-85.3H14.6C5.2,197.4,0,226.1,0,256z"/>
<path class="st1" d="M14.6,341.3h482.8c9.4-26.7,14.6-55.4,14.6-85.3H0C0,285.9,5.2,314.6,14.6,341.3z"/>
<path class="st2" d="M446.8,426.7H65.2C112.1,479,180.2,512,256,512S399.9,479,446.8,426.7z"/>
<path class="st3" d="M341.4,256c0,47.2-38.2,85.4-85.4,85.4s-85.4-38.2-85.4-85.4s38.2-85.4,85.4-85.4S341.4,208.8,341.4,256z"/>
<path class="st1" d="M287.3,260.4L256,246.8c0,0,7.3-24.3,7.7-26c0.3-1.2,0.4-2.5,0.4-3.8c0-4.6-1.9-8.8-4.9-11.8l7.9-7.9
	c-5-5-12-8.1-19.7-8.1s-14.6,3.1-19.7,8.1l7.9,7.9c-3,3-4.9,7.2-4.9,11.8c0,1.7,0.3,3.3,0.7,4.8l-11.8,11.8h21.5
	c0,0-8.9,13.4-13.8,24.4c-4.9,11,0.1,24.4,11.3,29.4l6.5,2.9l10.8,10.2v11.1l-11.1,11.1h22.3v-22.3l10.2-10.2h21
	c0.1-0.2,0.2-0.4,0.3-0.6C303.6,278.5,298.5,265.3,287.3,260.4z"/>
</svg>
