<?xml version="1.0" encoding="utf-8"?>
<!-- Generator: Adobe Illustrator 24.1.0, SVG Export Plug-In . SVG Version: 6.00 Build 0)  -->
<svg version="1.1" id="Layer_1" xmlns="http://www.w3.org/2000/svg" xmlns:xlink="http://www.w3.org/1999/xlink" x="0px" y="0px"
	 viewBox="0 0 512 512" style="enable-background:new 0 0 512 512;" xml:space="preserve">
<style type="text/css">
	.st0{fill:#0C8DB0;}
	.st1{fill:#FFF8F3;}
</style>
<circle class="st0" cx="256" cy="256" r="256"/>
<g>
	<path class="st1" d="M255.3,167c-49.2,0-89,39.9-89,89s39.9,89,89,89c49.2,0,89-39.9,89-89S304.4,167,255.3,167z M233,256
		c0-12.3,10-22.3,22.3-22.3c12.3,0,22.3,10,22.3,22.3c0,12.3-10,22.3-22.3,22.3C243,278.3,233,268.3,233,256z M278.3,217.9
		c-3.5-2.1-7.2-3.7-11.2-4.8v-22.8c10,1.8,19.3,5.8,27.2,11.6L278.3,217.9z M244.9,212.7c-4.2,1-8.1,2.6-11.7,4.7L217,201.3
		c8.1-5.7,17.6-9.6,27.9-11.2V212.7z M233.1,294.6c3.6,2.1,7.6,3.7,11.7,4.7V322c-10.2-1.6-19.7-5.5-27.9-11.2L233.1,294.6z
		 M267.1,298.9c4-1.1,7.8-2.7,11.2-4.8l16,16c-7.9,5.8-17.2,9.8-27.2,11.6L267.1,298.9L267.1,298.9L267.1,298.9z M293.9,278.1
		c2-3.4,3.5-7.1,4.5-11h22.7c-1.7,10-5.5,19.2-11.1,27.1L293.9,278.1z M298.4,244.9c-1-3.9-2.5-7.6-4.5-11l16.1-16.1
		c5.6,7.9,9.4,17.2,11.1,27.1L298.4,244.9L298.4,244.9L298.4,244.9z M201.1,216.9l16,16c-2.2,3.7-3.9,7.7-5,11.9h-22.7
		C191.2,234.5,195.2,225,201.1,216.9z M189.4,267.1h22.7c1.1,4.3,2.8,8.3,5,12l-16,16C195.2,287,191.2,277.5,189.4,267.1z"/>
	<path class="st1" d="M400,256c0-39.6-15.9-75.4-41.6-101.6L334.7,178c19.7,20.1,31.9,47.6,31.9,78c0,61.5-49.8,111.3-111.3,111.3
		C193.8,367.3,144,317.5,144,256c0-30.7,12.5-58.6,32.6-78.7l-23.6-23.6c-26.2,26.2-42.4,62.4-42.4,102.3
		c0,66.2,44.5,122,105.2,139.2c-6.7,12.6-5.6,28.6,3.9,40.4c12.5-10,25.4-20.4,36.4-29.2c11,8.8,23.9,19.1,36.4,29.2
		c9.6-12,10.5-28.1,3.7-40.8C356.1,377.2,400,321.7,400,256z"/>
</g>
</svg>
