<?xml version="1.0" encoding="utf-8"?>
<!-- Generator: Adobe Illustrator 24.1.0, SVG Export Plug-In . SVG Version: 6.00 Build 0)  -->
<svg version="1.1" id="Layer_1" xmlns="http://www.w3.org/2000/svg" xmlns:xlink="http://www.w3.org/1999/xlink" x="0px" y="0px"
	 viewBox="0 0 512 512" style="enable-background:new 0 0 512 512;" xml:space="preserve">
<style type="text/css">
	.st0{fill:#FFF8F3;}
	.st1{fill:#338AF3;}
	.st2{fill:#0C8DB0;}
	.st3{fill:#FECF0A;}
</style>
<circle class="st0" cx="256" cy="256" r="256"/>
<path id="SVGCleanerId_0" class="st1" d="M256,189.2h247.2c-6.4-23.8-16.2-46.3-28.8-66.8H256V189.2z"/>
<g>
	<path class="st2" d="M96.6,456.3h318.7c23.4-18.6,43.4-41.2,59.1-66.8H37.6C53.2,415.1,73.3,437.7,96.6,456.3z"/>
	<path class="st2" d="M256,0c0,22.3,0,55.7,0,55.7h159.4C371.6,20.8,316.2,0,256,0z"/>
</g>
<g>
	<path id="SVGCleanerId_0_1_" class="st2" d="M256,189.2h247.2c-6.4-23.8-16.2-46.3-28.8-66.8H256V189.2z"/>
</g>
<path class="st2" d="M0,256c0,23.1,3.1,45.5,8.8,66.8h494.4c5.7-21.3,8.8-43.7,8.8-66.8H0z"/>
<polygon class="st3" points="222.6,149.8 191.3,164.5 208,194.8 174,188.3 169.7,222.6 146.1,197.4 122.4,222.6 118.1,188.3 
	84.2,194.8 100.8,164.5 69.6,149.8 100.8,135.1 84.2,104.8 118.1,111.3 122.4,77 146.1,102.3 169.7,77 174,111.3 208,104.8 
	191.3,135.1 "/>
</svg>
