<?xml version="1.0" encoding="utf-8"?>
<!-- Generator: Adobe Illustrator 24.1.0, SVG Export Plug-In . SVG Version: 6.00 Build 0)  -->
<svg version="1.1" id="Layer_1" xmlns="http://www.w3.org/2000/svg" xmlns:xlink="http://www.w3.org/1999/xlink" x="0px" y="0px"
	 viewBox="0 0 512 512" style="enable-background:new 0 0 512 512;" xml:space="preserve">
<style type="text/css">
	.st0{fill:#FFF8F3;}
	.st1{fill:#D2332B;}
	.st2{fill:#76923B;}
	.st3{fill:#0C8DB0;}
	.st4{fill:#F0F0F0;}
</style>
<path class="st0" d="M12.1,178.1C4.2,202.7,0,228.8,0,256c0,27.2,4.2,53.3,12.1,77.9L256,345l243.9-11.1
	c7.8-24.6,12.1-50.7,12.1-77.9c0-27.2-4.2-53.3-12.1-77.9L256,167L12.1,178.1z"/>
<g>
	<path class="st1" d="M499.9,178.1L256,167L12.1,178.1c-2.3,7.3-4.3,14.7-6,22.3h499.8C504.2,192.8,502.2,185.4,499.9,178.1z"/>
	<path class="st1" d="M6.1,311.7c1.7,7.5,3.7,15,6,22.3l0,0L256,345l243.9-11.1c2.3-7.3,4.3-14.7,6-22.3L6.1,311.7L6.1,311.7z"/>
</g>
<path class="st2" d="M256,512c114.2,0,210.9-74.8,243.9-178.1H12.1C45.1,437.2,141.8,512,256,512z"/>
<path class="st3" d="M256,0C141.8,0,45.1,74.8,12.1,178.1l487.8,0C466.9,74.8,370.2,0,256,0z"/>
<g>
	<path class="st4" d="M117,105.7c0-24,16.9-44,39.4-48.9c-3.5-0.8-7-1.2-10.7-1.2c-27.7,0-50.1,22.4-50.1,50.1s22.4,50.1,50.1,50.1
		c3.7,0,7.3-0.4,10.7-1.2C133.8,149.7,117,129.7,117,105.7z"/>
	<polygon class="st4" points="185.9,128.5 189.3,138.9 200.3,138.9 191.4,145.4 194.8,155.8 185.9,149.4 177.1,155.8 180.5,145.4 
		171.6,138.9 182.6,138.9 	"/>
	<polygon class="st4" points="221,128.5 224.4,138.9 235.3,138.9 226.4,145.4 229.8,155.8 221,149.4 212.1,155.8 215.5,145.4 
		206.6,138.9 217.6,138.9 	"/>
	<polygon class="st4" points="256,128.5 259.4,138.9 270.3,138.9 261.5,145.4 264.9,155.8 256,149.4 247.1,155.8 250.5,145.4 
		241.6,138.9 252.6,138.9 	"/>
	<polygon class="st4" points="291,128.5 294.4,138.9 305.4,138.9 296.5,145.4 299.9,155.8 291,149.4 282.1,155.8 285.5,145.4 
		276.6,138.9 287.6,138.9 	"/>
	<polygon class="st4" points="326,128.5 329.4,138.9 340.4,138.9 331.5,145.4 334.9,155.8 326,149.4 317.1,155.8 320.5,145.4 
		311.7,138.9 322.6,138.9 	"/>
	<polygon class="st4" points="221,92.1 224.4,102.5 235.3,102.5 226.4,109 229.8,119.4 221,112.9 212.1,119.4 215.5,109 
		206.6,102.5 217.6,102.5 	"/>
	<polygon class="st4" points="256,92.1 259.4,102.5 270.3,102.5 261.5,109 264.9,119.4 256,112.9 247.1,119.4 250.5,109 
		241.6,102.5 252.6,102.5 	"/>
	<polygon class="st4" points="291,92.1 294.4,102.5 305.4,102.5 296.5,109 299.9,119.4 291,112.9 282.1,119.4 285.5,109 
		276.6,102.5 287.6,102.5 	"/>
	<polygon class="st4" points="326,92.1 329.4,102.5 340.4,102.5 331.5,109 334.9,119.4 326,112.9 317.1,119.4 320.5,109 
		311.7,102.5 322.6,102.5 	"/>
	<polygon class="st4" points="256,55.7 259.4,66.1 270.3,66.1 261.5,72.5 264.9,83 256,76.5 247.1,83 250.5,72.5 241.6,66.1 
		252.6,66.1 	"/>
	<polygon class="st4" points="291,55.7 294.4,66.1 305.4,66.1 296.5,72.5 299.9,83 291,76.5 282.1,83 285.5,72.5 276.6,66.1 
		287.6,66.1 	"/>
	<polygon class="st4" points="326,55.7 329.4,66.1 340.4,66.1 331.5,72.5 334.9,83 326,76.5 317.1,83 320.5,72.5 311.7,66.1 
		322.6,66.1 	"/>
</g>
</svg>
