<?xml version="1.0" encoding="utf-8"?>
<!-- Generator: Adobe Illustrator 24.1.0, SVG Export Plug-In . SVG Version: 6.00 Build 0)  -->
<svg version="1.1" id="Layer_1" xmlns="http://www.w3.org/2000/svg" xmlns:xlink="http://www.w3.org/1999/xlink" x="0px" y="0px"
	 viewBox="0 0 512 512" style="enable-background:new 0 0 512 512;" xml:space="preserve">
<style type="text/css">
	.st0{fill:#1E2834;}
	.st1{fill:#F0F0F0;}
	.st2{fill:#D2332B;}
	.st3{fill:#76923B;}
	.st4{fill:#FECF0A;}
</style>
<path class="st0" d="M512,256c0-11.3-0.7-22.5-2.2-33.4H222.6C170.3,170.3,75,75,75,75C-25,175-25,337,75,437l147.6-147.6h287.2
	C511.3,278.5,512,267.3,512,256z"/>
<g>
	<path class="st1" d="M511.9,261.8c0,0.5,0,1,0,1.5C511.9,262.8,511.9,262.3,511.9,261.8z"/>
	<path class="st1" d="M511.7,268.8c0,0.5-0.1,1-0.1,1.5C511.6,269.8,511.7,269.3,511.7,268.8z"/>
	<path class="st1" d="M511.3,274.4c-0.1,0.7-0.1,1.4-0.2,2.2C511.2,275.8,511.3,275.1,511.3,274.4z"/>
	<path class="st1" d="M510.5,228.1c0.1,0.9,0.2,1.7,0.3,2.6C510.7,229.8,510.6,229,510.5,228.1z"/>
	<path class="st1" d="M511.6,241.7c0,0.5,0.1,1,0.1,1.5C511.7,242.7,511.6,242.2,511.6,241.7z"/>
	<path class="st1" d="M511.9,248.7c0,0.5,0,1,0,1.5C511.9,249.7,511.9,249.2,511.9,248.7z"/>
	<path class="st1" d="M511.2,235.4c0.1,0.7,0.1,1.4,0.2,2.2C511.3,236.9,511.2,236.2,511.2,235.4z"/>
</g>
<path class="st2" d="M509.8,222.6c0.1,0.9,0.2,1.8,0.3,2.6C495,98.4,387,0,256,0C185.3,0,121.3,28.7,75,75l147.6,147.6H509.8
	L509.8,222.6z"/>
<path class="st3" d="M509.8,289.4H222.6L75,437c46.3,46.3,110.3,75,181,75c131,0,239-98.4,254.2-225.2
	C510,287.6,509.9,288.5,509.8,289.4z"/>
<path class="st1" d="M510.8,281.3c-0.1,0.9-0.2,1.7-0.3,2.6C510.6,283,510.7,282.2,510.8,281.3z"/>
<path d="M511.3,237.6c0.1,1.4,0.2,2.7,0.3,4.1C511.5,240.3,511.4,239,511.3,237.6z"/>
<path d="M510.2,225.2c0.1,0.9,0.2,1.9,0.3,2.9C510.4,227.1,510.3,226.2,510.2,225.2z"/>
<path d="M510.8,230.7c0.2,1.6,0.3,3.2,0.4,4.8C511.1,233.9,510.9,232.3,510.8,230.7z"/>
<path d="M512,256c0,1.9,0,3.9-0.1,5.8C512,259.9,512,257.9,512,256z"/>
<path d="M511.6,270.3c-0.1,1.4-0.2,2.7-0.3,4.1C511.4,273,511.5,271.7,511.6,270.3z"/>
<path d="M511.2,276.6c-0.1,1.6-0.3,3.2-0.4,4.8C510.9,279.7,511.1,278.2,511.2,276.6z"/>
<path d="M510.5,283.9c-0.1,1-0.2,1.9-0.3,2.9C510.3,285.8,510.4,284.9,510.5,283.9z"/>
<path d="M511.9,250.2c0,1.9,0.1,3.9,0.1,5.8C512,254.1,512,252.1,511.9,250.2z"/>
<path d="M511.7,243.2c0.1,1.8,0.2,3.7,0.2,5.5C511.8,246.9,511.8,245,511.7,243.2z"/>
<path d="M511.9,263.3c-0.1,1.8-0.1,3.7-0.2,5.5C511.8,267,511.8,265.1,511.9,263.3z"/>
<g>
	<path class="st4" d="M511.8,244.8H213.2L59.8,91.4c-5,5.2-10.3,12.5-13.7,17.7l146.7,146.7L46.1,402.7c2.9,5.2,9.2,12.8,13.7,17.8
		L213.2,267h298.6c0.2-3.7,0.2-7.4,0.2-11.1C512,250.9,511.9,247.2,511.8,244.8z"/>
	<path class="st4" d="M62.2,310.6v-21.4c21.4,0,38.8-17.4,38.8-38.8c0-15.1-12.3-27.5-27.5-27.5c-10.3,0-18.7,8.4-18.7,18.7
		c0,6.6,5.4,12,12,12c3.7,0,6.8-3,6.8-6.8H95c0,15.6-12.7,28.2-28.2,28.2c-18.4,0-33.4-15-33.4-33.4c0-22.1,18-40.1,40.1-40.1
		c27,0,48.9,21.9,48.9,48.9C122.4,283.5,95.4,310.6,62.2,310.6z"/>
</g>
</svg>
