<?xml version="1.0" encoding="utf-8"?>
<!-- Generator: Adobe Illustrator 24.1.0, SVG Export Plug-In . SVG Version: 6.00 Build 0)  -->
<svg version="1.1" id="Layer_1" xmlns="http://www.w3.org/2000/svg" xmlns:xlink="http://www.w3.org/1999/xlink" x="0px" y="0px"
	 viewBox="0 0 512 512" style="enable-background:new 0 0 512 512;" xml:space="preserve">
<style type="text/css">
	.st0{fill:#FFF8F3;}
	.st1{fill:#FECF0A;}
	.st2{fill:#ACABB1;}
</style>
<path class="st0" d="M256,0c141.4,0,256,114.6,256,256S397.4,512,256,512c0-11.1-33.4-256-33.4-256L256,0z"/>
<path class="st1" d="M256,512C114.6,512,0,397.4,0,256S114.6,0,256,0"/>
<path class="st2" d="M354,222.8l48.1,63.6c-7.6,11.5-7.5,26.9,1.2,38.5c11.1,14.7,32.1,17.6,46.8,6.5c14.7-11.1,17.6-32.1,6.5-46.8
	c-8.8-11.6-23.6-15.9-36.7-11.7l-75-99.2l-17.8,13.4l-26.6,20.1l26.8,35.5L354,222.8z M423.3,295.9c4.9-3.7,11.9-2.7,15.6,2.2
	c3.7,4.9,2.7,11.9-2.2,15.6c-4.9,3.7-11.9,2.7-15.6-2.2C417.4,306.6,418.4,299.6,423.3,295.9z"/>
<path class="st1" d="M436.5,242.9l26.8-35.5l-26.6-20.1L419,173.8L344,273c-13.1-4.2-28,0.1-36.7,11.7c-11.1,14.7-8.2,35.7,6.5,46.8
	c14.7,11.1,35.7,8.2,46.8-6.5c8.8-11.6,8.8-27.1,1.2-38.5l48.1-63.6L436.5,242.9z M342.8,311.5c-3.7,4.9-10.7,5.9-15.6,2.2
	c-4.9-3.7-5.9-10.7-2.2-15.6c3.7-4.9,10.7-5.9,15.6-2.2C345.5,299.6,346.5,306.6,342.8,311.5z"/>
</svg>
