<?xml version="1.0" encoding="utf-8"?>
<!-- Generator: Adobe Illustrator 24.1.0, SVG Export Plug-In . SVG Version: 6.00 Build 0)  -->
<svg version="1.1" id="Layer_1" xmlns="http://www.w3.org/2000/svg" xmlns:xlink="http://www.w3.org/1999/xlink" x="0px" y="0px"
	 viewBox="0 0 512 512" style="enable-background:new 0 0 512 512;" xml:space="preserve">
<style type="text/css">
	.st0{fill:#006289;}
	.st1{fill:#D2332B;}
	.st2{fill:#F0F0F0;}
	.st3{fill:#FECF0A;}
</style>
<path class="st0" d="M486.6,367.3C502.9,333.6,512,295.9,512,256s-9.1-77.6-25.4-111.3L256,122.4L25.4,144.7
	C9.1,178.4,0,216.1,0,256s9.1,77.6,25.4,111.3L256,389.6L486.6,367.3z"/>
<path class="st1" d="M256,512c101.5,0,189.2-59.1,230.6-144.7H25.4C66.8,452.9,154.5,512,256,512z"/>
<g>
	<polygon class="st2" points="443.4,306.3 429.8,316.8 435.7,332.9 421.5,323.3 408,333.9 412.7,317.4 398.5,307.8 415.6,307.2 
		420.3,290.7 426.2,306.9 	"/>
	<polygon class="st2" points="408.7,246.3 399.6,260.8 410.7,274 394,269.8 384.9,284.4 383.7,267.3 367.1,263.1 383,256.7 
		381.8,239.6 392.8,252.7 	"/>
	<polygon class="st2" points="355.7,201.8 352.1,218.6 367,227.1 349.9,228.9 346.4,245.7 339.4,230 322.3,231.8 335.1,220.3 
		328.1,204.7 342.9,213.3 	"/>
	<polygon class="st2" points="290.6,178.1 293,195.1 309.9,198.1 294.5,205.6 296.9,222.6 285,210.2 269.5,217.8 277.6,202.6 
		265.7,190.3 282.6,193.2 	"/>
	<polygon class="st2" points="221.4,178.1 229.4,193.2 246.3,190.3 234.4,202.6 242.5,217.8 227,210.2 215.1,222.6 217.5,205.6 
		202.1,198.1 219,195.1 	"/>
	<polygon class="st2" points="156.3,201.8 169.1,213.3 183.9,204.7 176.9,220.4 189.7,231.8 172.6,230 165.6,245.7 162.1,228.9 
		145,227.1 159.9,218.6 	"/>
	<polygon class="st2" points="103.3,246.3 119.2,252.7 130.2,239.6 129,256.7 144.9,263.1 128.3,267.3 127.1,284.4 118,269.8 
		101.3,274 112.4,260.8 	"/>
	<polygon class="st2" points="68.6,306.3 85.8,306.9 91.7,290.7 96.4,307.2 113.5,307.8 99.3,317.4 104,333.9 90.5,323.3 
		76.3,332.9 82.2,316.8 	"/>
</g>
<path class="st3" d="M486.6,144.7C445.2,59.1,357.5,0,256,0C154.5,0,66.8,59.1,25.4,144.7H486.6z"/>
</svg>
