<?xml version="1.0" encoding="utf-8"?>
<!-- Generator: Adobe Illustrator 24.1.0, SVG Export Plug-In . SVG Version: 6.00 Build 0)  -->
<svg version="1.1" id="Layer_1" xmlns="http://www.w3.org/2000/svg" xmlns:xlink="http://www.w3.org/1999/xlink" x="0px" y="0px"
	 viewBox="0 0 512 512" style="enable-background:new 0 0 512 512;" xml:space="preserve">
<style type="text/css">
	.st0{fill:#FFF8F3;}
	.st1{fill:#FECF0A;}
	.st2{fill:#F0F0F0;}
	.st3{fill:#0C8DB0;}
	.st4{fill:#D2332B;}
</style>
<circle class="st0" cx="256" cy="256" r="256"/>
<g>
	<path class="st1" d="M299.5,178.8c0-24-19.5-43.5-43.5-43.5s-43.5,19.5-43.5,43.5h-95.7c0,23.6,20.6,42.8,44.2,42.8h-1.4
		c0,23.6,19.2,42.8,42.8,42.8c0,20.9,15,38.3,34.9,42l-0.1,0.2h37.5l-0.1-0.2c19.9-3.7,34.9-21.1,34.9-42
		c23.6,0,42.8-19.2,42.8-42.8h-1.4c23.6,0,44.2-19.2,44.2-42.8L299.5,178.8L299.5,178.8z"/>
	<path class="st1" d="M236.9,302.3l-27,60.9c14.2,5.8,29.8,9,46.1,9s31.8-3.2,46.1-9l-27-60.9H236.9z"/>
</g>
<path class="st2" d="M200.3,200.2v74.9c0,42.6,55.7,55.7,55.7,55.7s55.7-13.1,55.7-55.7v-74.9L200.3,200.2L200.3,200.2z"/>
<g>
	<path class="st3" d="M62.1,257.8L92.2,342l29.8-84.2h22.7l-43.4,111.3H83.1L39.3,257.8H62.1L62.1,257.8z"/>
	<path class="st3" d="M411.8,369.1V257.8h21.6v111.3L411.8,369.1L411.8,369.1z"/>
</g>
<g>
	<path class="st4" d="M222.6,224.4v90.8c7.7,5.6,15.9,9.5,22.3,12V224.4H222.6z"/>
	<path class="st4" d="M289.4,224.4v90.8c-7.7,5.6-15.9,9.5-22.3,12V224.4H289.4z"/>
</g>
<rect x="200.3" y="200.2" class="st3" width="111.3" height="35.3"/>
</svg>
