<?xml version="1.0" encoding="utf-8"?>
<!-- Generator: Adobe Illustrator 24.1.0, SVG Export Plug-In . SVG Version: 6.00 Build 0)  -->
<svg version="1.1" id="Layer_1" xmlns="http://www.w3.org/2000/svg" xmlns:xlink="http://www.w3.org/1999/xlink" x="0px" y="0px"
	 viewBox="0 0 512 512" style="enable-background:new 0 0 512 512;" xml:space="preserve">
<style type="text/css">
	.st0{fill:#FFF8F3;}
	.st1{fill:#76923B;}
	.st2{fill:#D2332B;}
</style>
<circle class="st0" cx="256" cy="256" r="256"/>
<path class="st1" d="M512,256c0,141.4-114.6,256-256,256S0,397.4,0,256"/>
<path class="st2" d="M443,178.1c-9.2-26-33.9-44.6-63-44.6h-57.2c-36.9,0-66.8,29.9-66.8,66.8c0,12.1,3.2,23.6,8.8,33.4
	c-21.3-0.2-40.9,0.1-53.3,0c0-25.8,0-58.6,0-65.4l2.6-2.6c11.8-11.8,7.9-31.5,7.9-31.5s-19.7-3.9-31.5,7.9l-13.8,13.8h-15.3
	c-33.8,0-61.2,27.4-61.2,61.2h44.5v50.1c0,7.3,1.5,14.3,4.1,20.7l-15.3,12.7h-22.3v-22.3H89v44.5h100.2v44.5H167v22.3h44.5V345
	l20.4-24.5h48.2l20.4,24.5v22.3h-22.3v22.3h89V267.1c0-18.4,15-33.4,33.4-33.4c0.5,0,0.9,0,1.4,0c-0.9-3.6-1.4-7.3-1.4-11.2
	C400.7,198.8,419.4,179.3,443,178.1z M322.8,367.3v-46.7h1.9L345,345v22.3L322.8,367.3L322.8,367.3z"/>
</svg>
