<?xml version="1.0" encoding="utf-8"?>
<!-- Generator: Adobe Illustrator 24.1.0, SVG Export Plug-In . SVG Version: 6.00 Build 0)  -->
<svg version="1.1" id="Layer_1" xmlns="http://www.w3.org/2000/svg" xmlns:xlink="http://www.w3.org/1999/xlink" x="0px" y="0px"
	 viewBox="0 0 512 512" style="enable-background:new 0 0 512 512;" xml:space="preserve">
<style type="text/css">
	.st0{fill:#FFF8F3;}
	.st1{fill:#76923B;}
	.st2{fill:#1E2834;}
	.st3{fill:#D2332B;}
</style>
<path class="st0" d="M25.4,144.7C9.1,178.4,0,216.1,0,256s9.1,77.6,25.4,111.3L256,389.6l230.6-22.3C502.9,333.6,512,295.9,512,256
	s-9.1-77.6-25.4-111.3L256,122.4L25.4,144.7z"/>
<path class="st1" d="M25.4,367.3C66.8,452.9,154.5,512,256,512s189.2-59.1,230.6-144.7H25.4L25.4,367.3z"/>
<path class="st2" d="M25.4,144.7h461.2C445.2,59.1,357.5,0,256,0S66.8,59.1,25.4,144.7z"/>
<g>
	<path class="st3" d="M75,75C-25,175-25,337,75,437c41.3-41.3,81-81,181-181L75,75z"/>
	<path class="st3" d="M322.8,256c0-37.3,26.2-68.5,61.2-76.1c-5.4-1.2-11-1.8-16.7-1.8c-43,0-77.9,34.9-77.9,77.9
		s34.9,77.9,77.9,77.9c5.7,0,11.3-0.6,16.7-1.8C349,324.5,322.8,293.3,322.8,256z"/>
	<polygon class="st3" points="387.3,205.9 398.3,239.9 434.1,239.9 405.2,260.9 416.2,295 387.3,273.9 358.3,295 369.4,260.9 
		340.5,239.9 376.2,239.9 	"/>
</g>
</svg>
