<svg width="85" height="24" viewBox="0 0 85 24" fill="none" xmlns="http://www.w3.org/2000/svg">
<g clip-path="url(#clip0_1_271)">
<path fill-rule="evenodd" clip-rule="evenodd" d="M5.00992 3.65998L8.10142 12.1837L11.3407 3.65998H15.9389L8.07592 23.3985H3.52792L5.85367 17.2822L0.263916 3.65998H5.00992ZM53.5777 3.35773C57.7297 3.35773 60.7574 6.57973 60.7574 10.9897C60.7574 15.3997 57.7297 18.6225 53.5777 18.6225C52.0454 18.6225 50.7554 18.2167 49.7707 17.4345L49.7069 17.3827L49.6522 17.3377V23.394H45.2212V3.65998H49.1392V5.13523L49.1617 5.10973C50.1269 4.00873 51.5872 3.39973 53.3917 3.35998L53.4869 3.35848H53.5777V3.35773ZM24.0097 3.35773C28.5817 3.35773 31.8224 6.51673 31.8224 10.9897C31.8224 15.444 28.5712 18.6225 24.0097 18.6225C19.4227 18.6225 16.1662 15.4485 16.1662 10.9897C16.1662 6.51223 19.4114 3.35773 24.0097 3.35773V3.35773ZM39.2047 0.412476V3.65998H42.8497V7.48723H39.2047V12.7702C39.2047 13.9522 39.7784 14.6025 40.8239 14.6422L40.8749 14.643L40.9267 14.6437C41.6354 14.6437 42.1724 14.4577 42.6532 13.9957L42.6982 13.9515L42.8174 13.8292H42.8504V18.051L42.7147 18.1162C41.9849 18.465 41.5357 18.6225 40.2922 18.6225C36.7792 18.6225 34.8502 16.71 34.7752 13.1385L34.7737 13.0297V12.921L34.7729 7.48723H33.1694V3.65998H34.8937V0.412476H39.2039H39.2047ZM70.4399 3.35773C75.0119 3.35773 78.2527 6.51673 78.2527 10.9897C78.2527 15.444 75.0014 18.6225 70.4399 18.6225C65.8529 18.6225 62.5964 15.4485 62.5964 10.9897C62.5964 6.51223 65.8424 3.35773 70.4399 3.35773V3.35773ZM81.8647 13.7662C83.2057 13.7662 84.2924 14.8537 84.2924 16.194C84.2924 17.535 83.2049 18.6225 81.8647 18.6225C80.5237 18.6225 79.4369 17.535 79.4369 16.194C79.4369 14.853 80.5244 13.7662 81.8647 13.7662V13.7662ZM52.9139 7.33648C50.9174 7.33648 49.5614 8.81398 49.5614 10.9897C49.5614 13.1662 50.9174 14.6437 52.9139 14.6437C54.9359 14.6437 56.2964 13.1707 56.2964 10.9897C56.2964 8.80948 54.9359 7.33648 52.9139 7.33648V7.33648ZM24.0089 7.33648C22.0064 7.33648 20.6272 8.82148 20.6272 10.9897C20.6272 13.1587 22.0064 14.6437 24.0097 14.6437C25.9867 14.6437 27.3622 13.1542 27.3622 10.9897C27.3622 8.82598 25.9867 7.33648 24.0097 7.33648H24.0089ZM70.4399 7.33648C68.4374 7.33648 67.0574 8.82148 67.0574 10.9897C67.0574 13.1587 68.4374 14.6437 70.4399 14.6437C72.4169 14.6437 73.7924 13.1542 73.7924 10.9897C73.7924 8.82598 72.4169 7.33648 70.4399 7.33648V7.33648Z" fill="white"/>
</g>
<defs>
<clipPath id="clip0_1_271">
<rect width="84.75" height="24" fill="white"/>
</clipPath>
</defs>
</svg>
