<?xml version="1.0" encoding="utf-8"?>
<!-- Generator: Adobe Illustrator 24.1.0, SVG Export Plug-In . SVG Version: 6.00 Build 0)  -->
<svg version="1.1" id="Layer_1" xmlns="http://www.w3.org/2000/svg" xmlns:xlink="http://www.w3.org/1999/xlink" x="0px" y="0px"
	 viewBox="0 0 512 512" style="enable-background:new 0 0 512 512;" xml:space="preserve">
<style type="text/css">
	.st0{fill:#76923B;}
	.st1{fill:#D2332B;}
	.st2{fill:#F58220;}
	.st3{fill:#1E2834;}
</style>
<circle class="st0" cx="256" cy="256" r="256"/>
<path class="st1" d="M356.2,256H256v256c29.9,0,58.6-5.2,85.3-14.6L356.2,256z"/>
<path class="st2" d="M426.7,446.8C479,399.9,512,331.8,512,256H411.8L426.7,446.8z"/>
<path class="st3" d="M341.3,256v241.4c31.8-11.2,60.7-28.6,85.3-50.6V256H341.3z"/>
<path class="st2" d="M473,167h-66.8c0-12.3-10-22.3-22.3-22.3s-22.3,10-22.3,22.3H295c0,12.3,10.7,22.3,23,22.3h-0.7
	c0,12.3,10,22.3,22.3,22.3c0,12.3,10,22.3,22.3,22.3h44.5c12.3,0,22.3-10,22.3-22.3c12.3,0,22.3-10,22.3-22.3h-1
	C462.3,189.2,473,179.3,473,167z"/>
</svg>
