<?xml version="1.0" encoding="utf-8"?>
<!-- Generator: Adobe Illustrator 24.1.0, SVG Export Plug-In . SVG Version: 6.00 Build 0)  -->
<svg version="1.1" id="Layer_1" xmlns="http://www.w3.org/2000/svg" xmlns:xlink="http://www.w3.org/1999/xlink" x="0px" y="0px"
	 viewBox="0 0 512 512" style="enable-background:new 0 0 512 512;" xml:space="preserve">
<style type="text/css">
	.st0{fill:#F0F0F0;}
	.st1{fill:#FFC60A;}
	.st2{fill:#1E2834;}
	.st3{fill:#76923B;}
	.st4{fill:#F2442F;}
</style>
<circle class="st0" cx="256" cy="256" r="256"/>
<g>
	<path class="st1" d="M487.5,146.6c-13-27.5-30.8-52.3-52.2-73.3L256,55.7L76.7,73.3c-0.6,0.6-1.1,1.1-1.7,1.7l71.6,71.6l109.4,3.3
		L487.5,146.6z"/>
	<path class="st1" d="M75,437c0.9,0.9,1.9,1.9,2.8,2.8L256,456.3l178.2-16.5c21.7-21,39.6-45.8,52.8-73.3l-331.2-10.3
		C127.3,384.7,94.5,417.5,75,437z"/>
</g>
<path class="st2" d="M509.5,219.9l-298-8.4L256,256c-13.2,13.2-32.9,32.9-44.5,44.5l297.8-7.3c1.8-12.1,2.7-24.6,2.7-37.2
	C512,243.7,511.1,231.7,509.5,219.9z"/>
<path class="st3" d="M256,0C186.2,0,122.9,28,76.7,73.3h358.6C389.1,28,325.8,0,256,0z"/>
<g>
	<path class="st4" d="M219.9,219.9h289.5c-3.7-25.9-11.2-50.5-22-73.3H146.6L219.9,219.9z"/>
	<path class="st4" d="M145.5,366.5H487c10.9-22.8,18.5-47.4,22.3-73.3H218.8C190.4,321.6,166.3,345.7,145.5,366.5z"/>
</g>
<path class="st3" d="M256,512c69.3,0,132.1-27.5,178.2-72.2H77.8C123.9,484.5,186.7,512,256,512z"/>
<path class="st2" d="M91.4,59.9c-5.7,4.8-11.2,9.8-16.4,15l181,181L75,437c5.3,5.3,10.7,10.3,16.4,15l196.1-196L91.4,59.9z"/>
<polygon class="st4" points="102.9,189.2 119.5,240.2 173.1,240.2 129.7,271.8 146.3,322.8 102.9,291.3 59.5,322.8 76.1,271.8 
	32.7,240.2 86.3,240.2 "/>
<path class="st1" d="M148.5,260.2l-43.2-15.3c0,0-3.2-29.9-3.4-31c-1.5-7.7-8.3-13.6-16.4-13.6c-9.2,0-16.7,7.5-16.7,16.7
	c0,1.5,0.2,3,0.6,4.4l-12.1,12.2c0,0,14.4,0,21.5,0c0,22.4-16.7,22.4-16.7,44.6l9.3,22.3h55.7l9.3-22.3l0,0c0.9-2.1,1.5-4.3,1.7-6.5
	C146.1,268.5,148.5,260.2,148.5,260.2z"/>
</svg>
